<?xml version="1.0" encoding="utf-8"?>
<!-- Generator: Adobe Illustrator 17.1.0, SVG Export Plug-In . SVG Version: 6.00 Build 0)  -->
<!DOCTYPE svg PUBLIC "-//W3C//DTD SVG 1.0//EN" "http://www.w3.org/TR/2001/REC-SVG-20010904/DTD/svg10.dtd">
<svg version="1.0" id="Layer_1" xmlns="http://www.w3.org/2000/svg" xmlns:xlink="http://www.w3.org/1999/xlink" x="0px" y="0px"
	 viewBox="0 0 50 50" style="enable-background:new 0 0 50 50;" xml:space="preserve">
<path d="M26,25h6v2h-6v6h-2v-6h-6v-2h6v-6h2V25z M36.399,30.956l3.651,17.043L25,39.256L9.949,47.999l3.652-17.043L0.537,19.221
	l17.385-1.661L25,1.523l7.079,16.037l17.384,1.661L36.399,30.956z M34.2,30.243l10.536-9.464L30.722,19.44L25,6.477L19.278,19.44
	L5.263,20.779l10.536,9.464l-2.948,13.758L25,36.943l12.148,7.058L34.2,30.243z"/>
</svg>
