<?xml version="1.0" encoding="utf-8"?>
<!-- Generator: Adobe Illustrator 17.0.2, SVG Export Plug-In . SVG Version: 6.00 Build 0)  -->
<!DOCTYPE svg PUBLIC "-//W3C//DTD SVG 1.0//EN" "http://www.w3.org/TR/2001/REC-SVG-20010904/DTD/svg10.dtd">
<svg version="1.0" id="Layer_1" xmlns="http://www.w3.org/2000/svg" xmlns:xlink="http://www.w3.org/1999/xlink" x="0px" y="0px"
	 width="50px" height="50px" viewBox="0 0 50 50" style="enable-background:new 0 0 50 50;" xml:space="preserve">
<path d="M47.154,29h-8.362c0.167-0.452,0.322-0.888,0.444-1.266l5.934-1.041c0.479-0.084,0.827-0.5,0.827-0.985v-5.5
	c0-0.49-0.355-0.908-0.839-0.987l-5.909-0.965c-0.346-1.186-0.818-2.327-1.411-3.406l3.449-4.917
	c0.279-0.397,0.232-0.938-0.111-1.282l-3.889-3.887c-0.347-0.346-0.893-0.389-1.291-0.104l-4.844,3.481
	c-1.089-0.603-2.239-1.081-3.432-1.427l-1.031-5.887C26.605,0.349,26.189,0,25.704,0h-5.5c-0.49,0-0.908,0.355-0.987,0.839
	l-0.956,5.854c-1.203,0.346-2.354,0.818-3.437,1.412l-4.829-3.45C9.597,4.37,9.053,4.415,8.707,4.76L4.818,8.647
	C4.475,8.991,4.427,9.53,4.706,9.928l3.4,4.862c-0.605,1.096-1.087,2.255-1.439,3.46l-5.831,0.971C0.354,19.302,0,19.719,0,20.208
	v5.5c0,0.485,0.348,0.9,0.826,0.984l5.83,1.033c0.349,1.203,0.831,2.363,1.438,3.461l-3.44,4.812
	c-0.284,0.398-0.239,0.943,0.106,1.289l3.888,3.891c0.344,0.343,0.884,0.391,1.281,0.112l4.869-3.411
	c1.093,0.602,2.248,1.078,3.445,1.424l0.975,5.861C19.298,45.646,19.715,46,20.204,46h5.5c0.103,0,0.201-0.022,0.296-0.052V49
	c0,0.553,0.447,1,1,1h22c0.553,0,1-0.447,1-1V34v-1v-1.154C50,30.276,48.724,29,47.154,29z M48,31.846V32H28v-0.154
	C28,31.379,28.379,31,28.846,31h18.309C47.621,31,48,31.379,48,31.846z M22.998,29.333c-3.492,0-6.333-2.841-6.333-6.333
	s2.841-6.333,6.333-6.333s6.333,2.841,6.333,6.333S26.49,29.333,22.998,29.333z M24.884,44h-3.832l-0.941-5.661
	c-0.065-0.395-0.359-0.711-0.747-0.807c-1.446-0.356-2.826-0.926-4.103-1.694c-0.337-0.201-0.765-0.188-1.089,0.038L9.469,39.17
	l-2.696-2.697l3.323-4.647c0.232-0.326,0.249-0.759,0.042-1.101c-0.775-1.279-1.351-2.663-1.71-4.113
	c-0.095-0.384-0.407-0.676-0.796-0.744L2,24.87v-3.814l5.628-0.937c0.393-0.065,0.709-0.357,0.806-0.744
	c0.363-1.454,0.939-2.839,1.712-4.118c0.205-0.339,0.19-0.766-0.037-1.09L6.825,9.469l2.697-2.695l4.662,3.331
	c0.325,0.233,0.756,0.25,1.097,0.043c1.262-0.759,2.642-1.326,4.102-1.685c0.389-0.096,0.684-0.415,0.748-0.81L21.054,2h3.81
	l0.996,5.686c0.068,0.389,0.36,0.702,0.744,0.797c1.439,0.358,2.815,0.931,4.089,1.702c0.342,0.208,0.776,0.19,1.102-0.043
	l4.679-3.362l2.694,2.692l-3.332,4.75c-0.228,0.323-0.242,0.75-0.039,1.089c0.759,1.264,1.326,2.633,1.686,4.071
	c0.097,0.387,0.414,0.68,0.809,0.744l5.706,0.932v3.81l-5.718,1.003c-0.39,0.068-0.702,0.36-0.798,0.744
	c-0.135,0.542-0.529,1.605-0.825,2.385h-7.81c-0.031,0-0.059,0.008-0.09,0.009c1.583-1.518,2.575-3.648,2.575-6.009
	c0-4.595-3.738-8.333-8.333-8.333S14.665,18.405,14.665,23s3.738,8.333,8.333,8.333c1.159,0,2.263-0.239,3.266-0.668
	C26.099,31.025,26,31.423,26,31.846V33v1v4.397L24.884,44z M48,48H28V34h20V48z M37,39.586L38.414,41l-5.361,5.361l-3.463-2.965
	l1.301-1.52l2.057,1.762L37,39.586z M33.053,41.361l-3.463-2.965l1.301-1.52l2.057,1.762L37,34.586L38.414,36L33.053,41.361z"/>
</svg>
