<?xml version="1.0" encoding="utf-8"?>
<!-- Generator: Adobe Illustrator 17.0.2, SVG Export Plug-In . SVG Version: 6.00 Build 0)  -->
<!DOCTYPE svg PUBLIC "-//W3C//DTD SVG 1.0//EN" "http://www.w3.org/TR/2001/REC-SVG-20010904/DTD/svg10.dtd">
<svg version="1.0" id="Layer_1" xmlns="http://www.w3.org/2000/svg" xmlns:xlink="http://www.w3.org/1999/xlink" x="0px" y="0px"
	 width="50px" height="50px" viewBox="0 0 50 50" style="enable-background:new 0 0 50 50;" xml:space="preserve">
<g>
	<path d="M49.707,24.293l-10-10c-0.391-0.391-1.023-0.391-1.414,0s-0.391,1.023,0,1.414L46.586,24H18h-1h-1v2h1h1h28.586
		l-8.293,8.293c-0.391,0.391-0.391,1.023,0,1.414C38.488,35.902,38.744,36,39,36s0.512-0.098,0.707-0.293l10-10
		C50.098,25.316,50.098,24.684,49.707,24.293z"/>
	<rect y="24" width="2" height="2"/>
	<rect x="4" y="24" width="2" height="2"/>
	<rect x="8" y="24" width="2" height="2"/>
	<rect x="12" y="24" width="2" height="2"/>
</g>
</svg>
