<?xml version="1.0" encoding="utf-8"?>
<!-- Generator: Adobe Illustrator 17.0.2, SVG Export Plug-In . SVG Version: 6.00 Build 0)  -->
<!DOCTYPE svg PUBLIC "-//W3C//DTD SVG 1.0//EN" "http://www.w3.org/TR/2001/REC-SVG-20010904/DTD/svg10.dtd">
<svg version="1.0" id="Layer_1" xmlns="http://www.w3.org/2000/svg" xmlns:xlink="http://www.w3.org/1999/xlink" x="0px" y="0px"
	 width="50px" height="50px" viewBox="0 0 50 50" style="enable-background:new 0 0 50 50;" xml:space="preserve">
<path d="M44,4h-3V1c0-0.552-0.447-1-1-1H6C5.448,0,5,0.448,5,1v44c0,0.553,0.448,1,1,1h3v3c0,0.553,0.448,1,1,1h34
	c0.553,0,1-0.447,1-1V5C45,4.448,44.553,4,44,4z M7,44V2h32v42H7z M43,48H11v-2h29c0.553,0,1-0.447,1-1V6h2V48z M24.8,32.1V35
	c0,0.2-0.2,0.4-0.4,0.4h-2.7c-0.2,0-0.4-0.2-0.4-0.4v-3c0-0.2,0.2-0.4,0.4-0.4h2.7v0.1C24.6,31.7,24.8,31.9,24.8,32.1z M24.8,10.9
	v17.3c0,0.2-0.2,0.4-0.4,0.4h-2.5c-0.2,0-0.4-0.2-0.4-0.4V10.9c0-0.2,0.2-0.4,0.4-0.4h2.5C24.6,10.5,24.8,10.7,24.8,10.9z"/>
</svg>
