<?xml version="1.0" encoding="utf-8"?>
<!-- Generator: Adobe Illustrator 17.0.2, SVG Export Plug-In . SVG Version: 6.00 Build 0)  -->
<!DOCTYPE svg PUBLIC "-//W3C//DTD SVG 1.0//EN" "http://www.w3.org/TR/2001/REC-SVG-20010904/DTD/svg10.dtd">
<svg version="1.0" id="Layer_1" xmlns="http://www.w3.org/2000/svg" xmlns:xlink="http://www.w3.org/1999/xlink" x="0px" y="0px"
	 width="50px" height="50px" viewBox="0 0 50 50" style="enable-background:new 0 0 50 50;" xml:space="preserve">
<g>
	<path d="M22,43h6c1.794,0,3-1.206,3-3c0-0.553-0.447-1-1-1s-1,0.447-1,1c0,0.881-0.506,1-1,1h-6c-0.52,0-1-0.121-1-1
		c0-0.553-0.448-1-1-1s-1,0.447-1,1C19,41.822,20.178,43,22,43z"/>
	<path d="M39,3H11C8.243,3,6,5.243,6,8v35c0,2.757,2.243,5,5,5h28c2.757,0,5-2.243,5-5V8C44,5.243,41.757,3,39,3z M42,43
		c0,1.654-1.346,3-3,3H11c-1.654,0-3-1.346-3-3v-9h34V43z M42,32H8V19h34V32z M42,17H8V8c0-1.654,1.346-3,3-3h28
		c1.654,0,3,1.346,3,3V17z"/>
	<path d="M30,9c-0.553,0-1,0.448-1,1c0,0.881-0.506,1-1,1h-6c-0.52,0-1-0.121-1-1c0-0.552-0.448-1-1-1s-1,0.448-1,1
		c0,1.822,1.178,3,3,3h6c1.794,0,3-1.206,3-3C31,9.448,30.553,9,30,9z"/>
	<path d="M22,29h6c1.794,0,3-1.206,3-3c0-0.553-0.447-1-1-1s-1,0.447-1,1c0,0.881-0.506,1-1,1h-6c-0.52,0-1-0.121-1-1
		c0-0.553-0.448-1-1-1s-1,0.447-1,1C19,27.822,20.178,29,22,29z"/>
</g>
</svg>
