<?xml version="1.0" encoding="utf-8"?>
<!-- Generator: Adobe Illustrator 17.1.0, SVG Export Plug-In . SVG Version: 6.00 Build 0)  -->
<!DOCTYPE svg PUBLIC "-//W3C//DTD SVG 1.0//EN" "http://www.w3.org/TR/2001/REC-SVG-20010904/DTD/svg10.dtd">
<svg version="1.0" id="Layer_1" xmlns="http://www.w3.org/2000/svg" xmlns:xlink="http://www.w3.org/1999/xlink" x="0px" y="0px"
	 viewBox="0 0 50 50" style="enable-background:new 0 0 50 50;" xml:space="preserve">
<path d="M25.2,0C11.525,0,0.4,9.914,0.4,22.1c0,5.857,2.547,11.356,7.184,15.537c-0.301,5.09-4.371,8.075-6.356,9.532
	c-0.369,0.271-0.671,0.494-0.878,0.671c-0.282,0.241-0.407,0.619-0.325,0.98c0.082,0.361,0.357,0.648,0.715,0.745
	c1.061,0.286,2.227,0.431,3.465,0.431c5.716,0,12.405-3.084,16.277-6.229c1.661,0.288,3.247,0.434,4.719,0.434
	c13.675,0,24.8-9.914,24.8-22.1S38.875,0,25.2,0z M25.2,42.2c-1.486,0-3.106-0.162-4.816-0.482
	c-0.296-0.057-0.603,0.025-0.833,0.222c-3.439,2.937-9.987,6.057-15.347,6.057c-0.245,0-0.486-0.006-0.723-0.019
	c2.383-1.86,6.039-5.318,6.119-10.763c0.004-0.295-0.122-0.577-0.345-0.771C4.834,32.613,2.4,27.519,2.4,22.1
	C2.4,11.017,12.628,2,25.2,2S48,11.017,48,22.1C48,33.184,37.772,42.2,25.2,42.2z M23.5,30.3h2.7v2.9h-2.7V30.3z M29.6,14.2
	c1.1,1,1.7,2.4,1.7,4c0,1-0.2,1.8-0.6,2.4c-0.4,0.6-1.2,1.5-2.5,2.7c-0.9,0.9-1.5,1.6-1.8,2.2C26.1,26,26,26.8,26,28h-2.5
	c0-1.3,0.2-2.4,0.5-3.2c0.3-0.8,1-1.7,2.1-2.8l1.1-1.1c0.3-0.3,0.6-0.6,0.8-1c0.4-0.6,0.6-1.2,0.6-1.9c0-0.9-0.3-1.7-0.8-2.3
	c-0.5-0.7-1.5-1-2.7-1c-1.6,0-2.7,0.6-3.3,1.7c-0.3,0.6-0.5,1.6-0.6,2.7h-2.5c0.1-1.9,0.6-3.5,1.8-4.7h0c1.1-1.2,2.7-1.8,4.7-1.8
	C27,12.6,28.5,13.1,29.6,14.2z"/>
</svg>
