<?xml version="1.0" encoding="utf-8"?>
<!-- Generator: Adobe Illustrator 17.0.2, SVG Export Plug-In . SVG Version: 6.00 Build 0)  -->
<!DOCTYPE svg PUBLIC "-//W3C//DTD SVG 1.0//EN" "http://www.w3.org/TR/2001/REC-SVG-20010904/DTD/svg10.dtd">
<svg version="1.0" id="Layer_1" xmlns="http://www.w3.org/2000/svg" xmlns:xlink="http://www.w3.org/1999/xlink" x="0px" y="0px"
	 width="50px" height="50px" viewBox="0 0 50 50" style="enable-background:new 0 0 50 50;" xml:space="preserve">
<g>
	<path d="M41.2,0H8.7C3.984,0,0,3.984,0,8.7v32.6c0,2.271,0.89,4.422,2.505,6.058c1.621,1.642,3.759,2.545,6.019,2.545
		c0,0,0.001,0,0.001,0L41.3,49.9c4.797,0,8.7-3.903,8.7-8.7V8.7C50,3.903,46.053,0,41.2,0z M48,41.2c0,3.694-3.006,6.7-6.7,6.7
		H8.676l-0.151,0.002c-1.722,0-3.354-0.692-4.597-1.95C2.685,44.693,2,43.041,2,41.3V8.7C2,5.068,5.068,2,8.7,2h32.5
		C44.949,2,48,5.006,48,8.7V41.2z"/>
	<path d="M44.2,22.1l-5.484-1.059c-0.311-1.092-0.776-2.06-1.245-2.905l3.066-4.688c0.259-0.396,0.205-0.92-0.13-1.254l-2.7-2.7
		c-0.336-0.335-0.859-0.389-1.254-0.13l-4.688,3.065c-0.867-0.482-1.814-0.936-2.897-1.243L27.884,5.82
		C27.797,5.345,27.383,5,26.9,5h-3.8c-0.478,0-0.889,0.338-0.981,0.807l-1.078,5.477c-1.092,0.31-2.06,0.776-2.906,1.245
		l-4.688-3.066c-0.396-0.259-0.92-0.205-1.254,0.13l-2.7,2.7c-0.335,0.334-0.389,0.858-0.13,1.254l3.065,4.688
		c-0.467,0.844-0.932,1.809-1.242,2.896L5.82,22.117C5.345,22.204,5,22.617,5,23.1v3.8c0,0.478,0.338,0.889,0.807,0.981l5.477,1.076
		c0.31,1.092,0.776,2.06,1.245,2.906l-3.066,4.688c-0.259,0.396-0.205,0.919,0.13,1.254l2.7,2.7c0.335,0.335,0.859,0.39,1.254,0.13
		l4.688-3.065c0.87,0.483,1.819,0.938,2.906,1.245l1.078,5.477c0.092,0.469,0.503,0.807,0.981,0.807H27
		c0.478,0,0.889-0.338,0.981-0.807l1.077-5.477c1.086-0.307,2.035-0.762,2.905-1.245l4.689,3.065
		c0.394,0.259,0.918,0.206,1.254-0.13l2.7-2.7c0.335-0.335,0.389-0.858,0.13-1.254l-3.066-4.688
		c0.469-0.846,0.935-1.813,1.245-2.906l5.478-1.076c0.469-0.093,0.807-0.504,0.807-0.981v-3.8C45.2,22.548,44.753,22.1,44.2,22.1z
		 M43.2,26.078l-5.294,1.04c-0.392,0.077-0.701,0.381-0.784,0.772c-0.285,1.332-0.883,2.473-1.485,3.506
		c-0.191,0.327-0.181,0.734,0.026,1.051l2.956,4.52l-1.552,1.552l-4.521-2.955c-0.318-0.208-0.725-0.219-1.05-0.027
		c-1.036,0.604-2.179,1.201-3.507,1.486c-0.391,0.083-0.694,0.393-0.771,0.784L26.178,43.1h-2.155l-1.042-5.293
		c-0.077-0.392-0.38-0.701-0.771-0.784c-1.329-0.285-2.47-0.883-3.506-1.486c-0.327-0.191-0.734-0.181-1.051,0.027l-4.52,2.955
		l-1.551-1.552l2.956-4.52c0.208-0.316,0.218-0.724,0.027-1.051c-0.604-1.034-1.201-2.175-1.486-3.506
		c-0.084-0.392-0.393-0.695-0.785-0.772L7,26.078v-2.145l5.18-0.95c0.398-0.073,0.713-0.378,0.798-0.774
		c0.285-1.332,0.882-2.472,1.486-3.505c0.191-0.327,0.181-0.734-0.027-1.051l-2.956-4.52l1.551-1.551l4.52,2.956
		c0.316,0.206,0.724,0.217,1.051,0.027c1.034-0.604,2.174-1.201,3.505-1.486c0.391-0.084,0.694-0.393,0.771-0.785L23.922,7h2.145
		l0.949,5.18c0.072,0.398,0.378,0.713,0.774,0.798c1.33,0.285,2.471,0.882,3.505,1.486c0.327,0.19,0.732,0.18,1.051-0.027
		l4.521-2.956l1.552,1.551l-2.956,4.52c-0.207,0.317-0.218,0.724-0.026,1.051c0.603,1.033,1.199,2.172,1.486,3.506
		c0.084,0.391,0.393,0.694,0.784,0.771l5.493,1.081V26.078z"/>
	<path d="M25,16c-4.962,0-9,4.038-9,9c0,4.963,4.038,9,9,9c4.963,0,9-4.037,9-9C34,20.038,29.963,16,25,16z M25,32
		c-3.86,0-7-3.141-7-7c0-3.86,3.14-7,7-7c3.859,0,7,3.14,7,7C32,28.859,28.859,32,25,32z"/>
</g>
</svg>
