<?xml version="1.0" encoding="utf-8"?>
<!-- Generator: Adobe Illustrator 17.1.0, SVG Export Plug-In . SVG Version: 6.00 Build 0)  -->
<!DOCTYPE svg PUBLIC "-//W3C//DTD SVG 1.0//EN" "http://www.w3.org/TR/2001/REC-SVG-20010904/DTD/svg10.dtd">
<svg version="1.0" id="Layer_1" xmlns="http://www.w3.org/2000/svg" xmlns:xlink="http://www.w3.org/1999/xlink" x="0px" y="0px"
	 viewBox="0 0 50 50" style="enable-background:new 0 0 50 50;" xml:space="preserve">
<path d="M46,9H14.6c-1.503,0-2.991,0.738-3.99,1.987l-10.4,13.4c-0.284,0.367-0.279,0.881,0.012,1.241l10.93,13.536
	C12.19,40.331,13.592,41,15,41h31c2.243,0,4-1.757,4-4V13C50,10.757,48.243,9,46,9z M48,37c0,1.141-0.859,2-2,2H15
	c-0.85,0-1.685-0.413-2.322-1.128L2.275,24.988l9.905-12.763C12.794,11.458,13.699,11,14.6,11H46c1.141,0,2,0.86,2,2V37z M14.8,20
	L14.8,20c-0.7,0-1.3,0.1-1.8,0.2v9.7c0.4,0.1,0.9,0.1,1.4,0.1c1.3,0,2.2-0.3,2.9-1s1.3-2.1,1.3-4.2c0-2-0.5-3.3-1.3-4
	C16.8,20.3,15.9,20,14.8,20z M15,28.7L15,28.7c-0.1,0-0.2,0-0.4,0v-7.4c0.1,0,0.3,0,0.5,0c1.4,0,2,1.3,2,3.5
	C17,27.8,16.1,28.7,15,28.7z M28.8,20L28.8,20l-2.2,9.9h1.5l0.5-2.6h2l0.5,2.6h1.5l-2-9.9H28.8z M28.817,26l0.383-2.2
	c0.1-0.6,0.3-1.6,0.4-2.3c0.1,0.7,0.2,1.6,0.4,2.2l0.4,2.3H28.817z M23.8,25.2c1-0.5,1.6-1.4,1.6-2.5c0-0.8-0.2-1.5-0.7-2
	C24,20.2,23.2,20,22.1,20c-0.6,0-1.3,0.1-1.9,0.2v9.7h1.6v-4.1h0.4c0.8,0,1.2,0.4,1.3,1.7c0.2,1.2,0.4,2.1,0.5,2.4h1.6
	c-0.2-0.3-0.4-1.4-0.6-2.6C24.8,26.2,24.5,25.5,23.8,25.2z M22.2,24.6h-0.4v-3.3c0.1,0,0.3-0.1,0.5-0.1c1,0,1.4,0.7,1.4,1.6
	C23.8,23.9,23.2,24.6,22.2,24.6z M39.5,20h5.1v1.5h-1.8v8.4h-1.5v-8.4h-1.8V20z M33.9,20h4v1.4h-2.4v3h2.3v1.3h-2.3v4.2h-1.6V20z"/>
</svg>
