<?xml version="1.0" encoding="utf-8"?>
<!-- Generator: Adobe Illustrator 17.1.0, SVG Export Plug-In . SVG Version: 6.00 Build 0)  -->
<!DOCTYPE svg PUBLIC "-//W3C//DTD SVG 1.0//EN" "http://www.w3.org/TR/2001/REC-SVG-20010904/DTD/svg10.dtd">
<svg version="1.0" id="Layer_1" xmlns="http://www.w3.org/2000/svg" xmlns:xlink="http://www.w3.org/1999/xlink" x="0px" y="0px"
	 viewBox="0 0 50 50" style="enable-background:new 0 0 50 50;" xml:space="preserve">
<path d="M31.913,11.813L23.4,3.3c-0.4-0.4-1-0.4-1.4,0l-0.713,0.706C11.854,4.155,6,7.093,6,11.7c0,2.05,0.929,3.703,2.483,5.017
	L3.2,22C2.4,22.8,2,23.9,2,25c0,1.1,0.4,2.2,1.2,3L19,43.8c0.8,0.8,1.8,1.2,3,1.2c1.1,0,2.2-0.4,3-1.2l18.028-18.028
	C43.909,26.741,45,28.195,45,29.7c0,1.151-0.23,2.695-0.475,4.33C44.268,35.761,44,37.55,44,39c0,1.654,1.346,3,3,3s3-1.346,3-3
	V28.3C50,20.503,38.825,14.673,31.913,11.813z M23.5,42.3c-0.8,0.8-2.3,0.8-3.1,0L4.6,26.5C4.2,26.1,4,25.6,4,25
	c0-0.6,0.2-1.1,0.6-1.6l5.536-5.536c3.515,2.015,8.819,2.946,14.126,3.109C24.605,21.583,25.25,22,26,22c1.105,0,2-0.895,2-2
	c0-1.105-0.895-2-2-2c-0.727,0-1.358,0.392-1.708,0.972C16.424,18.723,8,16.722,8,11.7c0-2.985,4.405-5.134,11.176-5.602L11.2,14
	c0.5,0.4,1.2,0.7,1.8,1l9.6-9.6l7.862,7.862c0.013,0.015,0.02,0.034,0.034,0.048l1.647,1.633L41.5,24.3L23.5,42.3z M48,39
	c0,0.552-0.448,1-1,1s-1-0.448-1-1c0-1.302,0.256-3.017,0.504-4.674C46.759,32.616,47,31,47,29.7c0-2.812-2.308-5.121-3.296-6.11
	l-1.673-1.659l-6.03-6.03C41.495,18.72,48,23.145,48,28.3V39z"/>
</svg>
