<?xml version="1.0" encoding="utf-8"?>
<!-- Generator: Adobe Illustrator 17.0.2, SVG Export Plug-In . SVG Version: 6.00 Build 0)  -->
<!DOCTYPE svg PUBLIC "-//W3C//DTD SVG 1.0//EN" "http://www.w3.org/TR/2001/REC-SVG-20010904/DTD/svg10.dtd">
<svg version="1.0" id="Layer_1" xmlns="http://www.w3.org/2000/svg" xmlns:xlink="http://www.w3.org/1999/xlink" x="0px" y="0px"
	 width="50px" height="50px" viewBox="0 0 50 50" style="enable-background:new 0 0 50 50;" xml:space="preserve">
<path d="M47.207,2.793c-1.797-1.798-4.959-0.238-8.108,1.64L38.52,3.854c-0.115-0.115-0.256-0.2-0.411-0.248
	c-0.22-0.069-5.454-1.601-11.122,4.066c-3.62,3.619-5.197,6.583-6.241,8.544c-0.505,0.949-0.904,1.699-1.339,2.172
	c-0.831,0.905-1.985,0.489-2.106,0.442c-0.512-0.211-1.095,0.031-1.306,0.542c-0.211,0.51,0.031,1.095,0.542,1.306
	c0.052,0.021,0.701,0.282,1.562,0.282c0.844,0,1.891-0.25,2.782-1.22c0.607-0.661,1.059-1.511,1.631-2.585
	c1.047-1.967,2.481-4.662,5.89-8.07c4.222-4.22,7.977-3.803,8.903-3.62l0.156,0.156c-2.292,1.801-7.688,6.187-13.371,11.87
	c-7.452,7.453-16.081,17.82-16.167,17.925c-0.147,0.177-0.206,0.389-0.214,0.602c-3.054,4.483-3.887,7.699-4.107,8.971
	c-0.005,0.005-0.012,0.006-0.016,0.011l-1.322,1.322c-0.391,0.391-0.391,1.023,0,1.414c0.195,0.195,0.451,0.293,0.707,0.293
	s0.512-0.098,0.707-0.293l1.322-1.322c0.005-0.005,0.006-0.012,0.011-0.017c1.27-0.219,4.478-1.051,8.948-4.092
	c0.221-0.003,0.442-0.076,0.625-0.228c0.104-0.087,10.472-8.716,17.924-16.168c7.471-7.471,12.714-14.462,12.766-14.532
	c0.01-0.013,0.012-0.028,0.021-0.041c0.01-0.015,0.026-0.023,0.035-0.038C47.307,8.023,49.082,4.668,47.207,2.793z M45.793,4.207
	c0.736,0.737-0.544,3.253-1.524,4.956l-3.432-3.432C42.54,4.752,45.057,3.472,45.793,4.207z M5.394,44.605
	c0.334-1.353,1.203-3.896,3.427-7.254l3.826,3.826C9.29,43.402,6.747,44.271,5.394,44.605z M31.093,24.496
	c-6.38,6.38-14.928,13.64-17.206,15.555l-3.939-3.939c1.916-2.278,9.175-10.826,15.555-17.206
	c6.014-6.014,11.706-10.56,13.629-12.053l4.013,4.014C41.653,12.789,37.11,18.478,31.093,24.496z"/>
</svg>
