<?xml version="1.0" encoding="utf-8"?>
<!-- Generator: Adobe Illustrator 17.1.0, SVG Export Plug-In . SVG Version: 6.00 Build 0)  -->
<!DOCTYPE svg PUBLIC "-//W3C//DTD SVG 1.0//EN" "http://www.w3.org/TR/2001/REC-SVG-20010904/DTD/svg10.dtd">
<svg version="1.0" id="Layer_1" xmlns="http://www.w3.org/2000/svg" xmlns:xlink="http://www.w3.org/1999/xlink" x="0px" y="0px"
	 viewBox="0 0 50 50" style="enable-background:new 0 0 50 50;" xml:space="preserve">
<path d="M39.6,13H40.4c0.033,0,0.066-0.001,0.1-0.005C43.023,12.743,45,10.504,45,7.9c0-2.545-3.536-6.741-4.245-7.556
	c-0.381-0.437-1.129-0.437-1.51,0C38.536,1.159,35,5.355,35,7.9C35,10.504,36.977,12.743,39.6,13z M40,2.567
	c1.428,1.802,3,4.211,3,5.333c0,1.308-0.852,2.487-2,2.928V8c0-0.552-0.447-1-1-1s-1,0.448-1,1v2.826c-1.148-0.441-2-1.619-2-2.926
	C37,6.778,38.572,4.37,40,2.567z M49,48V34.5c0-2.988-2.121-5.513-5-6.269V19.5c0-0.519,0.261-1.055,0.514-1.573
	c0.25-0.514,0.486-1,0.486-1.527c0-1.458-0.942-2.4-2.4-2.4c-2.815,0-6.085-0.95-6.117-0.959c-0.046-0.014-0.094-0.024-0.141-0.03
	c-0.615-0.089-1.204,0.077-1.653,0.466C34.251,13.856,34,14.411,34,15c0,0.528,0.297,1.034,0.745,1.799
	C35.274,17.703,36,18.94,36,20v8h-7v-8.5c0-0.519,0.261-1.055,0.514-1.573c0.25-0.514,0.486-1,0.486-1.527
	c0-1.458-0.942-2.4-2.4-2.4c-2.815,0-6.085-0.95-6.118-0.959c-0.046-0.014-0.093-0.024-0.14-0.03
	c-0.614-0.089-1.204,0.077-1.653,0.466C19.251,13.856,19,14.411,19,15c0,0.528,0.296,1.034,0.745,1.799
	C20.275,17.703,21,18.94,21,20v8h-7v-8.5c0-0.519,0.261-1.055,0.513-1.573c0.25-0.514,0.487-1,0.487-1.527
	c0-1.458-0.942-2.4-2.4-2.4c-2.815,0-6.085-0.95-6.118-0.959c-0.046-0.014-0.093-0.024-0.14-0.03
	c-0.616-0.089-1.205,0.077-1.653,0.466C4.251,13.856,4,14.411,4,15c0,0.528,0.296,1.034,0.745,1.799C5.275,17.703,6,18.94,6,20
	v8.229c-2.911,0.738-5,3.225-5,6.271V48c-0.552,0-1,0.447-1,1s0.448,1,1,1h48c0.553,0,1-0.447,1-1S49.553,48,49,48z M42.6,16
	c0.345,0,0.4,0.027,0.401,0.38c-0.016,0.115-0.172,0.436-0.286,0.671C42.413,17.671,42,18.52,42,19.5V28h-4v-8
	c0-1.603-0.884-3.111-1.529-4.212c-0.154-0.262-0.354-0.604-0.442-0.797C36.657,15.168,39.762,16,42.6,16z M21.471,15.788
	c-0.154-0.262-0.354-0.604-0.442-0.797C21.657,15.168,24.763,16,27.6,16c0.345,0,0.4,0.027,0.401,0.38
	c-0.016,0.115-0.172,0.436-0.286,0.671C27.413,17.671,27,18.52,27,19.5V28h-4v-8C23,18.397,22.116,16.889,21.471,15.788z M12.6,16
	c0.345,0,0.4,0.027,0.401,0.38c-0.015,0.115-0.172,0.436-0.286,0.671C12.413,17.671,12,18.52,12,19.5V28H8v-8
	c0-1.603-0.884-3.111-1.529-4.212c-0.154-0.262-0.354-0.604-0.442-0.797C6.657,15.168,9.762,16,12.6,16z M7.8,30h34.4
	c2.646,0,4.8,2.019,4.8,4.5v3.67C46.442,38.68,45.71,39,45,39c-1.654,0-3-1.346-3-3c0-0.553-0.447-1-1-1s-1,0.447-1,1
	c0,1.654-1.346,3-3,3s-3-1.346-3-3c0-0.553-0.447-1-1-1s-1,0.447-1,1c0,1.654-1.346,3-3,3s-3-1.346-3-3c0-0.553-0.447-1-1-1
	c-0.552,0-1,0.447-1,1c0,1.654-1.346,3-3,3s-3-1.346-3-3c0-0.553-0.448-1-1-1s-1,0.447-1,1c0,1.654-1.346,3-3,3s-3-1.346-3-3
	c0-0.553-0.448-1-1-1s-1,0.447-1,1c0,1.654-1.346,3-3,3c-0.793,0-1.498-0.298-2-0.804V34.5C3,31.977,5.108,30,7.8,30z M3,40.587
	C3.612,40.853,4.289,41,5,41c1.634,0,3.087-0.788,4-2.003C9.913,40.212,11.366,41,13,41s3.087-0.788,4-2.003
	C17.913,40.212,19.366,41,21,41s3.087-0.788,4-2.003C25.913,40.212,27.366,41,29,41s3.087-0.788,4-2.003
	C33.913,40.212,35.366,41,37,41s3.087-0.788,4-2.003C41.913,40.212,43.366,41,45,41c0.683,0,1.367-0.158,2-0.445V48H3V40.587z
	 M9.6,13h0.8c0.033,0,0.066-0.001,0.1-0.005C13.023,12.742,15,10.504,15,7.9c0-2.545-3.537-6.741-4.246-7.556
	c-0.38-0.437-1.129-0.437-1.509,0C8.537,1.159,5,5.355,5,7.9C5,10.504,6.977,12.742,9.6,13z M10,2.567c1.428,1.802,3,4.211,3,5.333
	c0,1.308-0.851,2.487-2,2.928V8c0-0.552-0.448-1-1-1S9,7.448,9,8v2.826C7.852,10.385,7,9.207,7,7.9C7,6.778,8.572,4.37,10,2.567z
	 M24.6,13h0.8c0.033,0,0.066-0.001,0.1-0.005C28.023,12.743,30,10.504,30,7.9c0-2.545-3.536-6.741-4.245-7.556
	c-0.382-0.437-1.129-0.437-1.509,0C23.537,1.159,20,5.355,20,7.9C20,10.504,21.977,12.742,24.6,13z M25,2.567
	c1.428,1.802,3,4.211,3,5.333c0,1.308-0.852,2.487-2,2.928V8c0-0.552-0.447-1-1-1c-0.552,0-1,0.448-1,1v2.826
	c-1.148-0.441-2-1.619-2-2.926C22,6.778,23.572,4.37,25,2.567z"/>
</svg>
