<?xml version="1.0" encoding="utf-8"?>
<!-- Generator: Adobe Illustrator 17.1.0, SVG Export Plug-In . SVG Version: 6.00 Build 0)  -->
<!DOCTYPE svg PUBLIC "-//W3C//DTD SVG 1.0//EN" "http://www.w3.org/TR/2001/REC-SVG-20010904/DTD/svg10.dtd">
<svg version="1.0" id="Layer_1" xmlns="http://www.w3.org/2000/svg" xmlns:xlink="http://www.w3.org/1999/xlink" x="0px" y="0px"
	 viewBox="0 0 50 50" style="enable-background:new 0 0 50 50;" xml:space="preserve">
<path d="M29.7,24.4v-0.1c0.7-0.2,4.2-1.3,4.2-5.4c0-5.103-4.836-5.791-6.9-5.884V10h-2v3h-2v-3h-2v3h-5v24h5v3h2v-3h2v3h2v-3.008
	c2.301-0.066,7.8-0.714,7.8-6.792C34.8,26,31.2,24.6,29.7,24.4z M18.3,14.9h7.9c3.6,0,5.4,1.5,5.4,4.5c0,0.6-0.1,1.1-0.3,1.6
	c-0.2,0.5-0.6,0.9-1,1.3c-0.5,0.4-1,0.7-1.7,0.9c-0.7,0.2-1.5,0.3-2.4,0.3v0h-7.9V14.9z M32,32.6c-0.4,0.6-0.8,1.1-1.4,1.5
	c-0.6,0.4-1.2,0.7-2,0.8c-0.7,0.1-1.5,0.2-2.4,0.2h-7.9v-9.6h7.9c2,0,3.6,0.4,4.7,1.2c1.1,0.8,1.6,2,1.6,3.5
	C32.5,31.2,32.3,32,32,32.6z M25,1C11.767,1,1,11.767,1,25s10.767,24,24,24s24-10.767,24-24S38.233,1,25,1z M25,47
	C12.869,47,3,37.131,3,25S12.869,3,25,3s22,9.869,22,22S37.131,47,25,47z"/>
</svg>
