<?xml version="1.0" encoding="utf-8"?>
<!-- Generator: Adobe Illustrator 17.0.2, SVG Export Plug-In . SVG Version: 6.00 Build 0)  -->
<!DOCTYPE svg PUBLIC "-//W3C//DTD SVG 1.0//EN" "http://www.w3.org/TR/2001/REC-SVG-20010904/DTD/svg10.dtd">
<svg version="1.0" id="Layer_1" xmlns="http://www.w3.org/2000/svg" xmlns:xlink="http://www.w3.org/1999/xlink" x="0px" y="0px"
	 width="50px" height="50px" viewBox="0 0 50 50" style="enable-background:new 0 0 50 50;" xml:space="preserve">
<path d="M25.73,2.519c-0.323-0.493-1.138-0.492-1.461,0C23.691,3.396,10.125,24.098,10.125,32c0,8.202,6.673,14.875,14.875,14.875
	S39.875,40.202,39.875,32C39.875,24.098,26.309,3.396,25.73,2.519z M25,45.125c-7.237,0-13.125-5.888-13.125-13.125
	C11.875,25.614,22.14,9.093,25,4.614c2.86,4.479,13.125,21,13.125,27.386C38.125,39.237,32.237,45.125,25,45.125z"/>
</svg>
