<?xml version="1.0" encoding="utf-8"?>
<!-- Generator: Adobe Illustrator 17.0.2, SVG Export Plug-In . SVG Version: 6.00 Build 0)  -->
<!DOCTYPE svg PUBLIC "-//W3C//DTD SVG 1.0//EN" "http://www.w3.org/TR/2001/REC-SVG-20010904/DTD/svg10.dtd">
<svg version="1.0" id="Layer_1" xmlns="http://www.w3.org/2000/svg" xmlns:xlink="http://www.w3.org/1999/xlink" x="0px" y="0px"
	 width="50px" height="50px" viewBox="0 0 50 50" style="enable-background:new 0 0 50 50;" xml:space="preserve">
<path d="M18.068,21.898h8.586c1.726,0,3.18-0.43,4.32-1.276c1.236-0.916,1.863-2.367,1.863-4.313c0-1.07-0.207-1.98-0.614-2.704
	c-0.409-0.728-0.965-1.305-1.653-1.718c-0.641-0.384-1.38-0.655-2.202-0.803c-0.758-0.135-1.553-0.204-2.362-0.204h-7.938
	c-0.552,0-1,0.448-1,1v9.018C17.068,21.45,17.516,21.898,18.068,21.898z M19.068,12.88h6.938c0.692,0,1.369,0.058,2.01,0.172
	c0.579,0.105,1.093,0.29,1.526,0.55c0.392,0.235,0.698,0.556,0.938,0.983c0.237,0.421,0.357,1.001,0.357,1.723
	c0,1.296-0.345,2.181-1.054,2.707c-0.79,0.586-1.843,0.883-3.13,0.883h-7.586V12.88z M40.952,25.923
	c-0.935-1.366-2.219-2.444-3.833-3.22c0.994-0.703,1.808-1.516,2.43-2.43c0.993-1.458,1.497-3.282,1.497-5.423
	c0-1.943-0.333-3.616-0.991-4.974c-0.67-1.376-1.627-2.497-2.846-3.33c-1.181-0.808-2.608-1.396-4.244-1.747
	c-1.575-0.336-3.335-0.507-5.23-0.507H9.59c-0.552,0-1,0.448-1,1v38.555c0,0.553,0.448,1,1,1h18.685
	c1.808,0,3.593-0.229,5.305-0.681c1.744-0.461,3.324-1.184,4.694-2.147c1.402-0.987,2.532-2.276,3.357-3.83
	c0.83-1.562,1.251-3.418,1.251-5.519C42.882,30.067,42.232,27.797,40.952,25.923z M39.865,37.251
	c-0.678,1.274-1.601,2.328-2.743,3.134c-1.175,0.826-2.539,1.448-4.054,1.849c-1.545,0.407-3.158,0.614-4.794,0.614H10.59V6.293
	h17.145c1.755,0,3.374,0.156,4.812,0.462c1.38,0.296,2.568,0.781,3.533,1.442c0.942,0.644,1.654,1.479,2.177,2.552
	c0.524,1.083,0.79,2.462,0.79,4.1c0,1.731-0.387,3.177-1.15,4.297c-0.777,1.142-1.961,2.1-3.52,2.847
	c-0.375,0.179-0.6,0.571-0.564,0.985c0.034,0.414,0.32,0.763,0.719,0.878c2.167,0.625,3.728,1.669,4.771,3.195
	c1.049,1.535,1.581,3.426,1.581,5.619C40.882,34.44,40.54,35.981,39.865,37.251z M32.334,27.149
	c-1.29-0.978-2.983-1.473-5.032-1.473h-9.234c-0.552,0-1,0.447-1,1v10.584c0,0.553,0.448,1,1,1h9.072
	c0.895,0,1.765-0.089,2.584-0.265c0.874-0.187,1.661-0.507,2.339-0.952c0.716-0.47,1.292-1.111,1.712-1.907
	c0.418-0.789,0.63-1.782,0.63-2.952C34.404,29.886,33.708,28.191,32.334,27.149z M32.006,34.202
	c-0.264,0.501-0.604,0.884-1.041,1.17c-0.47,0.309-1.027,0.533-1.659,0.668c-0.684,0.146-1.412,0.221-2.166,0.221h-8.072v-8.584
	h8.234c1.604,0,2.89,0.359,3.824,1.066c0.86,0.652,1.278,1.778,1.278,3.441C32.404,33.024,32.271,33.703,32.006,34.202z"/>
</svg>
