<?xml version="1.0" encoding="utf-8"?>
<!-- Generator: Adobe Illustrator 17.0.2, SVG Export Plug-In . SVG Version: 6.00 Build 0)  -->
<!DOCTYPE svg PUBLIC "-//W3C//DTD SVG 1.0//EN" "http://www.w3.org/TR/2001/REC-SVG-20010904/DTD/svg10.dtd">
<svg version="1.0" id="Layer_1" xmlns="http://www.w3.org/2000/svg" xmlns:xlink="http://www.w3.org/1999/xlink" x="0px" y="0px"
	 width="50px" height="50px" viewBox="0 0 50 50" style="enable-background:new 0 0 50 50;" xml:space="preserve">
<path d="M45,5H29c-1.634,0-3.087,0.788-4,2.003C24.087,5.788,22.634,5,21,5H5c-2.757,0-5,2.243-5,5v29c0,2.757,2.243,5,5,5h16
	c1.654,0,3,1.346,3,3c0,0.553,0.448,1,1,1c0.553,0,1-0.447,1-1c0-1.654,1.346-3,3-3h16c2.757,0,5-2.243,5-5V10
	C50,7.243,47.757,5,45,5z M24,43.002C23.164,42.373,22.125,42,21,42H5c-1.654,0-3-1.346-3-3V10c0-1.654,1.346-3,3-3h16
	c1.654,0,3,1.346,3,3V43.002z M48,39c0,1.654-1.346,3-3,3H29c-1.125,0-2.164,0.373-3,1.002V10c0-1.654,1.346-3,3-3h16
	c1.654,0,3,1.346,3,3V39z"/>
</svg>
