<?xml version="1.0" encoding="utf-8"?>
<!-- Generator: Adobe Illustrator 17.0.2, SVG Export Plug-In . SVG Version: 6.00 Build 0)  -->
<!DOCTYPE svg PUBLIC "-//W3C//DTD SVG 1.0//EN" "http://www.w3.org/TR/2001/REC-SVG-20010904/DTD/svg10.dtd">
<svg version="1.0" id="Layer_1" xmlns="http://www.w3.org/2000/svg" xmlns:xlink="http://www.w3.org/1999/xlink" x="0px" y="0px"
	 width="50px" height="50px" viewBox="0 0 50 50" style="enable-background:new 0 0 50 50;" xml:space="preserve">
<path d="M19.094,43.065c1.189,1.19,3.273,1.187,4.455,0l23.532-23.529c1.226-1.233,1.225-3.231-0.002-4.453L34.917,2.92
	c-1.186-1.187-3.264-1.188-4.453,0L6.933,26.45c-0.593,0.594-0.919,1.385-0.919,2.227c0,0.844,0.327,1.635,0.92,2.227l0.457,0.457
	L2.105,44.751c-0.264,0.899-0.016,1.871,0.649,2.538c0.442,0.44,1.217,0.712,1.963,0.712c0.099,0,0.197-0.005,0.293-0.015
	C5.065,47.995,5.121,48,5.178,48H46c0.553,0,1-0.447,1-1s-0.447-1-1-1H10.207l8.474-3.349L19.094,43.065z M31.877,4.335
	c0.433-0.431,1.193-0.432,1.626-0.001l12.163,12.165c0.447,0.446,0.446,1.176-0.001,1.625L29.659,34.128L15.872,20.34L31.877,4.335z
	 M14.458,21.754l13.788,13.788l-2.178,2.178L12.28,23.932L14.458,21.754z M8.348,27.863l2.518-2.518l13.787,13.788l-2.52,2.52
	c-0.429,0.431-1.191,0.431-1.624-0.002L8.347,29.488c-0.215-0.215-0.333-0.503-0.333-0.811C8.014,28.368,8.133,28.079,8.348,27.863z
	 M4.765,46c-0.257,0.009-0.53-0.076-0.596-0.125c-0.147-0.147-0.203-0.363-0.174-0.476l4.937-12.497l8.207,8.207L4.765,46z"/>
</svg>
