<?xml version="1.0" encoding="utf-8"?>
<!-- Generator: Adobe Illustrator 17.1.0, SVG Export Plug-In . SVG Version: 6.00 Build 0)  -->
<!DOCTYPE svg PUBLIC "-//W3C//DTD SVG 1.0//EN" "http://www.w3.org/TR/2001/REC-SVG-20010904/DTD/svg10.dtd">
<svg version="1.0" id="Layer_1" xmlns="http://www.w3.org/2000/svg" xmlns:xlink="http://www.w3.org/1999/xlink" x="0px" y="0px"
	 viewBox="0 0 50 50" style="enable-background:new 0 0 50 50;" xml:space="preserve">
<path d="M17.498,26h15.004c1.93,0,3.5-1.57,3.5-3.5s-1.57-3.5-3.5-3.5H17.498c-1.93,0-3.5,1.57-3.5,3.5S15.568,26,17.498,26z
	 M17.498,21h15.004c0.827,0,1.5,0.673,1.5,1.5s-0.673,1.5-1.5,1.5H17.498c-0.827,0-1.5-0.673-1.5-1.5S16.671,21,17.498,21z M1,3v12
	h2v33h44V15h2V3H1z M45,46H5V15h40V46z M47,13H3V5h44V13z"/>
</svg>
