<?xml version="1.0" encoding="utf-8"?>
<!-- Generator: Adobe Illustrator 17.0.2, SVG Export Plug-In . SVG Version: 6.00 Build 0)  -->
<!DOCTYPE svg PUBLIC "-//W3C//DTD SVG 1.0//EN" "http://www.w3.org/TR/2001/REC-SVG-20010904/DTD/svg10.dtd">
<svg version="1.0" id="Layer_1" xmlns="http://www.w3.org/2000/svg" xmlns:xlink="http://www.w3.org/1999/xlink" x="0px" y="0px"
	 width="50px" height="50px" viewBox="0 0 50 50" style="enable-background:new 0 0 50 50;" xml:space="preserve">
<g>
	<path d="M47,9H33V6c0-1.654-1.346-3-3-3H20c-1.654,0-3,1.346-3,3v3H3c-1.654,0-3,1.346-3,3v32c0,1.654,1.346,3,3,3h44
		c1.654,0,3-1.346,3-3V12C50,10.346,48.654,9,47,9z M19,6c0-0.551,0.449-1,1-1h10c0.552,0,1,0.449,1,1v3H19V6z M48,44
		c0,0.552-0.448,1-1,1H3c-0.551,0-1-0.448-1-1V29.829C2.313,29.939,2.649,30,3,30h44c0.351,0,0.688-0.061,1-0.171V44z M48,27
		c0,0.552-0.448,1-1,1H3c-0.551,0-1-0.448-1-1V12c0-0.551,0.449-1,1-1h44c0.552,0,1,0.449,1,1V27z"/>
	<circle cx="25" cy="24" r="2"/>
</g>
</svg>
