<?xml version="1.0" encoding="utf-8"?>
<!-- Generator: Adobe Illustrator 17.0.2, SVG Export Plug-In . SVG Version: 6.00 Build 0)  -->
<!DOCTYPE svg PUBLIC "-//W3C//DTD SVG 1.0//EN" "http://www.w3.org/TR/2001/REC-SVG-20010904/DTD/svg10.dtd">
<svg version="1.0" id="Layer_1" xmlns="http://www.w3.org/2000/svg" xmlns:xlink="http://www.w3.org/1999/xlink" x="0px" y="0px"
	 width="50px" height="50px" viewBox="0 0 50 50" style="enable-background:new 0 0 50 50;" xml:space="preserve">
<path d="M47.415,4.168c-0.49-0.259-1.093-0.071-1.352,0.416L33.177,28.931c-1.642,0.005-4.249-1.248-5.947-2.955
	c-1.056-1.062-1.607-2.149-1.542-3.02L37.699,5.622c0.314-0.454,0.201-1.077-0.253-1.391c-0.456-0.316-1.077-0.202-1.392,0.252
	L23.907,22.014c-0.08,0.115-0.135,0.247-0.161,0.385c-0.061,0.323-0.078,0.653-0.054,0.989c-8.404,0.868-10.19,6.797-11.921,12.537
	c-1.565,5.191-3.043,10.095-9.09,12.127c-0.464,0.156-0.747,0.626-0.668,1.109S2.51,50,3,50c20.416,0,30.334-2.889,30.702-19.101
	c0.097-0.011,0.192-0.024,0.285-0.042c0.302-0.055,0.562-0.244,0.705-0.516L47.831,5.52C48.09,5.031,47.903,4.426,47.415,4.168z
	 M7.2,47.957c3.904-2.893,5.259-7.387,6.486-11.455c1.705-5.655,3.182-10.555,10.591-11.159c0.357,0.688,0.871,1.377,1.534,2.043
	c1.483,1.492,3.786,2.879,5.894,3.361C31.437,44.489,24.103,47.577,7.2,47.957z"/>
</svg>
