<?xml version="1.0" encoding="utf-8"?>
<!-- Generator: Adobe Illustrator 17.0.2, SVG Export Plug-In . SVG Version: 6.00 Build 0)  -->
<!DOCTYPE svg PUBLIC "-//W3C//DTD SVG 1.0//EN" "http://www.w3.org/TR/2001/REC-SVG-20010904/DTD/svg10.dtd">
<svg version="1.0" id="Layer_1" xmlns="http://www.w3.org/2000/svg" xmlns:xlink="http://www.w3.org/1999/xlink" x="0px" y="0px"
	 width="50px" height="50px" viewBox="0 0 50 50" style="enable-background:new 0 0 50 50;" xml:space="preserve">
<path d="M47,8H33.913C33.307,4.565,29.609,2,25,2s-8.307,2.565-8.913,6H3c-1.654,0-3,1.346-3,3v34c0,1.654,1.346,3,3,3h44
	c1.654,0,3-1.346,3-3V11C50,9.346,48.654,8,47,8z M25,4c3.444,0,6.234,1.691,6.865,4H18.134C18.766,5.691,21.556,4,25,4z M48,45
	c0,0.552-0.448,1-1,1H3c-0.551,0-1-0.448-1-1V30.829C2.313,30.939,2.649,31,3,31h17c0,1.654,1.346,3,3,3h4c1.654,0,3-1.346,3-3h17
	c0.351,0,0.688-0.061,1-0.171V45z M22,31v-1v-1c0-0.552,0.449-1,1-1h4c0.552,0,1,0.448,1,1v2c0,0.552-0.448,1-1,1h-4
	C22.449,32,22,31.552,22,31z M48,28c0,0.552-0.448,1-1,1H30c0-1.654-1.346-3-3-3h-4c-1.654,0-3,1.346-3,3H3c-0.551,0-1-0.448-1-1V11
	c0-0.551,0.449-1,1-1h44c0.552,0,1,0.449,1,1V28z"/>
</svg>
