<?xml version="1.0" encoding="utf-8"?>
<!-- Generator: Adobe Illustrator 17.0.2, SVG Export Plug-In . SVG Version: 6.00 Build 0)  -->
<!DOCTYPE svg PUBLIC "-//W3C//DTD SVG 1.0//EN" "http://www.w3.org/TR/2001/REC-SVG-20010904/DTD/svg10.dtd">
<svg version="1.0" id="Layer_1" xmlns="http://www.w3.org/2000/svg" xmlns:xlink="http://www.w3.org/1999/xlink" x="0px" y="0px"
	 width="50px" height="50px" viewBox="0 0 50 50" style="enable-background:new 0 0 50 50;" xml:space="preserve">
<path d="M44.993,6.955c-0.002-0.05-0.012-0.099-0.022-0.148c-0.01-0.049-0.019-0.097-0.036-0.143
	c-0.005-0.015-0.005-0.031-0.011-0.045c-0.012-0.03-0.034-0.053-0.049-0.081c-0.024-0.045-0.048-0.089-0.078-0.13
	c-0.029-0.039-0.062-0.073-0.096-0.107c-0.034-0.034-0.068-0.067-0.107-0.096c-0.041-0.03-0.085-0.054-0.13-0.078
	c-0.028-0.015-0.051-0.036-0.081-0.049c-0.015-0.006-0.031-0.006-0.045-0.011c-0.047-0.017-0.095-0.026-0.144-0.036
	c-0.049-0.01-0.097-0.02-0.147-0.022C44.031,6.006,44.016,6,44,6H16.463c-0.22,0-0.433,0.072-0.607,0.206L5.401,14.199
	c-0.019,0.014-0.037,0.028-0.054,0.044c-0.06,0.051-0.112,0.108-0.156,0.17c-0.106,0.146-0.173,0.32-0.188,0.51
	C5,14.953,5,14.982,5,15.012V43c0,0.553,0.448,1,1,1h30c0.147,0,0.285-0.036,0.411-0.093c0.034-0.015,0.06-0.043,0.092-0.062
	c0.089-0.053,0.171-0.112,0.24-0.189c0.012-0.013,0.029-0.018,0.04-0.031l8-10C44.923,33.447,45,33.228,45,33V7
	C45,6.984,44.994,6.97,44.993,6.955z M16.801,8H27.37l-6.75,6H8.954L16.801,8z M7,16h28v26H7V16z M35.586,14H23.63l6.75-6h11.206
	L35.586,14z M43,32.649l-6,7.5V15.414l6-6V32.649z M27,21c0,0.552-0.447,1-1,1H16c-0.552,0-1-0.448-1-1s0.448-1,1-1h10
	C26.553,20,27,20.448,27,21z"/>
</svg>
