<?xml version="1.0" encoding="utf-8"?>
<!-- Generator: Adobe Illustrator 17.0.2, SVG Export Plug-In . SVG Version: 6.00 Build 0)  -->
<!DOCTYPE svg PUBLIC "-//W3C//DTD SVG 1.0//EN" "http://www.w3.org/TR/2001/REC-SVG-20010904/DTD/svg10.dtd">
<svg version="1.0" id="Layer_1" xmlns="http://www.w3.org/2000/svg" xmlns:xlink="http://www.w3.org/1999/xlink" x="0px" y="0px"
	 width="50px" height="50px" viewBox="0 0 50 50" style="enable-background:new 0 0 50 50;" xml:space="preserve">
<path d="M13,0H1C0.448,0,0,0.448,0,1v12c0,0.552,0.448,1,1,1h12c0.552,0,1-0.448,1-1V1C14,0.448,13.552,0,13,0z M12,12H2V2h10V12z
	 M50,6.018v1.965H20V6.018H50z M6.59,10.395L2.349,6.759l1.302-1.519L6.41,7.605l3.847-4.274l1.486,1.338L6.59,10.395z M13,18H1
	c-0.552,0-1,0.448-1,1v12c0,0.553,0.448,1,1,1h12c0.552,0,1-0.447,1-1V19C14,18.448,13.552,18,13,18z M12,30H2V20h10V30z M20,24.018
	h30v1.965H20V24.018z M6.59,28.395l-4.241-3.635l1.302-1.519l2.759,2.365l3.847-4.274l1.486,1.338L6.59,28.395z M13,36H1
	c-0.552,0-1,0.447-1,1v12c0,0.553,0.448,1,1,1h12c0.552,0,1-0.447,1-1V37C14,36.447,13.552,36,13,36z M12,48H2V38h10V48z M20,42.018
	h30v1.965H20V42.018z"/>
</svg>
