<?xml version="1.0" encoding="utf-8"?>
<!-- Generator: Adobe Illustrator 17.0.2, SVG Export Plug-In . SVG Version: 6.00 Build 0)  -->
<!DOCTYPE svg PUBLIC "-//W3C//DTD SVG 1.0//EN" "http://www.w3.org/TR/2001/REC-SVG-20010904/DTD/svg10.dtd">
<svg version="1.0" id="Layer_1" xmlns="http://www.w3.org/2000/svg" xmlns:xlink="http://www.w3.org/1999/xlink" x="0px" y="0px"
	 width="50px" height="50px" viewBox="0 0 50 50" style="enable-background:new 0 0 50 50;" xml:space="preserve">
<path d="M49.56,21.327c-0.391-0.391-1.023-0.391-1.414,0l-4.29,4.29L26.993,8.756l6.916-6.916c0.391-0.391,0.391-1.023,0-1.414
	s-1.023-0.391-1.414,0L19.126,13.795c-0.049,0.047-0.094,0.099-0.133,0.156c-0.04,0.057-0.072,0.117-0.099,0.18l-6.25,13.979
	L7.554,33.2c-0.391,0.391-0.391,1.023,0,1.414l0.598,0.598l-7.859,7.859c-0.239,0.239-0.341,0.583-0.271,0.914
	c0.07,0.331,0.303,0.604,0.618,0.726l11.299,4.366c0.117,0.046,0.239,0.067,0.36,0.067c0.26,0,0.516-0.102,0.707-0.293l4.393-4.393
	l0.598,0.598c0.391,0.391,1.023,0.391,1.414,0l5.091-5.09l13.978-6.251c0.062-0.025,0.123-0.059,0.18-0.099
	c0.058-0.039,0.109-0.083,0.156-0.132l5.719-5.72c0.01-0.009,0.019-0.018,0.027-0.026s0.018-0.018,0.026-0.027l4.971-4.971
	C49.95,22.351,49.95,21.718,49.56,21.327z M12.052,46.978l-9.259-3.578l6.772-6.773l6.419,6.419L12.052,46.978z M23.518,38.216
	c-0.111,0.05-0.212,0.12-0.299,0.206l-4.515,4.514l-9.029-9.028l4.514-4.515c0.086-0.086,0.156-0.188,0.206-0.299l5.742-12.841
	l16.222,16.221L23.518,38.216z M38.093,31.38L21.231,14.518l4.348-4.348L42.44,27.032L38.093,31.38z"/>
</svg>
