<?xml version="1.0" encoding="utf-8"?>
<!-- Generator: Adobe Illustrator 17.1.0, SVG Export Plug-In . SVG Version: 6.00 Build 0)  -->
<!DOCTYPE svg PUBLIC "-//W3C//DTD SVG 1.0//EN" "http://www.w3.org/TR/2001/REC-SVG-20010904/DTD/svg10.dtd">
<svg version="1.0" id="Layer_1" xmlns="http://www.w3.org/2000/svg" xmlns:xlink="http://www.w3.org/1999/xlink" x="0px" y="0px"
	 viewBox="0 0 50 50" style="enable-background:new 0 0 50 50;" xml:space="preserve">
<path d="M44,4V1c0-0.552-0.447-1-1-1H1C0.448,0,0,0.448,0,1v3c0,0.255,0.097,0.5,0.272,0.686L16,21.396V39
	c0,0.352,0.184,0.677,0.485,0.857l10,6C26.644,45.952,26.822,46,27,46c0.17,0,0.34-0.043,0.493-0.13C27.807,45.692,28,45.36,28,45
	V21.396L43.729,4.686C43.902,4.5,44,4.255,44,4z M26,43.233l-8-4.8V22h8V43.233z M42,3.604L26.568,20h-9.136L2,3.604V2h40V3.604z
	 M49.707,48.293c0.391,0.391,0.391,1.023,0,1.414C49.512,49.902,49.256,50,49,50s-0.512-0.098-0.707-0.293L41,42.414l-7.293,7.293
	c-0.391,0.391-1.023,0.391-1.414,0s-0.391-1.023,0-1.414L39.586,41l-7.293-7.293c-0.391-0.391-0.391-1.023,0-1.414
	s1.023-0.391,1.414,0L41,39.586l7.293-7.293c0.391-0.391,1.023-0.391,1.414,0s0.391,1.023,0,1.414L42.414,41L49.707,48.293z"/>
</svg>
