<?xml version="1.0" encoding="utf-8"?>
<!-- Generator: Adobe Illustrator 17.0.2, SVG Export Plug-In . SVG Version: 6.00 Build 0)  -->
<!DOCTYPE svg PUBLIC "-//W3C//DTD SVG 1.0//EN" "http://www.w3.org/TR/2001/REC-SVG-20010904/DTD/svg10.dtd">
<svg version="1.0" id="Layer_1" xmlns="http://www.w3.org/2000/svg" xmlns:xlink="http://www.w3.org/1999/xlink" x="0px" y="0px"
	 width="50px" height="50.105px" viewBox="0 0 50 50.105" style="enable-background:new 0 0 50 50.105;" xml:space="preserve">
<path d="M42,42.105c0,1.104-0.895,2-2,2c-1.105,0-2-0.896-2-2s0.895-2,2-2C41.105,40.105,42,41.001,42,42.105z M49.795,35.223
	C49.927,35.49,50,35.789,50,36.105v12c0,1.103-0.897,2-2,2H2c-1.103,0-2-0.897-2-2v-12c0-0.261,0.05-0.51,0.141-0.738l5.677-23.735
	c0.139-0.842,0.942-1.526,1.854-1.526h9.682c0.042,0,0.078,0.019,0.119,0.024c0.615-0.57,1.324-1.046,2.126-1.365
	c0.277-2.554,2.445-4.548,5.071-4.548c0.894,0,1.752,0.228,2.509,0.657C28.785,1.913,31.922,0,35.344,0
	c5.124,0,9.293,4.169,9.293,9.293c0,0.038,0,0.076-0.001,0.114C47.688,9.911,50,12.547,50,15.712c0,2.488-1.432,4.643-3.512,5.699
	L49.795,35.223z M17.237,15.187c0,2.711,2.206,4.917,4.918,4.917h21.455c2.421,0,4.391-1.97,4.391-4.392
	c0-2.422-1.971-4.394-4.394-4.394h-1.129l0.098-1.119c0.036-0.297,0.062-0.598,0.062-0.906C42.637,5.272,39.365,2,35.344,2
	c-3.032,0-5.778,1.916-6.834,4.767l-0.542,1.465l-1.104-1.106c-0.586-0.587-1.365-0.91-2.194-0.91c-1.71,0-3.101,1.391-3.101,3.101
	l0.036,0.925l-0.76,0.21C18.72,11.039,17.237,12.986,17.237,15.187z M2.499,34.105h44.972l-2.893-12.082
	c-0.317,0.048-0.638,0.081-0.968,0.081H22.155c-3.814,0-6.918-3.103-6.918-6.917c0-1.096,0.266-2.144,0.736-3.082H7.759
	L2.499,34.105z M48,36.12c-0.003-0.005-0.006-0.01-0.009-0.015H2c0,0,0,0.001,0,0.001v11.999h46V36.12z"/>
</svg>
