<?xml version="1.0" encoding="utf-8"?>
<!-- Generator: Adobe Illustrator 17.0.2, SVG Export Plug-In . SVG Version: 6.00 Build 0)  -->
<!DOCTYPE svg PUBLIC "-//W3C//DTD SVG 1.0//EN" "http://www.w3.org/TR/2001/REC-SVG-20010904/DTD/svg10.dtd">
<svg version="1.0" id="Layer_1" xmlns="http://www.w3.org/2000/svg" xmlns:xlink="http://www.w3.org/1999/xlink" x="0px" y="0px"
	 width="50px" height="50px" viewBox="0 0 50 50" style="enable-background:new 0 0 50 50;" xml:space="preserve">
<g>
	<path d="M47,3H3C1.346,3,0,4.346,0,6v41h50V6C50,4.346,48.654,3,47,3z M48,45H2V11h46V45z M48,9H2V6c0-0.551,0.449-1,1-1h44
		c0.552,0,1,0.449,1,1V9z"/>
	<path d="M33.132,30.496C33.316,30.819,33.653,31,34.001,31c0.168,0,0.339-0.042,0.495-0.132l7-4C41.808,26.69,42,26.358,42,26
		s-0.192-0.69-0.504-0.868l-7-4c-0.48-0.275-1.091-0.107-1.364,0.372c-0.274,0.479-0.107,1.09,0.372,1.364L38.984,26l-5.48,3.132
		C33.024,29.406,32.857,30.017,33.132,30.496z"/>
	<path d="M8.504,26.868l7,4C15.66,30.958,15.831,31,15.999,31c0.347,0,0.685-0.181,0.869-0.504c0.274-0.479,0.107-1.09-0.372-1.364
		L11.016,26l5.48-3.132c0.479-0.274,0.646-0.885,0.372-1.364c-0.273-0.479-0.884-0.645-1.364-0.372l-7,4C8.192,25.31,8,25.642,8,26
		S8.192,26.69,8.504,26.868z"/>
	<path d="M19.622,38.926C19.745,38.977,19.874,39,20,39c0.394,0,0.768-0.234,0.926-0.621l9-22c0.209-0.511-0.036-1.095-0.547-1.304
		c-0.509-0.206-1.095,0.036-1.305,0.547l-9,22C18.865,38.133,19.11,38.717,19.622,38.926z"/>
</g>
</svg>
