<?xml version="1.0" encoding="utf-8"?>
<!-- Generator: Adobe Illustrator 17.0.2, SVG Export Plug-In . SVG Version: 6.00 Build 0)  -->
<!DOCTYPE svg PUBLIC "-//W3C//DTD SVG 1.0//EN" "http://www.w3.org/TR/2001/REC-SVG-20010904/DTD/svg10.dtd">
<svg version="1.0" id="Layer_1" xmlns="http://www.w3.org/2000/svg" xmlns:xlink="http://www.w3.org/1999/xlink" x="0px" y="0px"
	 width="50px" height="50px" viewBox="0 0 50 50" style="enable-background:new 0 0 50 50;" xml:space="preserve">
<path d="M10,28h12v12c0,0.553-0.448,1-1,1s-1-0.447-1-1v-8.586L7.707,43.707C7.512,43.902,7.256,44,7,44s-0.512-0.098-0.707-0.293
	S6,43.256,6,43s0.098-0.512,0.293-0.707L18.586,30H10c-0.552,0-1-0.447-1-1S9.448,28,10,28z M41,21c0-0.552-0.447-1-1-1h-8.586
	L43.707,7.707C43.902,7.512,44,7.256,44,7s-0.098-0.512-0.293-0.707c-0.391-0.391-1.023-0.391-1.414,0L30,18.586V10
	c0-0.552-0.447-1-1-1s-1,0.448-1,1v12h12C40.553,22,41,21.552,41,21z M21,9c-0.552,0-1,0.448-1,1v8.586L7.707,6.293
	c-0.391-0.391-1.023-0.391-1.414,0C6.098,6.488,6,6.744,6,7s0.098,0.512,0.293,0.707L18.586,20H10c-0.552,0-1,0.448-1,1s0.448,1,1,1
	h12V10C22,9.448,21.552,9,21,9z M31.414,30H40c0.553,0,1-0.447,1-1s-0.447-1-1-1H28v12c0,0.553,0.447,1,1,1s1-0.447,1-1v-8.586
	l12.293,12.293C42.488,43.902,42.744,44,43,44s0.512-0.098,0.707-0.293S44,43.256,44,43s-0.098-0.512-0.293-0.707L31.414,30z"/>
</svg>
