<?xml version="1.0" encoding="utf-8"?>
<!-- Generator: Adobe Illustrator 17.0.2, SVG Export Plug-In . SVG Version: 6.00 Build 0)  -->
<!DOCTYPE svg PUBLIC "-//W3C//DTD SVG 1.0//EN" "http://www.w3.org/TR/2001/REC-SVG-20010904/DTD/svg10.dtd">
<svg version="1.0" id="Layer_1" xmlns="http://www.w3.org/2000/svg" xmlns:xlink="http://www.w3.org/1999/xlink" x="0px" y="0px"
	 width="50px" height="50px" viewBox="0 0 50 50" style="enable-background:new 0 0 50 50;" xml:space="preserve">
<path d="M47.089,2.911C45.857,1.679,44.219,1,42.476,1c-1.743,0-3.381,0.679-4.61,1.908c-0.081,0.081-4.836,4.835-6.549,6.549
	l-0.161-0.161c-0.869-0.867-2.281-0.868-3.15,0l-2.604,2.604c-0.421,0.421-0.653,0.98-0.652,1.576c0,0.595,0.232,1.155,0.652,1.574
	l1.028,1.029L8.369,34.14c-2.616,2.616-3.023,3.841-3.312,5.285c-0.193,0.964-0.375,1.874-2.765,4.265
	C2.105,43.877,2,44.132,2,44.396c0,0.266,0.105,0.52,0.293,0.707l2.604,2.604C5.092,47.902,5.348,48,5.604,48
	s0.512-0.098,0.707-0.293c2.39-2.39,3.3-2.572,4.263-2.765c1.444-0.289,2.669-0.696,5.286-3.312l18.061-18.061l1.029,1.029
	c0.841,0.842,2.311,0.841,3.149,0l2.604-2.604c0.866-0.867,0.867-2.279,0.002-3.148c-0.001,0-0.001-0.001-0.002-0.001l-0.161-0.161
	l6.546-6.545C49.633,9.595,49.633,5.456,47.089,2.911z M14.446,40.216c-2.391,2.391-3.301,2.572-4.264,2.766
	C8.876,43.242,7.75,43.6,5.615,45.597l-1.212-1.212c1.998-2.136,2.354-3.262,2.616-4.567c0.193-0.964,0.375-1.874,2.765-4.264
	l18.061-18.061l4.662,4.663L14.446,40.216z M39.29,20.581l-2.604,2.604c-0.108,0.107-0.211,0.11-0.321,0l-9.55-9.55
	c-0.055-0.054-0.065-0.117-0.065-0.16s0.012-0.106,0.066-0.161l2.604-2.604c0.044-0.044,0.103-0.067,0.161-0.067
	s0.117,0.022,0.161,0.066l9.547,9.547C39.378,20.347,39.378,20.493,39.29,20.581z M45.675,10.724l-6.546,6.545l-6.398-6.399
	c1.709-1.709,6.446-6.447,6.546-6.545C40.131,3.471,41.268,3,42.476,3c1.209,0,2.345,0.47,3.199,1.325
	C47.438,6.089,47.438,8.96,45.675,10.724z"/>
</svg>
