<?xml version="1.0" encoding="utf-8"?>
<!-- Generator: Adobe Illustrator 17.0.2, SVG Export Plug-In . SVG Version: 6.00 Build 0)  -->
<!DOCTYPE svg PUBLIC "-//W3C//DTD SVG 1.0//EN" "http://www.w3.org/TR/2001/REC-SVG-20010904/DTD/svg10.dtd">
<svg version="1.0" id="Layer_1" xmlns="http://www.w3.org/2000/svg" xmlns:xlink="http://www.w3.org/1999/xlink" x="0px" y="0px"
	 width="50px" height="50px" viewBox="0 0 50 50" style="enable-background:new 0 0 50 50;" xml:space="preserve">
<path d="M11,50h8V32h-8V50z M13,34h4v14h-4V34z M1,50h8V36H1V50z M3,38h4v10H3V38z M41,15v35h8V15H41z M47,48h-4V17h4V48z M31,50h8
	V29h-8V50z M33,31h4v17h-4V31z M21,50h8V24h-8V50z M23,26h4v22h-4V26z M3,25c0-1.105,0.895-2,2-2c0.465,0,0.888,0.165,1.228,0.432
	l6.801-2.72C13.17,19.744,13.994,19,15,19c0.256,0,0.499,0.052,0.724,0.14l7.306-5.845C23.015,13.198,23,13.101,23,13
	c0-1.105,0.895-2,2-2c1.062,0,1.922,0.83,1.987,1.876l6.912,3.456C34.215,16.123,34.593,16,35,16c0.064,0,0.124,0.013,0.186,0.019
	l7.996-11.194C43.068,4.573,43,4.295,43,4c0-1.105,0.895-2,2-2c1.105,0,2,0.895,2,2c0,1.105-0.895,2-2,2
	c-0.064,0-0.124-0.013-0.187-0.019l-7.995,11.194C36.932,17.427,37,17.705,37,18c0,1.105-0.895,2-2,2
	c-1.062,0-1.922-0.83-1.987-1.876L26.1,14.668C25.785,14.877,25.407,15,25,15c-0.258,0-0.502-0.053-0.728-0.141l-7.306,5.804
	C16.985,20.772,17,20.884,17,21c0,1.105-0.895,2-2,2c-0.465,0-0.888-0.165-1.228-0.432l-6.801,2.721C6.83,26.256,6.006,27,5,27
	C3.895,27,3,26.105,3,25z"/>
</svg>
