<?xml version="1.0" encoding="utf-8"?>
<!-- Generator: Adobe Illustrator 17.0.2, SVG Export Plug-In . SVG Version: 6.00 Build 0)  -->
<!DOCTYPE svg PUBLIC "-//W3C//DTD SVG 1.0//EN" "http://www.w3.org/TR/2001/REC-SVG-20010904/DTD/svg10.dtd">
<svg version="1.0" id="Layer_1" xmlns="http://www.w3.org/2000/svg" xmlns:xlink="http://www.w3.org/1999/xlink" x="0px" y="0px"
	 width="50px" height="50px" viewBox="0 0 50 50" style="enable-background:new 0 0 50 50;" xml:space="preserve">
<path d="M47.154,2H2.846C1.277,2,0,3.277,0,4.846V10v1v36c0,0.553,0.448,1,1,1h48c0.553,0,1-0.447,1-1V11v-1V4.846
	C50,3.277,48.724,2,47.154,2z M2,4.846C2,4.379,2.379,4,2.846,4h44.308C47.621,4,48,4.379,48,4.846V9H2V4.846z M48,46H2V11h46V46z
	 M7.434,24.323c0-0.912,0.141-1.776,0.423-2.592c0.282-0.816,0.687-1.53,1.215-2.143c0.528-0.612,1.173-1.098,1.935-1.458
	c0.762-0.359,1.623-0.54,2.583-0.54c0.72,0,1.398,0.1,2.034,0.297c0.636,0.198,1.197,0.486,1.683,0.864
	c0.486,0.378,0.879,0.837,1.179,1.377c0.3,0.54,0.486,1.158,0.558,1.854h-2.25l0,0.002c-0.096-0.372-0.228-0.714-0.396-1.026
	s-0.384-0.582-0.648-0.81c-0.264-0.229-0.573-0.405-0.927-0.531c-0.354-0.126-0.765-0.189-1.233-0.189
	c-0.684,0-1.275,0.139-1.773,0.414c-0.498,0.276-0.903,0.646-1.215,1.107c-0.312,0.461-0.543,0.987-0.693,1.575
	c-0.15,0.588-0.225,1.188-0.225,1.8c0,0.611,0.075,1.212,0.225,1.8c0.15,0.588,0.381,1.113,0.693,1.575
	c0.312,0.462,0.717,0.831,1.215,1.106c0.498,0.276,1.089,0.414,1.773,0.414c0.504,0,0.948-0.087,1.332-0.261
	c0.384-0.174,0.714-0.414,0.99-0.72c0.276-0.307,0.492-0.663,0.648-1.071c0.156-0.408,0.258-0.846,0.306-1.314h2.196
	c-0.048,0.769-0.213,1.471-0.495,2.106c-0.282,0.636-0.663,1.186-1.143,1.647c-0.48,0.461-1.044,0.818-1.692,1.07
	c-0.648,0.252-1.362,0.378-2.142,0.378c-0.96,0-1.821-0.177-2.583-0.53c-0.762-0.354-1.407-0.837-1.935-1.449
	c-0.528-0.612-0.933-1.326-1.215-2.143C7.575,26.117,7.434,25.246,7.434,24.323z M23.49,30.75h-2.502v-2.43h2.502V30.75z
	 M23.49,24.073h-2.502v-2.431h2.502V24.073z M29.52,31.056l-5.166-13.464h1.962l5.165,13.464H29.52z"/>
</svg>
