<?xml version="1.0" encoding="utf-8"?>
<!-- Generator: Adobe Illustrator 17.0.2, SVG Export Plug-In . SVG Version: 6.00 Build 0)  -->
<!DOCTYPE svg PUBLIC "-//W3C//DTD SVG 1.0//EN" "http://www.w3.org/TR/2001/REC-SVG-20010904/DTD/svg10.dtd">
<svg version="1.0" id="Layer_1" xmlns="http://www.w3.org/2000/svg" xmlns:xlink="http://www.w3.org/1999/xlink" x="0px" y="0px"
	 width="50px" height="50px" viewBox="0 0 50 50" style="enable-background:new 0 0 50 50;" xml:space="preserve">
<g>
	<path d="M15.37,29.086c-0.055-0.635-0.034-1.078-0.034-1.658c0.276-0.151,0.771-1.113,0.856-1.926
		c0.218-0.018,0.56-0.238,0.661-1.11c0.054-0.468-0.161-0.73-0.291-0.813c0.353-1.107,1.089-4.531-1.361-4.885
		C14.949,18.233,14.304,18,13.466,18c-3.359,0.064-3.763,2.634-3.028,5.578c-0.13,0.083-0.346,0.345-0.291,0.813
		c0.102,0.872,0.442,1.092,0.661,1.11c0.083,0.813,0.599,1.775,0.876,1.926c0,0.58,0.021,1.023-0.035,1.658
		C10.985,30.942,6.208,30.421,6,34h15C20.793,30.421,16.034,30.942,15.37,29.086z"/>
	<rect x="26" y="32" width="18" height="2"/>
	<rect x="26" y="22" width="18" height="2"/>
	<rect x="26" y="27" width="18" height="2"/>
	<path d="M47,11H26v-1c0-1.654-1.346-3-3-3H3c-1.654,0-3,1.346-3,3v32c0,1.654,1.346,3,3,3h7v-2h2v2h26v-2h2v2h7
		c1.654,0,3-1.346,3-3V14C50,12.346,48.654,11,47,11z M48,42c0,0.552-0.448,1-1,1h-5v-2h-6v2H14v-2H8v2H3c-0.551,0-1-0.448-1-1V10
		c0-0.551,0.449-1,1-1h20c0.551,0,1,0.449,1,1v3h23c0.552,0,1,0.449,1,1V42z"/>
</g>
</svg>
