<?xml version="1.0" encoding="utf-8"?>
<!-- Generator: Adobe Illustrator 17.0.2, SVG Export Plug-In . SVG Version: 6.00 Build 0)  -->
<!DOCTYPE svg PUBLIC "-//W3C//DTD SVG 1.0//EN" "http://www.w3.org/TR/2001/REC-SVG-20010904/DTD/svg10.dtd">
<svg version="1.0" id="Layer_1" xmlns="http://www.w3.org/2000/svg" xmlns:xlink="http://www.w3.org/1999/xlink" x="0px" y="0px"
	 width="50px" height="50px" viewBox="0 0 50 50" style="enable-background:new 0 0 50 50;" xml:space="preserve">
<g>
	<path d="M47,11c0-1.304-0.836-2.416-2-2.829V3c0-1.654-1.346-3-3-3H8.208C6.181,0,4,1.252,4,4v43c0,1.654,1.346,3,3,3h32
		c1.654,0,3-1.346,3-3v-1h2c1.654,0,3-1.346,3-3v-5c0-0.768-0.29-1.469-0.766-2C46.71,35.469,47,34.768,47,34v-5
		c0-0.768-0.29-1.469-0.766-2C46.71,26.469,47,25.768,47,25v-5c0-0.768-0.29-1.469-0.766-2C46.71,17.469,47,16.768,47,16V11z M40,47
		c0,0.552-0.448,1-1,1H7c-0.551,0-1-0.448-1-1V7.31C6.809,7.753,7.829,8,9,8h30c0.552,0,1,0.449,1,1V47z M41.829,8
		C41.416,6.836,40.304,6,39,6H9C7.616,6,6,5.476,6,4c0-1.856,1.69-2,2.208-2H42c0.552,0,1,0.449,1,1v5H41.829z M45,43
		c0,0.552-0.448,1-1,1h-2v-7h2c0.552,0,1,0.448,1,1V43z M45,34c0,0.552-0.448,1-1,1h-2v-7h2c0.552,0,1,0.448,1,1V34z M45,25
		c0,0.552-0.448,1-1,1h-2v-7h2c0.552,0,1,0.449,1,1V25z M45,16c0,0.551-0.448,1-1,1h-2v-7h2c0.552,0,1,0.449,1,1V16z"/>
	<path d="M23.012,19L23.012,19c-5.316,0-9.012,3.673-9.013,8.941c0,5.317,3.697,8.967,9.012,8.967c2.35,0,3.994-0.412,5.52-1.232
		c0.116-0.068,0.16-0.184,0.092-0.297l-0.365-0.912c-0.068-0.137-0.181-0.16-0.317-0.092c-1.302,0.64-2.74,1.051-4.929,1.051
		c-4.495,0-7.392-3.011-7.392-7.484c0-4.447,2.898-7.459,7.392-7.459c4.494,0,7.367,3.057,7.367,7.459
		c0,2.579-0.933,3.377-2.006,3.377c-0.844,0-1.622-0.591-1.622-1.938v-5.612c0-0.137-0.065-0.206-0.203-0.206h-1.209
		c-0.092,0-0.183,0.069-0.183,0.206v0.798h-0.047c-0.388-0.662-1.278-1.232-2.621-1.232c-1.576,0-2.692,0.73-3.197,2.236
		c-0.182,0.615-0.294,1.276-0.294,2.486c0,1.209,0.112,1.87,0.294,2.486c0.505,1.506,1.621,2.235,3.265,2.235
		c1.551,0,2.576-0.593,3.08-1.597h0.022c0.434,0.98,1.391,1.62,2.715,1.62c1.986,0,3.627-1.46,3.627-4.86
		C32,22.695,28.306,19,23.012,19z M24.974,29.859c-0.345,0.957-1.027,1.414-2.076,1.414c-1.05,0-1.734-0.457-2.054-1.414
		c-0.138-0.412-0.206-0.89-0.206-1.803c0-0.912,0.068-1.392,0.206-1.801c0.32-0.96,1.003-1.416,2.054-1.416
		c1.049,0,1.731,0.456,2.076,1.416c0.135,0.409,0.182,0.889,0.182,1.801C25.156,28.969,25.109,29.447,24.974,29.859z"/>
</g>
</svg>
