<?xml version="1.0" encoding="utf-8"?>
<!-- Generator: Adobe Illustrator 17.0.2, SVG Export Plug-In . SVG Version: 6.00 Build 0)  -->
<!DOCTYPE svg PUBLIC "-//W3C//DTD SVG 1.0//EN" "http://www.w3.org/TR/2001/REC-SVG-20010904/DTD/svg10.dtd">
<svg version="1.0" id="Layer_1" xmlns="http://www.w3.org/2000/svg" xmlns:xlink="http://www.w3.org/1999/xlink" x="0px" y="0px"
	 width="50px" height="50px" viewBox="0 0 50 50" style="enable-background:new 0 0 50 50;" xml:space="preserve">
<path d="M42,9H8c-3.717,0-6,3.495-6,6v20.384C2,38.48,4.52,41,7.616,41h34.768C45.48,41,48,38.48,48,35.384V14.846
	C48,11.787,45.141,9,42,9z M8,11h34c2.019,0,4,1.905,4,3.846V16H4v-1C4,13.643,5.412,11,8,11z M42.384,39H7.616
	C5.622,39,4,37.378,4,35.384V21h42v14.384C46,37.378,44.378,39,42.384,39z"/>
</svg>
