<?xml version="1.0" encoding="utf-8"?>
<!-- Generator: Adobe Illustrator 17.0.2, SVG Export Plug-In . SVG Version: 6.00 Build 0)  -->
<!DOCTYPE svg PUBLIC "-//W3C//DTD SVG 1.0//EN" "http://www.w3.org/TR/2001/REC-SVG-20010904/DTD/svg10.dtd">
<svg version="1.0" id="Layer_1" xmlns="http://www.w3.org/2000/svg" xmlns:xlink="http://www.w3.org/1999/xlink" x="0px" y="0px"
	 width="50px" height="50px" viewBox="0 0 50 50" style="enable-background:new 0 0 50 50;" xml:space="preserve">
<path d="M17,15c0-0.552,0.448-1,1-1h17c0.553,0,1,0.448,1,1v17c0,0.553-0.447,1-1,1s-1-0.447-1-1V16H18C17.448,16,17,15.552,17,15z
	 M18,10h22v22c0,0.553,0.447,1,1,1s1-0.447,1-1V9c0-0.552-0.447-1-1-1H18c-0.552,0-1,0.448-1,1S17.448,10,18,10z M47,35v6
	c0,0.553-0.447,1-1,1h-4v4c0,0.553-0.447,1-1,1h-6c-0.553,0-1-0.447-1-1v-4H9c-0.552,0-1-0.447-1-1V16H4c-0.552,0-1-0.448-1-1V9
	c0-0.552,0.448-1,1-1h4V4c0-0.552,0.448-1,1-1h6c0.552,0,1,0.448,1,1v30h30C46.553,34,47,34.447,47,35z M8,10H5v4h3V10z M40,42h-4v3
	h4V42z M45,36H15c-0.552,0-1-0.447-1-1V5h-4v35h35V36z"/>
</svg>
