<?xml version="1.0" encoding="utf-8"?>
<!-- Generator: Adobe Illustrator 17.0.2, SVG Export Plug-In . SVG Version: 6.00 Build 0)  -->
<!DOCTYPE svg PUBLIC "-//W3C//DTD SVG 1.0//EN" "http://www.w3.org/TR/2001/REC-SVG-20010904/DTD/svg10.dtd">
<svg version="1.0" id="Layer_1" xmlns="http://www.w3.org/2000/svg" xmlns:xlink="http://www.w3.org/1999/xlink" x="0px" y="0px"
	 width="50px" height="50px" viewBox="0 0 50 50" style="enable-background:new 0 0 50 50;" xml:space="preserve">
<path d="M11.449,9.219c-0.243-2.014-1.972-3.477-4.111-3.477c-1.049,0-2.036,0.434-2.706,1.189C3.969,7.679,3.671,8.653,3.794,9.676
	c0.249,2.057,2.145,3.731,4.228,3.731c0.961,0,1.849-0.404,2.5-1.139C11.246,11.451,11.584,10.339,11.449,9.219z M9.025,10.941
	c-0.188,0.212-0.515,0.466-1.003,0.466c-1.067,0-2.115-0.921-2.242-1.97C5.727,8.991,5.85,8.572,6.128,8.258
	c0.295-0.333,0.725-0.516,1.209-0.516c1.111,0,2.005,0.722,2.125,1.717C9.529,10.003,9.365,10.558,9.025,10.941z M8.022,35.594
	c-2.083,0-3.98,1.674-4.228,3.731c-0.124,1.021,0.173,1.995,0.836,2.743c0.67,0.756,1.657,1.189,2.708,1.189
	c2.138,0,3.867-1.462,4.111-3.477c0.135-1.12-0.202-2.231-0.927-3.049C9.871,35.998,8.983,35.594,8.022,35.594z M9.463,39.541
	c-0.121,0.995-1.014,1.717-2.125,1.717c-0.486,0-0.916-0.184-1.211-0.517c-0.278-0.313-0.401-0.73-0.347-1.177
	c0.126-1.05,1.174-1.971,2.242-1.971c0.488,0,0.815,0.253,1.003,0.466C9.365,38.442,9.529,38.997,9.463,39.541z M29.21,24.5
	L49.594,9.462C49.842,9.279,49.992,8.991,50,8.683s-0.128-0.604-0.366-0.799c-4.147-3.395-9.251-1.256-11.349,0.334L22.441,19.559
	c-1.512-0.919-6.931-4.206-8.363-4.978c-0.306-0.165-0.495-0.288-0.61-0.376c1.3-1.149,1.979-3.276,1.979-4.818
	C15.446,7.073,13.474,2,7.621,2C2.03,2,0,6.292,0,9.177c0,2.266,0.857,5.35,4.939,7.168c0.692,0.309,1.414,0.594,2.155,0.887
	c3.417,1.353,6.947,2.75,10.005,7.27c-3.045,4.511-6.576,5.91-10.003,7.267c-0.742,0.293-1.464,0.579-2.156,0.889
	C0.857,34.475,0,37.558,0,39.823C0,42.708,2.03,47,7.621,47c5.855,0,7.826-5.074,7.826-7.389c0-1.542-0.68-3.669-1.98-4.817
	c0.116-0.088,0.304-0.211,0.611-0.377c1.417-0.762,6.729-3.984,8.358-4.978l15.827,11.327c2.119,1.607,7.225,3.746,11.37,0.35
	c0.238-0.195,0.374-0.49,0.366-0.799s-0.158-0.596-0.406-0.779L29.21,24.5z M7.83,15.373c-0.714-0.283-1.409-0.558-2.077-0.855
	C3.263,13.408,2,11.611,2,9.177C2,9.125,2.064,4,7.621,4c5.481,0,5.827,5.335,5.827,5.388c0,1.074-0.515,2.662-1.345,3.354
	c-0.708,0.588-0.807,1.204-0.765,1.617c0.108,1.076,1.246,1.688,1.792,1.983c1.2,0.646,5.488,3.237,7.543,4.483l-2.204,1.578
	c-0.092,0.065-0.172,0.146-0.236,0.238C14.947,18.189,11.18,16.698,7.83,15.373z M21.785,27.498
	c-0.07,0.042-7.068,4.304-8.655,5.158c0,0,0,0,0,0.001c-0.547,0.294-1.684,0.906-1.792,1.981c-0.042,0.412,0.057,1.028,0.764,1.618
	c0.832,0.692,1.346,2.28,1.346,3.354c0,0.054-0.342,5.389-5.826,5.389C2.064,45,2,39.875,2,39.823c0-2.434,1.263-4.23,3.753-5.34
	c0.668-0.298,1.364-0.573,2.078-0.855c3.739-1.48,8.382-3.319,11.984-9.73L39.469,9.829c0.183-0.135,4.11-3.024,7.789-1.129
	L21.785,27.498z M39.449,39.156L24.168,28.22l3.357-2.477l19.732,14.558C43.577,42.197,39.649,39.307,39.449,39.156z M24.099,24
	c0,0.607-0.492,1.099-1.099,1.099S21.901,24.607,21.901,24s0.492-1.099,1.099-1.099S24.099,23.393,24.099,24z"/>
</svg>
