<?xml version="1.0" encoding="utf-8"?>
<!-- Generator: Adobe Illustrator 17.0.2, SVG Export Plug-In . SVG Version: 6.00 Build 0)  -->
<!DOCTYPE svg PUBLIC "-//W3C//DTD SVG 1.0//EN" "http://www.w3.org/TR/2001/REC-SVG-20010904/DTD/svg10.dtd">
<svg version="1.0" id="Layer_1" xmlns="http://www.w3.org/2000/svg" xmlns:xlink="http://www.w3.org/1999/xlink" x="0px" y="0px"
	 width="50px" height="50.119px" viewBox="0 0 50 50.119" style="enable-background:new 0 0 50 50.119;" xml:space="preserve">
<g>
	<path d="M28.937,46.244C26.435,46.746,23.764,47,21,47C9.635,47,2,42.863,2,39v-4.669C5.333,37.713,12.502,40,21,40
		c1.057,0,2.115-0.037,3.145-0.109c0.551-0.038,0.966-0.516,0.927-1.067c-0.038-0.55-0.528-0.975-1.067-0.927
		C23.022,37.965,22.01,38,21,38C9.635,38,2,33.863,2,30v-5.668C5.333,27.713,12.502,30,21,30c0.552,0,1-0.447,1-1s-0.448-1-1-1
		C9.635,28,2,23.863,2,20v-5.696C5.323,17.697,12.484,20,21,20c8.516,0,15.677-2.303,19-5.696V20c0,0.552,0.447,1,1,1s1-0.448,1-1
		V10c0-5.607-9.225-10-21-10C9.224,0,0,4.393,0,10v29c0,5.607,9.224,10,21,10c2.896,0,5.698-0.268,8.329-0.795
		c0.542-0.108,0.893-0.636,0.784-1.177C30.004,46.486,29.476,46.134,28.937,46.244z M21,2c11.365,0,19,4.137,19,8s-7.635,8-19,8
		S2,13.863,2,10S9.635,2,21,2z"/>
	<path d="M49.211,26.24c-3.996-0.863-6.359-2.087-8.085-2.98C39.767,22.556,38.693,22,37.5,22s-2.267,0.556-3.626,1.26
		c-1.726,0.894-4.089,2.117-8.085,2.98L25,26.411v0.807c0,16.708,11.575,22.448,12.067,22.684l0.453,0.218l0.445-0.234
		C38.457,49.626,50,43.367,50,27.218v-0.807L49.211,26.24z M37.48,47.855c-2.051-1.174-10.156-6.642-10.471-19.842
		c3.776-0.903,6.075-2.094,7.784-2.978c1.161-0.602,2-1.036,2.706-1.036s1.545,0.435,2.706,1.036
		c1.709,0.884,4.007,2.074,7.784,2.978C47.663,40.801,39.525,46.599,37.48,47.855z"/>
</g>
</svg>
