<?xml version="1.0" encoding="utf-8"?>
<!-- Generator: Adobe Illustrator 17.0.2, SVG Export Plug-In . SVG Version: 6.00 Build 0)  -->
<!DOCTYPE svg PUBLIC "-//W3C//DTD SVG 1.0//EN" "http://www.w3.org/TR/2001/REC-SVG-20010904/DTD/svg10.dtd">
<svg version="1.0" id="Layer_1" xmlns="http://www.w3.org/2000/svg" xmlns:xlink="http://www.w3.org/1999/xlink" x="0px" y="0px"
	 width="50.018px" height="50.018px" viewBox="0 0 50.018 50.018" style="enable-background:new 0 0 50.018 50.018;"
	 xml:space="preserve">
<g>
	<path d="M28.78,46.275C26.326,46.756,23.709,47,21,47C9.635,47,2,42.863,2,39v-4.669C5.333,37.713,12.502,40,21,40
		c1.732,0,3.451-0.098,5.107-0.289c0.548-0.063,0.941-0.56,0.878-1.108c-0.062-0.549-0.553-0.946-1.108-0.878
		C24.297,37.907,22.656,38,21,38C9.635,38,2,33.863,2,30v-5.668C5.333,27.713,12.502,30,21,30s15.668-2.287,19-5.668V27
		c0,0.553,0.447,1,1,1s1-0.447,1-1V10c0-5.607-9.225-10-21-10C9.224,0,0,4.393,0,10v29c0,5.607,9.224,10,21,10
		c2.838,0,5.585-0.256,8.165-0.762c0.542-0.106,0.896-0.632,0.789-1.174C29.848,46.523,29.326,46.169,28.78,46.275z M21,2
		c11.365,0,19,4.137,19,8s-7.635,8-19,8S2,13.863,2,10S9.635,2,21,2z M21,20c8.516,0,15.677-2.303,19-5.696V20c0,3.863-7.635,8-19,8
		S2,23.863,2,20v-5.696C5.323,17.697,12.484,20,21,20z"/>
	<path d="M49,38.982c-0.562,0-1.018,0.455-1.018,1.018c0,4.401-3.581,7.982-7.982,7.982S32.018,44.401,32.018,40
		s3.581-7.982,7.982-7.982c3.162,0,5.097,1.99,5.866,2.982H42.32c-0.553,0-1,0.447-1,1s0.447,1,1,1H49v-6.68c0-0.553-0.447-1-1-1
		s-1,0.447-1,1v2.874c-1.209-1.342-3.514-3.212-7-3.212c-5.524,0-10.018,4.493-10.018,10.018S34.476,50.018,40,50.018
		S50.018,45.524,50.018,40C50.018,39.438,49.563,38.982,49,38.982z"/>
</g>
</svg>
