<?xml version="1.0" encoding="utf-8"?>
<!-- Generator: Adobe Illustrator 17.0.2, SVG Export Plug-In . SVG Version: 6.00 Build 0)  -->
<!DOCTYPE svg PUBLIC "-//W3C//DTD SVG 1.0//EN" "http://www.w3.org/TR/2001/REC-SVG-20010904/DTD/svg10.dtd">
<svg version="1.0" id="Layer_1" xmlns="http://www.w3.org/2000/svg" xmlns:xlink="http://www.w3.org/1999/xlink" x="0px" y="0px"
	 width="50px" height="50px" viewBox="0 0 50 50" style="enable-background:new 0 0 50 50;" xml:space="preserve">
<g>
	<path d="M21,38C9.635,38,2,33.863,2,30v-5.668C5.333,27.713,12.502,30,21,30c2.824,0,5.561-0.254,8.133-0.756
		c0.542-0.105,0.896-0.631,0.79-1.173s-0.634-0.898-1.173-0.79C26.304,27.758,23.696,28,21,28C9.635,28,2,23.863,2,20v-5.696
		C5.323,17.697,12.484,20,21,20c8.516,0,15.677-2.303,19-5.696V19c0,0.552,0.447,1,1,1s1-0.448,1-1v-9c0-5.607-9.225-10-21-10
		C9.224,0,0,4.393,0,10v29c0,5.032,7.542,9.195,17.933,9.898c0.023,0.001,0.046,0.002,0.068,0.002c0.521,0,0.961-0.404,0.997-0.933
		c0.038-0.551-0.379-1.027-0.93-1.065C9.058,46.293,2,42.821,2,39v-4.669C5.333,37.713,12.502,40,21,40c0.552,0,1-0.447,1-1
		S21.552,38,21,38z M21,2c11.365,0,19,4.137,19,8s-7.635,8-19,8S2,13.863,2,10S9.635,2,21,2z"/>
	<path d="M41,22c-4.963,0-9,4.037-9,9c0,0.79,0.103,1.557,0.294,2.287l-10.001,10.01C22.105,43.484,22,43.739,22,44.004V49
		c0,0.553,0.448,1,1,1h5c0.266,0,0.52-0.105,0.707-0.293L29.414,49H32c0.553,0,1-0.447,1-1v-2h2c0.553,0,1-0.447,1-1v-2h2
		c0.553,0,1-0.447,1-1v-2.224C39.644,39.923,40.313,40,41,40c4.963,0,9-4.037,9-9S45.963,22,41,22z M37,41h-2c-0.553,0-1,0.447-1,1
		v2h-2c-0.553,0-1,0.447-1,1v2h-2c-0.266,0-0.52,0.105-0.707,0.293L27.586,48H24v-3.582l9.101-9.108
		c0.285,0.521,0.619,1.01,0.998,1.461l-6.881,6.883c-0.391,0.391-0.391,1.023,0,1.414s1.023,0.391,1.414,0l6.912-6.914
		c0.453,0.347,0.941,0.651,1.456,0.908V41z M41,38c-3.859,0-7-3.141-7-7s3.141-7,7-7s7,3.141,7,7S44.859,38,41,38z"/>
	<circle cx="44" cy="28.999" r="2"/>
</g>
</svg>
