<?xml version="1.0" encoding="utf-8"?>
<!-- Generator: Adobe Illustrator 17.0.2, SVG Export Plug-In . SVG Version: 6.00 Build 0)  -->
<!DOCTYPE svg PUBLIC "-//W3C//DTD SVG 1.0//EN" "http://www.w3.org/TR/2001/REC-SVG-20010904/DTD/svg10.dtd">
<svg version="1.0" id="Layer_1" xmlns="http://www.w3.org/2000/svg" xmlns:xlink="http://www.w3.org/1999/xlink" x="0px" y="0px"
	 width="50px" height="50px" viewBox="0 0 50 50" style="enable-background:new 0 0 50 50;" xml:space="preserve">
<path d="M25,0C13.224,0,4,4.393,4,10v29c0,5.607,9.224,10,21,10c11.775,0,21-4.393,21-10V10C46,4.393,36.775,0,25,0z M25,2
	c11.365,0,19,4.137,19,8s-7.635,8-19,8S6,13.863,6,10S13.635,2,25,2z M6,14.332C9.333,17.712,16.502,20,25,20s15.668-2.288,19-5.668
	V20c0,3.863-7.635,8-19,8S6,23.863,6,20V14.332z M44,39c0,3.863-7.635,8-19,8S6,42.863,6,39v-4.696C9.323,37.697,16.484,40,25,40
	c8.516,0,15.677-2.303,19-5.696V39z M44,30c0,3.863-7.635,8-19,8S6,33.863,6,30v-5.696C9.323,27.697,16.484,30,25,30
	c8.516,0,15.677-2.303,19-5.696V30z"/>
</svg>
