<?xml version="1.0" encoding="utf-8"?>
<!-- Generator: Adobe Illustrator 17.0.2, SVG Export Plug-In . SVG Version: 6.00 Build 0)  -->
<!DOCTYPE svg PUBLIC "-//W3C//DTD SVG 1.0//EN" "http://www.w3.org/TR/2001/REC-SVG-20010904/DTD/svg10.dtd">
<svg version="1.0" id="Layer_1" xmlns="http://www.w3.org/2000/svg" xmlns:xlink="http://www.w3.org/1999/xlink" x="0px" y="0px"
	 width="50px" height="50px" viewBox="0 0 50 50" style="enable-background:new 0 0 50 50;" xml:space="preserve">
<path d="M20.233,13.961h-0.092c-0.42,0-0.796,0.263-0.94,0.659l-5.566,15.317c-0.111,0.307-0.066,0.648,0.121,0.916
	c0.187,0.267,0.493,0.426,0.819,0.426h11.132c0.325,0,0.63-0.158,0.817-0.424s0.233-0.606,0.124-0.913l-5.474-15.317
	C21.032,14.227,20.655,13.961,20.233,13.961z M16.002,29.278l4.177-11.495l4.108,11.495H16.002z M23.603,10.641
	c-0.15-0.384-0.52-0.636-0.932-0.636h-4.83c-0.412,0-0.782,0.253-0.932,0.637L4.122,43.485c-0.12,0.309-0.08,0.655,0.106,0.928
	c0.187,0.272,0.496,0.436,0.826,0.436h4.462c0.418,0,0.792-0.26,0.937-0.651l3.438-9.238h12.496l3.349,9.23
	c0.144,0.396,0.52,0.659,0.94,0.659h4.83c0.007,0,0.015,0,0.02,0c0.553,0,1-0.447,1-1c0-0.197-0.057-0.382-0.155-0.537
	L23.603,10.641z M31.376,42.849l-3.349-9.23c-0.144-0.396-0.52-0.659-0.94-0.659H13.195c-0.418,0-0.792,0.26-0.937,0.651
	L8.82,42.849H6.516l12.009-30.844h3.463L34.04,42.849H31.376z M48,25c0,0.553-0.447,1-1,1H37c-0.553,0-1-0.447-1-1
	c0-0.552,0.447-1,1-1h10C47.553,24,48,24.448,48,25z"/>
</svg>
