<?xml version="1.0" encoding="utf-8"?>
<!-- Generator: Adobe Illustrator 17.1.0, SVG Export Plug-In . SVG Version: 6.00 Build 0)  -->
<!DOCTYPE svg PUBLIC "-//W3C//DTD SVG 1.0//EN" "http://www.w3.org/TR/2001/REC-SVG-20010904/DTD/svg10.dtd">
<svg version="1.0" id="Layer_1" xmlns="http://www.w3.org/2000/svg" xmlns:xlink="http://www.w3.org/1999/xlink" x="0px" y="0px"
	 viewBox="0 0 50 50" style="enable-background:new 0 0 50 50;" xml:space="preserve">
<path d="M16.002,22.866c1.825,1.553,3.177,2.697,3.547,2.993C21.382,27.43,23.272,27.6,24,27.6c0.728,0,2.619-0.17,4.425-1.719
	c0.377-0.302,1.735-1.45,3.565-3.008l2.885,2.308c0.185,0.147,0.405,0.22,0.624,0.22c0.294,0,0.584-0.129,0.782-0.376
	c0.345-0.431,0.274-1.061-0.156-1.405l-2.585-2.068c4.183-3.568,9.772-8.358,12.46-10.662V25c0,0.553,0.447,1,1,1s1-0.447,1-1V4H0
	v34h27c0.553,0,1-0.447,1-1s-0.447-1-1-1H2v-2.233L16.002,22.866z M2,31.232V10.889c2.686,2.303,8.272,7.09,12.448,10.652L2,31.232z
	 M46,6v2.255c-2.137,1.833-17.453,14.967-18.852,16.086C25.786,25.509,24.394,25.6,24,25.6s-1.786-0.091-3.175-1.281
	C19.451,23.22,4.135,10.086,2,8.254V6H46z M44.207,33.207L41.414,36l2.793,2.793c0.391,0.391,0.391,1.023,0,1.414
	C44.012,40.402,43.756,40.5,43.5,40.5s-0.512-0.098-0.707-0.293L40,37.414l-2.793,2.793c-0.391,0.391-1.023,0.391-1.414,0
	s-0.391-1.023,0-1.414L38.586,36l-2.793-2.793c-0.391-0.391-0.391-1.023,0-1.414s1.023-0.391,1.414,0L40,34.586l2.793-2.793
	c0.391-0.391,1.023-0.391,1.414,0S44.598,32.816,44.207,33.207z M40,26c-5.514,0-10,4.486-10,10s4.486,10,10,10s10-4.486,10-10
	S45.514,26,40,26z M40,44c-4.411,0-8-3.589-8-8s3.589-8,8-8s8,3.589,8,8S44.411,44,40,44z"/>
</svg>
