<?xml version="1.0" encoding="utf-8"?>
<!-- Generator: Adobe Illustrator 17.1.0, SVG Export Plug-In . SVG Version: 6.00 Build 0)  -->
<!DOCTYPE svg PUBLIC "-//W3C//DTD SVG 1.0//EN" "http://www.w3.org/TR/2001/REC-SVG-20010904/DTD/svg10.dtd">
<svg version="1.0" id="Layer_1" xmlns="http://www.w3.org/2000/svg" xmlns:xlink="http://www.w3.org/1999/xlink" x="0px" y="0px"
	 viewBox="0 0 50 50" style="enable-background:new 0 0 50 50;" xml:space="preserve">
<path d="M46.215,7.847C38.812,6.221,34.44,3.922,31.248,2.244C28.771,0.941,26.981,0,25,0s-3.771,0.941-6.249,2.244
	c-3.192,1.678-7.563,3.977-14.965,5.603L3,8.019v0.804c0,30.464,21.365,40.68,21.581,40.779l0.44,0.203l0.433-0.221
	c0.222-0.112,5.494-2.84,10.815-9.246C41.165,34.445,47,24.193,47,8.823V8.019L46.215,7.847z M24.978,47.561
	c-1.352-0.727-5.592-3.24-9.781-8.21C10.627,33.929,5.195,24.398,5.005,9.622c7.188-1.669,11.499-3.936,14.677-5.607
	C21.906,2.845,23.512,2,25,2c1.487,0,3.094,0.845,5.317,2.014c3.178,1.671,7.489,3.938,14.677,5.607
	C44.647,34.921,27.905,45.845,24.978,47.561z M25.5,21.086l5.793-5.793c0.391-0.391,1.023-0.391,1.414,0s0.391,1.023,0,1.414
	L26.914,22.5l5.793,5.793c0.391,0.391,0.391,1.023,0,1.414C32.512,29.902,32.256,30,32,30s-0.512-0.098-0.707-0.293L25.5,23.914
	l-5.793,5.793c-0.391,0.391-1.023,0.391-1.414,0s-0.391-1.023,0-1.414l5.793-5.793l-5.793-5.793c-0.391-0.391-0.391-1.023,0-1.414
	s1.023-0.391,1.414,0L25.5,21.086z"/>
</svg>
