<?xml version="1.0" encoding="utf-8"?>
<!-- Generator: Adobe Illustrator 17.0.2, SVG Export Plug-In . SVG Version: 6.00 Build 0)  -->
<!DOCTYPE svg PUBLIC "-//W3C//DTD SVG 1.0//EN" "http://www.w3.org/TR/2001/REC-SVG-20010904/DTD/svg10.dtd">
<svg version="1.0" id="Layer_1" xmlns="http://www.w3.org/2000/svg" xmlns:xlink="http://www.w3.org/1999/xlink" x="0px" y="0px"
	 width="50px" height="50px" viewBox="0 0 50 50" style="enable-background:new 0 0 50 50;" xml:space="preserve">
<g>
	<polygon points="34.004,24.59 33.297,25.297 33.293,25.293 31.293,27.293 32.707,28.707 34,27.414 35.586,29 33.293,31.293 
		34.707,32.707 37,30.414 38.586,32 37.293,33.293 38.707,34.707 40,33.414 41.586,35 39.293,37.293 40.707,38.707 43,36.414 
		44.586,38 43.293,39.293 44.707,40.707 46,39.414 46.648,40.062 40.062,46.649 26.004,32.59 24.59,34.004 40.062,49.478 
		49.477,40.062 	"/>
	<path d="M44.341,9.726L9.971,44.095l-0.01,0.003l-4.059-4.058l0.003-0.011L40.274,5.66l5.475,5.474
		c-0.005,0.004,0.824-0.825,0.824-0.825c1.901-1.901,1.901-4.983,0.002-6.883c-1.903-1.902-4.984-1.9-6.885,0
		c0,0-0.829,0.829-0.825,0.825L38.86,4.246l-12.6,12.6L9.938,0.523L0.524,9.938L16.846,26.26L4.302,38.804
		c-0.124,0.124-0.213,0.278-0.259,0.448l-2.009,7.489c-0.093,0.345,0.006,0.713,0.259,0.966C2.483,47.897,2.738,48,3,48
		c0.086,0,0.173-0.011,0.259-0.034l7.489-2.009c0.169-0.046,0.324-0.135,0.448-0.259L45.755,11.14L44.341,9.726z M3.352,9.938
		l6.586-6.587L11.586,5l-1.293,1.293l1.414,1.414L13,6.414L14.586,8l-2.293,2.293l1.414,1.414L16,9.414L17.586,11l-1.293,1.293
		l1.414,1.414L19,12.414L20.586,14l-2.293,2.293l1.414,1.414L22,15.414L23.586,17l-1.293,1.293l1.26,1.26l-5.293,5.293L3.352,9.938z
		"/>
</g>
</svg>
