<?xml version="1.0" encoding="utf-8"?>
<!-- Generator: Adobe Illustrator 17.0.2, SVG Export Plug-In . SVG Version: 6.00 Build 0)  -->
<!DOCTYPE svg PUBLIC "-//W3C//DTD SVG 1.0//EN" "http://www.w3.org/TR/2001/REC-SVG-20010904/DTD/svg10.dtd">
<svg version="1.0" id="Layer_1" xmlns="http://www.w3.org/2000/svg" xmlns:xlink="http://www.w3.org/1999/xlink" x="0px" y="0px"
	 width="50px" height="50px" viewBox="0 0 50 50" style="enable-background:new 0 0 50 50;" xml:space="preserve">
<path d="M0,15h1v1h15V0H0V15z M2,2h12v8.029l-2.642-2.494L8.895,8.767l-3.32-3.989L2,7.841V2z M2,10.475l3.335-2.858l3.036,3.647
	l2.631-1.314L14,12.779V14H2V10.475z M0,33h16V17H0V33z M2,19h12v12H2V19z M10,4.5C10,3.672,10.672,3,11.5,3S13,3.672,13,4.5
	S12.328,6,11.5,6S10,5.328,10,4.5z M0,50h16V34H0V50z M2,36h12v12H2V36z M10.799,40.903c-0.226-0.682,0.501-2.205,0.501-2.205
	s-1.568,0.842-2.08,0.569C8.707,38.995,8,37.333,8,37.333s-0.573,1.695-1.109,1.923c-0.537,0.228-2.189-0.558-2.189-0.558
	s0.736,1.653,0.556,2.201c-0.129,0.392-1.925,1.094-1.925,1.094l0.012,0.004c-0.002,0.001-0.012,0.004-0.012,0.004
	s1.747,0.625,1.868,1.094C5.38,43.791,4.7,45.3,4.7,45.3s1.568-0.842,2.08-0.569C7.292,45.005,8,46.667,8,46.667
	s0.573-1.695,1.108-1.923c0.537-0.228,2.19,0.558,2.19,0.558s-0.746-1.656-0.556-2.201c0.147-0.425,1.925-1.095,1.925-1.095
	l-0.012-0.004c0.002-0.001,0.012-0.005,0.012-0.005S10.938,41.328,10.799,40.903z M8,43.471c-0.813,0-1.472-0.659-1.472-1.471
	S7.187,40.529,8,40.529S9.472,41.188,9.472,42S8.813,43.471,8,43.471z M36,8c0-0.552,0.447-1,1-1h12c0.553,0,1,0.448,1,1
	s-0.447,1-1,1H37C36.447,9,36,8.552,36,8z M50,25c0,0.553-0.447,1-1,1H37c-0.553,0-1-0.447-1-1c0-0.552,0.447-1,1-1h12
	C49.553,24,50,24.448,50,25z M33,42c0,0.553-0.447,1-1,1H20c-0.552,0-1-0.447-1-1s0.448-1,1-1h12C32.553,41,33,41.447,33,42z M33,8
	c0,0.552-0.447,1-1,1H20c-0.552,0-1-0.448-1-1s0.448-1,1-1h12C32.553,7,33,7.448,33,8z M33,25c0,0.553-0.447,1-1,1H20
	c-0.552,0-1-0.447-1-1c0-0.552,0.448-1,1-1h12C32.553,24,33,24.448,33,25z M11.631,23.112c0.056-0.836-0.053-2.164-1.17-2.805
	c-1.103-0.63-2.288-0.074-2.984,0.394c-1.198-0.555-2.336-0.457-3.102,0.29c-0.902,0.877-0.832,2.096-0.54,2.995
	c-0.591,0.71-1.118,1.783-0.706,2.889c0.178,0.476,0.512,0.864,0.967,1.126c0.581,0.332,1.274,0.415,1.784,0.396
	c0.277,0.416,0.707,0.94,1.268,1.261c0.363,0.208,0.741,0.313,1.121,0.313c0.041,0,0.082-0.001,0.123-0.004
	c1.298-0.071,1.954-1.306,2.246-2.114c0.792-0.197,1.992-0.697,2.313-1.937v-0.001C13.288,24.611,12.332,23.632,11.631,23.112z
	 M9.766,25.982l-0.741,0.064l-0.151,0.729c-0.104,0.503-0.419,1.129-0.596,1.195C8.25,27.968,8.2,27.955,8.144,27.922
	c-0.344-0.196-0.696-0.76-0.811-0.998l-0.328-0.685l-0.747,0.126c-0.31,0.052-0.895,0.056-1.167-0.1
	c-0.069-0.04-0.08-0.068-0.087-0.089c-0.129-0.347,0.362-0.953,0.65-1.197l0.629-0.529l-0.391-0.722
	c-0.1-0.185-0.437-0.999-0.122-1.304c0.212-0.208,0.803,0.044,1.091,0.209c0.071,0.04,0.118,0.071,0.125,0.076l0.666,0.475
	l0.598-0.558c0.363-0.339,1.032-0.691,1.217-0.583c0.175,0.1,0.233,0.794,0.114,1.346L9.48,24.142l0.64,0.367
	c0.59,0.338,0.929,0.769,0.895,0.906C10.941,25.694,10.224,25.938,9.766,25.982z M50,42c0,0.553-0.447,1-1,1H37
	c-0.553,0-1-0.447-1-1s0.447-1,1-1h12C49.553,41,50,41.447,50,42z M9.753,25.099c-0.097,0.659-1.698-0.243-1.698-0.243
	s0.733,1.609,0.076,1.715c-0.658,0.105-0.294-1.691-0.294-1.691s-1.399,1.188-1.607,0.602c-0.207-0.586,1.518-0.802,1.518-0.802
	s-1.58-0.918-1.07-1.342c0.511-0.424,1.231,1.195,1.231,1.195s0.378-1.757,0.946-1.432c0.57,0.326-0.755,1.541-0.755,1.541
	S9.851,24.441,9.753,25.099z"/>
</svg>
