<?xml version="1.0" encoding="utf-8"?>
<!-- Generator: Adobe Illustrator 17.1.0, SVG Export Plug-In . SVG Version: 6.00 Build 0)  -->
<!DOCTYPE svg PUBLIC "-//W3C//DTD SVG 1.0//EN" "http://www.w3.org/TR/2001/REC-SVG-20010904/DTD/svg10.dtd">
<svg version="1.0" id="Layer_1" xmlns="http://www.w3.org/2000/svg" xmlns:xlink="http://www.w3.org/1999/xlink" x="0px" y="0px"
	 viewBox="0 0 50 50" style="enable-background:new 0 0 50 50;" xml:space="preserve">
<path d="M50,1v40c0,0.553-0.447,1-1,1H33v-2h15V2H2v38h15v2H1c-0.552,0-1-0.447-1-1V1c0-0.552,0.448-1,1-1h48
	C49.553,0,50,0.448,50,1z M40,9H10v2h30V9z M10,21h30v-2H10V21z M10,16h30v-2H10V16z M32.977,30.684
	c0.008,0.035,0.014,0.07,0.018,0.106c0.125,1.129-0.314,2.094-1.201,2.713c0.37,0.892,0.336,1.888-0.125,2.693
	c-0.017,0.029-0.035,0.058-0.055,0.085c-0.18,0.252-0.387,0.475-0.613,0.664V49c0,0.36-0.193,0.692-0.507,0.87
	C30.34,49.957,30.17,50,30,50c-0.179,0-0.356-0.048-0.515-0.143L25,47.166l-4.485,2.691c-0.31,0.186-0.694,0.191-1.007,0.013
	C19.194,49.692,19,49.36,19,49V37.39c-0.523-0.263-0.971-0.673-1.268-1.193c-0.484-0.848-0.497-1.905-0.066-2.83
	c-0.637-0.667-0.977-1.641-0.858-2.59c0.251-1.146,0.897-1.974,1.769-2.354c-0.082-0.964,0.301-1.919,1.072-2.581
	c0.806-0.69,1.856-0.917,2.781-0.661c0.536-0.775,1.464-1.28,2.471-1.28c0.996,0,1.901,0.505,2.466,1.333
	c1.007-0.266,2.007-0.06,2.784,0.606c0.783,0.672,1.165,1.643,1.07,2.619C32.122,28.873,32.747,29.654,32.977,30.684z M29,38.54
	c-0.329,0.572-0.849,1.023-1.508,1.281C27.096,40,26.663,40,26.4,40c-0.615,0-1.212-0.206-1.751-0.601
	c-0.855,0.622-1.867,0.787-2.8,0.438c-0.313-0.118-0.599-0.286-0.849-0.494v7.891l3.485-2.091C24.644,45.048,24.822,45,25,45
	c0.178,0,0.356,0.048,0.515,0.143L29,47.233V38.54z M31.012,31.064c-0.124-0.486-0.429-0.777-0.929-0.888
	c-0.188-0.042-0.358-0.137-0.494-0.272c-0.143-0.146-0.224-0.29-0.268-0.376c-0.221-0.273-0.283-0.646-0.158-0.979
	c0.164-0.436,0.047-0.881-0.314-1.19c-0.436-0.373-0.948-0.24-1.302-0.063c-0.358,0.179-0.812,0.062-0.995-0.026
	c-0.312-0.08-0.572-0.307-0.688-0.618c-0.065-0.176-0.33-0.75-0.963-0.75c-0.431,0-0.84,0.282-0.93,0.643
	c-0.098,0.391-0.418,0.679-0.806,0.743c-0.326,0.172-0.732,0.151-1.045-0.072c-0.316-0.225-0.807-0.164-1.169,0.146
	c-0.36,0.309-0.477,0.754-0.313,1.189c0.125,0.334,0.062,0.706-0.158,0.979c-0.05,0.098-0.13,0.238-0.27,0.378
	c-0.161,0.162-0.372,0.264-0.599,0.289c-0.582,0.064-0.777,0.667-0.834,0.923c-0.036,0.328,0.19,0.825,0.521,1.015
	C19.608,32.311,19.8,32.642,19.8,33v0.4c0,0.209-0.065,0.412-0.187,0.582c-0.285,0.397-0.341,0.877-0.145,1.222
	c0.201,0.351,0.604,0.55,1.008,0.504c0.042-0.005,0.083-0.008,0.124-0.008c0.263,0,0.517,0.104,0.706,0.291l0.3,0.3
	C21.794,36.479,21.9,36.734,21.9,37c0,0.417,0.274,0.822,0.652,0.964c0.483,0.185,0.923-0.154,1.14-0.371
	C23.88,37.405,24.135,37.3,24.4,37.3h0.5c0.265,0,0.52,0.105,0.708,0.293C26.014,38,26.305,38,26.4,38c0.079,0,0.244,0,0.305-0.016
	C27.175,37.804,27.4,37.471,27.4,37c0-0.266,0.105-0.52,0.293-0.707l0.303-0.304c0.218-0.216,0.517-0.318,0.828-0.281
	c0.406,0.049,0.833-0.158,1.129-0.545c0.17-0.34,0.106-0.798-0.167-1.181c-0.121-0.17-0.187-0.373-0.187-0.582V33
	c0-0.421,0.263-0.796,0.658-0.939C30.954,31.807,31.04,31.42,31.012,31.064z"/>
</svg>
