<?xml version="1.0" encoding="utf-8"?>
<!-- Generator: Adobe Illustrator 17.1.0, SVG Export Plug-In . SVG Version: 6.00 Build 0)  -->
<!DOCTYPE svg PUBLIC "-//W3C//DTD SVG 1.0//EN" "http://www.w3.org/TR/2001/REC-SVG-20010904/DTD/svg10.dtd">
<svg version="1.0" id="Layer_1" xmlns="http://www.w3.org/2000/svg" xmlns:xlink="http://www.w3.org/1999/xlink" x="0px" y="0px"
	 viewBox="0 0 50 50" style="enable-background:new 0 0 50 50;" xml:space="preserve">
<path d="M35,7c-2.192,0-4.268,0.51-6.168,1.516c-0.256,0.135-0.44,0.375-0.506,0.658l-1.3,5.6c-0.069,0.297,0.001,0.609,0.19,0.848
	S27.695,16,28,16h2.223l-3.052,7.628c-0.123,0.308-0.085,0.657,0.101,0.932C27.458,24.835,27.768,25,28.1,25h0.802l-4.142,6.668
	l1.216-5.45c0.066-0.296-0.006-0.606-0.195-0.843C25.591,25.138,25.304,25,25,25h-1.898l2.643-7.674
	c0.105-0.306,0.057-0.643-0.131-0.906C25.426,16.156,25.123,16,24.8,16h-2.99l1.073-5.612c0.072-0.378-0.079-0.765-0.389-0.993
	C20.367,7.828,17.776,7,15,7C7.832,7,2,12.832,2,20c0,11.601,10.169,18.408,17.595,23.379c1.904,1.274,3.548,2.375,4.765,3.39
	C24.545,46.923,24.772,47,25,47s0.455-0.077,0.641-0.231c1.217-1.015,2.86-2.115,4.765-3.39C37.831,38.408,48,31.601,48,20
	C48,12.832,42.168,7,35,7z M29.293,41.717c-1.645,1.101-3.1,2.075-4.293,3.001c-1.193-0.926-2.649-1.9-4.293-3.001
	C13.656,36.997,4,30.533,4,20C4,13.935,8.935,9,15,9c2.126,0,4.116,0.569,5.795,1.652l-1.178,6.16
	c-0.056,0.293,0.022,0.596,0.212,0.825C20.02,17.867,20.302,18,20.6,18h2.798l-2.643,7.675c-0.105,0.305-0.057,0.643,0.131,0.906
	C21.074,26.844,21.377,27,21.7,27h2.052l-2.228,9.982c-0.106,0.476,0.146,0.959,0.598,1.144c0.452,0.184,0.97,0.017,1.228-0.398
	l8.2-13.2c0.191-0.309,0.201-0.696,0.024-1.014S31.063,23,30.7,23h-1.123l3.052-7.628c0.123-0.308,0.085-0.657-0.101-0.932
	C32.342,14.165,32.032,14,31.7,14h-2.441l0.909-3.918C31.667,9.364,33.291,9,35,9c6.065,0,11,4.935,11,11
	C46,30.533,36.344,36.997,29.293,41.717z"/>
</svg>
