<?xml version="1.0" encoding="utf-8"?>
<!-- Generator: Adobe Illustrator 17.0.2, SVG Export Plug-In . SVG Version: 6.00 Build 0)  -->
<!DOCTYPE svg PUBLIC "-//W3C//DTD SVG 1.0//EN" "http://www.w3.org/TR/2001/REC-SVG-20010904/DTD/svg10.dtd">
<svg version="1.0" id="Layer_1" xmlns="http://www.w3.org/2000/svg" xmlns:xlink="http://www.w3.org/1999/xlink" x="0px" y="0px"
	 width="50px" height="50px" viewBox="0 0 50 50" style="enable-background:new 0 0 50 50;" xml:space="preserve">
<g>
	<path d="M16.293,26.293c-0.391,0.391-0.391,1.023,0,1.414L25,36.414l8.707-8.707c0.391-0.391,0.391-1.023,0-1.414
		s-1.023-0.391-1.414,0L26,32.586V2c0-0.552-0.447-1-1-1c-0.552,0-1,0.448-1,1v30.586l-6.293-6.293
		C17.316,25.902,16.684,25.902,16.293,26.293z"/>
	<path d="M33,16c-0.553,0-1,0.448-1,1s0.447,1,1,1h8v30H9V18h8c0.552,0,1-0.448,1-1s-0.448-1-1-1H7v34h36V16H33z"/>
</g>
</svg>
