<?xml version="1.0" encoding="utf-8"?>
<!-- Generator: Adobe Illustrator 17.0.2, SVG Export Plug-In . SVG Version: 6.00 Build 0)  -->
<!DOCTYPE svg PUBLIC "-//W3C//DTD SVG 1.0//EN" "http://www.w3.org/TR/2001/REC-SVG-20010904/DTD/svg10.dtd">
<svg version="1.0" id="Layer_1" xmlns="http://www.w3.org/2000/svg" xmlns:xlink="http://www.w3.org/1999/xlink" x="0px" y="0px"
	 width="50px" height="50.004px" viewBox="0 0 50 50.004" style="enable-background:new 0 0 50 50.004;" xml:space="preserve">
<path d="M35.988,28.004C35.366,0.795,9.345,0,6.347,0C6.098,0,5.965,0.005,5.965,0.005L5.928,2.002
	c0.044,0.003,4.501,0.361,8.96,3.809c5.771,4.461,8.909,12.122,9.102,22.194H13.591L30,49.66l16.408-21.656H35.988z M17.615,30.004
	H26v-1c0-15.252-6.184-22.511-11.663-25.948C22.569,5.12,34,11.194,34,29.004v1h8.383L30,46.348L17.615,30.004z"/>
</svg>
