<?xml version="1.0" encoding="utf-8"?>
<!-- Generator: Adobe Illustrator 17.0.2, SVG Export Plug-In . SVG Version: 6.00 Build 0)  -->
<!DOCTYPE svg PUBLIC "-//W3C//DTD SVG 1.0//EN" "http://www.w3.org/TR/2001/REC-SVG-20010904/DTD/svg10.dtd">
<svg version="1.0" id="Layer_1" xmlns="http://www.w3.org/2000/svg" xmlns:xlink="http://www.w3.org/1999/xlink" x="0px" y="0px"
	 width="50px" height="50px" viewBox="0 0 50 50" style="enable-background:new 0 0 50 50;" xml:space="preserve">
<path d="M25,16c2.206,0,4-1.794,4-4s-1.794-4-4-4c-2.206,0-4,1.794-4,4S22.794,16,25,16z M25,10c1.103,0,2,0.897,2,2s-0.897,2-2,2
	c-1.103,0-2-0.897-2-2S23.897,10,25,10z M46,32c-0.739,0-1.377,0.405-1.723,1h-4.846l-8.165-17.898C31.731,14.166,32,13.115,32,12
	c0-2.787-1.637-5.199-4-6.324V1c0-0.552-0.447-1-1-1h-4c-0.552,0-1,0.448-1,1v4.676C19.637,6.801,18,9.213,18,12
	c0,1.115,0.269,2.167,0.735,3.104L10.57,33H5.723C5.377,32.405,4.739,32,4,32c-1.105,0-2,0.895-2,2c0,1.105,0.895,2,2,2
	c0.739,0,1.377-0.405,1.723-1h3.935l-3.328,7.295c-0.33,0.73-0.356,1.546-0.073,2.296c0.161,0.424,0.417,0.791,0.735,1.096
	l-1.31,2.899c-0.228,0.504-0.004,1.096,0.5,1.323c0.133,0.061,0.273,0.089,0.411,0.089c0.381,0,0.745-0.219,0.912-0.588l1.313-2.905
	c0.082,0.007,0.163,0.026,0.245,0.026c0.358,0,0.716-0.064,1.061-0.194c0.75-0.283,1.344-0.842,1.672-1.568L16.251,35H22v2
	c0,0.553,0.448,1,1,1h4c0.553,0,1-0.447,1-1v-2.008h5.745l4.459,9.773c0.33,0.73,0.925,1.288,1.674,1.571
	c0.345,0.13,0.703,0.194,1.061,0.194c0.082,0,0.163-0.019,0.245-0.026l1.313,2.905c0.167,0.369,0.531,0.588,0.912,0.588
	c0.138,0,0.277-0.028,0.411-0.089c0.503-0.228,0.727-0.819,0.499-1.323l-1.31-2.899c0.318-0.305,0.574-0.672,0.735-1.096
	c0.284-0.75,0.258-1.565-0.073-2.299L40.343,35h3.934c0.346,0.595,0.984,1,1.723,1c1.105,0,2-0.895,2-2S47.105,32,46,32z M24,2h2
	v3.071C25.673,5.024,25.34,5,25,5c-0.339,0-0.673,0.024-1,0.071V2z M25,7c2.757,0,5,2.243,5,5s-2.243,5-5,5s-5-2.243-5-5
	S22.243,7,25,7z M9.973,43.942c-0.11,0.243-0.308,0.429-0.557,0.523c-0.25,0.093-0.52,0.085-0.763-0.024c0,0,0,0-0.001,0
	c-0.001,0-0.001,0-0.002,0c-0.243-0.11-0.428-0.307-0.523-0.557c-0.094-0.25-0.085-0.521,0.023-0.762l11.93-26.149
	c0.485,0.48,1.039,0.888,1.646,1.21L9.973,43.942z M26,36h-2v-4h2V36z M28,33.008V31c0-0.553-0.447-1-1-1h-4c-0.552,0-1,0.447-1,1v2
	h-4.836l6.451-14.139C24.063,18.951,24.526,19,25,19s0.937-0.049,1.385-0.139l6.455,14.147H28z M41.873,43.884
	c-0.095,0.25-0.28,0.447-0.524,0.557c0,0-0.001,0-0.001,0c0,0,0,0,0,0c-0.245,0.109-0.515,0.117-0.763,0.024
	c-0.249-0.095-0.447-0.28-0.559-0.527l-4.259-9.334c0.133-0.169,0.225-0.373,0.225-0.605c0-0.533-0.423-0.96-0.95-0.984
	l-6.768-14.834c0.607-0.323,1.161-0.731,1.645-1.21l11.929,26.147C41.958,43.362,41.967,43.634,41.873,43.884z"/>
</svg>
