<?xml version="1.0" encoding="utf-8"?>
<!-- Generator: Adobe Illustrator 17.1.0, SVG Export Plug-In . SVG Version: 6.00 Build 0)  -->
<!DOCTYPE svg PUBLIC "-//W3C//DTD SVG 1.0//EN" "http://www.w3.org/TR/2001/REC-SVG-20010904/DTD/svg10.dtd">
<svg version="1.0" id="Layer_1" xmlns="http://www.w3.org/2000/svg" xmlns:xlink="http://www.w3.org/1999/xlink" x="0px" y="0px"
	 viewBox="0 0 50.062 50" style="enable-background:new 0 0 50.062 50;" xml:space="preserve">
<path d="M49.188,32.874c-1.167-1.166-3.057-1.166-4.223,0c0,0-0.179,0.179-0.325,0.325l-0.004-0.004L33.388,44.443
	c-0.124,0.124-0.213,0.278-0.259,0.448l-1.033,3.85c-0.093,0.345,0.006,0.713,0.259,0.966C32.545,49.897,32.8,50,33.062,50
	c0.087,0,0.174-0.011,0.259-0.034l3.85-1.033c0.17-0.046,0.324-0.135,0.448-0.259l11.248-11.248l-0.005-0.005
	c0.146-0.146,0.325-0.325,0.325-0.325C50.353,35.93,50.353,34.04,49.188,32.874z M36.401,47.064l-1.402-1.402L45.869,34.79
	l1.403,1.402L36.401,47.064z M31.062,45c0,0.553-0.447,1-1,1H0l0.064-1.06c0.364-6.065,5.228-7.979,9.135-9.516
	c2.349-0.924,4.387-1.725,4.998-3.131c0.096-1.137,0.088-2.019,0.08-3.033l-0.002-0.468c-0.919-0.917-1.864-2.866-2.208-4.596
	c-0.723-0.361-1.579-1.26-1.844-3.465c-0.133-1.112,0.2-1.962,0.65-2.513c-1.223-5.075-0.864-8.936,1.069-11.484
	c1.632-2.15,4.326-3.275,8.006-3.343c2.43,0,4.24,0.65,5.184,1.843c1.713,0.339,3.015,1.209,3.874,2.593
	c2.05,3.299,0.851,8.442,0.27,10.423c0.438,0.552,0.756,1.391,0.624,2.481c-0.266,2.204-1.121,3.103-1.844,3.464
	c-0.339,1.732-1.26,3.674-2.155,4.59l-0.003,0.479c-0.009,1.013-0.017,1.894,0.079,3.028c0.612,1.406,2.642,2.207,4.981,3.131
	c1.728,0.683,3.513,1.387,5.088,2.47c0.455,0.313,0.57,0.936,0.258,1.391c-0.313,0.455-0.936,0.572-1.391,0.258
	c-1.388-0.954-3.066-1.617-4.689-2.258c-2.729-1.077-5.307-2.095-6.167-4.408l-0.059-0.259c-0.118-1.304-0.109-2.308-0.1-3.37
	l0.005-1.533l0.534-0.281c0.402-0.281,1.536-2.296,1.73-4.11l0.088-0.822l0.824-0.068c0.128-0.011,0.645-0.371,0.833-1.941
	c0.098-0.806-0.294-1.089-0.298-1.092l-0.64-0.422l0.211-0.747c0.768-2.309,1.656-6.876,0.12-9.349
	c-0.612-0.987-1.561-1.557-2.897-1.742l-0.488-0.068l-0.244-0.428c-0.447-0.785-1.834-1.253-3.712-1.253
	c-3.019,0.056-5.189,0.915-6.432,2.552c-1.594,2.101-1.795,5.681-0.582,10.352l0.187,0.719l-0.635,0.386
	c-0.002,0.001-0.395,0.286-0.298,1.092c0.189,1.569,0.706,1.93,0.833,1.94l0.825,0.068l0.087,0.823
	c0.193,1.804,1.363,3.822,1.801,4.119l0.535,0.281l-0.018,0.594l0.005,0.925c0.009,1.064,0.018,2.069-0.1,3.375l-0.059,0.259
	c-0.86,2.314-3.448,3.332-6.187,4.409C6.493,38.639,2.947,40.033,2.19,44h27.872C30.615,44,31.062,44.447,31.062,45z"/>
</svg>
