<?xml version="1.0" encoding="utf-8"?>
<!-- Generator: Adobe Illustrator 17.0.2, SVG Export Plug-In . SVG Version: 6.00 Build 0)  -->
<!DOCTYPE svg PUBLIC "-//W3C//DTD SVG 1.0//EN" "http://www.w3.org/TR/2001/REC-SVG-20010904/DTD/svg10.dtd">
<svg version="1.0" id="Layer_1" xmlns="http://www.w3.org/2000/svg" xmlns:xlink="http://www.w3.org/1999/xlink" x="0px" y="0px"
	 width="50px" height="50px" viewBox="0 0 50 50" style="enable-background:new 0 0 50 50;" xml:space="preserve">
<g>
	<path d="M49.161,20.968l-5.337-0.872c-0.452-1.739-1.145-3.402-2.065-4.958l3.118-4.442c0.279-0.398,0.232-0.938-0.111-1.282
		l-4.242-4.242c-0.346-0.347-0.893-0.39-1.291-0.105l-4.397,3.16c-1.561-0.918-3.225-1.609-4.962-2.058l-0.936-5.341
		C28.854,0.349,28.438,0,27.952,0h-6c-0.49,0-0.908,0.355-0.987,0.839l-0.872,5.34c-1.717,0.447-3.365,1.131-4.914,2.04
		l-4.418-3.157c-0.399-0.284-0.942-0.239-1.289,0.106L5.229,9.41c-0.343,0.343-0.391,0.883-0.112,1.28l3.118,4.455
		c-0.915,1.552-1.604,3.206-2.055,4.934l-5.344,0.89C0.354,21.049,0,21.466,0,21.955v6c0,0.485,0.348,0.9,0.826,0.984l5.345,0.947
		c0.448,1.726,1.133,3.379,2.045,4.934l-3.158,4.414c-0.284,0.398-0.239,0.943,0.106,1.289l4.242,4.241
		c0.342,0.342,0.883,0.39,1.28,0.112l4.454-3.115c1.547,0.914,3.202,1.603,4.934,2.055l0.892,5.348
		C21.046,49.646,21.463,50,21.952,50h6c0.485,0,0.9-0.348,0.984-0.825l0.948-5.347c1.747-0.452,3.417-1.146,4.98-2.07l4.446,3.118
		c0.397,0.28,0.938,0.232,1.281-0.111l4.241-4.241c0.347-0.347,0.391-0.894,0.104-1.291l-3.163-4.396
		c0.918-1.559,1.607-3.222,2.056-4.959l5.342-0.937C49.651,28.856,50,28.44,50,27.955v-6C50,21.465,49.645,21.047,49.161,20.968z
		 M48,27.115l-5.161,0.904c-0.398,0.07-0.716,0.374-0.804,0.77c-0.435,1.967-1.21,3.836-2.304,5.555
		c-0.22,0.346-0.207,0.789,0.032,1.121l3.055,4.246l-3.046,3.046l-4.297-3.013c-0.331-0.233-0.771-0.244-1.112-0.024
		c-1.719,1.097-3.592,1.875-5.565,2.312c-0.395,0.088-0.697,0.404-0.768,0.802L27.114,48h-4.315l-0.861-5.164
		c-0.067-0.402-0.371-0.723-0.768-0.812c-1.963-0.439-3.823-1.213-5.527-2.301c-0.341-0.219-0.779-0.209-1.111,0.023l-4.304,3.011
		l-3.049-3.049l3.049-4.263c0.237-0.331,0.249-0.773,0.031-1.117C9.172,32.613,8.4,30.753,7.966,28.8
		c-0.087-0.395-0.404-0.697-0.802-0.768L2,27.117v-4.315l5.16-0.859c0.402-0.067,0.723-0.371,0.812-0.768
		c0.438-1.957,1.212-3.817,2.302-5.529c0.217-0.341,0.208-0.779-0.024-1.11l-3.013-4.304l3.052-3.05l4.266,3.048
		c0.332,0.236,0.773,0.249,1.117,0.031c1.714-1.085,3.571-1.856,5.52-2.29c0.399-0.089,0.704-0.412,0.77-0.815L22.802,2h4.31
		l0.903,5.16c0.07,0.399,0.374,0.716,0.769,0.804c1.968,0.436,3.838,1.212,5.56,2.307c0.345,0.22,0.786,0.208,1.12-0.032
		l4.246-3.052l3.048,3.047l-3.014,4.293c-0.233,0.332-0.242,0.771-0.024,1.113c1.096,1.714,1.874,3.583,2.312,5.553
		c0.089,0.399,0.412,0.704,0.815,0.77L48,22.805V27.115z"/>
	<path d="M25,18c-3.86,0-7,3.14-7,7c0,3.859,3.14,7,7,7c3.859,0,7-3.141,7-7C32,21.14,28.859,18,25,18z M25,30c-2.757,0-5-2.243-5-5
		s2.243-5,5-5s5,2.243,5,5S27.757,30,25,30z"/>
	<path d="M25,11c-7.72,0-14,6.28-14,13.999C11,32.719,17.28,39,25,39s14-6.281,14-14.001C39,17.28,32.72,11,25,11z M25,37
		c-6.617,0-12-5.384-12-12.001C13,18.383,18.383,13,25,13c6.617,0,12,5.383,12,11.999C37,31.616,31.617,37,25,37z"/>
</g>
</svg>
