<?xml version="1.0" encoding="utf-8"?>
<!-- Generator: Adobe Illustrator 17.0.2, SVG Export Plug-In . SVG Version: 6.00 Build 0)  -->
<!DOCTYPE svg PUBLIC "-//W3C//DTD SVG 1.0//EN" "http://www.w3.org/TR/2001/REC-SVG-20010904/DTD/svg10.dtd">
<svg version="1.0" id="Layer_1" xmlns="http://www.w3.org/2000/svg" xmlns:xlink="http://www.w3.org/1999/xlink" x="0px" y="0px"
	 width="50px" height="50px" viewBox="0 0 50 50" style="enable-background:new 0 0 50 50;" xml:space="preserve">
<path d="M50,3v44c0,1.654-1.346,3-3,3H13c-1.654,0-3-1.346-3-3V28h2v19c0,0.552,0.449,1,1,1h34c0.552,0,1-0.448,1-1V3
	c0-0.551-0.448-1-1-1H13c-0.551,0-1,0.449-1,1v19h-2V3c0-1.654,1.346-3,3-3h34C48.654,0,50,1.346,50,3z M21.346,35.183
	c-0.391,0.391-0.391,1.023,0,1.414c0.195,0.195,0.451,0.293,0.707,0.293s0.512-0.098,0.707-0.293L34.357,25L22.761,13.403
	c-0.391-0.391-1.023-0.391-1.414,0s-0.391,1.023,0,1.414L30.529,24H1c-0.552,0-1,0.448-1,1c0,0.553,0.448,1,1,1h29.529
	L21.346,35.183z"/>
</svg>
