<?xml version="1.0" encoding="utf-8"?>
<!-- Generator: Adobe Illustrator 17.0.2, SVG Export Plug-In . SVG Version: 6.00 Build 0)  -->
<!DOCTYPE svg PUBLIC "-//W3C//DTD SVG 1.0//EN" "http://www.w3.org/TR/2001/REC-SVG-20010904/DTD/svg10.dtd">
<svg version="1.0" id="Layer_1" xmlns="http://www.w3.org/2000/svg" xmlns:xlink="http://www.w3.org/1999/xlink" x="0px" y="0px"
	 width="50px" height="50px" viewBox="0 0 50 50" style="enable-background:new 0 0 50 50;" xml:space="preserve">
<path d="M47.129,17.39L34.749,4.884c-1.141-1.153-3.14-1.152-4.28,0l-26.6,26.87c-1.171,1.183-1.171,3.109,0.001,4.294l9.567,9.663
	c0.19,0.191,0.449,0.3,0.718,0.3h3.176h5.295H41c0.558,0,1.011-0.453,1.011-1.011S41.558,43.989,41,43.989H25.049L47.13,21.685
	C48.301,20.5,48.301,18.574,47.129,17.39z M31.904,6.306c0.376-0.38,1.031-0.382,1.409,0l12.38,12.506
	c0.252,0.255,0.325,0.608,0.256,0.937C45.836,19.322,45.463,19,45,19c-0.552,0-1,0.448-1,1c0,0.541,0.433,0.977,0.97,0.994
	l-1.973,1.993C42.99,22.441,42.547,22,42,22c-0.552,0-1,0.448-1,1c0,0.55,0.445,0.996,0.995,0.999l-1.998,2.019
	C39.997,26.011,40,26.006,40,26c0-0.552-0.448-1-1-1s-1,0.448-1,1s0.448,1,1,1c0.011,0,0.019-0.006,0.03-0.006l-2.041,2.062
	C36.99,29.036,37,29.02,37,29c0-0.552-0.448-1-1-1s-1,0.448-1,1s0.448,1,1,1c0.024,0,0.044-0.012,0.067-0.014l-2.086,2.107
	C33.984,32.061,34,32.033,34,32c0-0.552-0.448-1-1-1c-0.191,0-0.359,0.068-0.511,0.161l-1.697-1.579C30.914,29.416,31,29.222,31,29
	c0-0.552-0.448-1-1-1c-0.247,0-0.466,0.099-0.641,0.248l-1.655-1.54C27.887,26.528,28,26.277,28,26c0-0.552-0.448-1-1-1
	c-0.303,0-0.566,0.142-0.749,0.356l-1.676-1.56C24.826,23.615,25,23.333,25,23c0-0.552-0.448-1-1-1c-0.359,0-0.659,0.2-0.836,0.484
	l-1.719-1.6C21.771,20.719,22,20.39,22,20c0-0.552-0.448-1-1-1c-0.414,0-0.77,0.253-0.922,0.612l-0.548-0.51
	c-0.053-0.049-0.109-0.091-0.168-0.126L31.904,6.306z M22.205,43.989h-4.874h-2.755l-9.27-9.363c-0.396-0.4-0.396-1.051-0.001-1.45
	l12.676-12.805c0.046,0.076,0.104,0.147,0.172,0.21l14.171,13.186L22.205,43.989z M32,8c0-0.552,0.448-1,1-1s1,0.448,1,1
	s-0.448,1-1,1S32,8.552,32,8z M32,14c0-0.552,0.448-1,1-1s1,0.448,1,1s-0.448,1-1,1S32,14.552,32,14z M38,14c0-0.552,0.448-1,1-1
	s1,0.448,1,1s-0.448,1-1,1S38,14.552,38,14z M26,14c0-0.552,0.448-1,1-1s1,0.448,1,1s-0.448,1-1,1S26,14.552,26,14z M23,17
	c0-0.552,0.448-1,1-1s1,0.448,1,1s-0.448,1-1,1S23,17.552,23,17z M26,20c0-0.552,0.448-1,1-1s1,0.448,1,1s-0.448,1-1,1
	S26,20.552,26,20z M29,11c0-0.552,0.448-1,1-1s1,0.448,1,1s-0.448,1-1,1S29,11.552,29,11z M35,11c0-0.552,0.448-1,1-1s1,0.448,1,1
	s-0.448,1-1,1S35,11.552,35,11z M32,20c0-0.552,0.448-1,1-1s1,0.448,1,1s-0.448,1-1,1S32,20.552,32,20z M29,17c0-0.552,0.448-1,1-1
	s1,0.448,1,1s-0.448,1-1,1S29,17.552,29,17z M35,17c0-0.552,0.448-1,1-1s1,0.448,1,1s-0.448,1-1,1S35,17.552,35,17z M38,20
	c0-0.552,0.448-1,1-1s1,0.448,1,1s-0.448,1-1,1S38,20.552,38,20z M41,17c0-0.552,0.448-1,1-1s1,0.448,1,1s-0.448,1-1,1
	S41,17.552,41,17z M32,26c0-0.552,0.448-1,1-1s1,0.448,1,1s-0.448,1-1,1S32,26.552,32,26z M29,23c0-0.552,0.448-1,1-1s1,0.448,1,1
	s-0.448,1-1,1S29,23.552,29,23z M35,23c0-0.552,0.448-1,1-1s1,0.448,1,1s-0.448,1-1,1S35,23.552,35,23z"/>
</svg>
