<?xml version="1.0" encoding="utf-8"?>
<!-- Generator: Adobe Illustrator 17.0.2, SVG Export Plug-In . SVG Version: 6.00 Build 0)  -->
<!DOCTYPE svg PUBLIC "-//W3C//DTD SVG 1.0//EN" "http://www.w3.org/TR/2001/REC-SVG-20010904/DTD/svg10.dtd">
<svg version="1.0" id="Layer_1" xmlns="http://www.w3.org/2000/svg" xmlns:xlink="http://www.w3.org/1999/xlink" x="0px" y="0px"
	 width="50px" height="50px" viewBox="0 0 50 50" style="enable-background:new 0 0 50 50;" xml:space="preserve">
<path d="M49.778,45.348L25.866,3.931c-0.357-0.619-1.375-0.619-1.732,0l-24,41.569c-0.178,0.31-0.178,0.69,0,1
	C0.313,46.81,0.643,47,1,47h48c0.007,0.001,0.015,0.001,0.02,0c0.553,0,1-0.447,1-1C50.02,45.751,49.929,45.523,49.778,45.348z
	 M2.732,45L25,6.431L47.268,45H2.732z M26.578,37.317v2.618c0,0.215-0.142,0.359-0.357,0.359h-2.439
	c-0.215,0-0.359-0.143-0.359-0.359v-2.618c0-0.215,0.145-0.359,0.359-0.359h2.439C26.437,36.958,26.578,37.102,26.578,37.317z
	 M23.853,18.905h2.295c0.215,0,0.358,0.144,0.358,0.359v14.462c0,0.215-0.143,0.359-0.358,0.359h-2.295
	c-0.216,0-0.359-0.144-0.359-0.359V19.264C23.494,19.049,23.638,18.905,23.853,18.905z"/>
</svg>
