<?xml version="1.0" encoding="utf-8"?>
<!-- Generator: Adobe Illustrator 17.0.2, SVG Export Plug-In . SVG Version: 6.00 Build 0)  -->
<!DOCTYPE svg PUBLIC "-//W3C//DTD SVG 1.0//EN" "http://www.w3.org/TR/2001/REC-SVG-20010904/DTD/svg10.dtd">
<svg version="1.0" id="Layer_1" xmlns="http://www.w3.org/2000/svg" xmlns:xlink="http://www.w3.org/1999/xlink" x="0px" y="0px"
	 width="50px" height="50px" viewBox="0 0 50 50" style="enable-background:new 0 0 50 50;" xml:space="preserve">
<path d="M21.707,20.293C21.902,20.488,22,20.744,22,21s-0.098,0.512-0.293,0.707S21.256,22,21,22s-0.512-0.098-0.707-0.293L8,9.414
	V18c0,0.552-0.448,1-1,1s-1-0.448-1-1V6h12c0.552,0,1,0.448,1,1s-0.448,1-1,1H9.414L21.707,20.293z M20.293,28.293L8,40.586V32
	c0-0.553-0.448-1-1-1s-1,0.447-1,1v12h12c0.552,0,1-0.447,1-1s-0.448-1-1-1H9.414l12.293-12.293C21.902,29.512,22,29.256,22,29
	s-0.098-0.512-0.293-0.707C21.316,27.902,20.684,27.902,20.293,28.293z M43,31c-0.553,0-1,0.447-1,1v8.586L29.707,28.293
	c-0.391-0.391-1.023-0.391-1.414,0C28.098,28.488,28,28.744,28,29s0.098,0.512,0.293,0.707L40.586,42H32c-0.553,0-1,0.447-1,1
	s0.447,1,1,1h12V32C44,31.447,43.553,31,43,31z M32,6c-0.553,0-1,0.448-1,1s0.447,1,1,1h8.586L28.293,20.293
	C28.098,20.488,28,20.744,28,21s0.098,0.512,0.293,0.707S28.744,22,29,22s0.512-0.098,0.707-0.293L42,9.414V18c0,0.552,0.447,1,1,1
	s1-0.448,1-1V6H32z"/>
</svg>
