<?xml version="1.0" encoding="utf-8"?>
<!-- Generator: Adobe Illustrator 17.0.2, SVG Export Plug-In . SVG Version: 6.00 Build 0)  -->
<!DOCTYPE svg PUBLIC "-//W3C//DTD SVG 1.0//EN" "http://www.w3.org/TR/2001/REC-SVG-20010904/DTD/svg10.dtd">
<svg version="1.0" id="Layer_1" xmlns="http://www.w3.org/2000/svg" xmlns:xlink="http://www.w3.org/1999/xlink" x="0px" y="0px"
	 width="50px" height="50px" viewBox="0 0 50 50" style="enable-background:new 0 0 50 50;" xml:space="preserve">
<path d="M49.96,0.04l-0.001,16.4c0,0.552-0.448,1-1,1c-0.553,0-1-0.448-1-1L47.96,3.454l-20.881,20.88
	c-0.195,0.195-0.451,0.293-0.707,0.293s-0.512-0.098-0.707-0.293c-0.391-0.391-0.391-1.023,0-1.414L46.546,2.04H33.56
	c-0.553,0-1-0.448-1-1s0.447-1,1-1H49.96z M40,16c-0.553,0-1,0.448-1,1v31H2V11h31c0.553,0,1-0.448,1-1s-0.447-1-1-1H2
	c-1.103,0-2,0.897-2,2v37c0,1.103,0.897,2,2,2h37c1.103,0,2-0.897,2-2V17C41,16.448,40.553,16,40,16z"/>
</svg>
