<?xml version="1.0" encoding="utf-8"?>
<!-- Generator: Adobe Illustrator 17.1.0, SVG Export Plug-In . SVG Version: 6.00 Build 0)  -->
<!DOCTYPE svg PUBLIC "-//W3C//DTD SVG 1.0//EN" "http://www.w3.org/TR/2001/REC-SVG-20010904/DTD/svg10.dtd">
<svg version="1.0" id="Layer_1" xmlns="http://www.w3.org/2000/svg" xmlns:xlink="http://www.w3.org/1999/xlink" x="0px" y="0px"
	 viewBox="0 0 50 50" style="enable-background:new 0 0 50 50;" xml:space="preserve">
<path d="M41,33.242l-2.173,5.585L33.242,41l5.585,2.173L41,48.758l2.173-5.585L48.758,41l-5.585-2.173L41,33.242z M41.628,41.628
	L41,43.242l-0.628-1.614L38.758,41l1.614-0.628L41,38.758l0.628,1.614L43.242,41L41.628,41.628z M29.2,36.5l2.5,1l-2.5,1l-1,2.5
	l-1-2.5l-2.5-1l2.5-1l1-2.5L29.2,36.5z M44.746,28.94l-3.88-8.728l9.117-2.917l-8.988-3.522l4.393-8.54l-8.787,3.905L33.56,0.017
	l-3.4,8.988l-8.662-4.392l4.028,8.787l-9.203,3.027l8.144,3.132l-6.677,6.737c-0.006,0.006-0.012,0.013-0.018,0.019L1.957,42.131
	c-1.259,1.398-1.244,3.497,0.036,4.776l1.138,1.136c0.692,0.623,1.556,0.935,2.406,0.935c0.869,0,1.724-0.324,2.37-0.971
	L26.015,29.9h-0.001l4.1-4.1l2.61,7.834l3.508-8.951L44.746,28.94z M22.293,30.793c-0.006,0.006-0.012,0.012-0.018,0.018
	L6.493,46.593c-0.528,0.528-1.416,0.512-1.986,0l-1.1-1.1c-0.527-0.527-0.511-1.416,0-1.986L20.1,26.814l3.085,3.086L22.293,30.793z
	 M24.6,28.486l-3.096-3.097l8.803-8.883c0.547-0.547,1.408-0.577,2.018,0.03l1.133,1.032c0.547,0.608,0.562,1.497,0.036,2.024
	L24.6,28.486z M32.876,27.766l-1.182-3.546l3.213-3.213c1.278-1.279,1.295-3.377-0.031-4.844l-1.169-1.07
	C33.058,14.443,32.226,14.1,31.3,14.1s-1.758,0.343-2.41,0.996l-2.886,2.912l-3.727-1.434l5.999-1.973l-2.572-5.613l5.538,2.808
	l2.199-5.812l1.959,5.878l5.613-2.495l-2.809,5.46l5.812,2.278l-5.883,1.882l2.521,5.671l-5.485-2.743L32.876,27.766z"/>
</svg>
