<?xml version="1.0" encoding="utf-8"?>
<!-- Generator: Adobe Illustrator 17.0.2, SVG Export Plug-In . SVG Version: 6.00 Build 0)  -->
<!DOCTYPE svg PUBLIC "-//W3C//DTD SVG 1.0//EN" "http://www.w3.org/TR/2001/REC-SVG-20010904/DTD/svg10.dtd">
<svg version="1.0" id="Layer_1" xmlns="http://www.w3.org/2000/svg" xmlns:xlink="http://www.w3.org/1999/xlink" x="0px" y="0px"
	 width="50px" height="50px" viewBox="0 0 50 50" style="enable-background:new 0 0 50 50;" xml:space="preserve">
<path d="M46,2H4C3.448,2,3,2.448,3,3v3c0,0.255,0.097,0.5,0.272,0.686L19,23.396V41c0,0.352,0.184,0.677,0.485,0.857l10,6
	C29.644,47.952,29.822,48,30,48c0.17,0,0.34-0.043,0.493-0.13C30.807,47.692,31,47.36,31,47V23.396L46.729,6.686
	C46.902,6.5,47,6.255,47,6V3C47,2.448,46.553,2,46,2z M29,45.233l-8-4.8V24h8V45.233z M45,5.604L29.568,22h-9.136L5,5.604V4h40
	V5.604z"/>
</svg>
