<?xml version="1.0" encoding="utf-8"?>
<!-- Generator: Adobe Illustrator 17.1.0, SVG Export Plug-In . SVG Version: 6.00 Build 0)  -->
<!DOCTYPE svg PUBLIC "-//W3C//DTD SVG 1.0//EN" "http://www.w3.org/TR/2001/REC-SVG-20010904/DTD/svg10.dtd">
<svg version="1.0" id="Layer_1" xmlns="http://www.w3.org/2000/svg" xmlns:xlink="http://www.w3.org/1999/xlink" x="0px" y="0px"
	 viewBox="0 0 50 50" style="enable-background:new 0 0 50 50;" xml:space="preserve">
<path d="M24.843,41c0,0,0.391,1,1.438,2H0l0.064-1.059c0.365-6.067,5.228-7.98,9.136-9.516c2.349-0.924,4.386-1.726,4.998-3.131
	c0.096-1.138,0.089-2.02,0.08-3.036l-0.003-0.465c-0.921-0.918-1.868-2.873-2.209-4.607c-0.703-0.363-1.578-1.259-1.842-3.454
	c-0.134-1.112,0.199-1.962,0.65-2.513c-1.222-5.075-0.863-8.937,1.071-11.486c1.631-2.15,4.325-3.275,8.005-3.342
	c2.43,0,4.24,0.65,5.184,1.843c1.712,0.338,3.014,1.209,3.873,2.593l0,0c2.05,3.3,0.851,8.444,0.271,10.423
	c0.438,0.55,0.755,1.389,0.624,2.48c-0.263,2.194-1.138,3.09-1.841,3.454c-0.337,1.736-1.26,3.684-2.158,4.601l-0.002,0.48
	c-0.009,1.013-0.017,1.893,0.079,3.027c0.079,0.182,0.183,0.356,0.313,0.526c-0.31,0.308-0.851,1.217-1.142,1.725
	c-0.456-0.458-0.844-1.004-1.091-1.668l-0.059-0.259c-0.118-1.303-0.108-2.307-0.099-3.369l0.005-1.535l0.536-0.281
	c0.401-0.28,1.535-2.294,1.729-4.108L26.26,19.5l0.825-0.067c0.128-0.009,0.644-0.37,0.833-1.94c0.097-0.807-0.295-1.09-0.299-1.093
	l-0.638-0.423l0.21-0.746c0.767-2.309,1.656-6.876,0.12-9.349c-0.613-0.987-1.561-1.557-2.897-1.743l-0.488-0.067l-0.244-0.428
	C23.235,2.859,21.847,2.39,19.97,2.39c-3.018,0.056-5.188,0.914-6.431,2.552c-1.595,2.101-1.796,5.682-0.583,10.354l0.187,0.719
	l-0.635,0.387c-0.002,0.001-0.395,0.286-0.298,1.092c0.189,1.57,0.705,1.93,0.833,1.94l0.825,0.067l0.087,0.824
	c0.192,1.803,1.361,3.82,1.799,4.117l0.536,0.281l-0.018,0.595l0.005,0.922c0.009,1.066,0.018,2.071-0.1,3.378l-0.059,0.259
	c-0.861,2.314-3.448,3.332-6.187,4.409C6.493,35.638,2.946,37.032,2.19,41H24.843z M48.293,49.707l-5.969-5.969
	C40.599,45.15,38.397,46,36,46c-5.514,0-10-4.486-10-10s4.486-10,10-10s10,4.486,10,10c0,2.397-0.85,4.599-2.262,6.324l5.969,5.969
	L48.293,49.707z M36,44c4.411,0,8-3.589,8-8s-3.589-8-8-8s-8,3.589-8,8S31.589,44,36,44z"/>
</svg>
