<?xml version="1.0" encoding="utf-8"?>
<!-- Generator: Adobe Illustrator 17.1.0, SVG Export Plug-In . SVG Version: 6.00 Build 0)  -->
<!DOCTYPE svg PUBLIC "-//W3C//DTD SVG 1.0//EN" "http://www.w3.org/TR/2001/REC-SVG-20010904/DTD/svg10.dtd">
<svg version="1.0" id="Layer_1" xmlns="http://www.w3.org/2000/svg" xmlns:xlink="http://www.w3.org/1999/xlink" x="0px" y="0px"
	 viewBox="0 0 50 50" style="enable-background:new 0 0 50 50;" xml:space="preserve">
<path d="M50,31c0-1.654-1.346-3-3-3h-8.247c0.912-3.945-1.084-6.279-2.456-7.872c-0.703-0.817-1.311-1.522-1.297-2.102
	c0.017-0.671,0.238-1.468,0.473-2.312c0.722-2.599,1.813-6.525-4.136-8.655c-0.329-0.12-0.7-0.056-0.972,0.168
	c-0.271,0.223-0.406,0.573-0.354,0.92c0.289,1.936,0.027,3.195-0.359,3.585c-0.058,0.058-0.168,0.167-0.487,0.12
	c-0.35-0.05-0.482-0.135-0.502-0.161c-0.123-0.167,0.018-1.017,0.102-1.524c0.231-1.395,0.548-3.305-0.451-5.321
	C26.653,1.499,22.942,0,20,0c-0.354,0-0.682,0.187-0.861,0.492c-0.18,0.305-0.185,0.683-0.014,0.992
	c3.004,5.424,1.749,9.213,0.72,9.879c-0.324,0.211-0.587,0.154-1.461-0.178c-1.089-0.412-2.577-0.978-4.572,0.021
	c-0.275,0.138-0.472,0.394-0.533,0.696c-0.061,0.301,0.02,0.614,0.22,0.848c0.759,0.889,1.311,2.93,0.847,3.954
	c-0.126,0.279-0.399,0.588-0.715,0.946c-0.934,1.058-2.213,2.506-2.213,5.643c0,1.616,0.223,3.048,1.151,4.705H3
	c-1.654,0-3,1.346-3,3v6c0,0.768,0.29,1.469,0.766,2C0.29,39.531,0,40.232,0,41v6c0,1.654,1.346,3,3,3h28
	c0.768,0,1.469-0.29,2-0.766C33.531,49.71,34.232,50,35,50h12c1.654,0,3-1.346,3-3v-6c0-0.768-0.29-1.469-0.766-2
	C49.71,38.469,50,37.768,50,37V31z M13.417,23.295c0-2.38,0.871-3.366,1.712-4.319c0.405-0.459,0.788-0.892,1.039-1.445
	c0.629-1.391,0.331-3.376-0.381-4.865c0.675-0.065,1.254,0.151,1.888,0.391c0.909,0.345,2.041,0.774,3.257-0.014
	c1.856-1.202,3.177-5.355,0.78-10.838c1.875,0.436,3.842,1.579,4.809,3.53c0.713,1.438,0.478,2.855,0.271,4.106
	c-0.187,1.125-0.362,2.187,0.259,3.033c0.384,0.524,0.983,0.837,1.833,0.958c0.857,0.122,1.616-0.116,2.188-0.691
	c0.856-0.862,1.074-2.282,1.062-3.555c2.574,1.416,2.073,3.219,1.414,5.591c-0.257,0.924-0.522,1.88-0.546,2.8
	c-0.031,1.351,0.849,2.373,1.781,3.456c1.41,1.637,2.864,3.326,1.914,6.567h-4.773c0.789-2.988-0.255-5.594-2.987-7.288
	c-0.356-0.22-0.814-0.196-1.144,0.062c-0.33,0.258-0.464,0.695-0.336,1.095c0.269,0.83,0.198,1.7-0.177,2.215
	c-0.198,0.272-0.452,0.405-0.774,0.405c-0.18,0-0.329-0.181-0.422-0.333c-0.291-0.472-0.34-1.161-0.189-1.457
	c2.529-4.969,0.959-7.169-1.114-8.807c-0.331-0.261-0.788-0.286-1.145-0.066c-0.358,0.221-0.54,0.642-0.455,1.053
	c0.461,2.235-0.59,3.386-1.921,4.844c-1.354,1.483-2.889,3.164-2.889,6.139c0,0.737,0.117,1.46,0.324,2.167
	c-0.645,0.067-1.234,0.326-1.693,0.737C16.469,28.29,15.768,28,15,28h-0.054C13.554,26.048,13.417,24.703,13.417,23.295z M20.785,28
	c-0.413-1.034-0.416-1.844-0.416-2.138c0-2.2,1.149-3.458,2.366-4.791c0.924-1.012,1.928-2.111,2.351-3.625
	c0.245,0.938,0.077,2.276-0.978,4.349c-0.485,0.961-0.374,2.363,0.271,3.409c0.502,0.816,1.277,1.284,2.125,1.284
	c0.966,0,1.814-0.436,2.391-1.228c0.291-0.398,0.496-0.863,0.612-1.366c0.78,1.13,0.887,2.504,0.325,4.104H20.785z M2,31
	c0-0.552,0.449-1,1-1h12c0.551,0,1,0.448,1,1v6c0,0.552-0.449,1-1,1H3c-0.551,0-1-0.448-1-1V31z M32,47c0,0.552-0.448,1-1,1H3
	c-0.551,0-1-0.448-1-1v-6c0-0.552,0.449-1,1-1h28c0.552,0,1,0.448,1,1V47z M48,47c0,0.552-0.448,1-1,1H35c-0.552,0-1-0.448-1-1v-6
	c0-0.552,0.448-1,1-1h12c0.552,0,1,0.448,1,1V47z M48,37c0,0.552-0.448,1-1,1H35H19c-0.551,0-1-0.448-1-1v-6c0-0.552,0.449-1,1-1h28
	c0.552,0,1,0.448,1,1V37z"/>
</svg>
