<?xml version="1.0" encoding="utf-8"?>
<!-- Generator: Adobe Illustrator 17.0.2, SVG Export Plug-In . SVG Version: 6.00 Build 0)  -->
<!DOCTYPE svg PUBLIC "-//W3C//DTD SVG 1.0//EN" "http://www.w3.org/TR/2001/REC-SVG-20010904/DTD/svg10.dtd">
<svg version="1.0" id="Layer_1" xmlns="http://www.w3.org/2000/svg" xmlns:xlink="http://www.w3.org/1999/xlink" x="0px" y="0px"
	 width="50px" height="50px" viewBox="0 0 50 50" style="enable-background:new 0 0 50 50;" xml:space="preserve">
<path d="M48.524,3.12C47.275,3.796,42.754,6,37,6c-4.777,0-8.107-1.42-11.632-2.924C21.823,1.563,18.157,0,13,0
	C2.972,0,0.551,2.045,0.308,2.278L0,2.573V3v27v19c0,0.553,0.448,1,1,1s1-0.447,1-1V30.659C3.289,30.156,6.912,29,13,29
	c3.535,0,6.21,0.776,9.308,1.675C26.065,31.765,30.324,33,37,33c6.912,0,12.27-3.003,12.495-3.131L50,29.582V2.322L48.524,3.12z"/>
</svg>
