<?xml version="1.0" encoding="utf-8"?>
<!-- Generator: Adobe Illustrator 17.0.2, SVG Export Plug-In . SVG Version: 6.00 Build 0)  -->
<!DOCTYPE svg PUBLIC "-//W3C//DTD SVG 1.0//EN" "http://www.w3.org/TR/2001/REC-SVG-20010904/DTD/svg10.dtd">
<svg version="1.0" id="Layer_1" xmlns="http://www.w3.org/2000/svg" xmlns:xlink="http://www.w3.org/1999/xlink" x="0px" y="0px"
	 width="50px" height="50px" viewBox="0 0 50 50" style="enable-background:new 0 0 50 50;" xml:space="preserve">
<path d="M48.523,3.121C47.276,3.796,42.759,6,37,6c-4.777,0-8.106-1.42-11.632-2.924C21.823,1.563,18.157,0,13,0
	C3.278,0,0.706,1.922,0.336,2.252C0.328,2.259,0.32,2.267,0.312,2.274C0.311,2.276,0.309,2.277,0.308,2.278L0,2.574V49
	c0,0.553,0.448,1,1,1s1-0.447,1-1V30.658C3.298,30.153,6.928,29,13,29c3.535,0,6.21,0.776,9.308,1.675
	C26.065,31.765,30.324,33,37,33c6.912,0,12.27-3.003,12.494-3.131L50,29.582V2.321L48.523,3.121z M48,28.393
	C46.564,29.101,42.224,31,37,31c-6.392,0-10.506-1.193-14.135-2.246C19.756,27.852,16.819,27,13,27c-5.524,0-9.15,0.902-11,1.527
	V3.547C2.895,3.088,5.778,2,13,2c4.749,0,8.068,1.416,11.583,2.916C28.139,6.432,31.814,8,37,8c4.791,0,8.792-1.413,11-2.398V28.393
	z"/>
</svg>
