<?xml version="1.0" encoding="utf-8"?>
<!-- Generator: Adobe Illustrator 17.0.2, SVG Export Plug-In . SVG Version: 6.00 Build 0)  -->
<!DOCTYPE svg PUBLIC "-//W3C//DTD SVG 1.0//EN" "http://www.w3.org/TR/2001/REC-SVG-20010904/DTD/svg10.dtd">
<svg version="1.0" id="Layer_1" xmlns="http://www.w3.org/2000/svg" xmlns:xlink="http://www.w3.org/1999/xlink" x="0px" y="0px"
	 width="50px" height="50px" viewBox="0 0 50 50" style="enable-background:new 0 0 50 50;" xml:space="preserve">
<path d="M45.899,42.562l-18-37c-0.203-0.418-0.669-0.641-1.124-0.537C26.321,5.13,26,5.534,26,6v37c0,0.553,0.447,1,1,1h18
	c0.345,0,0.665-0.178,0.848-0.47S46.05,42.872,45.899,42.562z M41,42c0-0.552-0.448-1-1-1c-0.552,0-1,0.448-1,1h-4
	c0-0.552-0.448-1-1-1c-0.552,0-1,0.448-1,1h-4c0-0.552-0.448-1-1-1v-4c0.552,0,1-0.448,1-1s-0.448-1-1-1v-4c0.552,0,1-0.448,1-1
	s-0.448-1-1-1v-4c0.552,0,1-0.448,1-1s-0.448-1-1-1v-4c0.552,0,1-0.448,1-1s-0.448-1-1-1v-5c0.262,0,0.497-0.106,0.675-0.271
	l1.403,2.885C30.028,14.732,30,14.863,30,15c0,0.455,0.31,0.823,0.726,0.945l3.45,7.091C34.116,23.025,34.062,23,34,23
	c-0.552,0-1,0.448-1,1s0.448,1,1,1c0.381,0,0.702-0.221,0.871-0.536l1.16,2.384C36.022,26.9,36,26.946,36,27
	c0,0.376,0.216,0.692,0.524,0.863l3.473,7.138C39.446,35.003,39,35.449,39,36c0,0.552,0.448,1,1,1c0.321,0,0.593-0.161,0.776-0.396
	L43.401,42H41z M23.225,5.025c-0.455-0.104-0.92,0.118-1.124,0.537l-18,37c-0.15,0.31-0.131,0.676,0.052,0.968
	C4.335,43.822,4.655,44,5,44h18c0.552,0,1-0.447,1-1V6C24,5.534,23.678,5.13,23.225,5.025z M22,42H6.599L22,10.341V42z M35,36
	c0,0.552-0.448,1-1,1s-1-0.448-1-1s0.448-1,1-1C34.552,35,35,35.448,35,36z M38,33c0,0.552-0.448,1-1,1s-1-0.448-1-1s0.448-1,1-1
	C37.552,32,38,32.448,38,33z M38,39c0,0.552-0.448,1-1,1s-1-0.448-1-1s0.448-1,1-1C37.552,38,38,38.448,38,39z M32,21
	c0,0.552-0.448,1-1,1s-1-0.448-1-1s0.448-1,1-1C31.552,20,32,20.448,32,21z M32,27c0,0.552-0.448,1-1,1s-1-0.448-1-1s0.448-1,1-1
	C31.552,26,32,26.448,32,27z M35,30c0,0.552-0.448,1-1,1s-1-0.448-1-1s0.448-1,1-1C34.552,29,35,29.448,35,30z M32,33
	c0,0.552-0.448,1-1,1s-1-0.448-1-1s0.448-1,1-1C31.552,32,32,32.448,32,33z M32,39c0,0.552-0.448,1-1,1s-1-0.448-1-1s0.448-1,1-1
	C31.552,38,32,38.448,32,39z"/>
</svg>
