<?xml version="1.0" encoding="utf-8"?>
<!-- Generator: Adobe Illustrator 17.0.2, SVG Export Plug-In . SVG Version: 6.00 Build 0)  -->
<!DOCTYPE svg PUBLIC "-//W3C//DTD SVG 1.0//EN" "http://www.w3.org/TR/2001/REC-SVG-20010904/DTD/svg10.dtd">
<svg version="1.0" id="Layer_1" xmlns="http://www.w3.org/2000/svg" xmlns:xlink="http://www.w3.org/1999/xlink" x="0px" y="0px"
	 width="50px" height="50px" viewBox="0 0 50 50" style="enable-background:new 0 0 50 50;" xml:space="preserve">
<path d="M43,26H6c-0.466,0-0.87,0.321-0.975,0.775s0.118,0.92,0.537,1.124l37,18C42.701,45.967,42.851,46,43,46
	c0.185,0,0.369-0.051,0.53-0.152C43.822,45.665,44,45.345,44,45V27C44,26.447,43.553,26,43,26z M42,43.401L10.341,28H42V43.401z
	 M43.53,4.152c-0.291-0.182-0.657-0.202-0.968-0.052l-37,18c-0.419,0.204-0.642,0.67-0.537,1.124C5.13,23.678,5.534,24,6,24h37
	c0.553,0,1-0.448,1-1V5C44,4.655,43.822,4.335,43.53,4.152z M37,22c0-0.552-0.448-1-1-1s-1,0.448-1,1h-4c0-0.552-0.448-1-1-1
	s-1,0.448-1,1h-4c0-0.552-0.448-1-1-1s-1,0.448-1,1h-4c0-0.552-0.448-1-1-1s-1,0.448-1,1h-5c0-0.262-0.106-0.497-0.271-0.675
	l2.884-1.403C14.732,19.972,14.863,20,15,20c0.455,0,0.823-0.31,0.945-0.726l7.091-3.45C23.025,15.884,23,15.938,23,16
	c0,0.552,0.448,1,1,1s1-0.448,1-1c0-0.381-0.221-0.702-0.536-0.871l2.384-1.16C26.9,13.978,26.946,14,27,14
	c0.376,0,0.692-0.217,0.863-0.524l7.138-3.473C35.003,10.554,35.449,11,36,11c0.552,0,1-0.448,1-1c0-0.321-0.161-0.593-0.396-0.776
	L42,6.599V9c-0.552,0-1,0.448-1,1s0.448,1,1,1v4c-0.552,0-1,0.448-1,1s0.448,1,1,1v4c-0.552,0-1,0.448-1,1H37z M37,16
	c0,0.552-0.448,1-1,1s-1-0.448-1-1s0.448-1,1-1S37,15.448,37,16z M34,13c0,0.552-0.448,1-1,1s-1-0.448-1-1s0.448-1,1-1
	S34,12.448,34,13z M40,13c0,0.552-0.448,1-1,1s-1-0.448-1-1s0.448-1,1-1S40,12.448,40,13z M22,19c0,0.552-0.448,1-1,1s-1-0.448-1-1
	s0.448-1,1-1S22,18.448,22,19z M28,19c0,0.552-0.448,1-1,1s-1-0.448-1-1s0.448-1,1-1S28,18.448,28,19z M31,16c0,0.552-0.448,1-1,1
	s-1-0.448-1-1s0.448-1,1-1S31,15.448,31,16z M34,19c0,0.552-0.448,1-1,1s-1-0.448-1-1s0.448-1,1-1S34,18.448,34,19z M40,19
	c0,0.552-0.448,1-1,1s-1-0.448-1-1s0.448-1,1-1S40,18.448,40,19z"/>
</svg>
