<?xml version="1.0" encoding="utf-8"?>
<!-- Generator: Adobe Illustrator 17.0.2, SVG Export Plug-In . SVG Version: 6.00 Build 0)  -->
<!DOCTYPE svg PUBLIC "-//W3C//DTD SVG 1.0//EN" "http://www.w3.org/TR/2001/REC-SVG-20010904/DTD/svg10.dtd">
<svg version="1.0" id="Layer_1" xmlns="http://www.w3.org/2000/svg" xmlns:xlink="http://www.w3.org/1999/xlink" x="0px" y="0px"
	 width="50px" height="50px" viewBox="0 0 50 50" style="enable-background:new 0 0 50 50;" xml:space="preserve">
<path d="M44,35V22H26V12h8V0H16v12h8v10H6v13H0v12h14V35H8V24h16v11h-6v12h14V35h-6V24h16v11h-6v12h14V35H44z M12,37v8H2v-8H12z
	 M30,37v8H20v-8H30z M25,10h-7V2h14v8H25z M48,45H38v-8h10V45z"/>
</svg>
