<?xml version="1.0" encoding="utf-8"?>
<!-- Generator: Adobe Illustrator 17.1.0, SVG Export Plug-In . SVG Version: 6.00 Build 0)  -->
<!DOCTYPE svg PUBLIC "-//W3C//DTD SVG 1.0//EN" "http://www.w3.org/TR/2001/REC-SVG-20010904/DTD/svg10.dtd">
<svg version="1.0" id="Layer_1" xmlns="http://www.w3.org/2000/svg" xmlns:xlink="http://www.w3.org/1999/xlink" x="0px" y="0px"
	 viewBox="0 0 50 50" style="enable-background:new 0 0 50 50;" xml:space="preserve">
<path d="M49,0H1v34h16.525c-0.547,0.424-1.075,0.874-1.562,1.377c-5.18,5.362-4.972,13.198-4.96,13.529
	c0.019,0.53,0.447,0.952,0.977,0.964c0.008,0,0.015,0,0.023,0c0.52,0,0.955-0.401,0.997-0.922
	c0.033-0.415,0.953-9.938,14.682-10.379v4.583c0,0.38,0.215,0.727,0.555,0.896c0.342,0.169,0.747,0.131,1.049-0.099l11.318-8.576
	C40.854,35.185,41,34.89,41,34.576c0-0.215-0.089-0.407-0.213-0.576H49V0z M47,2v2.264L28.176,20.377
	c-1.341,1.146-2.668,1.27-3.176,1.27c-0.508,0-1.835-0.124-3.175-1.27C20.487,19.234,5.104,6.066,3,4.265V2H47z M47,6.897v20.324
	l-12.45-9.668L47,6.897z M15.449,17.553L3,27.219V6.897C5.669,9.182,11.27,13.976,15.449,17.553z M29.682,41.14v-3.586
	c0-0.553-0.447-1-1-1c-7.587,0-11.93,2.533-14.41,5.296c0.653-1.736,1.64-3.54,3.13-5.083c2.673-2.767,6.468-4.17,11.279-4.17
	c0.553,0,1-0.447,1-1v-3.584l8.662,6.563L29.682,41.14z M38.255,32l-8.97-6.797c-0.303-0.23-0.708-0.269-1.049-0.099
	c-0.34,0.169-0.555,0.516-0.555,0.896v4.615c-2.498,0.096-4.741,0.563-6.724,1.385H3v-2.248L17,18.88
	c1.824,1.562,3.17,2.713,3.525,3.017c1.847,1.58,3.745,1.75,4.475,1.75s2.628-0.17,4.476-1.75l3.523-3.016L47,29.754V32H38.255z"/>
</svg>
