<?xml version="1.0" encoding="utf-8"?>
<!-- Generator: Adobe Illustrator 17.0.2, SVG Export Plug-In . SVG Version: 6.00 Build 0)  -->
<!DOCTYPE svg PUBLIC "-//W3C//DTD SVG 1.0//EN" "http://www.w3.org/TR/2001/REC-SVG-20010904/DTD/svg10.dtd">
<svg version="1.0" id="Layer_1" xmlns="http://www.w3.org/2000/svg" xmlns:xlink="http://www.w3.org/1999/xlink" x="0px" y="0px"
	 width="50px" height="50px" viewBox="0 0 50 50" style="enable-background:new 0 0 50 50;" xml:space="preserve">
<g>
	<path d="M49.597,31.347c-0.391-0.391-1.023-0.391-1.414,0L41,38.529V9c0-0.552-0.447-1-1-1s-1,0.448-1,1v29.529l-7.183-7.184
		c-0.391-0.391-1.023-0.391-1.414,0s-0.391,1.023,0,1.414L40,42.357l9.597-9.597C49.987,32.37,49.987,31.737,49.597,31.347z"/>
	<path d="M26,40.009H1c-0.547,0-0.991,0.444-0.991,0.991S0.453,41.991,1,41.991h25c0.547,0,0.991-0.444,0.991-0.991
		S26.547,40.009,26,40.009z"/>
	<path d="M1,33.989h18c0.546,0,0.989-0.442,0.989-0.989S19.546,32.011,19,32.011H1c-0.546,0-0.989,0.442-0.989,0.989
		S0.454,33.989,1,33.989z"/>
	<path d="M1,25.987h14c0.545,0,0.987-0.442,0.987-0.987S15.545,24.013,15,24.013H1c-0.545,0-0.987,0.442-0.987,0.987
		S0.455,25.987,1,25.987z"/>
	<path d="M1,17.983h10c0.543,0,0.983-0.44,0.983-0.983s-0.44-0.983-0.983-0.983H1c-0.543,0-0.983,0.44-0.983,0.983
		S0.457,17.983,1,17.983z"/>
	<path d="M1,9.976h6c0.539,0,0.976-0.437,0.976-0.976S7.539,8.024,7,8.024H1C0.461,8.024,0.024,8.461,0.024,9S0.461,9.976,1,9.976z"
		/>
</g>
</svg>
