<?xml version="1.0" encoding="utf-8"?>
<!-- Generator: Adobe Illustrator 17.0.2, SVG Export Plug-In . SVG Version: 6.00 Build 0)  -->
<!DOCTYPE svg PUBLIC "-//W3C//DTD SVG 1.0//EN" "http://www.w3.org/TR/2001/REC-SVG-20010904/DTD/svg10.dtd">
<svg version="1.0" id="Layer_1" xmlns="http://www.w3.org/2000/svg" xmlns:xlink="http://www.w3.org/1999/xlink" x="0px" y="0px"
	 width="50px" height="50px" viewBox="0 0 50 50" style="enable-background:new 0 0 50 50;" xml:space="preserve">
<g>
	<path d="M34.829,34.167c-0.558-0.087-1.055,0.298-1.135,0.844c-0.08,0.547,0.298,1.055,0.844,1.135
		C42.72,37.348,47,39.868,47,41.737C47,44.693,37.592,48,25,48c-12.591,0-22-3.307-22-6.263c0-1.869,4.28-4.39,12.461-5.592
		c0.546-0.08,0.924-0.588,0.844-1.135c-0.08-0.546-0.586-0.929-1.135-0.844C6.297,35.471,1,38.301,1,41.737
		C1,47.104,13.365,50,25,50s24-2.896,24-8.263C49,38.301,43.702,35.471,34.829,34.167z"/>
	<path d="M25,43.929c0.297-0.007,0.565-0.137,0.741-0.369C26.279,42.847,38.929,25.963,38.929,14c0-7.68-6.248-13.929-13.929-13.929
		C17.32,0.071,11.071,6.32,11.071,14c0,12.245,12.654,28.864,13.192,29.565C24.439,43.794,24.711,43.929,25,43.929z M25,1.929
		c6.656,0,12.071,5.415,12.071,12.071c0,9.737-9.353,23.598-12.077,27.428C22.262,37.64,12.929,23.97,12.929,14
		C12.929,7.344,18.344,1.929,25,1.929z"/>
	<path d="M31.965,15c0-3.84-3.125-6.964-6.965-6.964c-3.84,0-6.964,3.124-6.964,6.964S21.16,21.964,25,21.964
		C28.84,21.964,31.965,18.84,31.965,15z M19.964,15c0-2.776,2.259-5.036,5.036-5.036s5.035,2.259,5.035,5.036
		S27.776,20.036,25,20.036S19.964,17.776,19.964,15z"/>
</g>
</svg>
