<?xml version="1.0" encoding="utf-8"?>
<!-- Generator: Adobe Illustrator 17.0.2, SVG Export Plug-In . SVG Version: 6.00 Build 0)  -->
<!DOCTYPE svg PUBLIC "-//W3C//DTD SVG 1.0//EN" "http://www.w3.org/TR/2001/REC-SVG-20010904/DTD/svg10.dtd">
<svg version="1.0" id="Layer_1" xmlns="http://www.w3.org/2000/svg" xmlns:xlink="http://www.w3.org/1999/xlink" x="0px" y="0px"
	 width="50px" height="50px" viewBox="0 0 50 50" style="enable-background:new 0 0 50 50;" xml:space="preserve">
<path d="M37.846,13C40.773,11.734,43,9.311,43,6c0-3.131-1.988-5-5.319-5c-4.212,0-6.188,3.411-7.931,6.42
	C28.327,9.877,27.098,12,25,12c-2.098,0-3.328-2.123-4.751-4.58C18.506,4.411,16.53,1,12.319,1C8.988,1,7,2.869,7,6
	c0,3.311,2.227,5.734,5.155,7H1v11h2v25h44V24h2V13H37.846z M31.481,8.423C33.097,5.634,34.622,3,37.681,3C39.883,3,41,4.009,41,6
	c0,3.756-4.067,6-8,6h-3.913C29.999,10.981,30.746,9.692,31.481,8.423z M9,6c0-1.991,1.117-3,3.319-3c3.059,0,4.584,2.634,6.2,5.422
	C19.253,9.692,20,10.981,20.913,12H17C13.067,12,9,9.756,9,6z M19,47H5V24h14V47z M19,22H3v-7h16V22z M29,47h-8V15h8V47z M45,47H31
	V24h14V47z M47,22H31v-7h16V22z"/>
</svg>
