<?xml version="1.0" encoding="utf-8"?>
<!-- Generator: Adobe Illustrator 17.0.2, SVG Export Plug-In . SVG Version: 6.00 Build 0)  -->
<!DOCTYPE svg PUBLIC "-//W3C//DTD SVG 1.0//EN" "http://www.w3.org/TR/2001/REC-SVG-20010904/DTD/svg10.dtd">
<svg version="1.0" id="Layer_1" xmlns="http://www.w3.org/2000/svg" xmlns:xlink="http://www.w3.org/1999/xlink" x="0px" y="0px"
	 width="50px" height="50px" viewBox="0 0 50 50" style="enable-background:new 0 0 50 50;" xml:space="preserve">
<path d="M25.02,0h-0.01C25.007,0,25.003,0,25,0C11.215,0,0,11.215,0,25s11.215,25,25,25s25-11.215,25-25
	C50,11.222,38.796,0.011,25.02,0z M12.018,24H2.042c0.211-4.887,1.935-9.388,4.741-13.025c1.955,1.037,4.192,1.892,6.625,2.542
	C12.581,16.663,12.092,20.211,12.018,24z M15.392,13.992c2.727,0.583,5.631,0.935,8.608,0.997V24h-9.987
	C14.09,20.411,14.583,17.005,15.392,13.992z M12.018,26c0.074,3.78,0.561,7.32,1.385,10.459c-2.457,0.657-4.687,1.527-6.607,2.582
	C3.982,35.402,2.254,30.894,2.042,26H12.018z M14.013,26H24v9.01c-3.007,0.06-5.909,0.406-8.613,0.979
	C14.581,32.981,14.09,29.582,14.013,26z M26,14.99c3.007-0.06,5.909-0.406,8.613-0.98c0.805,3.008,1.296,6.408,1.374,9.989H26V14.99
	z M26,26h9.987c-0.078,3.589-0.571,6.995-1.379,10.008c-2.727-0.583-5.631-0.935-8.608-0.997V26z M37.982,26h9.975
	c-0.211,4.887-1.935,9.388-4.741,13.024c-1.955-1.036-4.192-1.891-6.625-2.542C37.419,33.337,37.908,29.789,37.982,26z M37.982,24
	c-0.074-3.78-0.561-7.32-1.385-10.46c2.458-0.657,4.687-1.527,6.608-2.582c2.813,3.639,4.541,8.147,4.753,13.041H37.982z
	 M41.882,9.405c-1.712,0.899-3.683,1.645-5.844,2.219c-1.206-3.727-2.909-6.771-4.947-8.805C35.29,3.973,39.007,6.295,41.882,9.405z
	 M34.04,12.093c-2.52,0.522-5.228,0.839-8.04,0.897V2.104C29.293,2.758,32.217,6.599,34.04,12.093z M24,2.104v10.885
	c-2.782-0.06-5.491-0.383-8.033-0.915C17.79,6.59,20.711,2.758,24,2.104z M18.908,2.819c-2.034,2.031-3.733,5.067-4.939,8.783
	c-2.141-0.57-4.115-1.304-5.86-2.188C10.986,6.299,14.706,3.974,18.908,2.819z M8.118,40.595c1.712-0.899,3.683-1.645,5.844-2.219
	c1.206,3.726,2.909,6.77,4.947,8.806C14.71,46.027,10.993,43.706,8.118,40.595z M15.96,37.907c2.52-0.522,5.228-0.838,8.04-0.897
	v10.885C20.708,47.242,17.783,43.401,15.96,37.907z M26,47.896V37.011c2.782,0.06,5.491,0.383,8.034,0.915
	C32.21,43.41,29.289,47.242,26,47.896z M31.092,47.182c2.034-2.031,3.733-5.067,4.939-8.783c2.14,0.57,4.115,1.304,5.86,2.188
	C39.014,43.702,35.294,46.026,31.092,47.182z"/>
</svg>
