<?xml version="1.0" encoding="utf-8"?>
<!-- Generator: Adobe Illustrator 17.1.0, SVG Export Plug-In . SVG Version: 6.00 Build 0)  -->
<!DOCTYPE svg PUBLIC "-//W3C//DTD SVG 1.0//EN" "http://www.w3.org/TR/2001/REC-SVG-20010904/DTD/svg10.dtd">
<svg version="1.0" id="Layer_1" xmlns="http://www.w3.org/2000/svg" xmlns:xlink="http://www.w3.org/1999/xlink" x="0px" y="0px"
	 viewBox="0 0 50 50" style="enable-background:new 0 0 50 50;" xml:space="preserve">
<path d="M25,0C11.215,0,0,11.215,0,25s11.215,25,25,25s25-11.215,25-25S38.785,0,25,0z M25,48C12.318,48,2,37.683,2,25
	C2,12.318,12.318,2,25,2c12.683,0,23,10.318,23,23C48,37.683,37.683,48,25,48z M39.9,25.3c0,1.031-0.43,1.851-0.947,2.441
	c0.521,0.544,0.947,1.322,0.947,2.358c0,1.412-0.891,2.419-1.77,3.019c0.148,0.404,0.27,0.909,0.27,1.481
	c0.001,0.598,0.002,1.928-1.667,2.909C35.141,38.445,32.283,38.9,28,38.9c-7.77,0-10.481-0.86-12.66-1.552
	C14.022,36.93,12.981,36.6,11,36.6v-2c2.292,0,3.521,0.391,4.945,0.843C17.992,36.092,20.54,36.9,28,36.9
	c4.812,0,6.854-0.607,7.721-1.116c0.681-0.4,0.68-0.716,0.68-1.152c0-0.766-0.402-1.334-0.406-1.339
	c-0.181-0.252-0.238-0.579-0.148-0.876c0.089-0.298,0.309-0.541,0.599-0.651C36.453,31.762,37.9,31.18,37.9,30.1
	c0-0.995-0.942-1.36-0.952-1.363c-0.372-0.14-0.626-0.487-0.647-0.885c-0.021-0.396,0.196-0.769,0.552-0.946
	c0.035-0.019,1.048-0.562,1.048-1.605c0-1.066-1.105-1.447-1.117-1.451c-0.462-0.154-0.746-0.619-0.672-1.101
	c0.053-0.341,0.188-1.356,0.188-1.948c0-0.418-0.528-1.2-1.8-1.2c-1.685,0-2.996,0.217-4.656,0.491
	c-0.79,0.131-1.639,0.271-2.612,0.4c-1.659,0.193-2.5-0.445-2.917-1.013c-0.73-0.999-0.704-2.562,0.073-4.288l0.263-0.546
	c0.993-2.046,2.019-4.161,1.088-5.735c-0.37-0.646-1.168-1.06-1.498-0.993c-0.125,0.025-0.215,0.321-0.249,0.604
	c-0.471,4.955-3.094,7.035-5.202,8.707c-0.762,0.604-1.482,1.176-2.028,1.82c-0.481,0.583-0.919,1.202-1.343,1.801
	C14.165,22.623,12.978,24.3,11,24.3v-2c0.897,0,1.644-0.991,2.788-2.607c0.445-0.629,0.905-1.28,1.441-1.929
	c0.681-0.805,1.514-1.466,2.319-2.104c1.997-1.584,4.062-3.223,4.456-7.354c0.219-1.831,1.36-2.252,1.84-2.35
	c1.387-0.285,2.963,0.792,3.623,1.949c1.47,2.486,0.091,5.329-1.018,7.613l-0.248,0.515c-0.502,1.116-0.495,1.961-0.272,2.266
	c0.194,0.265,0.741,0.245,1.056,0.209c0.933-0.124,1.761-0.261,2.532-0.389C31.199,17.84,32.651,17.6,34.5,17.6
	c2.347,0,3.8,1.661,3.8,3.2c0,0.463-0.058,1.058-0.113,1.521C39.018,22.838,39.9,23.803,39.9,25.3z"/>
</svg>
