<?xml version="1.0" encoding="utf-8"?>
<!-- Generator: Adobe Illustrator 17.0.2, SVG Export Plug-In . SVG Version: 6.00 Build 0)  -->
<!DOCTYPE svg PUBLIC "-//W3C//DTD SVG 1.0//EN" "http://www.w3.org/TR/2001/REC-SVG-20010904/DTD/svg10.dtd">
<svg version="1.0" id="Layer_1" xmlns="http://www.w3.org/2000/svg" xmlns:xlink="http://www.w3.org/1999/xlink" x="0px" y="0px"
	 width="50px" height="50px" viewBox="0 0 50 50" style="enable-background:new 0 0 50 50;" xml:space="preserve">
<g>
	<path d="M47.811,48.585l-21.9-48C25.747,0.229,25.392,0,25,0s-0.747,0.229-0.91,0.585l-21.9,48C2.13,48.718,2.1,48.858,2.1,48.999
		c0,0.25,0.093,0.496,0.271,0.686C2.564,49.89,2.83,50,3.1,50c0.12,0,0.242-0.021,0.358-0.066L25,41.671l21.542,8.263
		c0.381,0.146,0.809,0.047,1.087-0.249c0.179-0.189,0.271-0.436,0.271-0.686C47.9,48.858,47.871,48.718,47.811,48.585z M24,39.912
		L5.025,47.19L24,5.601V39.912z M26,5.601l2.926,6.414C28.411,12.055,28,12.474,28,13c0,0.552,0.448,1,1,1
		c0.273,0,0.52-0.111,0.7-0.289l4.773,10.46C34.195,24.349,34,24.646,34,25c0,0.552,0.448,1,1,1c0.1,0,0.19-0.03,0.281-0.057
		l3.321,7.279C38.433,33.091,38.231,33,38,33c-0.552,0-1,0.448-1,1s0.448,1,1,1c0.529,0,0.952-0.415,0.987-0.935l1.133,2.484
		C40.05,36.686,40,36.835,40,37c0,0.467,0.327,0.842,0.76,0.952l3.218,7.053C43.437,45.017,43,45.456,43,46
		c0,0.181,0.061,0.342,0.146,0.489l-7.4-2.838C35.899,43.474,36,43.251,36,43c0-0.552-0.448-1-1-1c-0.546,0-0.986,0.439-0.996,0.982
		l-7.059-2.708C26.971,40.185,27,40.097,27,40c0-0.552-0.448-1-1-1v-4c0.552,0,1-0.448,1-1s-0.448-1-1-1v-4c0.552,0,1-0.448,1-1
		s-0.448-1-1-1v-4c0.552,0,1-0.448,1-1s-0.448-1-1-1v-4c0.552,0,1-0.448,1-1s-0.448-1-1-1v-4c0.552,0,1-0.448,1-1s-0.448-1-1-1
		V5.601z M44.314,46.937c0.165-0.055,0.308-0.146,0.422-0.272l0.24,0.526L44.314,46.937z"/>
	<circle cx="38" cy="40" r="1"/>
	<circle cx="41" cy="43" r="1"/>
	<circle cx="29" cy="37" r="1"/>
	<circle cx="35" cy="37" r="1"/>
	<circle cx="32" cy="28" r="1"/>
	<circle cx="32" cy="22" r="1"/>
	<circle cx="35" cy="31" r="1"/>
	<circle cx="32" cy="40" r="1"/>
	<circle cx="32" cy="34" r="1"/>
	<circle cx="29" cy="31" r="1"/>
	<circle cx="29" cy="19" r="1"/>
	<circle cx="29" cy="25" r="1"/>
</g>
</svg>
