<?xml version="1.0" encoding="utf-8"?>
<!-- Generator: Adobe Illustrator 17.0.2, SVG Export Plug-In . SVG Version: 6.00 Build 0)  -->
<!DOCTYPE svg PUBLIC "-//W3C//DTD SVG 1.0//EN" "http://www.w3.org/TR/2001/REC-SVG-20010904/DTD/svg10.dtd">
<svg version="1.0" id="Layer_1" xmlns="http://www.w3.org/2000/svg" xmlns:xlink="http://www.w3.org/1999/xlink" x="0px" y="0px"
	 width="50px" height="50px" viewBox="0 0 50 50" style="enable-background:new 0 0 50 50;" xml:space="preserve">
<path d="M38.582,30.188c0.448,0.321,0.553,0.944,0.231,1.394C38.598,31.884,33.418,39,25,39s-13.597-7.116-13.814-7.419
	c-0.32-0.449-0.216-1.072,0.232-1.394c0.45-0.32,1.073-0.218,1.395,0.23C12.86,30.483,17.628,37,25,37s12.14-6.517,12.188-6.582
	C37.509,29.97,38.131,29.867,38.582,30.188z M49,25c0,13.233-10.767,24-24,24S1,38.233,1,25S11.767,1,25,1S49,11.767,49,25z M47,25
	c0-12.131-9.869-22-22-22S3,12.869,3,25s9.869,22,22,22S47,37.131,47,25z M33,25c1.657,0,3-1.343,3-3s-1.343-3-3-3s-3,1.343-3,3
	S31.343,25,33,25z M17,25c1.657,0,3-1.343,3-3s-1.343-3-3-3c-1.657,0-3,1.343-3,3S15.343,25,17,25z"/>
</svg>
