<?xml version="1.0" encoding="utf-8"?>
<!-- Generator: Adobe Illustrator 17.0.2, SVG Export Plug-In . SVG Version: 6.00 Build 0)  -->
<!DOCTYPE svg PUBLIC "-//W3C//DTD SVG 1.0//EN" "http://www.w3.org/TR/2001/REC-SVG-20010904/DTD/svg10.dtd">
<svg version="1.0" id="Layer_1" xmlns="http://www.w3.org/2000/svg" xmlns:xlink="http://www.w3.org/1999/xlink" x="0px" y="0px"
	 width="50px" height="50px" viewBox="0 0 50 50" style="enable-background:new 0 0 50 50;" xml:space="preserve">
<path d="M33.637,9c-3.349,0-6.487,1.457-8.637,3.956C22.853,10.457,19.713,9,16.364,9C10.098,9,5,14.063,5,20.286
	c0,10.128,9.309,16.479,15.469,20.683c1.552,1.059,2.893,1.974,3.894,2.802L25,44.298l0.638-0.527
	c1.001-0.828,2.342-1.743,3.894-2.803C35.691,36.766,45,30.413,45,20.286C45,14.063,39.902,9,33.637,9z M28.404,39.316
	c-1.293,0.882-2.443,1.667-3.404,2.406c-0.961-0.739-2.111-1.523-3.404-2.406C15.436,35.113,7,29.357,7,20.286
	C7,15.166,11.201,11,16.364,11c3.144,0,6.061,1.556,7.805,4.161L25,16.402l0.832-1.241C27.576,12.556,30.494,11,33.637,11
	C38.8,11,43,15.166,43,20.286C43,29.356,34.564,35.113,28.404,39.316z"/>
</svg>
