<?xml version="1.0" encoding="utf-8"?>
<!-- Generator: Adobe Illustrator 17.0.2, SVG Export Plug-In . SVG Version: 6.00 Build 0)  -->
<!DOCTYPE svg PUBLIC "-//W3C//DTD SVG 1.0//EN" "http://www.w3.org/TR/2001/REC-SVG-20010904/DTD/svg10.dtd">
<svg version="1.0" id="Layer_1" xmlns="http://www.w3.org/2000/svg" xmlns:xlink="http://www.w3.org/1999/xlink" x="0px" y="0px"
	 width="50px" height="50px" viewBox="0 0 50 50" style="enable-background:new 0 0 50 50;" xml:space="preserve">
<g>
	<path d="M25,0C11.215,0,0,11.215,0,25s11.215,25,25,25s25-11.215,25-25S38.785,0,25,0z M25,48C12.318,48,2,37.683,2,25
		C2,12.318,12.318,2,25,2c12.683,0,23,10.318,23,23C48,37.683,37.683,48,25,48z"/>
	<path d="M26.439,33.493h-2.726c-0.216,0-0.359,0.143-0.359,0.358v3.084c0,0.215,0.142,0.358,0.359,0.358h2.726
		c0.214,0,0.358-0.142,0.358-0.358v-3.084C26.797,33.637,26.654,33.493,26.439,33.493z"/>
	<path d="M25.29,12.508c-3.73,0-6.205,2.26-6.744,5.703c-0.035,0.216,0.072,0.359,0.288,0.395l2.259,0.395
		c0.216,0.036,0.359-0.072,0.395-0.287c0.43-2.188,1.721-3.407,3.729-3.407c2.045,0,3.479,1.291,3.479,3.335
		c0,1.22-0.43,2.045-1.684,3.766l-2.404,3.3c-0.753,1.041-1.075,1.793-1.075,3.229v1.47c0,0.215,0.143,0.359,0.358,0.355h2.367
		c0.215,0,0.358-0.143,0.358-0.358v-1.147c0-1.219,0.216-1.721,0.933-2.689l2.403-3.3c1.22-1.686,1.828-2.941,1.828-4.663
		C31.78,15.054,29.162,12.508,25.29,12.508z"/>
</g>
</svg>
