<?xml version="1.0" encoding="utf-8"?>
<!-- Generator: Adobe Illustrator 17.0.2, SVG Export Plug-In . SVG Version: 6.00 Build 0)  -->
<!DOCTYPE svg PUBLIC "-//W3C//DTD SVG 1.0//EN" "http://www.w3.org/TR/2001/REC-SVG-20010904/DTD/svg10.dtd">
<svg version="1.0" id="Layer_1" xmlns="http://www.w3.org/2000/svg" xmlns:xlink="http://www.w3.org/1999/xlink" x="0px" y="0px"
	 width="50px" height="50px" viewBox="0 0 50 50" style="enable-background:new 0 0 50 50;" xml:space="preserve">
<g>
	<polygon points="37,7 39,7 39,12.203 41,14.266 41,5 35,5 35,8.016 37,10.094 	"/>
	<path d="M49.611,25.251l-23.89-24.89C25.533,0.164,25.272,0.053,25,0.053s-0.533,0.111-0.722,0.308L0.389,25.25
		c-0.383,0.398-0.37,1.031,0.029,1.414c0.398,0.381,1.031,0.37,1.414-0.029L5,23.334V50h40V23.335l3.168,3.301
		c0.196,0.205,0.459,0.308,0.722,0.308c0.249,0,0.499-0.093,0.692-0.278C49.98,26.282,49.993,25.649,49.611,25.251z M30,48H20V29h10
		V48z M43,48H32V27H18v21H7V21.25L25,2.498l18,18.754V48z"/>
</g>
</svg>
