<?xml version="1.0" encoding="utf-8"?>
<!-- Generator: Adobe Illustrator 17.0.2, SVG Export Plug-In . SVG Version: 6.00 Build 0)  -->
<!DOCTYPE svg PUBLIC "-//W3C//DTD SVG 1.0//EN" "http://www.w3.org/TR/2001/REC-SVG-20010904/DTD/svg10.dtd">
<svg version="1.0" id="Layer_1" xmlns="http://www.w3.org/2000/svg" xmlns:xlink="http://www.w3.org/1999/xlink" x="0px" y="0px"
	 width="50px" height="50px" viewBox="0 0 50 50" style="enable-background:new 0 0 50 50;" xml:space="preserve">
<g>
	<path d="M25,3c-8.271,0-15,6.729-15,15c0,6.167,2.773,9.138,4.797,11.308C16.076,30.678,17,31.668,17,33v5v1v4c0,1.654,1.346,3,3,3
		h1.142c0.447,1.721,2,3,3.858,3c1.859,0,3.411-1.279,3.858-3H30c1.654,0,3-1.346,3-3v-4v-1v-5c0-1.916,1.102-3.066,2.496-4.522
		C37.503,26.382,40,23.774,40,18C40,9.729,33.271,3,25,3z M25,47c-0.737,0-1.375-0.405-1.722-1h3.443C26.375,46.595,25.737,47,25,47
		z M31,43c0,0.552-0.448,1-1,1H20c-0.551,0-1-0.448-1-1v-3h12V43z M34.052,27.094C32.552,28.661,31,30.281,31,33v5H19v-5
		c0-2.12-1.331-3.547-2.74-5.057C14.263,25.804,12,23.378,12,18c0-7.168,5.832-13,13-13c7.168,0,13,5.832,13,13
		C38,22.971,35.993,25.067,34.052,27.094z"/>
	<path d="M28.293,18.293L25,21.586l-3.293-3.293c-0.391-0.391-1.023-0.391-1.414,0s-0.391,1.023,0,1.414L24,23.414V36h2V23.414
		l3.707-3.707c0.391-0.391,0.391-1.023,0-1.414S28.684,17.902,28.293,18.293z"/>
</g>
</svg>
