<?xml version="1.0" encoding="utf-8"?>
<!-- Generator: Adobe Illustrator 21.1.0, SVG Export Plug-In . SVG Version: 6.00 Build 0)  -->
<svg version="1.1" id="Layer_1" xmlns="http://www.w3.org/2000/svg" xmlns:xlink="http://www.w3.org/1999/xlink" x="0px" y="0px"
	 viewBox="0 0 50 50" style="enable-background:new 0 0 50 50;" xml:space="preserve">
<g>
	<path d="M41.6,7C42.3,7,43,7.7,43,8.4v38.1c0,0.8-0.6,1.4-1.4,1.4H3.4C2.7,48,2,47.3,2,46.6V8.4C2,7.7,2.7,7,3.4,7H41.6 M41.6,5
		H3.4C1.6,5,0,6.6,0,8.4v38.1C0,48.4,1.6,50,3.4,50h38.1c1.9,0,3.4-1.6,3.4-3.4V8.4C45,6.6,43.4,5,41.6,5L41.6,5z"/>
</g>
<g>
	<path d="M49,41.4c-0.6,0-1-0.4-1-1v-36C48,3.1,46.9,2,45.6,2H7.4c-0.6,0-1-0.4-1-1s0.4-1,1-1h38.1C48,0,50,2,50,4.5v36
		C50,41,49.6,41.4,49,41.4z"/>
</g>
<g>
	<path d="M5,44c-0.2,0-0.3,0-0.5-0.1C4,43.6,3.9,43,4.1,42.5l7.4-13.8c0.3-0.6,0.8-0.9,1.5-1c0.6-0.1,1.3,0.1,1.7,0.6l10.2,10.2
		l11.3-15.1c0.3-0.4,1-0.5,1.4-0.2c0.4,0.3,0.5,1,0.2,1.4L26.5,39.7c-0.4,0.5-0.9,0.8-1.5,0.8c-0.6,0-1.1-0.2-1.6-0.6L13.2,29.7
		L5.9,43.5C5.7,43.8,5.4,44,5,44z"/>
</g>
<g>
	<path d="M9.5,13c1.4,0,2.5,1.1,2.5,2.5S10.9,18,9.5,18S7,16.9,7,15.5S8.1,13,9.5,13 M9.5,11C7,11,5,13,5,15.5S7,20,9.5,20
		s4.5-2,4.5-4.5S12,11,9.5,11L9.5,11z"/>
</g>
</svg>
