<?xml version="1.0" encoding="utf-8"?>
<!-- Generator: Adobe Illustrator 17.0.2, SVG Export Plug-In . SVG Version: 6.00 Build 0)  -->
<!DOCTYPE svg PUBLIC "-//W3C//DTD SVG 1.0//EN" "http://www.w3.org/TR/2001/REC-SVG-20010904/DTD/svg10.dtd">
<svg version="1.0" id="Layer_1" xmlns="http://www.w3.org/2000/svg" xmlns:xlink="http://www.w3.org/1999/xlink" x="0px" y="0px"
	 width="50px" height="50px" viewBox="0 0 50 50" style="enable-background:new 0 0 50 50;" xml:space="preserve">
<path d="M47.987,26.841c-0.01-0.062-0.025-0.122-0.046-0.18L41.948,8.684C41.812,8.275,41.431,8,41,8H9
	C8.569,8,8.188,8.275,8.051,8.684L2.059,26.661c-0.021,0.058-0.036,0.118-0.046,0.18C2.003,26.901,1.999,26.963,2,27.023V42
	c0,0.553,0.448,1,1,1h44c0.553,0,1-0.447,1-1V27.023C48.001,26.963,47.997,26.901,47.987,26.841z M9.721,10h30.559l5.333,16H32
	c-0.553,0-1,0.447-1,1c0,3.309-2.691,6-6,6s-6-2.691-6-6c0-0.553-0.448-1-1-1H4.387L9.721,10z M46,41H4V28h13.062
	c0.494,3.94,3.866,7,7.938,7s7.444-3.06,7.938-7H46V41z"/>
</svg>
