<?xml version="1.0" encoding="utf-8"?>
<!-- Generator: Adobe Illustrator 17.0.2, SVG Export Plug-In . SVG Version: 6.00 Build 0)  -->
<!DOCTYPE svg PUBLIC "-//W3C//DTD SVG 1.0//EN" "http://www.w3.org/TR/2001/REC-SVG-20010904/DTD/svg10.dtd">
<svg version="1.0" id="Layer_1" xmlns="http://www.w3.org/2000/svg" xmlns:xlink="http://www.w3.org/1999/xlink" x="0px" y="0px"
	 width="50px" height="50px" viewBox="0 0 50 50" style="enable-background:new 0 0 50 50;" xml:space="preserve">
<path d="M25.026,4.929c-0.149-0.384-0.52-0.636-0.931-0.636h-5.67c-0.412,0-0.782,0.253-0.932,0.637L2.481,43.485
	c-0.12,0.309-0.08,0.655,0.106,0.928c0.187,0.272,0.496,0.436,0.826,0.436h5.238c0.418,0,0.792-0.26,0.937-0.651l4.078-10.958
	h14.912l3.973,10.95c0.144,0.396,0.52,0.659,0.94,0.659h5.67c0.007,0,0.015,0,0.02,0c0.553,0,1-0.447,1-1
	c0-0.197-0.057-0.382-0.155-0.537L25.026,4.929z M34.192,42.849l-3.973-10.95c-0.144-0.396-0.52-0.659-0.94-0.659H12.971
	c-0.418,0-0.792,0.26-0.937,0.651L7.956,42.849H4.875L19.108,6.293h4.304l14.284,36.556H34.192z M21.233,8.937h-0.108
	c-0.42,0-0.796,0.263-0.94,0.659l-6.534,17.981c-0.111,0.307-0.066,0.648,0.121,0.916c0.187,0.267,0.493,0.426,0.819,0.426h13.068
	c0.325,0,0.63-0.158,0.817-0.424s0.233-0.606,0.124-0.913L22.175,9.601C22.032,9.203,21.655,8.937,21.233,8.937z M16.018,26.919
	l5.153-14.182l5.069,14.182H16.018z M48,25c0,0.553-0.447,1-1,1h-4v4c0,0.553-0.447,1-1,1s-1-0.447-1-1v-4h-4c-0.553,0-1-0.447-1-1
	c0-0.552,0.447-1,1-1h4v-4c0-0.552,0.447-1,1-1s1,0.448,1,1v4h4C47.553,24,48,24.448,48,25z"/>
</svg>
