<?xml version="1.0" encoding="utf-8"?>
<!-- Generator: Adobe Illustrator 17.1.0, SVG Export Plug-In . SVG Version: 6.00 Build 0)  -->
<!DOCTYPE svg PUBLIC "-//W3C//DTD SVG 1.0//EN" "http://www.w3.org/TR/2001/REC-SVG-20010904/DTD/svg10.dtd">
<svg version="1.0" id="Layer_1" xmlns="http://www.w3.org/2000/svg" xmlns:xlink="http://www.w3.org/1999/xlink" x="0px" y="0px"
	 viewBox="0 0 50 50" style="enable-background:new 0 0 50 50;" xml:space="preserve">
<path d="M47.383,14.076c-0.374-0.155-0.804-0.069-1.09,0.217l-10,10c-0.391,0.391-0.391,1.023,0,1.414l10,10
	C46.484,35.898,46.74,36,47,36c0.129,0,0.259-0.024,0.383-0.076C47.757,35.77,48,35.404,48,35V15
	C48,14.596,47.757,14.231,47.383,14.076z M46,32.586L38.414,25L46,17.414V32.586z M31,26H2v-2h29V26z M31,36H2v-2h29V36z M31,16H2
	v-2h29V16z M48,4v2H2V4H48z M2,44h46v2H2V44z"/>
</svg>
