<?xml version="1.0" encoding="utf-8"?>
<!-- Generator: Adobe Illustrator 17.1.0, SVG Export Plug-In . SVG Version: 6.00 Build 0)  -->
<!DOCTYPE svg PUBLIC "-//W3C//DTD SVG 1.0//EN" "http://www.w3.org/TR/2001/REC-SVG-20010904/DTD/svg10.dtd">
<svg version="1.0" id="Layer_1" xmlns="http://www.w3.org/2000/svg" xmlns:xlink="http://www.w3.org/1999/xlink" x="0px" y="0px"
	 viewBox="0 0 50 50" style="enable-background:new 0 0 50 50;" xml:space="preserve">
<path d="M22.8,27.5L22.8,27.5L22.8,27.5L22.8,27.5z M37,12L37,12c-5.7,0-8.7,3.6-10.9,8c0.4,0.8,0.7,1.6,1.1,2.4
	c2.1-4.6,4.6-8.4,9.8-8.4c6.1,0,11,4.9,11,11c0,0,0,0,0,0c0,6.065-4.935,11-11,11c-6.333,0-8.638-5.53-11.077-11.385
	C23.339,18.413,20.667,12,13,12C5.832,12,0,17.832,0,25c0,7.2,5.8,13,13,13c5.7,0,8.7-3.6,10.9-8.1c-0.4-0.8-0.7-1.6-1.1-2.4
	C20.7,32.2,18.2,36,13,36C6.9,36,2,31.1,2,25c0-6.065,4.935-11,11-11c6.333,0,8.638,5.53,11.077,11.385
	C26.661,31.587,29.333,38,37,38c7.168,0,13-5.832,13-13h0C50,17.8,44.2,12,37,12z"/>
</svg>
