<?xml version="1.0" encoding="utf-8"?>
<!-- Generator: Adobe Illustrator 17.0.2, SVG Export Plug-In . SVG Version: 6.00 Build 0)  -->
<!DOCTYPE svg PUBLIC "-//W3C//DTD SVG 1.0//EN" "http://www.w3.org/TR/2001/REC-SVG-20010904/DTD/svg10.dtd">
<svg version="1.0" id="Layer_1" xmlns="http://www.w3.org/2000/svg" xmlns:xlink="http://www.w3.org/1999/xlink" x="0px" y="0px"
	 width="50px" height="50px" viewBox="0 0 50 50" style="enable-background:new 0 0 50 50;" xml:space="preserve">
<g>
	<path d="M25,0C11.215,0,0,11.215,0,25s11.215,25,25,25s25-11.215,25-25S38.785,0,25,0z M25,48C12.318,48,2,37.683,2,25
		C2,12.318,12.318,2,25,2c12.683,0,23,10.318,23,23C48,37.683,37.683,48,25,48z"/>
	<path d="M26.218,12.905h-2.439c-0.215,0-0.357,0.144-0.357,0.359v2.618c0,0.215,0.141,0.359,0.357,0.359h2.439
		c0.214,0,0.359-0.144,0.359-0.359v-2.618C26.577,13.049,26.433,12.905,26.218,12.905z"/>
	<path d="M26.147,20.114h-2.295c-0.214,0-0.358,0.144-0.358,0.359v16.462c0,0.215,0.143,0.358,0.358,0.358h2.295
		c0.215,0,0.359-0.142,0.359-0.358V20.473C26.506,20.258,26.363,20.114,26.147,20.114z"/>
</g>
</svg>
