<?xml version="1.0" encoding="utf-8"?>
<!-- Generator: Adobe Illustrator 17.1.0, SVG Export Plug-In . SVG Version: 6.00 Build 0)  -->
<!DOCTYPE svg PUBLIC "-//W3C//DTD SVG 1.0//EN" "http://www.w3.org/TR/2001/REC-SVG-20010904/DTD/svg10.dtd">
<svg version="1.0" id="Layer_1" xmlns="http://www.w3.org/2000/svg" xmlns:xlink="http://www.w3.org/1999/xlink" x="0px" y="0px"
	 viewBox="0 0 50 50" style="enable-background:new 0 0 50 50;" xml:space="preserve">
<path d="M49,0H1C0.448,0,0,0.448,0,1v48c0,0.553,0.448,1,1,1h48c0.553,0,1-0.447,1-1V1C50,0.448,49.553,0,49,0z M24,48H2V34h22V48z
	 M24,32H2V18h22V32z M24,16H2V2h22V16z M48,48H26V34h22V48z M48,32H26V18h22V32z M48,16H26V2h22V16z"/>
</svg>
