<?xml version="1.0" encoding="utf-8"?>
<!-- Generator: Adobe Illustrator 17.1.0, SVG Export Plug-In . SVG Version: 6.00 Build 0)  -->
<!DOCTYPE svg PUBLIC "-//W3C//DTD SVG 1.0//EN" "http://www.w3.org/TR/2001/REC-SVG-20010904/DTD/svg10.dtd">
<svg version="1.0" id="Layer_1" xmlns="http://www.w3.org/2000/svg" xmlns:xlink="http://www.w3.org/1999/xlink" x="0px" y="0px"
	 viewBox="0 0 50 50" style="enable-background:new 0 0 50 50;" xml:space="preserve">
<path d="M24.402,35.129l-7.814-7.057l1.341-1.484l6.07,5.482l8.706-13.453l1.679,1.086L24.402,35.129z M45,5v42c0,1.654-1.346,3-3,3
	H8c-1.654,0-3-1.346-3-3V5c0-1.654,1.346-3,3-3h8V1c0-0.552,0.448-1,1-1h16c0.553,0,1,0.448,1,1v1h8C43.654,2,45,3.346,45,5z M18,2
	v2v2v2h14V6V4V2H18z M16,9V8h-5v36h28V8h-5v1c0,0.552-0.447,1-1,1H17C16.448,10,16,9.552,16,9z M43,5c0-0.551-0.448-1-1-1h-8v2h7v40
	H9V6h7V4H8C7.449,4,7,4.449,7,5v42c0,0.552,0.449,1,1,1h34c0.552,0,1-0.448,1-1V5z"/>
</svg>
