<?xml version="1.0" encoding="utf-8"?>
<!-- Generator: Adobe Illustrator 17.1.0, SVG Export Plug-In . SVG Version: 6.00 Build 0)  -->
<!DOCTYPE svg PUBLIC "-//W3C//DTD SVG 1.0//EN" "http://www.w3.org/TR/2001/REC-SVG-20010904/DTD/svg10.dtd">
<svg version="1.0" id="Layer_1" xmlns="http://www.w3.org/2000/svg" xmlns:xlink="http://www.w3.org/1999/xlink" x="0px" y="0px"
	 viewBox="0 0 50 50" style="enable-background:new 0 0 50 50;" xml:space="preserve">
<path d="M49.666,19.254c0,0-3.51-3.13-7.666-6.805V6c0-0.552-0.447-1-1-1h-7.516c-1.944-1.755-3.451-3.075-3.834-3.359
	C27.984,0.213,26.021,0,25,0c-1.022,0-2.985,0.213-4.601,1.6c-0.316,0.238-1.12,0.932-2.764,2.355L16.427,5H9C8.448,5,8,5.448,8,6
	v6.449c-4.156,3.675-7.666,6.805-7.666,6.805C0.122,19.443,0,19.715,0,20v29c0,0.553,0.448,1,1,1h48c0.553,0,1-0.447,1-1V20
	C50,19.715,49.878,19.443,49.666,19.254z M48,23.081v19.945c-2.669-2.09-8.34-6.529-12.701-9.948L48,23.081z M48,20.448v0.088
	l-6,4.722V15.12C44.819,17.616,47.159,19.699,48,20.448z M21.651,3.159C22.872,2.113,24.4,2,25,2c0.601,0,2.128,0.113,3.4,1.2
	c0.223,0.167,0.962,0.802,2.087,1.8H19.484C20.554,4.074,21.371,3.372,21.651,3.159z M10,12.895V7h6.795c0.003,0,0.006,0,0.011,0
	h16.29c0.001,0,0.003,0,0.007,0H40v5.895c0,0.003,0,0.007,0,0.01v13.929l-6.32,4.974c-2.096-1.644-3.663-2.875-4.055-3.188
	C27.863,27.21,25.972,27,25,27c-0.567,0-2.576,0.115-4.591,1.594c-0.405,0.297-1.996,1.534-4.115,3.192L10,26.832V12.904
	C10,12.901,10,12.898,10,12.895z M14.673,33.056C10.314,36.472,4.675,40.911,2,43.018V23.081L14.673,33.056z M8,15.12v10.139
	l-6-4.722v-0.088C2.841,19.699,5.181,17.616,8,15.12z M2,48v-2.436c2.299-1.811,18.222-14.353,19.592-15.357
	C23.157,29.059,24.706,29,25,29c0.709,0,2.091,0.153,3.376,1.182C29.78,31.304,45.611,43.695,48,45.565V48H2z M24,18h-6v-2h6v-6h2v6
	h6v2h-6v6h-2V18z"/>
</svg>
