<?xml version="1.0" encoding="utf-8"?>
<!-- Generator: Adobe Illustrator 17.0.2, SVG Export Plug-In . SVG Version: 6.00 Build 0)  -->
<!DOCTYPE svg PUBLIC "-//W3C//DTD SVG 1.0//EN" "http://www.w3.org/TR/2001/REC-SVG-20010904/DTD/svg10.dtd">
<svg version="1.0" id="Layer_1" xmlns="http://www.w3.org/2000/svg" xmlns:xlink="http://www.w3.org/1999/xlink" x="0px" y="0px"
	 width="50px" height="50px" viewBox="0 0 50 50" style="enable-background:new 0 0 50 50;" xml:space="preserve">
<g>
	<path d="M44,6H6c-3.717,0-6,3.495-6,6v26.384C0,41.48,2.52,44,5.616,44h38.768C47.48,44,50,41.48,50,38.384V11.846
		C50,8.787,47.141,6,44,6z M48,38.384C48,40.378,46.378,42,44.384,42H5.616C3.622,42,2,40.378,2,38.384V12c0-1.357,1.412-4,4-4h38
		c2.019,0,4,1.905,4,3.846V38.384z"/>
	<path d="M44,10H7c-0.552,0-1,0.448-1,1v28c0,0.553,0.448,1,1,1h37c0.553,0,1-0.447,1-1V11C45,10.448,44.553,10,44,10z M43,38H8V12
		h35V38z"/>
	<circle cx="4" cy="25" r="1.5"/>
</g>
</svg>
