<?xml version="1.0" encoding="utf-8"?>
<!-- Generator: Adobe Illustrator 17.0.2, SVG Export Plug-In . SVG Version: 6.00 Build 0)  -->
<!DOCTYPE svg PUBLIC "-//W3C//DTD SVG 1.0//EN" "http://www.w3.org/TR/2001/REC-SVG-20010904/DTD/svg10.dtd">
<svg version="1.0" id="Layer_1" xmlns="http://www.w3.org/2000/svg" xmlns:xlink="http://www.w3.org/1999/xlink" x="0px" y="0px"
	 width="50px" height="50px" viewBox="0 0 50 50" style="enable-background:new 0 0 50 50;" xml:space="preserve">
<g>
	<path d="M32.4,6H17.8C14.818,6,12,8.916,12,12v32c0,3.718,3.495,6,6,6h14.4c3.035,0,5.6-2.564,5.6-5.6V11.6
		C38,8.564,35.436,6,32.4,6z M36,44.4c0,1.951-1.648,3.6-3.6,3.6H18c-1.357,0-4-1.412-4-4V12c0-1.981,1.917-4,3.8-4H32.4
		c1.951,0,3.6,1.648,3.6,3.6V44.4z"/>
	<path d="M33,11H17c-0.552,0-1,0.448-1,1v31c0,0.553,0.448,1,1,1h16c0.553,0,1-0.447,1-1V12C34,11.448,33.553,11,33,11z M32,42H18
		V13h14V42z"/>
	<circle cx="25" cy="46" r="1.5"/>
</g>
</svg>
