<?xml version="1.0" encoding="utf-8"?>
<!-- Generator: Adobe Illustrator 21.1.0, SVG Export Plug-In . SVG Version: 6.00 Build 0)  -->
<svg version="1.1" id="Layer_1" xmlns="http://www.w3.org/2000/svg" xmlns:xlink="http://www.w3.org/1999/xlink" x="0px" y="0px"
	 viewBox="0 0 50 50" style="enable-background:new 0 0 50 50;" xml:space="preserve">
<path d="M16,2c1.1,0,2,0.9,2,2v42c0,1.1-0.9,2-2,2H4c-1.1,0-2-0.9-2-2V4c0-1.1,0.9-2,2-2H16 M16,0H4C1.8,0,0,1.8,0,4v42
	c0,2.2,1.8,4,4,4h12c2.2,0,4-1.8,4-4V4C20,1.8,18.2,0,16,0L16,0z"/>
<path d="M46,2c1.1,0,2,0.9,2,2v20c0,1.1-0.9,2-2,2H34c-1.1,0-2-0.9-2-2V4c0-1.1,0.9-2,2-2H46 M46,0H34c-2.2,0-4,1.8-4,4v20
	c0,2.2,1.8,4,4,4h12c2.2,0,4-1.8,4-4V4C50,1.8,48.2,0,46,0L46,0z"/>
</svg>
