<?xml version="1.0" encoding="utf-8"?>
<!-- Generator: Adobe Illustrator 17.0.2, SVG Export Plug-In . SVG Version: 6.00 Build 0)  -->
<!DOCTYPE svg PUBLIC "-//W3C//DTD SVG 1.0//EN" "http://www.w3.org/TR/2001/REC-SVG-20010904/DTD/svg10.dtd">
<svg version="1.0" id="Layer_1" xmlns="http://www.w3.org/2000/svg" xmlns:xlink="http://www.w3.org/1999/xlink" x="0px" y="0px"
	 width="50px" height="50px" viewBox="0 0 50 50" style="enable-background:new 0 0 50 50;" xml:space="preserve">
<g>
	<path d="M41.779,8.222c-4.289-4.289-11.269-4.289-15.558,0l-0.707,0.707l15.557,15.556l0.707-0.707C43.856,21.701,45,18.939,45,16
		S43.857,10.299,41.779,8.222z M41.032,21.618l-12.65-12.65c3.531-2.825,8.712-2.603,11.983,0.668C42.065,11.335,43,13.595,43,16
		C43,18.068,42.308,20.029,41.032,21.618z"/>
	<path d="M34,0c-8.822,0-16,7.178-16,16c0,1.962,0.355,3.843,1.004,5.582L0,40.586v6.828L2.586,50h6.828L13,46.414V44h2.414
		L19,40.414V39h1.414L23,36.414V35h1.414l4.004-4.004C30.157,31.645,32.038,32,34,32c8.822,0,16-7.178,16-16S42.822,0,34,0z
		 M23.586,33H21v2.586L19.586,37H17v2.586L14.586,42H11v3.586L8.586,48H3.414l-1-1l16.575-16.575c0.391-0.391,0.391-1.023,0-1.414
		s-1.023-0.391-1.414,0L2,44.585v-3.171l17.885-17.885c1.495,2.791,3.795,5.091,6.586,6.586L23.586,33z M34,30
		c-7.72,0-14-6.28-14-14S26.28,2,34,2s14,6.28,14,14S41.72,30,34,30z"/>
</g>
</svg>
