<?xml version="1.0" encoding="utf-8"?>
<!-- Generator: Adobe Illustrator 17.0.2, SVG Export Plug-In . SVG Version: 6.00 Build 0)  -->
<!DOCTYPE svg PUBLIC "-//W3C//DTD SVG 1.0//EN" "http://www.w3.org/TR/2001/REC-SVG-20010904/DTD/svg10.dtd">
<svg version="1.0" id="Layer_1" xmlns="http://www.w3.org/2000/svg" xmlns:xlink="http://www.w3.org/1999/xlink" x="0px" y="0px"
	 width="50px" height="50px" viewBox="0 0 50 50" style="enable-background:new 0 0 50 50;" xml:space="preserve">
<g>
	<path d="M11,10h2c1.159,0,2-0.841,2-2V6h19V4H15V2c0-1.159-0.841-2-2-2h-2C9.841,0,9,0.841,9,2v6C9,9.159,9.841,10,11,10z M11,2h2
		v6h-2l-0.051-5.995C10.949,2.005,10.965,2,11,2z"/>
	<path d="M48,4h-7V2c0-1.159-0.841-2-2-2h-2c-1.159,0-2,0.841-2,2v6c0,1.159,0.841,2,2,2h2c1.159,0,2-0.841,2-2V6h7v8H2V6h6V4H2
		C0.841,4,0,4.841,0,6v42c0,1.159,0.841,2,2,2h46c1.159,0,2-0.841,2-2V6C50,4.841,49.159,4,48,4z M39,8h-2l-0.051-5.995
		C36.949,2.005,36.965,2,37,2h2V8z M48,48H2V16h46V48z"/>
	<path d="M23.8,36.3h2.3c0.3,0,0.4-0.2,0.4-0.4V21.4c0-0.3-0.2-0.4-0.4-0.4h-2.3c-0.3,0-0.4,0.2-0.4,0.4v14.5
		C23.4,36.2,23.6,36.3,23.8,36.3z"/>
	<path d="M23.8,43.1h2.4c0.3,0,0.4-0.2,0.4-0.4v-2.6c0-0.3-0.2-0.4-0.4-0.4v-0.1h-2.4c-0.3,0-0.4,0.2-0.4,0.4v2.7
		C23.4,43,23.6,43.1,23.8,43.1z"/>
</g>
</svg>
