<?xml version="1.0" encoding="utf-8"?>
<!-- Generator: Adobe Illustrator 17.0.2, SVG Export Plug-In . SVG Version: 6.00 Build 0)  -->
<!DOCTYPE svg PUBLIC "-//W3C//DTD SVG 1.0//EN" "http://www.w3.org/TR/2001/REC-SVG-20010904/DTD/svg10.dtd">
<svg version="1.0" id="Layer_1" xmlns="http://www.w3.org/2000/svg" xmlns:xlink="http://www.w3.org/1999/xlink" x="0px" y="0px"
	 width="50.004px" height="50px" viewBox="0 0 50.004 50" style="enable-background:new 0 0 50.004 50;" xml:space="preserve">
<path d="M49.999,5.965l-1.996-0.038c-0.004,0.045-0.361,4.501-3.809,8.961C39.732,20.66,32.072,23.797,22,23.99V13.591L0.344,30
	L22,46.409V35.988c8.362-0.192,15.041-2.816,19.862-7.807C50.361,19.385,50.019,6.509,49.999,5.965z M40.413,26.804
	C35.793,31.579,29.261,34,21,34h-1v8.384L3.656,30L20,17.615V26h1c15.271,0,22.528-6.2,25.961-11.683
	C45.979,18.296,44.081,23.012,40.413,26.804z"/>
</svg>
