<?xml version="1.0" encoding="utf-8"?>
<!-- Generator: Adobe Illustrator 17.0.2, SVG Export Plug-In . SVG Version: 6.00 Build 0)  -->
<!DOCTYPE svg PUBLIC "-//W3C//DTD SVG 1.0//EN" "http://www.w3.org/TR/2001/REC-SVG-20010904/DTD/svg10.dtd">
<svg version="1.0" id="Layer_1" xmlns="http://www.w3.org/2000/svg" xmlns:xlink="http://www.w3.org/1999/xlink" x="0px" y="0px"
	 width="50.004px" height="50px" viewBox="0 0 50.004 50" style="enable-background:new 0 0 50.004 50;" xml:space="preserve">
<path d="M41.862,21.818c-4.821-4.991-11.5-7.615-19.862-7.807V3.592L0.344,20L22,36.41V26.009
	c24.371,0.449,25.947,17.337,26.003,18.065l1.996-0.04C50.019,43.49,50.361,30.615,41.862,21.818z M21,24h-1v8.385L3.656,20
	L20,7.616V16h1c8.261,0,14.793,2.421,19.413,7.197c3.668,3.792,5.566,8.507,6.548,12.487C43.528,30.2,36.271,24,21,24z"/>
</svg>
