<?xml version="1.0" encoding="utf-8"?>
<!-- Generator: Adobe Illustrator 17.0.2, SVG Export Plug-In . SVG Version: 6.00 Build 0)  -->
<!DOCTYPE svg PUBLIC "-//W3C//DTD SVG 1.0//EN" "http://www.w3.org/TR/2001/REC-SVG-20010904/DTD/svg10.dtd">
<svg version="1.0" id="Layer_1" xmlns="http://www.w3.org/2000/svg" xmlns:xlink="http://www.w3.org/1999/xlink" x="0px" y="0px"
	 width="50px" height="50px" viewBox="0 0 50 50" style="enable-background:new 0 0 50 50;" xml:space="preserve">
<g>
	<path d="M22.321,27.805L22.321,27.805c1.878,2.794,1.964,6.569-0.082,9.484c-0.291,0.416-4.595,6.55-5.02,7.152
		c-1.285,1.831-3.205,3.053-5.407,3.438C9.61,48.265,7.39,47.77,5.56,46.485c-1.83-1.285-3.051-3.206-3.438-5.408
		c-0.386-2.202,0.108-4.423,1.394-6.253l5.833-8.311l-1.631-1.145L1.885,33.68c-1.591,2.266-2.204,5.015-1.727,7.741
		c0.479,2.728,1.99,5.105,4.257,6.696c2.265,1.59,5.015,2.202,7.741,1.725c2.727-0.478,5.104-1.988,6.693-4.252
		c0.424-0.603,4.731-6.741,5.021-7.156c2.686-3.826,2.411-8.855-0.338-12.355L22.321,27.805z"/>
	<path d="M48.116,4.415c-1.591-2.267-3.968-3.778-6.696-4.257c-2.726-0.477-5.475,0.136-7.741,1.727l-8.311,5.833l1.145,1.631
		l8.311-5.833c1.83-1.286,4.051-1.78,6.253-1.394C43.279,2.509,45.2,3.73,46.485,5.56c1.285,1.83,1.78,4.05,1.394,6.252
		c-0.385,2.202-1.607,4.122-3.438,5.407c-0.602,0.425-6.736,4.729-7.152,5.02c-2.915,2.046-6.69,1.96-9.484,0.082v0l-1.727,1.211
		c3.5,2.749,8.529,3.024,12.355,0.338c0.415-0.29,6.553-4.597,7.156-5.021c2.264-1.589,3.774-3.966,4.252-6.693
		C50.318,9.43,49.706,6.68,48.116,4.415z"/>
	<path d="M14.293,15.707C14.488,15.902,14.744,16,15,16s0.512-0.098,0.707-0.293c0.391-0.391,0.391-1.023,0-1.414l-13-13
		c-0.391-0.391-1.023-0.391-1.414,0s-0.391,1.023,0,1.414L14.293,15.707z"/>
</g>
</svg>
