<?xml version="1.0" encoding="utf-8"?>
<!-- Generator: Adobe Illustrator 17.0.2, SVG Export Plug-In . SVG Version: 6.00 Build 0)  -->
<!DOCTYPE svg PUBLIC "-//W3C//DTD SVG 1.0//EN" "http://www.w3.org/TR/2001/REC-SVG-20010904/DTD/svg10.dtd">
<svg version="1.0" id="Layer_1" xmlns="http://www.w3.org/2000/svg" xmlns:xlink="http://www.w3.org/1999/xlink" x="0px" y="0px"
	 width="49.908px" height="49.91px" viewBox="0 0 49.908 49.91" style="enable-background:new 0 0 49.908 49.91;"
	 xml:space="preserve">
<g>
	<path d="M15.247,34.662c0.195,0.195,0.451,0.293,0.707,0.293s0.512-0.098,0.707-0.293l18-18c0.391-0.391,0.391-1.023,0-1.414
		s-1.023-0.391-1.414,0l-18,18C14.856,33.639,14.856,34.271,15.247,34.662z"/>
	<path d="M24.18,29.957c1.368,3.076,0.801,6.81-1.717,9.328c-0.359,0.359-5.656,5.658-6.179,6.18
		c-1.581,1.581-3.683,2.452-5.919,2.452c-2.235-0.001-4.337-0.871-5.918-2.452c-1.582-1.582-2.453-3.684-2.453-5.92
		c0-2.236,0.871-4.338,2.452-5.919l6.18-6.18c1.581-1.581,3.683-2.451,5.918-2.451c1.197,0,2.352,0.256,3.412,0.731l1.494-1.494
		c-1.491-0.803-3.165-1.23-4.906-1.23c-2.768,0-5.371,1.078-7.328,3.035l-6.18,6.18C1.078,34.174,0,36.777,0,39.545
		c0,2.768,1.079,5.371,3.037,7.33c1.957,1.957,4.56,3.035,7.327,3.035c0.001,0,0.001,0,0.001,0c2.768,0,5.371-1.078,7.326-3.035
		c0.522-0.52,5.823-5.822,6.181-6.182c3.306-3.305,3.903-8.306,1.799-12.229L24.18,29.957z"/>
	<path d="M46.871,3.035C44.914,1.078,42.311,0,39.544,0c-0.001,0-0.001,0-0.001,0c-2.769,0-5.37,1.078-7.326,3.034
		c-0.522,0.52-5.823,5.823-6.181,6.182c-3.306,3.305-3.903,8.306-1.8,12.229l1.492-1.492c-1.368-3.076-0.801-6.81,1.718-9.328
		c0.358-0.359,5.655-5.659,6.178-6.179c1.582-1.582,3.684-2.453,5.92-2.453c2.235,0,4.337,0.871,5.918,2.452
		c1.582,1.582,2.453,3.685,2.453,5.921c0,2.236-0.871,4.337-2.452,5.918l-6.18,6.18c-1.581,1.581-3.683,2.451-5.919,2.451
		c-1.196,0-2.352-0.256-3.411-0.731l-1.494,1.494c1.491,0.803,3.165,1.23,4.905,1.23c2.769,0,5.371-1.078,7.328-3.035l6.18-6.18
		c1.958-1.957,3.036-4.56,3.036-7.328C49.907,7.596,48.829,4.993,46.871,3.035z"/>
</g>
</svg>
