<?xml version="1.0" encoding="utf-8"?>
<!-- Generator: Adobe Illustrator 17.0.2, SVG Export Plug-In . SVG Version: 6.00 Build 0)  -->
<!DOCTYPE svg PUBLIC "-//W3C//DTD SVG 1.0//EN" "http://www.w3.org/TR/2001/REC-SVG-20010904/DTD/svg10.dtd">
<svg version="1.0" id="Layer_1" xmlns="http://www.w3.org/2000/svg" xmlns:xlink="http://www.w3.org/1999/xlink" x="0px" y="0px"
	 width="50px" height="50px" viewBox="0 0 50 50" style="enable-background:new 0 0 50 50;" xml:space="preserve">
<g>
	<path d="M46,20h-3v-6c0-6.065-4.935-11-11-11S21,7.935,21,14v6h-3c-1.654,0-3,1.346-3,3v22c0,1.654,1.346,3,3,3h28
		c1.654,0,3-1.346,3-3V23C49,21.346,47.654,20,46,20z M23,14c0-4.962,4.037-9,9-9s9,4.038,9,9v6H23V14z M47,45c0,0.552-0.448,1-1,1
		H18c-0.551,0-1-0.448-1-1V23c0-0.551,0.449-1,1-1h28c0.552,0,1,0.449,1,1V45z"/>
	<path d="M32,29c-1.657,0-3,1.343-3,3c0,0.885,0.391,1.673,1,2.222V37c0,1.104,0.896,2,2,2s2-0.896,2-2v-2.778
		c0.609-0.549,1-1.337,1-2.222C35,30.343,33.657,29,32,29z"/>
</g>
</svg>
