<?xml version="1.0" encoding="utf-8"?>
<!-- Generator: Adobe Illustrator 17.0.2, SVG Export Plug-In . SVG Version: 6.00 Build 0)  -->
<!DOCTYPE svg PUBLIC "-//W3C//DTD SVG 1.0//EN" "http://www.w3.org/TR/2001/REC-SVG-20010904/DTD/svg10.dtd">
<svg version="1.0" id="Layer_1" xmlns="http://www.w3.org/2000/svg" xmlns:xlink="http://www.w3.org/1999/xlink" x="0px" y="0px"
	 width="50px" height="50px" viewBox="0 0 50 50" style="enable-background:new 0 0 50 50;" xml:space="preserve">
<path d="M41,20h-4v-5c0-6.617-5.383-12-12-12c-6.617,0-12,5.383-12,12v5H9c-1.654,0-3,1.346-3,3v24c0,1.654,1.346,3,3,3h32
	c1.654,0,3-1.346,3-3V23C44,21.346,42.654,20,41,20z M15,15c0-5.514,4.486-10,10-10c5.514,0,10,4.486,10,10v5H15V15z M27,35.222V38
	c0,1.104-0.896,2-2,2s-2-0.896-2-2v-2.778c-0.609-0.549-1-1.336-1-2.222c0-1.657,1.343-3,3-3s3,1.343,3,3
	C28,33.885,27.609,34.673,27,35.222z"/>
</svg>
