<?xml version="1.0" encoding="utf-8"?>
<!-- Generator: Adobe Illustrator 17.0.2, SVG Export Plug-In . SVG Version: 6.00 Build 0)  -->
<!DOCTYPE svg PUBLIC "-//W3C//DTD SVG 1.0//EN" "http://www.w3.org/TR/2001/REC-SVG-20010904/DTD/svg10.dtd">
<svg version="1.0" id="Layer_1" xmlns="http://www.w3.org/2000/svg" xmlns:xlink="http://www.w3.org/1999/xlink" x="0px" y="0px"
	 width="50px" height="50px" viewBox="0 0 50 50" style="enable-background:new 0 0 50 50;" xml:space="preserve">
<path d="M11.683,22.73c-0.403,0.374-1.037,0.354-1.412-0.049c-0.376-0.402-0.357-1.032,0.043-1.41C10.413,21.179,12.765,19,16,19
	s5.587,2.179,5.686,2.272c0.402,0.378,0.421,1.011,0.042,1.414C21.531,22.895,21.266,23,21,23c-0.245,0-0.49-0.089-0.683-0.27
	C20.298,22.713,18.426,21,16,21S11.702,22.713,11.683,22.73z M34,19c-3.235,0-5.587,2.179-5.686,2.272
	c-0.401,0.377-0.42,1.007-0.044,1.41c0.378,0.403,1.009,0.423,1.412,0.049C29.702,22.713,31.574,21,34,21
	c2.425,0,4.297,1.713,4.313,1.728C38.507,22.91,38.753,23,38.999,23c0.266,0,0.531-0.105,0.729-0.314
	c0.378-0.402,0.359-1.035-0.043-1.414C39.586,21.179,37.234,19,34,19z M49,25c0,13.233-10.767,24-24,24S1,38.233,1,25S11.767,1,25,1
	S49,11.767,49,25z M47,25c0-12.131-9.869-22-22-22S3,12.869,3,25s9.869,22,22,22S47,37.131,47,25z M38.98,27.198
	c-0.028,0.14-0.716,3.458-2.735,6.817C33.498,38.585,29.609,41,25,41c-4.61,0-8.499-2.415-11.246-6.984
	c-2.02-3.359-2.706-6.678-2.734-6.817c-0.078-0.385,0.077-0.779,0.396-1.009c0.318-0.229,0.742-0.251,1.083-0.057
	C12.548,26.162,17.589,29,25,29s12.451-2.838,12.502-2.867c0.34-0.193,0.766-0.173,1.083,0.057
	C38.903,26.419,39.058,26.813,38.98,27.198z M36.43,28.836C34.151,29.757,30.128,31,25,31c-5.128,0-9.151-1.243-11.429-2.164
	C14.769,32.307,17.988,39,25,39S35.231,32.307,36.43,28.836z"/>
</svg>
