<?xml version="1.0" encoding="utf-8"?>
<!-- Generator: Adobe Illustrator 17.1.0, SVG Export Plug-In . SVG Version: 6.00 Build 0)  -->
<!DOCTYPE svg PUBLIC "-//W3C//DTD SVG 1.0//EN" "http://www.w3.org/TR/2001/REC-SVG-20010904/DTD/svg10.dtd">
<svg version="1.0" id="Layer_1" xmlns="http://www.w3.org/2000/svg" xmlns:xlink="http://www.w3.org/1999/xlink" x="0px" y="0px"
	 viewBox="0 0 50 50" style="enable-background:new 0 0 50 50;" xml:space="preserve">
<path d="M24,9v4c0,0.552-0.448,1-1,1h-8v27c0,0.553-0.448,1-1,1h-4c-0.552,0-1-0.447-1-1V14H1c-0.552,0-1-0.448-1-1V9
	c0-0.552,0.448-1,1-1h22C23.552,8,24,8.448,24,9z M49,18H29c-0.553,0-1,0.448-1,1v4c0,0.552,0.447,1,1,1h7v17c0,0.553,0.447,1,1,1h4
	h0c0.553,0,1-0.447,1-1V24h7c0.553,0,1-0.448,1-1v-4C50,18.448,49.553,18,49,18z"/>
</svg>
