<?xml version="1.0" encoding="utf-8"?>
<!-- Generator: Adobe Illustrator 17.0.2, SVG Export Plug-In . SVG Version: 6.00 Build 0)  -->
<!DOCTYPE svg PUBLIC "-//W3C//DTD SVG 1.0//EN" "http://www.w3.org/TR/2001/REC-SVG-20010904/DTD/svg10.dtd">
<svg version="1.0" id="Layer_1" xmlns="http://www.w3.org/2000/svg" xmlns:xlink="http://www.w3.org/1999/xlink" x="0px" y="0px"
	 width="50px" height="50px" viewBox="0 0 50 50" style="enable-background:new 0 0 50 50;" xml:space="preserve">
<g>
	<path d="M49.511,6.14c-0.304-0.18-0.68-0.186-0.989-0.018l-10.665,5.817C37.95,11.283,38,10.635,38,10c0-5.514-4.486-10-10-10
		c-5.389,0-9.795,4.284-9.993,9.625l-4.986,2.267L1.447,6.105c-0.31-0.154-0.679-0.138-0.973,0.044S0,6.653,0,7v36
		c0,0.379,0.214,0.725,0.553,0.895l12,6c0.281,0.141,0.613,0.141,0.895,0l11.57-5.785l12.563,5.799C37.714,49.97,37.857,50,38,50
		c0.165,0,0.33-0.041,0.479-0.122l11-6C49.8,43.703,50,43.366,50,43V7C50,6.647,49.814,6.32,49.511,6.14z M28,2c4.411,0,8,3.589,8,8
		c0,0.849-0.105,1.732-0.293,2.633c-0.001,0.003-0.002,0.006-0.002,0.009c-1.217,5.816-5.864,12.332-7.712,14.749
		c-2.106-2.717-7.819-10.66-7.989-17.099c0-0.03,0-0.06-0.002-0.09C20.001,10.135,20,10.067,20,10C20,5.589,23.589,2,28,2z
		 M48,42.406l-10.037,5.475l-12.544-5.789c-0.276-0.127-0.595-0.122-0.866,0.014L13,47.882l-11-5.5V8.618l10.553,5.276
		c0.27,0.135,0.586,0.141,0.861,0.016l4.702-2.138c1.043,8.235,8.769,17.458,9.12,17.874C27.427,29.87,27.706,30,28,30
		c0.001,0,0.003,0,0.005,0c0.295-0.001,0.575-0.134,0.765-0.361c0.319-0.385,6.745-8.192,8.683-15.697l0.429,0.052
		c0.211,0.023,0.416-0.016,0.598-0.115L48,8.685V42.406z"/>
	<path d="M28,16c2.757,0,5-2.243,5-5s-2.243-5-5-5s-5,2.243-5,5S25.243,16,28,16z M28,8c1.654,0,3,1.346,3,3s-1.346,3-3,3
		s-3-1.346-3-3S26.346,8,28,8z"/>
</g>
</svg>
