<?xml version="1.0" encoding="utf-8"?>
<!-- Generator: Adobe Illustrator 17.1.0, SVG Export Plug-In . SVG Version: 6.00 Build 0)  -->
<!DOCTYPE svg PUBLIC "-//W3C//DTD SVG 1.0//EN" "http://www.w3.org/TR/2001/REC-SVG-20010904/DTD/svg10.dtd">
<svg version="1.0" id="Layer_1" xmlns="http://www.w3.org/2000/svg" xmlns:xlink="http://www.w3.org/1999/xlink" x="0px" y="0px"
	 viewBox="0 0 50 50" style="enable-background:new 0 0 50 50;" xml:space="preserve">
<path d="M25,46H6V2h18v14h14v9c0,0.553,0.447,1,1,1s1-0.447,1-1V14.586L25.414,0H4v48h21c0.553,0,1-0.447,1-1S25.553,46,25,46z
	 M26,3.414L36.586,14H26V3.414z M50,33.5L39.7,33L36,23.4h0L32.3,33L22,33.5l8,6.5l-2.7,10l8.7-5.6l8.7,5.6L42,40L50,33.5z M37,42.7
	L36,42l-1.1,0.7l-4.3,2.8l1.3-4.9l0.3-1.3l-1-0.8l-4-3.2l5.1-0.3l1.3-0.1l0.5-1.2l1.9-4.8l1.8,4.8l0.5,1.2l1.3,0.1l5.1,0.3l-4,3.2
	l-1,0.8l0.3,1.3l1.3,4.9L37,42.7z"/>
</svg>
