<?xml version="1.0" encoding="utf-8"?>
<!-- Generator: Adobe Illustrator 17.1.0, SVG Export Plug-In . SVG Version: 6.00 Build 0)  -->
<!DOCTYPE svg PUBLIC "-//W3C//DTD SVG 1.0//EN" "http://www.w3.org/TR/2001/REC-SVG-20010904/DTD/svg10.dtd">
<svg version="1.0" id="Layer_1" xmlns="http://www.w3.org/2000/svg" xmlns:xlink="http://www.w3.org/1999/xlink" x="0px" y="0px"
	 viewBox="0 0 50 50" style="enable-background:new 0 0 50 50;" xml:space="preserve">
<path d="M48.807,22.093l-20.899-20.9c-1.528-1.528-4.215-1.569-5.916,0.001L1.193,22.093C0.424,22.862,0,23.899,0,25.013
	c0,1.099,0.414,2.151,1.193,2.994l20.8,20.8C22.762,49.576,23.799,50,24.913,50c1.099,0,2.152-0.414,2.995-1.193l20.8-20.8
	c0.825-0.825,1.28-1.905,1.28-3.042C49.988,23.875,49.568,22.855,48.807,22.093z M47.293,26.593L26.522,47.365
	c-0.876,0.808-2.321,0.82-3.114,0.027L2.635,26.621C2.226,26.178,2,25.606,2,25.013c0-0.58,0.216-1.114,0.609-1.507l20.77-20.871
	c0.875-0.809,2.321-0.821,3.115-0.028l20.899,20.9c0.384,0.384,0.596,0.902,0.595,1.458C47.987,25.566,47.741,26.145,47.293,26.593z
	 M27,25c0,1.105-0.895,2-2,2c-1.105,0-2-0.895-2-2c0-1.105,0.895-2,2-2C26.105,23,27,23.895,27,25z M34,25c0,1.105-0.895,2-2,2
	s-2-0.895-2-2c0-1.105,0.895-2,2-2C33.105,23,34,23.895,34,25z M20,25c0,1.105-0.895,2-2,2c-1.105,0-2-0.895-2-2
	c0-1.105,0.895-2,2-2C19.105,23,20,23.895,20,25z"/>
</svg>
