<?xml version="1.0" encoding="utf-8"?>
<!-- Generator: Adobe Illustrator 17.1.0, SVG Export Plug-In . SVG Version: 6.00 Build 0)  -->
<!DOCTYPE svg PUBLIC "-//W3C//DTD SVG 1.0//EN" "http://www.w3.org/TR/2001/REC-SVG-20010904/DTD/svg10.dtd">
<svg version="1.0" id="Layer_1" xmlns="http://www.w3.org/2000/svg" xmlns:xlink="http://www.w3.org/1999/xlink" x="0px" y="0px"
	 viewBox="0 0 50 50" style="enable-background:new 0 0 50 50;" xml:space="preserve">
<path d="M5,36c0,0.553-0.448,1-1,1H0V7h44v4c0,0.552-0.447,1-1,1s-1-0.448-1-1V9H2v26h2C4.552,35,5,35.447,5,36z M50,13v30H6V13H50z
	 M8,15v1.745c2.157,1.769,15.93,13.063,17.146,14.091C26.239,31.762,27.403,31.9,28,31.9s1.761-0.139,2.854-1.063
	C32.069,29.808,45.841,18.515,48,16.745V15H8z M36.896,28.446L48,36.775V19.331C45.546,21.343,40.628,25.378,36.896,28.446z
	 M8,19.331v17.444l11.105-8.329C15.372,25.378,10.454,21.343,8,19.331z M48,41v-1.726l-12.695-9.521
	c-1.64,1.349-2.844,2.343-3.159,2.609C30.566,33.7,28.87,33.9,28,33.9s-2.566-0.2-4.146-1.538c-0.315-0.266-1.52-1.26-3.159-2.608
	L8,39.275V41H48z"/>
</svg>
