<?xml version="1.0" encoding="utf-8"?>
<!-- Generator: Adobe Illustrator 17.0.2, SVG Export Plug-In . SVG Version: 6.00 Build 0)  -->
<!DOCTYPE svg PUBLIC "-//W3C//DTD SVG 1.0//EN" "http://www.w3.org/TR/2001/REC-SVG-20010904/DTD/svg10.dtd">
<svg version="1.0" id="Layer_1" xmlns="http://www.w3.org/2000/svg" xmlns:xlink="http://www.w3.org/1999/xlink" x="0px" y="0px"
	 width="50px" height="50px" viewBox="0 0 50 50" style="enable-background:new 0 0 50 50;" xml:space="preserve">
<path d="M44,23c-2.533,0-4.705,1.578-5.584,3.803l-3.473-0.731C34.98,25.72,35,25.361,35,25c0-3.945-2.296-7.363-5.622-8.99
	l1.515-4.113C31.252,11.965,31.622,12,32,12c3.309,0,6-2.691,6-6s-2.691-6-6-6s-6,2.691-6,6c0,2.223,1.216,4.168,3.017,5.205
	l-1.515,4.112C26.702,15.11,25.863,15,25,15c-2.397,0-4.601,0.848-6.326,2.26l-7.785-7.786C11.588,8.494,12,7.294,12,6
	c0-3.309-2.691-6-6-6S0,2.691,0,6s2.691,6,6,6c1.294,0,2.494-0.412,3.475-1.111l7.786,7.785C15.848,20.399,15,22.603,15,25
	c0,1.979,0.578,3.825,1.573,5.379l-6.552,5.172C8.957,34.587,7.546,34,6,34c-3.309,0-6,2.691-6,6s2.691,6,6,6s6-2.691,6-6
	c0-1.043-0.268-2.025-0.738-2.881l6.552-5.172C19.633,33.829,22.183,35,25,35c1.325,0,2.591-0.259,3.75-0.729l2.611,4.962
	C29.927,40.329,29,42.059,29,44c0,3.309,2.691,6,6,6s6-2.691,6-6s-2.691-6-6-6c-0.652,0-1.281,0.104-1.87,0.298l-2.612-4.962
	c1.881-1.248,3.315-3.114,4.014-5.308l3.474,0.732C38.002,28.84,38,28.92,38,29c0,3.309,2.691,6,6,6s6-2.691,6-6S47.309,23,44,23z
	 M6,10c-2.206,0-4-1.794-4-4s1.794-4,4-4s4,1.794,4,4S8.206,10,6,10z M6,44c-2.206,0-4-1.794-4-4s1.794-4,4-4s4,1.794,4,4
	S8.206,44,6,44z M35,40c2.206,0,4,1.794,4,4s-1.794,4-4,4s-4-1.794-4-4S32.794,40,35,40z M28,6c0-2.206,1.794-4,4-4s4,1.794,4,4
	s-1.794,4-4,4S28,8.206,28,6z M25,33c-4.411,0-8-3.589-8-8s3.589-8,8-8s8,3.589,8,8S29.411,33,25,33z M44,33c-2.206,0-4-1.794-4-4
	s1.794-4,4-4s4,1.794,4,4S46.206,33,44,33z"/>
</svg>
