<?xml version="1.0" encoding="utf-8"?>
<!-- Generator: Adobe Illustrator 17.0.2, SVG Export Plug-In . SVG Version: 6.00 Build 0)  -->
<!DOCTYPE svg PUBLIC "-//W3C//DTD SVG 1.0//EN" "http://www.w3.org/TR/2001/REC-SVG-20010904/DTD/svg10.dtd">
<svg version="1.0" id="Layer_1" xmlns="http://www.w3.org/2000/svg" xmlns:xlink="http://www.w3.org/1999/xlink" x="0px" y="0px"
	 width="50px" height="50px" viewBox="0 0 50 50" style="enable-background:new 0 0 50 50;" xml:space="preserve">
<path d="M25.001,0c-9.925,0-18,8.075-18,18v6.99c0,0.003-0.002,0.006-0.002,0.01s0.002,0.006,0.002,0.01V32c0,9.925,8.075,18,18,18
	c9.925,0,18-8.075,18-18V18C43.001,8.075,34.926,0,25.001,0z M41.001,18v6H25.995V2.05C34.354,2.568,41.001,9.513,41.001,18z
	 M24.002,2.051V24H9.001v-6C9.001,9.515,15.646,2.57,24.002,2.051z M25.001,48c-8.822,0-16-7.178-16-16v-6h32v6
	C41.001,40.822,33.823,48,25.001,48z"/>
</svg>
