<?xml version="1.0" encoding="utf-8"?>
<!-- Generator: Adobe Illustrator 17.0.2, SVG Export Plug-In . SVG Version: 6.00 Build 0)  -->
<!DOCTYPE svg PUBLIC "-//W3C//DTD SVG 1.0//EN" "http://www.w3.org/TR/2001/REC-SVG-20010904/DTD/svg10.dtd">
<svg version="1.0" id="Layer_1" xmlns="http://www.w3.org/2000/svg" xmlns:xlink="http://www.w3.org/1999/xlink" x="0px" y="0px"
	 width="50px" height="50px" viewBox="0 0 50 50" style="enable-background:new 0 0 50 50;" xml:space="preserve">
<g>
	<path d="M6,8c0-1.103,0.897-2,2-2h34c1.103,0,2,0.897,2,2v15h2V8c0-2.206-1.794-4-4-4H8C5.794,4,4,5.794,4,8v9h2V8z"/>
	<path d="M42,23V9c0-0.552-0.447-1-1-1H9C8.448,8,8,8.448,8,9v8h2v-7h30v13H42z"/>
	<path d="M48,24H37c-1.103,0-2,0.897-2,2v18c0,1.103,0.897,2,2,2h11c1.103,0,2-0.897,2-2V26C50,24.897,49.103,24,48,24z M47.999,44
		H37V26h11L47.999,44z M48,45v-1h0.001L48,45z"/>
	<path d="M46,27h-7c-0.553,0-1,0.447-1,1v12c0,0.553,0.447,1,1,1h7c0.553,0,1-0.447,1-1V28C47,27.447,46.553,27,46,27z M45,39h-5V29
		h5V39z"/>
	<circle cx="42.5" cy="42.5" r="1"/>
	<path d="M19,21H4c-0.552,0-1,0.448-1,1v18c0,0.553,0.448,1,1,1h15c0.552,0,1-0.447,1-1V22C20,21.448,19.552,21,19,21z M18,39H5V23
		h13V39z"/>
	<path d="M21,18H2c-1.103,0-2,0.897-2,2v24c0,1.103,0.897,2,2,2h19c1.103,0,2-0.897,2-2V20C23,18.897,22.103,18,21,18z M20.999,44H2
		V20h19L20.999,44z M21,45v-1c0,0,0,0,0.001,0L21,45z"/>
	<circle cx="11.5" cy="42.5" r="1"/>
	<rect x="24" y="32" width="10" height="2"/>
	<rect x="24" y="41" width="10" height="2"/>
	<polygon points="29,35 29,37 29,40 34,40 34,38 31,38 31,37 34,37 34,35 31,35 	"/>
</g>
</svg>
