<?xml version="1.0" encoding="utf-8"?>
<!-- Generator: Adobe Illustrator 17.0.2, SVG Export Plug-In . SVG Version: 6.00 Build 0)  -->
<!DOCTYPE svg PUBLIC "-//W3C//DTD SVG 1.0//EN" "http://www.w3.org/TR/2001/REC-SVG-20010904/DTD/svg10.dtd">
<svg version="1.0" id="Layer_1" xmlns="http://www.w3.org/2000/svg" xmlns:xlink="http://www.w3.org/1999/xlink" x="0px" y="0px"
	 width="50.04px" height="50px" viewBox="0 0 50.04 50" style="enable-background:new 0 0 50.04 50;" xml:space="preserve">
<g>
	<path d="M38.454,25l4.293-4.293c0.391-0.391,0.391-1.023,0-1.414s-1.023-0.391-1.414,0l-4.293,4.293l-4.293-4.293
		c-0.391-0.391-1.023-0.391-1.414,0s-0.391,1.023,0,1.414L35.626,25l-4.293,4.293c-0.391,0.391-0.391,1.023,0,1.414
		s1.023,0.391,1.414,0l4.293-4.293l4.293,4.293C41.528,30.902,41.784,31,42.04,31s0.512-0.098,0.707-0.293
		c0.391-0.391,0.391-1.023,0-1.414L38.454,25z"/>
	<path d="M24.222,3.011c-0.911,0-1.838,0.433-2.607,1.213L9.848,15.96H3.04C1.364,15.96,0,17.324,0,19v12
		c0,1.676,1.364,3.04,3.04,3.04h6.817L21.55,45.695c1.055,1.071,2.023,1.296,2.65,1.296c1.667,0,2.831-1.512,2.831-3.676V6.327
		C27.03,4.049,25.574,3.011,24.222,3.011z M2.08,31V19c0-0.529,0.431-0.96,0.96-0.96h5.215c-0.134,0.414-0.205,0.844-0.205,1.207
		v11.507c0,0.364,0.071,0.796,0.203,1.206H3.04C2.511,31.96,2.08,31.529,2.08,31z M25.05,43.315c0,0.999-0.35,1.696-0.85,1.696
		c-0.346,0-0.798-0.257-1.246-0.712L10.297,31.687c-0.091-0.094-0.267-0.508-0.267-0.933V19.247c0-0.43,0.177-0.851,0.313-0.988
		L23.02,5.621c0.394-0.4,0.832-0.629,1.203-0.629c0.768,0,0.828,1.022,0.828,1.336V43.315z"/>
</g>
</svg>
