<?xml version="1.0" encoding="utf-8"?>
<!-- Generator: Adobe Illustrator 17.0.2, SVG Export Plug-In . SVG Version: 6.00 Build 0)  -->
<!DOCTYPE svg PUBLIC "-//W3C//DTD SVG 1.0//EN" "http://www.w3.org/TR/2001/REC-SVG-20010904/DTD/svg10.dtd">
<svg version="1.0" id="Layer_1" xmlns="http://www.w3.org/2000/svg" xmlns:xlink="http://www.w3.org/1999/xlink" x="0px" y="0px"
	 width="50px" height="50px" viewBox="0 0 50 50" style="enable-background:new 0 0 50 50;" xml:space="preserve">
<g>
	<polygon points="24,26 24,40 36,14 10,26 	"/>
	<path d="M25,2C12.318,2,2,12.318,2,25c0,12.683,10.318,23,23,23c12.683,0,23-10.317,23-23C48,12.318,37.683,2,25,2z M25,46
		C13.42,46,4,36.579,4,25C4,13.42,13.42,4,25,4c11.579,0,21,9.42,21,21C46,36.579,36.579,46,25,46z"/>
</g>
</svg>
