<?xml version="1.0" encoding="utf-8"?>
<!-- Generator: Adobe Illustrator 17.1.0, SVG Export Plug-In . SVG Version: 6.00 Build 0)  -->
<!DOCTYPE svg PUBLIC "-//W3C//DTD SVG 1.0//EN" "http://www.w3.org/TR/2001/REC-SVG-20010904/DTD/svg10.dtd">
<svg version="1.0" id="Layer_1" xmlns="http://www.w3.org/2000/svg" xmlns:xlink="http://www.w3.org/1999/xlink" x="0px" y="0px"
	 viewBox="0 0 50 50" style="enable-background:new 0 0 50 50;" xml:space="preserve">
<path d="M11,41h39v2H11V41z M11,26h39v-2H11V26z M11,7v2h39V7H11z M3.5,4.3v7.1h1.6V2.9H3.8l-2.1,1l0.2,1.2L3.5,4.3z M4,26.3
	c1.4-1.3,2.5-2.5,2.5-4c0-1.4-0.9-2.6-2.8-2.6c-1.1,0-2,0.4-2.6,0.9l0.5,1.1C2,21.4,2.6,21,3.4,21c1.1,0,1.5,0.6,1.5,1.4
	c0,1.1-0.9,2.2-2.9,4l-1,0.9v1h5.8V27H3.3L4,26.3z M1.3,43.7L1.3,43.7L1.3,43.7L1.3,43.7z M4.6,40.7c1.1-0.4,1.6-1.1,1.6-2
	c0-1.1-0.8-2.1-2.6-2.1c-1,0-1.9,0.3-2.4,0.6l0.4,1.2c0.3-0.2,1-0.5,1.7-0.5c1,0,1.4,0.5,1.4,1.1c0,0.9-1,1.2-1.7,1.2H2.3v1.2H3
	c1,0,1.9,0.4,1.9,1.4c0,0.7-0.5,1.4-1.7,1.4c-0.8,0-1.6-0.3-1.9-0.5l-0.5,1.1c0.5,0.3,1.4,0.6,2.4,0.6c2.1,0,3.3-1.2,3.3-2.6
	C6.4,41.7,5.6,40.9,4.6,40.7z"/>
</svg>
