<?xml version="1.0" encoding="utf-8"?>
<!-- Generator: Adobe Illustrator 17.0.2, SVG Export Plug-In . SVG Version: 6.00 Build 0)  -->
<!DOCTYPE svg PUBLIC "-//W3C//DTD SVG 1.0//EN" "http://www.w3.org/TR/2001/REC-SVG-20010904/DTD/svg10.dtd">
<svg version="1.0" id="Layer_1" xmlns="http://www.w3.org/2000/svg" xmlns:xlink="http://www.w3.org/1999/xlink" x="0px" y="0px"
	 width="50px" height="50px" viewBox="0 0 50 50" style="enable-background:new 0 0 50 50;" xml:space="preserve">
<g>
	<path d="M17.012,14.688c-0.37-0.408-1.002-0.439-1.413-0.068C12.677,17.274,11,21.058,11,25c0,3.952,1.673,7.733,4.589,10.376
		c0.191,0.173,0.432,0.259,0.671,0.259c0.272,0,0.544-0.11,0.742-0.329c0.371-0.409,0.339-1.041-0.07-1.412
		C14.433,31.63,13,28.389,13,25c0-3.379,1.438-6.623,3.944-8.899C17.353,15.73,17.384,15.098,17.012,14.688z"/>
	<path d="M8.687,7.367C8.296,6.979,7.663,6.98,7.273,7.371C2.583,12.085,0,18.346,0,25c0,6.667,2.579,12.931,7.262,17.638
		c0.195,0.196,0.452,0.295,0.709,0.295c0.255,0,0.51-0.097,0.705-0.291c0.392-0.39,0.394-1.022,0.004-1.414
		C4.373,36.897,2,31.135,2,25c0-6.122,2.376-11.882,6.691-16.219C9.081,8.39,9.079,7.757,8.687,7.367z"/>
	<path d="M32.998,14.694c-0.371,0.41-0.34,1.042,0.07,1.413C35.566,18.37,37,21.611,37,25c0,3.38-1.438,6.623-3.945,8.898
		c-0.409,0.371-0.439,1.003-0.068,1.412c0.197,0.218,0.468,0.328,0.74,0.328c0.24,0,0.48-0.086,0.672-0.26
		C37.323,32.726,39,28.942,39,25c0-3.953-1.673-7.734-4.59-10.376C34.001,14.253,33.368,14.284,32.998,14.694z"/>
	<path d="M25,20c-2.757,0-5,2.243-5,5s2.243,5,5,5s5-2.243,5-5S27.757,20,25,20z M25,28c-1.654,0-3-1.346-3-3s1.346-3,3-3
		s3,1.346,3,3S26.654,28,25,28z"/>
	<path d="M42.738,7.362c-0.39-0.393-1.022-0.394-1.414-0.004c-0.392,0.39-0.394,1.022-0.004,1.414C45.628,13.103,48,18.866,48,25
		c0,6.122-2.376,11.882-6.691,16.219c-0.39,0.392-0.388,1.024,0.004,1.414c0.195,0.194,0.45,0.291,0.705,0.291
		c0.257,0,0.514-0.099,0.709-0.295C47.417,37.915,50,31.654,50,25C50,18.334,47.421,12.07,42.738,7.362z"/>
</g>
</svg>
