<?xml version="1.0" encoding="utf-8"?>
<!-- Generator: Adobe Illustrator 17.0.2, SVG Export Plug-In . SVG Version: 6.00 Build 0)  -->
<!DOCTYPE svg PUBLIC "-//W3C//DTD SVG 1.0//EN" "http://www.w3.org/TR/2001/REC-SVG-20010904/DTD/svg10.dtd">
<svg version="1.0" id="Layer_1" xmlns="http://www.w3.org/2000/svg" xmlns:xlink="http://www.w3.org/1999/xlink" x="0px" y="0px"
	 width="50px" height="43px" viewBox="0 0 50 43" style="enable-background:new 0 0 50 43;" xml:space="preserve">
<g>
	<path d="M3.19,12.136C3.698,9.546,5.665,8,8.453,8H47V7c0-1.654-1.346-3-3-3L18.044,4.006c-0.279-0.101-0.854-1.02-1.164-1.514
		C16.111,1.267,15.317,0,14,0H3C1.346,0,0,1.346,0,3v26.104C1.464,21.309,3.107,12.563,3.19,12.136L3.19,12.136z"/>
	<path d="M47,10H8.453c-1.28,0-2.892,0.438-3.3,2.521C5.026,13.168,1.132,33.913,0,39.94V40c0,1.654,1.346,3,3,3h39
		c1.62,0,2.945-1.291,2.998-2.899l4.985-26.919L50,13C50,11.346,48.654,10,47,10z"/>
</g>
</svg>
