<?xml version="1.0" encoding="utf-8"?>
<!-- Generator: Adobe Illustrator 17.1.0, SVG Export Plug-In . SVG Version: 6.00 Build 0)  -->
<!DOCTYPE svg PUBLIC "-//W3C//DTD SVG 1.0//EN" "http://www.w3.org/TR/2001/REC-SVG-20010904/DTD/svg10.dtd">
<svg version="1.0" id="Layer_1" xmlns="http://www.w3.org/2000/svg" xmlns:xlink="http://www.w3.org/1999/xlink" x="0px" y="0px"
	 viewBox="0 0 50 50" style="enable-background:new 0 0 50 50;" xml:space="preserve">
<path d="M37.707,14.293c-0.286-0.286-0.715-0.371-1.09-0.217C36.243,14.231,36,14.596,36,15v20c0,0.404,0.243,0.77,0.617,0.924
	C36.741,35.976,36.871,36,37,36c0.26,0,0.516-0.102,0.707-0.293l10-10c0.391-0.391,0.391-1.023,0-1.414L37.707,14.293z M38,32.586
	V17.414L45.586,25L38,32.586z M31,16H2v-2h29V16z M31,36H2v-2h29V36z M31,26H2v-2h29V26z M2,44h46v2H2V44z M48,4v2H2V4H48z"/>
</svg>
