<?xml version="1.0" encoding="utf-8"?>
<!-- Generator: Adobe Illustrator 17.1.0, SVG Export Plug-In . SVG Version: 6.00 Build 0)  -->
<!DOCTYPE svg PUBLIC "-//W3C//DTD SVG 1.0//EN" "http://www.w3.org/TR/2001/REC-SVG-20010904/DTD/svg10.dtd">
<svg version="1.0" id="Layer_1" xmlns="http://www.w3.org/2000/svg" xmlns:xlink="http://www.w3.org/1999/xlink" x="0px" y="0px"
	 viewBox="0 0 50 50" style="enable-background:new 0 0 50 50;" xml:space="preserve">
<path d="M33,22.586L34.414,24L23,35.414L16.586,29L18,27.586l5,5L33,22.586z M50,17v4c0,1.159-0.841,2-2,2h-0.165l-5.58,17.897
	C41.957,42.093,40.751,43,39.4,43h-29c-1.257,0-2.37-0.805-2.836-2.05L2.157,23H2c-1.159,0-2-0.841-2-2v-4c0-1.159,0.841-2,2-2
	h9.583L24.19,2.295C24.378,2.106,24.623,1.961,24.9,2c0.264,0,0.517,0.104,0.705,0.29L38.412,15H48C49.159,15,50,15.841,50,17z
	 M14.401,15h21.171L24.905,4.414L14.401,15z M48,17h-9.999C38,17,38,17,38,17h-0.001H12.001C12,17,12,17,11.999,17H2v4h0.9
	c0.441,0,0.831,0.289,0.958,0.712l5.6,18.6C9.502,40.425,9.767,41,10.4,41h29c0.431,0,0.839-0.282,0.93-0.643l5.814-18.655
	C46.275,21.285,46.662,21,47.1,21H48V17z"/>
</svg>
