<?xml version="1.0" encoding="utf-8"?>
<!-- Generator: Adobe Illustrator 17.1.0, SVG Export Plug-In . SVG Version: 6.00 Build 0)  -->
<!DOCTYPE svg PUBLIC "-//W3C//DTD SVG 1.0//EN" "http://www.w3.org/TR/2001/REC-SVG-20010904/DTD/svg10.dtd">
<svg version="1.0" id="Layer_1" xmlns="http://www.w3.org/2000/svg" xmlns:xlink="http://www.w3.org/1999/xlink" x="0px" y="0px"
	 viewBox="0 0 50 50" style="enable-background:new 0 0 50 50;" xml:space="preserve">
<path d="M25,0C15.075,0,7,7.626,7,17v24c0,5.047,7.907,9,18,9c10.094,0,18-3.953,18-9V17C43,7.626,34.925,0,25,0z M25,2
	c7.467,0,13.755,4.82,15.512,11.315C37.169,11.143,30.956,10,25,10c-5.957,0-12.168,1.143-15.512,3.315C11.245,6.82,17.534,2,25,2z
	 M41,41c0,3.381-6.43,7-16,7c-9.571,0-16-3.619-16-7V20.345c0.24,0.18,0.499,0.353,0.774,0.52c0.001,0.001,0.002,0.003,0.003,0.005
	c0.582,0.84,0.82,2.117,1.05,3.352C11.225,26.351,11.719,29,14.5,29c2.006,0,2.915-0.901,3.516-1.497
	C18.427,27.096,18.548,27,18.8,27c0.985,0,1.05,2.833,1.103,5.109C19.994,36.07,20.106,41,24.4,41c1.049,0,1.893-0.332,2.507-0.987
	c1.357-1.449,1.189-4.026,1.012-6.755c-0.146-2.238-0.312-4.775,0.604-5.754c0.318-0.339,0.801-0.504,1.495-0.516
	c0.17,0.157,0.303,0.996,0.382,1.496C30.668,30.174,31.114,33,34.5,33c3.285,0,3.579-3.263,3.838-6.141
	c0.201-2.234,0.409-4.545,1.726-5.711c0.109-0.097,0.192-0.212,0.249-0.337c0.243-0.15,0.473-0.306,0.688-0.466V41z M25.923,33.389
	c0.136,2.081,0.29,4.44-0.476,5.257C25.305,38.798,25.041,39,24.4,39c-2.176,0-2.402-2.746-2.498-6.937
	C21.822,28.591,21.74,25,18.8,25c-1.101,0-1.706,0.601-2.192,1.083C16.091,26.596,15.683,27,14.5,27
	c-0.965,0-1.259-0.747-1.706-3.146c-0.106-0.567-0.217-1.166-0.37-1.757C15.867,23.349,20.506,24,25,24
	c4.285,0,8.703-0.592,12.089-1.732c-0.471,1.39-0.612,2.958-0.743,4.412C36.055,29.921,35.747,31,34.5,31
	c-1.525,0-1.807-0.818-2.124-2.828C32.176,26.909,31.874,25,30,25c-1.241,0-2.229,0.383-2.936,1.137
	C25.556,27.747,25.742,30.615,25.923,33.389z M25,22c-9.913,0-16-2.912-16-5s6.087-5,16-5s16,2.912,16,5S34.913,22,25,22z"/>
</svg>
