<?xml version="1.0" encoding="utf-8"?>
<!-- Generator: Adobe Illustrator 17.0.2, SVG Export Plug-In . SVG Version: 6.00 Build 0)  -->
<!DOCTYPE svg PUBLIC "-//W3C//DTD SVG 1.0//EN" "http://www.w3.org/TR/2001/REC-SVG-20010904/DTD/svg10.dtd">
<svg version="1.0" id="Layer_1" xmlns="http://www.w3.org/2000/svg" xmlns:xlink="http://www.w3.org/1999/xlink" x="0px" y="0px"
	 width="50.062px" height="50.062px" viewBox="0 0 50.062 50.062" style="enable-background:new 0 0 50.062 50.062;"
	 xml:space="preserve">
<path d="M9,43.063c0,1.105-0.895,2-2,2c-1.105,0-2-0.895-2-2c0-1.105,0.895-2,2-2C8.105,41.063,9,41.958,9,43.063z M45.038,23.954
	c-0.045,0.045-0.101,0.096-0.167,0.152l-8.498,8.5l-0.001-0.001l-5.338,5.337c-0.305,0.306-0.768,0.38-1.151,0.188
	c-0.05-0.024-5.044-2.481-8.088-2.481c-0.689,0-1.183,0.13-1.43,0.376c-1.005,1.006-1.851,2.784-2.668,4.504
	c-0.89,1.872-1.81,3.809-3.059,5.059c-2.684,2.684-6.373,4.416-9.398,4.416c-1.57,0-2.882-0.481-3.792-1.393
	c-2.992-2.995-0.806-9.354,3.027-13.187c1.135-1.137,2.535-1.716,4.017-2.329c1.801-0.746,3.664-1.518,5.547-3.4
	c0.846-0.845-0.442-5.717-2.127-9.561c-0.165-0.377-0.083-0.817,0.209-1.108l5.336-5.335l-0.001-0.001L31.151,0l18.911,18.913
	l-4.994,4.995C45.056,23.923,45.052,23.941,45.038,23.954z M34.956,31.194L18.87,15.106l-4.857,4.856
	c1.142,2.727,3.487,9.103,1.439,11.147c-2.164,2.165-4.306,3.052-6.195,3.834c-1.349,0.559-2.514,1.04-3.368,1.896
	c-3.377,3.377-4.876,8.508-3.027,10.358c0.535,0.535,1.335,0.807,2.378,0.807c2.484,0,5.692-1.539,7.984-3.829
	c1.005-1.007,1.85-2.784,2.667-4.504c0.89-1.873,1.811-3.81,3.061-5.06c0.638-0.639,1.595-0.962,2.844-0.962
	c2.828,0,6.774,1.671,8.323,2.381L34.956,31.194z M31.151,2.828L25.89,8.087c-0.009,0.01-0.012,0.022-0.021,0.032
	C25.506,8.483,24.4,9.75,25.44,10.79c0.513,0.513,2.103,0.018,3.282-0.734c2.786-1.774,4.747-2.124,5.836-1.038
	c1.212,1.214,0.35,3.587-0.722,6.119l-0.075,0.176c-0.636,1.511-0.052,2.095,0.141,2.287c0.253,0.254,1.09,0.047,1.825-0.138
	c1.274-0.32,2.855-0.717,4.037,0.461c1.247,1.247,0.767,3.066,0.416,4.395c-0.119,0.453-0.297,1.123-0.267,1.38
	c0.806,0.655,3.041-0.587,3.629-1.093l3.692-3.693L31.151,2.828z M20.285,13.691l16.088,16.087l3.919-3.92
	c-0.863-0.06-1.462-0.409-1.843-0.791c-0.841-0.84-0.517-2.07-0.202-3.259c0.252-0.955,0.537-2.037,0.104-2.47
	c-0.353-0.35-1.072-0.203-2.136,0.064c-1.189,0.298-2.671,0.67-3.729-0.389c-0.644-0.645-1.574-2.084-0.567-4.477l0.076-0.179
	c1.17-2.764,1.255-3.681,1.119-3.963c-0.088-0.046-1.057-0.09-3.316,1.349c-1.756,1.119-4.32,1.91-5.772,0.462
	c-0.434-0.434-0.717-0.901-0.875-1.379L20.285,13.691z"/>
</svg>
