<?xml version="1.0" encoding="utf-8"?>
<!-- Generator: Adobe Illustrator 17.0.2, SVG Export Plug-In . SVG Version: 6.00 Build 0)  -->
<!DOCTYPE svg PUBLIC "-//W3C//DTD SVG 1.0//EN" "http://www.w3.org/TR/2001/REC-SVG-20010904/DTD/svg10.dtd">
<svg version="1.0" id="Layer_1" xmlns="http://www.w3.org/2000/svg" xmlns:xlink="http://www.w3.org/1999/xlink" x="0px" y="0px"
	 width="50px" height="50px" viewBox="0 0 50 50" style="enable-background:new 0 0 50 50;" xml:space="preserve">
<path d="M26.5,16c2.481,0,4.5-2.467,4.5-5.5S28.981,5,26.5,5S22,7.467,22,10.5S24.019,16,26.5,16z M26.5,7
	c1.355,0,2.5,1.603,2.5,3.5S27.855,14,26.5,14S24,12.397,24,10.5S25.145,7,26.5,7z M26.3,0C15.551,0,3,6.207,3,23.7
	C3,36.401,12.805,50,27.5,50h0.1c0.006,0,0.012,0,0.019,0C33.1,49.9,39,46.354,39,38.8c0-1.445-0.537-2.697-1.011-3.802
	c-0.125-0.291-0.248-0.576-0.359-0.867c-1.081-2.718,0.111-3.714,2.911-5.706c3.172-2.258,7.517-5.35,7.459-13.525
	C48,10.039,42.695,0,26.3,0z M39.382,26.795c-2.614,1.86-5.316,3.784-3.615,8.064c0.117,0.304,0.249,0.612,0.385,0.928
	C36.568,36.76,37,37.766,37,38.8c0,6.237-4.73,9.115-9.419,9.2l0.019,1L27.4,48C14.001,48,5,35.436,5,23.7C5,7.683,16.474,2,26.3,2
	C41.039,2,46,10.859,46,14.907C46.051,22.049,42.508,24.57,39.382,26.795z M37.5,10c-2.481,0-4.5,2.467-4.5,5.5s2.019,5.5,4.5,5.5
	s4.5-2.467,4.5-5.5S39.981,10,37.5,10z M37.5,19c-1.355,0-2.5-1.603-2.5-3.5s1.145-3.5,2.5-3.5s2.5,1.603,2.5,3.5S38.855,19,37.5,19
	z M27,33c-3.364,0-6,2.636-6,6s2.636,6,6,6s6-2.636,6-6S30.364,33,27,33z M27,43c-2.243,0-4-1.757-4-4s1.757-4,4-4s4,1.757,4,4
	S29.243,43,27,43z M14.5,23c-2.481,0-4.5,2.468-4.5,5.5s2.019,5.5,4.5,5.5s4.5-2.468,4.5-5.5S16.981,23,14.5,23z M14.5,32
	c-1.355,0-2.5-1.603-2.5-3.5s1.145-3.5,2.5-3.5s2.5,1.603,2.5,3.5S15.855,32,14.5,32z M15.5,10c-2.481,0-4.5,2.467-4.5,5.5
	s2.019,5.5,4.5,5.5s4.5-2.467,4.5-5.5S17.981,10,15.5,10z M15.5,19c-1.355,0-2.5-1.603-2.5-3.5s1.145-3.5,2.5-3.5s2.5,1.603,2.5,3.5
	S16.855,19,15.5,19z"/>
</svg>
