<?xml version="1.0" encoding="utf-8"?>
<!-- Generator: Adobe Illustrator 17.1.0, SVG Export Plug-In . SVG Version: 6.00 Build 0)  -->
<!DOCTYPE svg PUBLIC "-//W3C//DTD SVG 1.0//EN" "http://www.w3.org/TR/2001/REC-SVG-20010904/DTD/svg10.dtd">
<svg version="1.0" id="Layer_1" xmlns="http://www.w3.org/2000/svg" xmlns:xlink="http://www.w3.org/1999/xlink" x="0px" y="0px"
	 viewBox="0 0 50 50" style="enable-background:new 0 0 50 50;" xml:space="preserve">
<path d="M34.757,14.686L23.363,3.293c-0.391-0.391-1.023-0.391-1.414,0l-0.711,0.711C11.816,4.154,5.989,7.069,5.989,11.698
	c0,1.016,0.315,3.1,2.515,5.04l-4.313,4.313C2.778,22.464,2,24.344,2,26.343c0,1.998,0.778,3.878,2.192,5.292l11.175,11.174
	C16.78,44.222,18.659,45,20.658,45c2,0,3.88-0.779,5.293-2.193l15.352-15.353c0.719,0.469,2.421,2.295,2.421,9.063
	c0,3.567,1.114,5.872,2.839,5.872c0.785,0,1.875-0.505,2.609-2.908C49.722,37.683,50,35.147,50,31.945
	C50,18.503,36.988,15.16,34.757,14.686z M8.011,11.698c0-2.997,4.365-5.125,11.123-5.59l-9.218,9.218
	C8.722,14.349,8.011,13.151,8.011,11.698z M24.537,41.393C23.501,42.429,22.123,43,20.658,43c-1.465,0-2.841-0.57-3.876-1.605
	L5.606,30.221C4.57,29.185,4,27.807,4,26.343c0-1.465,0.57-2.842,1.606-3.878l4.539-4.539c2.67,1.594,7.03,2.883,14.126,3.063
	C24.616,21.59,25.257,22,26,22c1.105,0,2-0.895,2-2c0-1.105-0.895-2-2-2c-0.723,0-1.351,0.387-1.702,0.962
	c-4.642-0.146-9.475-0.903-12.659-2.53L22.075,5.996c0.309-0.024,0.569-0.186,0.738-0.426l18.774,18.773L24.537,41.393z
	 M46.569,40.34c-0.288-0.301-0.845-1.479-0.845-3.823c0-6.718-1.653-9.412-2.991-10.493l0.974-0.974
	c0.391-0.391,0.391-1.023,0-1.414L37.771,17.7c1.046,0.42,2.216,0.98,3.38,1.726C45.695,22.337,48,26.549,48,31.945
	C48,37.812,47.02,39.925,46.569,40.34z"/>
</svg>
