<?xml version="1.0" encoding="utf-8"?>
<!-- Generator: Adobe Illustrator 17.0.2, SVG Export Plug-In . SVG Version: 6.00 Build 0)  -->
<!DOCTYPE svg PUBLIC "-//W3C//DTD SVG 1.0//EN" "http://www.w3.org/TR/2001/REC-SVG-20010904/DTD/svg10.dtd">
<svg version="1.0" id="Layer_1" xmlns="http://www.w3.org/2000/svg" xmlns:xlink="http://www.w3.org/1999/xlink" x="0px" y="0px"
	 width="50px" height="50px" viewBox="0 0 50 50" style="enable-background:new 0 0 50 50;" xml:space="preserve">
<path d="M43.955,8.046C42.636,6.727,40.881,6,39.015,6c-1.866,0-3.62,0.727-4.938,2.046l-20.041,20.04
	c-0.001,0.001-0.002,0.002-0.003,0.003c-0.94,0.942-1.458,2.194-1.458,3.525c0,1.333,0.519,2.586,1.461,3.528
	c0.942,0.943,2.195,1.463,3.528,1.463s2.586-0.52,3.528-1.463l15.104-15.104c0.391-0.391,0.391-1.023,0-1.414s-1.023-0.391-1.414,0
	L19.676,33.729c-1.129,1.131-3.097,1.131-4.227,0c-0.564-0.564-0.875-1.315-0.875-2.114s0.311-1.55,0.875-2.114L35.49,9.46
	C36.432,8.519,37.684,8,39.015,8c1.332,0,2.585,0.519,3.526,1.46c1.942,1.944,1.942,5.106,0,7.049L17.914,41.135
	c-2.721,2.722-7.149,2.72-9.87,0c-2.722-2.722-2.722-7.149-0.001-9.871l19.689-19.688c0.391-0.391,0.391-1.023,0-1.414
	s-1.023-0.391-1.414,0L6.629,29.85c-3.501,3.501-3.5,9.198,0.001,12.699c1.751,1.75,4.05,2.625,6.35,2.625s4.599-0.875,6.349-2.625
	l24.627-24.626C46.678,15.2,46.678,10.77,43.955,8.046z"/>
</svg>
