<?xml version="1.0" encoding="utf-8"?>
<!-- Generator: Adobe Illustrator 17.1.0, SVG Export Plug-In . SVG Version: 6.00 Build 0)  -->
<!DOCTYPE svg PUBLIC "-//W3C//DTD SVG 1.0//EN" "http://www.w3.org/TR/2001/REC-SVG-20010904/DTD/svg10.dtd">
<svg version="1.0" id="Layer_1" xmlns="http://www.w3.org/2000/svg" xmlns:xlink="http://www.w3.org/1999/xlink" x="0px" y="0px"
	 viewBox="0 0 50 50" style="enable-background:new 0 0 50 50;" xml:space="preserve">
<path d="M40.967,9.036c-2.134-2.139-4.651-3.317-7.088-3.317c-2.061,0-3.923,0.816-5.535,2.425
	c-1.799,1.799-2.624,3.983-2.387,6.319c0.225,2.179,1.388,4.419,3.275,6.307c2.14,2.137,4.657,3.313,7.088,3.313
	c2.062,0,3.924-0.816,5.535-2.426c1.799-1.798,2.624-3.983,2.386-6.319C44.017,13.156,42.854,10.917,40.967,9.036z M40.441,20.242
	c-1.223,1.222-2.609,1.841-4.121,1.841c-1.897,0-3.912-0.969-5.674-2.728c-1.563-1.563-2.522-3.374-2.699-5.095
	c-0.175-1.716,0.451-3.342,1.81-4.701c1.224-1.221,2.61-1.84,4.122-1.84c1.901,0,3.916,0.969,5.674,2.731
	c1.562,1.559,2.521,3.367,2.698,5.091C42.427,17.258,41.801,18.883,40.441,20.242z M49.931,15.169
	c-0.356-3.507-2.171-7.055-5.107-9.988C41.486,1.84,37.471,0,33.516,0c-3.447,0-6.66,1.391-9.291,4.022
	c-2.992,2.987-4.361,6.656-3.959,10.611c0.238,2.309,1.105,4.635,2.506,6.791L9.553,34.644l-1.689-1.686
	c-0.558-0.56-1.166-0.843-1.807-0.843c0,0,0,0-0.001,0c-1.137,0-1.995,0.857-2.902,1.766L1.779,35.26
	C0.865,36.17,0.002,37.03,0,38.171c-0.001,0.642,0.282,1.25,0.84,1.809l1.688,1.688l-1.326,1.325C0.427,43.769,0,44.8,0,45.896
	c0,1.096,0.427,2.127,1.204,2.904c0.8,0.798,1.85,1.196,2.901,1.196c1.051,0,2.103-0.398,2.904-1.197l21.562-21.565
	c2.565,1.673,5.354,2.567,8.112,2.567c3.448,0,6.661-1.392,9.292-4.022C48.968,22.79,50.335,19.121,49.931,15.169z M2.255,38.565
	C2.096,38.406,2,38.259,2,38.173c0-0.311,0.688-0.996,1.19-1.496l1.379-1.382c0.498-0.498,1.179-1.18,1.487-1.18
	c0.085,0,0.232,0.095,0.393,0.257l1.689,1.687l-4.195,4.194L2.255,38.565z M5.596,47.385c-0.821,0.817-2.157,0.82-2.979,0.001
	C2.219,46.987,2,46.459,2,45.896s0.219-1.091,0.617-1.488l21.347-21.348c0.437,0.538,0.908,1.06,1.413,1.564
	c0.506,0.506,1.027,0.978,1.562,1.415L5.596,47.385z M44.562,24.364c-2.248,2.249-4.973,3.438-7.878,3.438
	c-3.422,0-6.935-1.63-9.892-4.591c-2.612-2.609-4.223-5.728-4.537-8.78c-0.339-3.335,0.831-6.444,3.384-8.993
	C27.887,3.188,30.61,2,33.516,2c3.42,0,6.934,1.631,9.893,4.595c2.613,2.609,4.223,5.726,4.532,8.777
	C48.282,18.706,47.114,21.815,44.562,24.364z"/>
</svg>
