<?xml version="1.0" encoding="utf-8"?>
<!-- Generator: Adobe Illustrator 17.1.0, SVG Export Plug-In . SVG Version: 6.00 Build 0)  -->
<!DOCTYPE svg PUBLIC "-//W3C//DTD SVG 1.0//EN" "http://www.w3.org/TR/2001/REC-SVG-20010904/DTD/svg10.dtd">
<svg version="1.0" id="Layer_1" xmlns="http://www.w3.org/2000/svg" xmlns:xlink="http://www.w3.org/1999/xlink" x="0px" y="0px"
	 viewBox="0 0 50 50" style="enable-background:new 0 0 50 50;" xml:space="preserve">
<path d="M42,20h-4v-5.773c0-7.168-5.832-13-13-13c-7.168,0-13,5.832-13,13V20H8c-1.654,0-3,1.346-3,3v24c0,1.654,1.346,3,3,3h34
	c1.654,0,3-1.346,3-3V23C45,21.346,43.654,20,42,20z M14,14.227c0-6.065,4.935-11,11-11s11,4.935,11,11V20H14V14.227z M43,47
	c0,0.552-0.448,1-1,1H8c-0.551,0-1-0.448-1-1V23c0-0.551,0.449-1,1-1h34c0.552,0,1,0.449,1,1V47z M39,35c0,1.105-0.895,2-2,2
	c-1.105,0-2-0.895-2-2c0-1.105,0.895-2,2-2C38.105,33,39,33.895,39,35z M31,35c0,1.105-0.895,2-2,2s-2-0.895-2-2
	c0-1.105,0.895-2,2-2C30.105,33,31,33.895,31,35z M23,35c0,1.105-0.895,2-2,2c-1.105,0-2-0.895-2-2c0-1.105,0.895-2,2-2
	C22.105,33,23,33.895,23,35z M15,35c0,1.105-0.895,2-2,2c-1.105,0-2-0.895-2-2c0-1.105,0.895-2,2-2C14.105,33,15,33.895,15,35z"/>
</svg>
