<?xml version="1.0" encoding="utf-8"?>
<!-- Generator: Adobe Illustrator 17.1.0, SVG Export Plug-In . SVG Version: 6.00 Build 0)  -->
<!DOCTYPE svg PUBLIC "-//W3C//DTD SVG 1.0//EN" "http://www.w3.org/TR/2001/REC-SVG-20010904/DTD/svg10.dtd">
<svg version="1.0" id="Layer_1" xmlns="http://www.w3.org/2000/svg" xmlns:xlink="http://www.w3.org/1999/xlink" x="0px" y="0px"
	 viewBox="0 0 50 50" style="enable-background:new 0 0 50 50;" xml:space="preserve">
<path d="M46,15H18c-0.552,0-1,0.448-1,1v33c0,0.553,0.448,1,1,1h28c0.553,0,1-0.447,1-1V16C47,15.448,46.553,15,46,15z M45,48H19V17
	h26V48z M9,8h5v1c0,0.552,0.448,1,1,1h14c0.553,0,1-0.448,1-1V8h5v6h2V6h-7V4h8.1C38.546,4,39,4.454,39,4.9V14h2V4.9
	C41,3.355,39.645,2,38.1,2H30V1c0-0.552-0.447-1-1-1H15c-0.552,0-1,0.448-1,1v1H5.9C4.355,2,3,3.355,3,4.9V43c0,1.626,1.328,3,2.9,3
	H16v-2H5.9C5.475,44,5,43.572,5,43V4.9C5,4.454,5.454,4,5.9,4H14v2H7v36h9v-2H9V8z M16,2h12v6H16V2z M23,24c0-0.552,0.448-1,1-1h17
	c0.553,0,1,0.448,1,1s-0.447,1-1,1H24C23.448,25,23,24.552,23,24z M23,30c0-0.553,0.448-1,1-1h12c0.553,0,1,0.447,1,1s-0.447,1-1,1
	H24C23.448,31,23,30.553,23,30z M23,42c0-0.553,0.448-1,1-1h12c0.553,0,1,0.447,1,1s-0.447,1-1,1H24C23.448,43,23,42.553,23,42z
	 M23,36c0-0.553,0.448-1,1-1h17c0.553,0,1,0.447,1,1s-0.447,1-1,1H24C23.448,37,23,36.553,23,36z"/>
</svg>
