<?xml version="1.0" encoding="utf-8"?>
<!-- Generator: Adobe Illustrator 17.1.0, SVG Export Plug-In . SVG Version: 6.00 Build 0)  -->
<!DOCTYPE svg PUBLIC "-//W3C//DTD SVG 1.0//EN" "http://www.w3.org/TR/2001/REC-SVG-20010904/DTD/svg10.dtd">
<svg version="1.0" id="Layer_1" xmlns="http://www.w3.org/2000/svg" xmlns:xlink="http://www.w3.org/1999/xlink" x="0px" y="0px"
	 viewBox="0 0 50 50" style="enable-background:new 0 0 50 50;" xml:space="preserve">
<path d="M46,15H18c-0.552,0-1,0.448-1,1v33c0,0.553,0.448,1,1,1h28c0.553,0,1-0.447,1-1V16C47,15.448,46.553,15,46,15z M45,48H19V17
	h26V48z M9,8h5v1c0,0.552,0.448,1,1,1h14c0.553,0,1-0.448,1-1V8h5v6h2V6h-7V4h8.1C38.546,4,39,4.454,39,4.9V14h2V4.9
	C41,3.355,39.645,2,38.1,2H30V1c0-0.552-0.447-1-1-1H15c-0.552,0-1,0.448-1,1v1H5.9C4.355,2,3,3.355,3,4.9V43c0,1.626,1.328,3,2.9,3
	H16v-2H5.9C5.475,44,5,43.572,5,43V4.9C5,4.454,5.454,4,5.9,4H14v2H7v36h9v-2H9V8z M16,2h12v6H16V2z M27.458,35.266l-1.421,5.063
	c-0.112,0.399,0.034,0.827,0.367,1.074c0.334,0.247,0.783,0.262,1.135,0.039L32,38.588l4.461,2.854
	C36.626,41.547,36.813,41.6,37,41.6c0.21,0,0.419-0.065,0.596-0.196c0.333-0.247,0.479-0.675,0.367-1.074l-1.421-5.063l4.085-3.286
	c0.323-0.26,0.452-0.692,0.324-1.088c-0.128-0.395-0.486-0.669-0.9-0.69l-5.249-0.267l-1.867-4.891
	C32.786,24.656,32.415,24.4,32,24.4s-0.786,0.256-0.935,0.644l-1.867,4.891l-5.249,0.267c-0.415,0.021-0.772,0.296-0.9,0.69
	c-0.128,0.396,0.001,0.828,0.324,1.088L27.458,35.266z M29.951,31.899c0.396-0.021,0.742-0.272,0.884-0.643L32,28.204l1.165,3.053
	c0.142,0.37,0.488,0.622,0.884,0.643l3.28,0.166l-2.556,2.056c-0.312,0.251-0.444,0.664-0.336,1.05l0.891,3.172l-2.789-1.785
	C32.375,36.453,32.188,36.4,32,36.4s-0.375,0.053-0.539,0.157l-2.789,1.785l0.891-3.172c0.108-0.386-0.024-0.799-0.336-1.05
	l-2.556-2.056L29.951,31.899z"/>
</svg>
