<?xml version="1.0" encoding="utf-8"?>
<!-- Generator: Adobe Illustrator 17.0.2, SVG Export Plug-In . SVG Version: 6.00 Build 0)  -->
<!DOCTYPE svg PUBLIC "-//W3C//DTD SVG 1.0//EN" "http://www.w3.org/TR/2001/REC-SVG-20010904/DTD/svg10.dtd">
<svg version="1.0" id="Layer_1" xmlns="http://www.w3.org/2000/svg" xmlns:xlink="http://www.w3.org/1999/xlink" x="0px" y="0px"
	 width="50px" height="50px" viewBox="0 0 50 50" style="enable-background:new 0 0 50 50;" xml:space="preserve">
<path d="M47.832,15.445c-0.307-0.459-0.927-0.585-1.387-0.277l-5.318,3.545L31.34,8.926l3.441-4.301
	c0.345-0.431,0.274-1.061-0.156-1.405c-0.433-0.345-1.06-0.274-1.406,0.156L28.66,9.074l1.066,1.066C25.925,13.765,21.611,15,13,15
	h-0.82l-0.161,0.804c-1.963,9.817-8.894,29.667-8.963,29.866L2.37,47.63l1.96-0.686c0.199-0.07,20.047-7,29.866-8.963L35,37.821
	v-0.82c0-8.611,1.235-12.925,4.86-16.727l1.013,1.012l6.682-4.455C48.015,16.526,48.139,15.905,47.832,15.445z M33.003,36.187
	c-7.371,1.577-19.077,5.392-25.246,7.471l14.383-14.384c0.533,0.291,1.144,0.457,1.792,0.457c2.066,0,3.747-1.681,3.747-3.747
	s-1.681-3.748-3.747-3.748s-3.747,1.681-3.747,3.748c0,0.692,0.189,1.342,0.518,1.898l-14.36,14.36
	c2.079-6.168,5.893-17.875,7.471-25.246c7.421-0.064,12.73-1.058,17.326-5.442l7.305,7.305
	C34.035,23.472,33.064,28.597,33.003,36.187z M22.186,25.983c0-0.964,0.784-1.748,1.747-1.748c0.963,0,1.747,0.784,1.747,1.748
	c0,0.963-0.784,1.747-1.747,1.747C22.97,27.73,22.186,26.946,22.186,25.983z"/>
</svg>
