<?xml version="1.0" encoding="utf-8"?>
<!-- Generator: Adobe Illustrator 17.0.2, SVG Export Plug-In . SVG Version: 6.00 Build 0)  -->
<!DOCTYPE svg PUBLIC "-//W3C//DTD SVG 1.0//EN" "http://www.w3.org/TR/2001/REC-SVG-20010904/DTD/svg10.dtd">
<svg version="1.0" id="Layer_1" xmlns="http://www.w3.org/2000/svg" xmlns:xlink="http://www.w3.org/1999/xlink" x="0px" y="0px"
	 width="50.001px" height="50.001px" viewBox="0 0 50.001 50.001" style="enable-background:new 0 0 50.001 50.001;"
	 xml:space="preserve">
<path d="M49.225,7.282c-0.051-0.073-5.322-7.28-8.265-7.28H40.96C32.455,0.272,22.42,8.577,15.501,15.497
	c-6.919,6.917-15.224,16.947-15.5,25.488c-0.088,2.855,7.212,8.178,7.283,8.228C8.019,49.728,8.832,50,9.637,50
	c0.992,0,1.874-0.414,2.36-1.108c0.545-0.779,6.151-9.21,6.773-10.229c0.587-0.961,0.488-2.384-0.262-3.802
	c-0.442-0.843-1.936-3.466-2.587-4.607c0.691-0.997,2.622-3.566,6.697-7.643c4.075-4.077,6.646-6.006,7.641-6.694
	c1.142,0.651,3.766,2.145,4.606,2.585c1.423,0.752,2.878,0.853,3.82,0.254c0.959-0.607,9.415-6.184,10.228-6.771
	C50.062,11.156,50.508,9.122,49.225,7.282z M47.742,10.366c-0.76,0.549-9.215,6.125-10.127,6.703
	c-0.275,0.173-1.095,0.046-1.818-0.336c-1.032-0.541-5.036-2.833-5.076-2.856l-0.503-0.288l-0.5,0.293
	c-0.118,0.069-2.962,1.763-8.513,7.316c-5.553,5.553-7.249,8.395-7.318,8.513l-0.293,0.5l0.288,0.504
	c0.023,0.04,2.315,4.045,2.859,5.08c0.434,0.82,0.491,1.554,0.325,1.827c-0.611,0.999-6.249,9.472-6.705,10.123
	C10.288,47.847,10.036,48,9.637,48c-0.273,0-0.704-0.074-1.207-0.427c-2.425-1.69-6.439-5.479-6.429-6.559
	c0.253-7.854,8.25-17.443,14.914-24.104C23.58,10.247,33.172,2.25,41.052,2c1.051,0,4.843,4.01,6.533,6.427
	C48.253,9.386,47.968,10.202,47.742,10.366z"/>
</svg>
