<?xml version="1.0" encoding="utf-8"?>
<!-- Generator: Adobe Illustrator 17.0.2, SVG Export Plug-In . SVG Version: 6.00 Build 0)  -->
<!DOCTYPE svg PUBLIC "-//W3C//DTD SVG 1.0//EN" "http://www.w3.org/TR/2001/REC-SVG-20010904/DTD/svg10.dtd">
<svg version="1.0" id="Layer_1" xmlns="http://www.w3.org/2000/svg" xmlns:xlink="http://www.w3.org/1999/xlink" x="0px" y="0px"
	 width="50px" height="50px" viewBox="0 0 50 50" style="enable-background:new 0 0 50 50;" xml:space="preserve">
<g>
	<path d="M0,4v42h50V4H0z M48,44H2V6h46V44z"/>
	<path d="M46,8H4v34h42V8z M44,10v24.586l-9.293-9.293c-0.391-0.391-1.023-0.391-1.414,0l-4.262,4.262l-10.294-11.23
		c-0.18-0.196-0.43-0.312-0.696-0.323c-0.258-0.01-0.524,0.084-0.72,0.264L6,28.716V10H44z M6,40v-8.563l11.941-11.022l9.675,10.554
		l-2.323,2.323c-0.391,0.391-0.391,1.023,0,1.414s1.023,0.391,1.414,0l2.998-2.998c0.002-0.002,0.004-0.003,0.005-0.005l4.29-4.29
		l10,10V40H6z"/>
	<circle cx="35" cy="18" r="3"/>
</g>
</svg>
