<?xml version="1.0" encoding="utf-8"?>
<!-- Generator: Adobe Illustrator 17.0.2, SVG Export Plug-In . SVG Version: 6.00 Build 0)  -->
<!DOCTYPE svg PUBLIC "-//W3C//DTD SVG 1.0//EN" "http://www.w3.org/TR/2001/REC-SVG-20010904/DTD/svg10.dtd">
<svg version="1.0" id="Layer_1" xmlns="http://www.w3.org/2000/svg" xmlns:xlink="http://www.w3.org/1999/xlink" x="0px" y="0px"
	 width="50px" height="50px" viewBox="0 0 50 50" style="enable-background:new 0 0 50 50;" xml:space="preserve">
<path d="M50,28c0,12.131-9.869,22-22,22S6,40.131,6,28c0-1.031,0.072-2.065,0.213-3.072l1.98,0.277C8.065,26.121,8,27.062,8,28
	c0,11.028,8.972,20,20,20c11.028,0,20-8.972,20-20c0-11.028-8.972-20-20-20c-0.891,0-1.784,0.059-2.655,0.174l-0.264-1.982
	C26.04,6.064,27.022,6,28,6C40.131,6,50,15.869,50,28z M23,23H0v-1C0,9.869,9.869,0,22,0h1V23z M21,2.025
	C10.766,2.531,2.531,10.766,2.025,21H21V2.025z"/>
</svg>
