<?xml version="1.0" encoding="utf-8"?>
<!-- Generator: Adobe Illustrator 17.0.2, SVG Export Plug-In . SVG Version: 6.00 Build 0)  -->
<!DOCTYPE svg PUBLIC "-//W3C//DTD SVG 1.0//EN" "http://www.w3.org/TR/2001/REC-SVG-20010904/DTD/svg10.dtd">
<svg version="1.0" id="Layer_1" xmlns="http://www.w3.org/2000/svg" xmlns:xlink="http://www.w3.org/1999/xlink" x="0px" y="0px"
	 width="50px" height="50px" viewBox="0 0 50 50" style="enable-background:new 0 0 50 50;" xml:space="preserve">
<path d="M49.385,12.537L37.623,0.634c-0.437-0.444-1.032-0.663-1.692-0.63c-0.905,0.053-1.814,0.584-2.52,1.493l-8.278,11.639
	c-5.304-1.251-10.916,0.323-14.788,4.195c-0.188,0.188-0.293,0.442-0.293,0.707s0.105,0.52,0.293,0.707l7.43,7.429L0.216,48.38
	c-0.315,0.398-0.282,0.969,0.077,1.327C0.487,49.901,0.743,50,1.001,50c0.218,0,0.438-0.071,0.62-0.216L23.812,32.21l7.431,7.43
	c0.391,0.391,1.023,0.391,1.414,0c3.934-3.931,5.49-9.611,4.152-14.979l11.677-7.96c0.878-0.652,1.44-1.573,1.507-2.463
	C50.042,13.584,49.826,12.98,49.385,12.537z M7.108,42.887l12.09-15.29l3.19,3.189L7.108,42.887z M47.326,15.072l-12.192,8.31
	c-0.018,0.012-0.075,0.056-0.092,0.069c-0.325,0.253-0.461,0.68-0.343,1.074c1.357,4.545,0.293,9.424-2.774,12.968L12.492,18.064
	c3.489-3.015,8.296-4.1,12.784-2.825c0.408,0.116,0.843-0.038,1.088-0.382l8.651-12.166c0.354-0.456,0.774-0.675,1.032-0.689
	c0.106-0.007,0.139,0.023,0.152,0.038l11.766,11.906c0,0,0.001,0.001,0.002,0.002c0.013,0.013,0.039,0.04,0.032,0.141
	C47.98,14.342,47.754,14.752,47.326,15.072z"/>
</svg>
