<?xml version="1.0" encoding="utf-8"?>
<!-- Generator: Adobe Illustrator 17.0.2, SVG Export Plug-In . SVG Version: 6.00 Build 0)  -->
<!DOCTYPE svg PUBLIC "-//W3C//DTD SVG 1.0//EN" "http://www.w3.org/TR/2001/REC-SVG-20010904/DTD/svg10.dtd">
<svg version="1.0" id="Layer_1" xmlns="http://www.w3.org/2000/svg" xmlns:xlink="http://www.w3.org/1999/xlink" x="0px" y="0px"
	 width="50px" height="50px" viewBox="0 0 50 50" style="enable-background:new 0 0 50 50;" xml:space="preserve">
<path d="M49,11h-7V7c0-0.552-0.447-1-1-1h-8c-0.553,0-1,0.448-1,1v4H18V7c0-0.552-0.448-1-1-1H9C8.448,6,8,6.448,8,7v4H1
	c-0.552,0-1,0.448-1,1v32c0,0.553,0.448,1,1,1h48c0.553,0,1-0.447,1-1V12C50,11.448,49.553,11,49,11z M34,8h6v3h-6V8z M10,8h6v3h-6
	V8z M48,43H2V13h46V43z"/>
</svg>
