<?xml version="1.0" encoding="utf-8"?>
<!-- Generator: Adobe Illustrator 17.1.0, SVG Export Plug-In . SVG Version: 6.00 Build 0)  -->
<!DOCTYPE svg PUBLIC "-//W3C//DTD SVG 1.0//EN" "http://www.w3.org/TR/2001/REC-SVG-20010904/DTD/svg10.dtd">
<svg version="1.0" id="Layer_1" xmlns="http://www.w3.org/2000/svg" xmlns:xlink="http://www.w3.org/1999/xlink" x="0px" y="0px"
	 viewBox="0 0 50 50" style="enable-background:new 0 0 50 50;" xml:space="preserve">
<path d="M25,0C11.215,0,0,11.215,0,25s11.215,25,25,25s25-11.215,25-25S38.785,0,25,0z M25,48C12.318,48,2,37.683,2,25
	C2,12.318,12.318,2,25,2c12.683,0,23,10.318,23,23C48,37.683,37.683,48,25,48z M39.9,19.9c0,1.036-0.426,1.815-0.947,2.359
	C39.471,22.85,39.9,23.669,39.9,24.7c0,1.496-0.884,2.462-1.714,2.979c0.056,0.463,0.113,1.058,0.113,1.521
	c0,1.539-1.453,3.2-3.8,3.2c-1.849,0-3.302-0.24-4.984-0.519c-0.771-0.127-1.599-0.264-2.548-0.391
	c-0.294-0.035-0.844-0.053-1.038,0.211c-0.223,0.305-0.229,1.15,0.282,2.288l0.238,0.492c1.108,2.285,2.487,5.128,1.01,7.626
	c-0.581,1.019-1.892,1.981-3.153,1.981c-0.155,0-0.31-0.015-0.461-0.046c-0.48-0.097-1.622-0.519-1.838-2.325
	c-0.396-4.155-2.461-5.793-4.458-7.377c-0.806-0.64-1.639-1.3-2.312-2.097c-0.543-0.658-1.004-1.309-1.449-1.938
	C12.644,28.69,11.897,27.7,11,27.7v-2c1.978,0,3.164,1.677,4.42,3.452c0.424,0.6,0.862,1.219,1.351,1.811
	c0.538,0.636,1.258,1.207,2.021,1.812c2.107,1.672,4.73,3.752,5.204,8.73c0.031,0.258,0.121,0.554,0.247,0.579
	c0.325,0.067,1.127-0.347,1.489-0.98c0.938-1.587-0.088-3.702-1.081-5.748l-0.252-0.523c-0.787-1.748-0.813-3.311-0.083-4.311
	c0.415-0.567,1.255-1.205,2.899-1.015c0.99,0.132,1.838,0.271,2.628,0.402c1.661,0.274,2.974,0.491,4.658,0.491
	c1.271,0,1.8-0.781,1.8-1.2c0-0.594-0.136-1.607-0.188-1.948c-0.074-0.482,0.21-0.947,0.673-1.102
	c0.105-0.037,1.116-0.427,1.116-1.45c0-1.053-1.037-1.6-1.048-1.605c-0.355-0.178-0.572-0.55-0.552-0.947
	c0.021-0.397,0.275-0.745,0.648-0.884c0.087-0.035,0.951-0.412,0.951-1.364c0-1.079-1.447-1.662-1.462-1.667
	c-0.29-0.115-0.514-0.359-0.599-0.659c-0.084-0.301-0.027-0.625,0.16-0.874c0,0,0.4-0.567,0.4-1.299c0-0.468,0.001-0.784-0.68-1.184
	C34.855,13.707,32.812,13.1,28,13.1c-7.46,0-10.008,0.808-12.055,1.458C14.521,15.01,13.291,15.4,11,15.4v-2
	c1.981,0,3.022-0.33,4.34-0.749C17.519,11.96,20.23,11.1,28,11.1c4.283,0,7.14,0.455,8.733,1.392
	c1.669,0.98,1.668,2.311,1.667,2.878c0,0.586-0.122,1.101-0.271,1.511C39.009,17.48,39.9,18.487,39.9,19.9z"/>
</svg>
