<?xml version="1.0" encoding="utf-8"?>
<!-- Generator: Adobe Illustrator 17.0.2, SVG Export Plug-In . SVG Version: 6.00 Build 0)  -->
<!DOCTYPE svg PUBLIC "-//W3C//DTD SVG 1.0//EN" "http://www.w3.org/TR/2001/REC-SVG-20010904/DTD/svg10.dtd">
<svg version="1.0" id="Layer_1" xmlns="http://www.w3.org/2000/svg" xmlns:xlink="http://www.w3.org/1999/xlink" x="0px" y="0px"
	 width="50px" height="50px" viewBox="0 0 50 50" style="enable-background:new 0 0 50 50;" xml:space="preserve">
<g>
	<path d="M50,38V4H26V1c0-0.552-0.447-1-1-1c-0.552,0-1,0.448-1,1v3H0v34h24v1.586l-8.707,8.707c-0.391,0.391-0.391,1.023,0,1.414
		s1.023,0.391,1.414,0L24,42.414V45c0,0.553,0.448,1,1,1c0.553,0,1-0.447,1-1v-2.586l7.293,7.293C33.488,49.902,33.744,50,34,50
		s0.512-0.098,0.707-0.293c0.391-0.391,0.391-1.023,0-1.414L26,39.586V38H50z M25,36H2V6h46v30H25z"/>
	<path d="M41,14c-1.105,0-2,0.895-2,2c0,0.088,0.015,0.172,0.026,0.257l-10.263,7.895C28.527,24.055,28.27,24,28,24
		c-0.289,0-0.562,0.064-0.81,0.174l-8.21-5.971C18.987,18.135,19,18.07,19,18c0-1.105-0.895-2-2-2c-1.105,0-2,0.895-2,2
		c0,0.08,0.014,0.155,0.023,0.232l-5.238,3.929C9.544,22.058,9.279,22,9,22c-1.105,0-2,0.895-2,2s0.895,2,2,2c1.105,0,2-0.895,2-2
		c0-0.08-0.014-0.155-0.023-0.233l5.238-3.928C16.456,19.942,16.721,20,17,20c0.289,0,0.562-0.064,0.81-0.174l8.21,5.971
		C26.014,25.865,26,25.931,26,26c0,1.105,0.895,2,2,2c1.105,0,2-0.895,2-2c0-0.088-0.015-0.172-0.026-0.257l10.263-7.895
		C40.473,17.945,40.73,18,41,18c1.105,0,2-0.895,2-2S42.105,14,41,14z"/>
</g>
</svg>
