<?xml version="1.0" encoding="utf-8"?>
<!-- Generator: Adobe Illustrator 17.0.2, SVG Export Plug-In . SVG Version: 6.00 Build 0)  -->
<!DOCTYPE svg PUBLIC "-//W3C//DTD SVG 1.0//EN" "http://www.w3.org/TR/2001/REC-SVG-20010904/DTD/svg10.dtd">
<svg version="1.0" id="Layer_1" xmlns="http://www.w3.org/2000/svg" xmlns:xlink="http://www.w3.org/1999/xlink" x="0px" y="0px"
	 width="50px" height="50px" viewBox="0 0 50 50" style="enable-background:new 0 0 50 50;" xml:space="preserve">
<path d="M47.998,20.377L48,5.5C48,3.57,46.43,2,44.5,2L29.624,2.002L28.995,2c-1.294,0-2.529,0.074-3.419,0.963L2.848,25.69
	C2.301,26.235,2,26.962,2,27.734c0,0.772,0.301,1.499,0.847,2.045l17.374,17.374c0.546,0.546,1.271,0.846,2.044,0.846
	s1.498-0.3,2.044-0.846l22.727-22.729c0.975-0.972,0.969-2.372,0.963-3.725L47.998,20.377z M45.999,20.708
	c0.004,0.986,0.008,1.918-0.376,2.302L22.895,45.739c-0.336,0.336-0.924,0.336-1.26,0L4.261,28.364C4.092,28.196,4,27.973,4,27.734
	c0-0.237,0.092-0.46,0.261-0.629L26.99,4.377C27.339,4.029,28.138,4,28.995,4l0.629,0.002L44.5,4C45.327,4,46,4.673,46,5.5
	l-0.002,14.877L45.999,20.708z M39,7c-2.206,0-4,1.794-4,4s1.794,4,4,4s4-1.794,4-4S41.206,7,39,7z M39,13c-1.103,0-2-0.897-2-2
	s0.897-2,2-2s2,0.897,2,2S40.103,13,39,13z"/>
</svg>
