<?xml version="1.0" encoding="utf-8"?>
<!-- Generator: Adobe Illustrator 17.0.2, SVG Export Plug-In . SVG Version: 6.00 Build 0)  -->
<!DOCTYPE svg PUBLIC "-//W3C//DTD SVG 1.0//EN" "http://www.w3.org/TR/2001/REC-SVG-20010904/DTD/svg10.dtd">
<svg version="1.0" id="Layer_1" xmlns="http://www.w3.org/2000/svg" xmlns:xlink="http://www.w3.org/1999/xlink" x="0px" y="0px"
	 width="50px" height="50px" viewBox="0 0 50 50" style="enable-background:new 0 0 50 50;" xml:space="preserve">
<path d="M44,4h-3V1c0-0.552-0.447-1-1-1H6C5.448,0,5,0.448,5,1v44c0,0.553,0.448,1,1,1h3v3c0,0.553,0.448,1,1,1h34
	c0.553,0,1-0.447,1-1V5C45,4.448,44.553,4,44,4z M7,44V2h32v42H7z M43,48H11v-2h29c0.553,0,1-0.447,1-1V6h2V48z M24.9,31.9V35
	c0,0.2-0.1,0.4-0.4,0.4h-2.7c-0.2,0-0.4-0.1-0.4-0.4v-3.1c0-0.2,0.1-0.4,0.4-0.4h2.7C24.7,31.5,24.9,31.6,24.9,31.9z M29.7,16.6
	c0,1.7-0.6,3-1.8,4.7l-2.4,3.3c-0.7,1-0.9,1.5-0.9,2.7v1.1c0,0.2-0.1,0.4-0.4,0.4h-2.4c-0.1,0-0.3-0.2-0.3-0.4h0v-1.5
	c0-1.4,0.3-2.2,1.1-3.2l2.4-3.3c1.3-1.7,1.7-2.5,1.7-3.8c0-2-1.4-3.3-3.5-3.3c-2,0-3.3,1.2-3.7,3.4c0,0.2-0.2,0.3-0.4,0.3l-2.3-0.4
	c-0.2,0-0.3-0.2-0.3-0.4c0.5-3.4,3-5.7,6.7-5.7C27.1,10.5,29.7,13,29.7,16.6z"/>
</svg>
