<?xml version="1.0" encoding="utf-8"?>
<!-- Generator: Adobe Illustrator 17.0.2, SVG Export Plug-In . SVG Version: 6.00 Build 0)  -->
<!DOCTYPE svg PUBLIC "-//W3C//DTD SVG 1.0//EN" "http://www.w3.org/TR/2001/REC-SVG-20010904/DTD/svg10.dtd">
<svg version="1.0" id="Layer_1" xmlns="http://www.w3.org/2000/svg" xmlns:xlink="http://www.w3.org/1999/xlink" x="0px" y="0px"
	 width="50px" height="50px" viewBox="0 0 50 50" style="enable-background:new 0 0 50 50;" xml:space="preserve">
<g>
	<path d="M35,22H15c-0.552,0-1,0.448-1,1s0.448,1,1,1h20c0.553,0,1-0.448,1-1S35.553,22,35,22z"/>
	<path d="M49.663,19.252C48.912,18.585,31.24,2.919,29.651,1.588C28.41,0.549,26.802,0,25,0c-1.799,0-3.408,0.549-4.652,1.588
		C18.904,2.795,1.094,18.58,0.337,19.251C0.123,19.441,0,19.714,0,20v29c0,0.553,0.448,1,1,1h48c0.553,0,1-0.447,1-1V20
		C50,19.714,49.878,19.441,49.663,19.252z M35,27h-9.867c-0.043-0.001-0.096-0.004-0.133-0.004S24.91,26.999,24.867,27H15
		c-0.552,0-1,0.447-1,1s0.448,1,1,1h4.943l-3.605,2.818L10,26.807V19h30v7.807l-6.338,5.011L30.058,29H35c0.553,0,1-0.447,1-1
		S35.553,27,35,27z M14.717,33.086L2,43.03V23.032L14.717,33.086z M48,23.032V43.03l-12.717-9.945L48,23.032z M21.631,3.123
		C22.523,2.378,23.656,2,25,2c1.346,0,2.479,0.377,3.367,1.122C29.815,4.335,45.49,18.226,48,20.45v0.032l-6,4.744V18
		c0-0.552-0.447-1-1-1H9c-0.552,0-1,0.448-1,1v7.226l-6-4.744V20.45C4.521,18.216,20.316,4.222,21.631,3.123z M2,48v-2.43
		l19.625-15.346c1.322-1.034,2.633-1.205,3.245-1.224h0.261c0.612,0.019,1.923,0.19,3.244,1.224L48,45.57V48H2z"/>
</g>
</svg>
