<?xml version="1.0" encoding="utf-8"?>
<!-- Generator: Adobe Illustrator 17.0.2, SVG Export Plug-In . SVG Version: 6.00 Build 0)  -->
<!DOCTYPE svg PUBLIC "-//W3C//DTD SVG 1.0//EN" "http://www.w3.org/TR/2001/REC-SVG-20010904/DTD/svg10.dtd">
<svg version="1.0" id="Layer_1" xmlns="http://www.w3.org/2000/svg" xmlns:xlink="http://www.w3.org/1999/xlink" x="0px" y="0px"
	 width="50.002px" height="50px" viewBox="0 0 50.002 50" style="enable-background:new 0 0 50.002 50;" xml:space="preserve">
<path d="M49.723,30.56c-0.049,0.108-0.424,0.991-0.817,1.885c-0.459,0.841-1.605,2.774-2.82,4.82
	c-1.405,2.369-2.998,5.053-3.381,5.818c-0.967,1.936-3.302,2.838-4.575,2.838l-5.981-0.055l-0.002,4.011l-6.863-9.111l0,5.101
	l-13.186,0.001c-1.155-0.024-2.219-0.433-3.19-1.205c-0.23-0.897-0.352-2.752,1.212-5.461l3.72-6.442h11.445l0,5.082l6.864-9.112
	v4.021h11.82C48.52,32.751,49.723,30.56,49.723,30.56z M49.377,26.157l-6.594-11.419l-4.396,2.538l4.454-10.49l-3.474,2.006
	l-2.944-5.208c-0.505-0.875-1.84-2.038-3.448-2.416c-0.597,0.288-1.897,1.214-3.477,4.165l-3.636,6.3l2.146,3.717l-3.481,2.011
	l11.311,1.386l-4.407,2.544l5.723,9.912h7.44c3.127,0,4.673-1.034,5.335-1.681C50.111,28.295,49.934,27.169,49.377,26.157z
	 M9.092,37.887l5.91-10.237l3.482,2.01l-4.465-10.514l4.422,2.554l9.445-16.367c1.91-3.566,3.416-4.18,3.758-4.277l0,0
	c0.17,0,0.337-0.001,0.493-0.002c-0.144-0.006-0.287-0.02-0.434-0.013c0.007-0.001,0.014-0.003,0.014-0.003
	c-0.082,0-0.164,0.002-0.246,0.005c-1.395,0.026-3.802,0.008-6.718-0.012c-1.732-0.012-3.646-0.025-5.703-0.03
	c-2.561,0.152-4.363,1.062-5.368,2.723L7.09,15.144l4.417,2.551L0.17,19.084l3.472,2.007l-3.038,5.153
	c-0.637,1.103-1.023,3.576,0.17,5.381c0.471,0.714,1.999,3.436,3.348,5.837c1.164,2.075,2.266,4.035,2.764,4.853
	c0.578,0.787,1.155,1.554,1.224,1.65C8.112,43.966,6.816,41.829,9.092,37.887z"/>
</svg>
