<?xml version="1.0" encoding="utf-8"?>
<!-- Generator: Adobe Illustrator 17.0.2, SVG Export Plug-In . SVG Version: 6.00 Build 0)  -->
<!DOCTYPE svg PUBLIC "-//W3C//DTD SVG 1.0//EN" "http://www.w3.org/TR/2001/REC-SVG-20010904/DTD/svg10.dtd">
<svg version="1.0" id="Layer_1" xmlns="http://www.w3.org/2000/svg" xmlns:xlink="http://www.w3.org/1999/xlink" x="0px" y="0px"
	 width="50px" height="50px" viewBox="0 0 50 50" style="enable-background:new 0 0 50 50;" xml:space="preserve">
<path d="M49.375,26.158l-6.594-11.421l-4.397,2.539l4.454-10.489l-3.473,2.006l-2.944-5.208c-0.635-1.097-2.592-2.655-4.712-2.545
	c-0.079,0-0.157,0.002-0.235,0.005c-1.39,0.023-3.774,0.009-6.748-0.013C23,1.02,21.096,1.007,19.111,1l-0.062,0.002
	c-2.561,0.151-4.363,1.062-5.369,2.723l-6.591,11.42l4.399,2.541L0.174,19.072l3.474,2.006L0.611,26.23
	c-0.638,1.102-1.025,3.574,0.167,5.38c0.468,0.711,1.986,3.414,3.326,5.799c1.218,2.169,2.289,4.075,2.792,4.897
	c0.056,0.1,0.117,0.196,0.184,0.29c1.41,2.123,3.093,3.219,5.023,3.257h13.184v-5.078l6.854,9.101l0.004-4.008l5.981,0.054
	c1.273,0,3.608-0.902,4.574-2.837c0.383-0.763,1.973-3.441,3.374-5.805c1.261-2.124,2.369-3.992,2.83-4.837
	c0.056-0.094,0.106-0.191,0.152-0.291C50.2,29.866,50.31,27.855,49.375,26.158z M31.539,3.043c0.074-0.001,0.146-0.003,0.215-0.004
	c0.015,0,0.028-0.001,0.042-0.002c1.296-0.067,2.558,0.967,2.889,1.54l3.933,6.957l0.043-0.024l-2.248,5.294l-5.711-0.7l0.037-0.021
	l-4.529-7.846l1.675-2.903C28.519,4.232,29.96,3.122,31.539,3.043z M9.82,14.413l5.582-9.669c0.63-1.042,1.887-1.628,3.735-1.743
	c1.971,0.007,3.862,0.02,5.575,0.032c0.867,0.006,1.683,0.012,2.441,0.016c-0.413,0.413-0.752,0.854-1.001,1.286l-8.444,14.634
	L9.82,14.413z M7.364,36.874c-0.217,0.377-0.411,0.8-0.565,1.247c-0.309-0.548-0.631-1.122-0.951-1.691
	c-1.422-2.531-2.893-5.149-3.4-5.92c-0.701-1.062-0.441-2.698-0.11-3.271l4.059-6.884L6.352,20.33l5.708-0.7l2.25,5.293l-0.035-0.02
	l-4.802,8.317c-0.011,0.018-0.021,0.035-0.03,0.053L7.364,36.874z M23.287,43.854H12.123c-1.222-0.024-2.364-0.828-3.394-2.388
	c-0.005-0.008-0.011-0.017-0.017-0.024c-0.026-0.04-0.057-0.089-0.091-0.145c-0.455-0.846-0.135-2.367,0.475-3.423l1.806-3.128
	h12.385V43.854z M12.057,32.746l2.951-5.11l3.483,2.011l-4.459-10.492l4.408,2.546l6.615-11.463l2.951,5.114l-3.481,2.011
	l11.311,1.385l-4.406,2.543l6.616,11.46h-5.899V28.73l-6.859,9.104v-5.089H12.057z M44.355,36.26
	c-1.488,2.509-3.027,5.103-3.442,5.931c-0.568,1.137-2.115,1.731-2.777,1.731l-7.988-0.071v0.053l-3.464-4.599l3.463-4.596
	l9.614,0.042c0.012,0,0.023,0,0.037,0h4.168c0.436,0,0.898-0.044,1.363-0.134C45.014,35.15,44.684,35.708,44.355,36.26z
	 M47.263,31.271c-0.024,0.049-0.057,0.109-0.095,0.181c-0.506,0.816-1.983,1.299-3.202,1.299h-3.61l-6.193-10.728l7.887-4.554
	l5.584,9.671C48.224,28.213,48.099,29.603,47.263,31.271z"/>
</svg>
