<?xml version="1.0" encoding="utf-8"?>
<!-- Generator: Adobe Illustrator 17.0.2, SVG Export Plug-In . SVG Version: 6.00 Build 0)  -->
<!DOCTYPE svg PUBLIC "-//W3C//DTD SVG 1.0//EN" "http://www.w3.org/TR/2001/REC-SVG-20010904/DTD/svg10.dtd">
<svg version="1.0" id="Layer_1" xmlns="http://www.w3.org/2000/svg" xmlns:xlink="http://www.w3.org/1999/xlink" x="0px" y="0px"
	 width="50px" height="50px" viewBox="0 0 50 50" style="enable-background:new 0 0 50 50;" xml:space="preserve">
<path d="M41.999,24c-0.553,0-1,0.448-1,1c0,8.822-7.178,16-16,16s-16-7.178-16-16s7.178-16,16-16c4.522,0,8.854,1.927,11.885,5.286
	c0.208,0.231,0.41,0.47,0.606,0.714l-6.49,0c-0.552,0-1,0.448-1,1s0.447,1,1,1L41,17V7c0-0.552-0.447-1-1-1s-1,0.448-1,1v6.686
	c-0.204-0.252-0.415-0.5-0.632-0.74C34.96,9.167,30.087,7,24.999,7c-9.925,0-18,8.075-18,18c0,9.925,8.075,18,18,18
	c9.925,0,18-8.075,18-18C42.999,24.448,42.552,24,41.999,24z"/>
</svg>
