<?xml version="1.0" encoding="utf-8"?>
<!-- Generator: Adobe Illustrator 17.1.0, SVG Export Plug-In . SVG Version: 6.00 Build 0)  -->
<!DOCTYPE svg PUBLIC "-//W3C//DTD SVG 1.0//EN" "http://www.w3.org/TR/2001/REC-SVG-20010904/DTD/svg10.dtd">
<svg version="1.0" id="Layer_1" xmlns="http://www.w3.org/2000/svg" xmlns:xlink="http://www.w3.org/1999/xlink" x="0px" y="0px"
	 viewBox="0 0 50.062 50" style="enable-background:new 0 0 50.062 50;" xml:space="preserve">
<path d="M38.062,26c-6.617,0-12,5.383-12,12s5.383,12,12,12s12-5.383,12-12S44.679,26,38.062,26z M38.062,48
	c-5.514,0-10-4.486-10-10s4.486-10,10-10s10,4.486,10,10S43.576,48,38.062,48z M26.9,30.437l-1.021,1.721
	c-0.816-0.485-1.446-1.273-1.82-2.28l-0.059-0.259c-0.118-1.304-0.109-2.308-0.1-3.37l0.005-1.533l0.535-0.281
	c0.401-0.281,1.536-2.295,1.73-4.11l0.088-0.822l0.824-0.068c0.128-0.011,0.645-0.371,0.833-1.941
	c0.098-0.806-0.294-1.089-0.298-1.092l-0.64-0.422l0.211-0.747c0.768-2.309,1.656-6.876,0.12-9.349
	c-0.613-0.987-1.561-1.557-2.897-1.743l-0.488-0.067L23.68,3.645c-0.447-0.785-1.834-1.253-3.712-1.253
	c-3.019,0.056-5.189,0.915-6.432,2.552c-1.594,2.101-1.795,5.681-0.582,10.352l0.187,0.719l-0.635,0.386
	c-0.002,0.001-0.394,0.286-0.298,1.092c0.188,1.569,0.705,1.93,0.833,1.94l0.825,0.068l0.087,0.823
	c0.193,1.804,1.363,3.822,1.8,4.119l0.535,0.281l-0.018,0.594l0.005,0.925c0.009,1.064,0.018,2.069-0.1,3.374l-0.059,0.259
	c-0.861,2.314-3.448,3.333-6.188,4.41C6.493,35.639,2.947,37.033,2.19,41h19.872h2.359l0.641,2h-3H0l0.064-1.06
	c0.364-6.065,5.228-7.979,9.135-9.516c2.35-0.924,4.387-1.726,4.999-3.132c0.096-1.136,0.088-2.018,0.08-3.032l-0.002-0.468
	c-0.919-0.917-1.864-2.866-2.208-4.596c-0.723-0.361-1.579-1.26-1.844-3.465c-0.133-1.112,0.2-1.962,0.65-2.513
	c-1.223-5.075-0.864-8.937,1.069-11.484c1.632-2.15,4.326-3.275,8.006-3.343c2.43,0,4.24,0.65,5.184,1.843
	c1.713,0.339,3.015,1.21,3.874,2.594c2.05,3.299,0.851,8.443,0.27,10.423c0.438,0.552,0.756,1.391,0.624,2.481
	c-0.266,2.204-1.121,3.103-1.844,3.464c-0.339,1.732-1.26,3.674-2.155,4.59l-0.003,0.479c-0.009,1.015-0.017,1.896,0.08,3.032
	C26.195,29.819,26.503,30.202,26.9,30.437z M32.062,37h12v2h-12V37z"/>
</svg>
