<?xml version="1.0" encoding="utf-8"?>
<!-- Generator: Adobe Illustrator 17.0.2, SVG Export Plug-In . SVG Version: 6.00 Build 0)  -->
<!DOCTYPE svg PUBLIC "-//W3C//DTD SVG 1.0//EN" "http://www.w3.org/TR/2001/REC-SVG-20010904/DTD/svg10.dtd">
<svg version="1.0" id="Layer_1" xmlns="http://www.w3.org/2000/svg" xmlns:xlink="http://www.w3.org/1999/xlink" x="0px" y="0px"
	 width="50px" height="50px" viewBox="0 0 50 50" style="enable-background:new 0 0 50 50;" xml:space="preserve">
<path d="M49,36V14H36V9.334c0.014-0.263,0.37-4.564,8.231-4.564c0.553,0,1-0.448,1-1s-0.447-1-1-1c-5.514,0-8.058,1.972-9.23,3.75
	c-1.172-1.775-3.715-3.75-9.232-3.75c-0.553,0-1,0.448-1,1s0.447,1,1,1c7.938,0,8.224,4.384,8.231,4.538v31.378
	c0,0.002,0,0.006,0,0.011V40.7c0,0.013-0.023,1.258-1.183,2.425c-1.368,1.378-3.806,2.106-7.049,2.106c-0.553,0-1,0.447-1,1
	s0.447,1,1,1c3.842,0,6.69-0.907,8.468-2.696c0.304-0.307,0.556-0.619,0.764-0.928c0.208,0.309,0.46,0.621,0.764,0.928
	c1.777,1.789,4.626,2.696,8.468,2.696c0.553,0,1-0.447,1-1s-0.447-1-1-1c-8.063,0-8.229-4.356-8.231-4.538V36H49z M47,16v18H36V16
	H47z M31,36H1V14h30v2H3v18h28V36z"/>
</svg>
