<?xml version="1.0" encoding="utf-8"?>
<!-- Generator: Adobe Illustrator 17.0.2, SVG Export Plug-In . SVG Version: 6.00 Build 0)  -->
<!DOCTYPE svg PUBLIC "-//W3C//DTD SVG 1.0//EN" "http://www.w3.org/TR/2001/REC-SVG-20010904/DTD/svg10.dtd">
<svg version="1.0" id="Layer_1" xmlns="http://www.w3.org/2000/svg" xmlns:xlink="http://www.w3.org/1999/xlink" x="0px" y="0px"
	 width="50px" height="50px" viewBox="0 0 50 50" style="enable-background:new 0 0 50 50;" xml:space="preserve">
<path d="M49,0H1v34h8.213C9.089,34.169,9,34.361,9,34.576c0,0.313,0.146,0.608,0.396,0.797l11.318,8.576
	c0.304,0.231,0.71,0.269,1.049,0.099c0.34-0.169,0.555-0.516,0.555-0.896v-4.583C36.047,39.011,36.967,48.533,37,48.947
	c0.039,0.522,0.475,0.925,0.997,0.925c0.006,0,0.013,0,0.019,0c0.532-0.01,0.963-0.435,0.98-0.966
	c0.012-0.331,0.221-8.167-4.96-13.528c-0.487-0.504-1.015-0.953-1.562-1.378H49V0z M47,2v2.264L28.176,20.377
	c-1.341,1.146-2.668,1.27-3.176,1.27c-0.508,0-1.835-0.124-3.175-1.27C20.487,19.234,5.104,6.066,3,4.265V2H47z M47,6.897V27.22
	l-12.449-9.667L47,6.897z M15.45,17.554L3,27.221V6.897C5.669,9.182,11.271,13.977,15.45,17.554z M35.72,41.84
	c-2.481-2.759-6.822-5.286-14.402-5.286c-0.552,0-1,0.447-1,1v3.586l-8.662-6.563l8.662-6.563v3.584c0,0.553,0.448,1,1,1
	c4.804,0,8.596,1.399,11.269,4.159C34.077,38.295,35.065,40.101,35.72,41.84z M29.042,32c-1.983-0.822-4.227-1.288-6.724-1.385V26
	c0-0.38-0.215-0.727-0.555-0.896c-0.339-0.17-0.746-0.132-1.049,0.099L11.744,32H3v-2.246l14.001-10.872
	c1.824,1.561,3.169,2.712,3.524,3.016c1.847,1.58,3.745,1.75,4.475,1.75s2.628-0.17,4.476-1.75L33,18.88l14,10.872V32H29.042z"/>
</svg>
