<?xml version="1.0" encoding="utf-8"?>
<!-- Generator: Adobe Illustrator 17.0.2, SVG Export Plug-In . SVG Version: 6.00 Build 0)  -->
<!DOCTYPE svg PUBLIC "-//W3C//DTD SVG 1.0//EN" "http://www.w3.org/TR/2001/REC-SVG-20010904/DTD/svg10.dtd">
<svg version="1.0" id="Layer_1" xmlns="http://www.w3.org/2000/svg" xmlns:xlink="http://www.w3.org/1999/xlink" x="0px" y="0px"
	 width="50px" height="50px" viewBox="0 0 50 50" style="enable-background:new 0 0 50 50;" xml:space="preserve">
<path d="M4,11V9c0-0.552,0.448-1,1-1s1,0.448,1,1v2c0,0.552-0.448,1-1,1S4,11.552,4,11z M5,6h2c0.552,0,1-0.448,1-1S7.552,4,7,4H5
	C4.448,4,4,4.448,4,5S4.448,6,5,6z M5,18c0.552,0,1-0.448,1-1v-2c0-0.552-0.448-1-1-1s-1,0.448-1,1v2C4,17.552,4.448,18,5,18z M6,23
	v-2c0-0.552-0.448-1-1-1s-1,0.448-1,1v2c0,0.552,0.448,1,1,1S6,23.552,6,23z M29,6h2c0.553,0,1-0.448,1-1s-0.447-1-1-1h-2
	c-0.553,0-1,0.448-1,1S28.447,6,29,6z M35,6h2c0.553,0,1-0.448,1-1s-0.447-1-1-1h-2c-0.553,0-1,0.448-1,1S34.447,6,35,6z M17,6h2
	c0.552,0,1-0.448,1-1s-0.448-1-1-1h-2c-0.552,0-1,0.448-1,1S16.448,6,17,6z M23,6h2c0.553,0,1-0.448,1-1s-0.447-1-1-1h-2
	c-0.552,0-1,0.448-1,1S22.448,6,23,6z M11,6h2c0.552,0,1-0.448,1-1s-0.448-1-1-1h-2c-0.552,0-1,0.448-1,1S10.448,6,11,6z M35,44h-2
	c-0.553,0-1,0.447-1,1s0.447,1,1,1h2c0.553,0,1-0.447,1-1S35.553,44,35,44z M45,18c-0.553,0-1,0.448-1,1v2c0,0.552,0.447,1,1,1
	s1-0.448,1-1v-2C46,18.448,45.553,18,45,18z M45,24c-0.553,0-1,0.448-1,1v2c0,0.553,0.447,1,1,1s1-0.447,1-1v-2
	C46,24.448,45.553,24,45,24z M45,30c-0.553,0-1,0.447-1,1v2c0,0.553,0.447,1,1,1s1-0.447,1-1v-2C46,30.447,45.553,30,45,30z M45,12
	c-0.553,0-1,0.448-1,1v2c0,0.552,0.447,1,1,1s1-0.448,1-1v-2C46,12.448,45.553,12,45,12z M45,6c-0.553,0-1,0.448-1,1v2
	c0,0.552,0.447,1,1,1s1-0.448,1-1V7C46,6.448,45.553,6,45,6z M41,44h-2c-0.553,0-1,0.447-1,1s0.447,1,1,1h2c0.553,0,1-0.447,1-1
	S41.553,44,41,44z M45,36c-0.553,0-1,0.447-1,1v2c0,0.553,0.447,1,1,1s1-0.447,1-1v-2C46,36.447,45.553,36,45,36z M43,4h-2
	c-0.553,0-1,0.448-1,1s0.447,1,1,1h2c0.553,0,1-0.448,1-1S43.553,4,43,4z M29,44h-2c-0.553,0-1,0.447-1,1s0.447,1,1,1h2
	c0.553,0,1-0.447,1-1S29.553,44,29,44z M45,42c-0.553,0-1,0.447-1,1v2c0,0.553,0.447,1,1,1s1-0.447,1-1v-2
	C46,42.447,45.553,42,45,42z M26,25.414V45v1H4V35v-2v-4v-2v-3h1h19.586l12-12H28c-0.553,0-1-0.448-1-1s0.447-1,1-1h12v12
	c0,0.552-0.447,1-1,1s-1-0.448-1-1v-8.586L26,25.414z M24,26H6v1v2v4v2v9h18V26z"/>
</svg>
