<?xml version="1.0" encoding="utf-8"?>
<!-- Generator: Adobe Illustrator 17.0.2, SVG Export Plug-In . SVG Version: 6.00 Build 0)  -->
<!DOCTYPE svg PUBLIC "-//W3C//DTD SVG 1.0//EN" "http://www.w3.org/TR/2001/REC-SVG-20010904/DTD/svg10.dtd">
<svg version="1.0" id="Layer_1" xmlns="http://www.w3.org/2000/svg" xmlns:xlink="http://www.w3.org/1999/xlink" x="0px" y="0px"
	 width="50.004px" height="50px" viewBox="0 0 50.004 50" style="enable-background:new 0 0 50.004 50;" xml:space="preserve">
<path d="M49.66,30L28.004,13.591v10.4C3.634,23.542,2.057,6.654,2.002,5.928L0.005,5.965c-0.019,0.544-0.361,13.419,8.137,22.216
	c4.822,4.99,11.5,7.614,19.862,7.807v10.421L49.66,30z M9.591,26.804c-3.668-3.792-5.567-8.508-6.548-12.487
	C6.475,19.8,13.734,26,29.004,26h1v-8.385L46.348,30L30.004,42.384V34h-1C20.743,34,14.212,31.579,9.591,26.804z"/>
</svg>
