<?xml version="1.0" encoding="utf-8"?>
<!-- Generator: Adobe Illustrator 17.0.2, SVG Export Plug-In . SVG Version: 6.00 Build 0)  -->
<!DOCTYPE svg PUBLIC "-//W3C//DTD SVG 1.0//EN" "http://www.w3.org/TR/2001/REC-SVG-20010904/DTD/svg10.dtd">
<svg version="1.0" id="Layer_1" xmlns="http://www.w3.org/2000/svg" xmlns:xlink="http://www.w3.org/1999/xlink" x="0px" y="0px"
	 width="50.004px" height="50px" viewBox="0 0 50.004 50" style="enable-background:new 0 0 50.004 50;" xml:space="preserve">
<path d="M49.66,20L28.004,3.592v10.419c-8.362,0.192-15.041,2.816-19.862,7.807c-8.499,8.797-8.156,21.672-8.137,22.216l1.997,0.038
	c0.003-0.045,0.361-4.501,3.809-8.961c4.461-5.771,12.122-8.908,22.194-9.102v10.4L49.66,20z M3.043,35.684
	c0.981-3.979,2.88-8.695,6.548-12.487C14.212,18.421,20.743,16,29.004,16h1V7.616L46.348,20L30.004,32.385V24h-1
	C13.734,24,6.475,30.2,3.043,35.684z"/>
</svg>
