<?xml version="1.0" encoding="utf-8"?>
<!-- Generator: Adobe Illustrator 17.0.2, SVG Export Plug-In . SVG Version: 6.00 Build 0)  -->
<!DOCTYPE svg PUBLIC "-//W3C//DTD SVG 1.0//EN" "http://www.w3.org/TR/2001/REC-SVG-20010904/DTD/svg10.dtd">
<svg version="1.0" id="Layer_1" xmlns="http://www.w3.org/2000/svg" xmlns:xlink="http://www.w3.org/1999/xlink" x="0px" y="0px"
	 width="50px" height="50px" viewBox="0 0 50 50" style="enable-background:new 0 0 50 50;" xml:space="preserve">
<path d="M46,8h-2V3c0-1.103-0.897-2-2-2H3C1.897,1,1,1.897,1,3v12c0,1.103,0.897,2,2,2h39c1.103,0,2-0.897,2-2v-5h1v9.194
	l-22.212,4.829C22.328,24.123,22,24.53,22,25v4h-2c-1.103,0-2,0.897-2,2v16c0,1.103,0.897,2,2,2h6c1.103,0,2-0.897,2-2V31
	c0-1.103-0.897-2-2-2h-2v-3.194l22.213-4.829C46.672,20.877,47,20.47,47,20V9C47,8.448,46.553,8,46,8z M42,15H3V3h39V15z M26,31v16
	h-6V31H26z"/>
</svg>
