<?xml version="1.0" encoding="utf-8"?>
<!-- Generator: Adobe Illustrator 17.1.0, SVG Export Plug-In . SVG Version: 6.00 Build 0)  -->
<!DOCTYPE svg PUBLIC "-//W3C//DTD SVG 1.0//EN" "http://www.w3.org/TR/2001/REC-SVG-20010904/DTD/svg10.dtd">
<svg version="1.0" id="Layer_1" xmlns="http://www.w3.org/2000/svg" xmlns:xlink="http://www.w3.org/1999/xlink" x="0px" y="0px"
	 viewBox="0 0 50 50" style="enable-background:new 0 0 50 50;" xml:space="preserve">
<path d="M42.848,25.5c0.089,0.149,0.153,0.314,0.153,0.5c0,0.7-0.041,1.411-0.123,2.113c-0.059,0.51-0.491,0.885-0.992,0.885
	c-0.038,0-0.077-0.002-0.116-0.007c-0.549-0.063-0.941-0.56-0.878-1.108c0.072-0.626,0.109-1.26,0.109-1.883
	c0-0.186,0.065-0.351,0.153-0.5c-0.089-0.149-0.153-0.314-0.153-0.5c0-8.822-7.178-16-16-16c-4.523,0-8.854,1.927-11.884,5.286
	c-0.209,0.231-0.411,0.47-0.607,0.713l6.49,0c0.552,0,1,0.448,1,1s-0.448,1-1,1L9,17V7c0-0.552,0.448-1,1-1s1,0.448,1,1v6.686
	c0.204-0.252,0.415-0.499,0.631-0.739C15.04,9.167,19.913,7,25.001,7c9.925,0,18,8.075,18,18
	C43.001,25.186,42.936,25.351,42.848,25.5z M26.881,41.891C26.266,41.963,25.633,42,25.001,42c-0.314,0-0.627-0.008-0.938-0.027
	c-0.554-0.025-1.026,0.385-1.06,0.937c-0.034,0.551,0.385,1.025,0.936,1.06C24.291,43.99,24.646,44,25.001,44
	c0.71,0,1.422-0.041,2.114-0.123c0.549-0.064,0.94-0.562,0.876-1.11S27.431,41.824,26.881,41.891z M41.135,31.46
	c-0.511-0.207-1.095,0.039-1.302,0.552c-0.533,1.316-1.243,2.56-2.111,3.695c-0.336,0.438-0.252,1.066,0.187,1.401
	c0.182,0.139,0.395,0.206,0.606,0.206c0.301,0,0.599-0.135,0.795-0.393c0.978-1.278,1.777-2.678,2.377-4.16
	C41.894,32.25,41.646,31.667,41.135,31.46z M34.708,38.72c-1.137,0.868-2.381,1.579-3.697,2.113
	c-0.512,0.207-0.758,0.791-0.551,1.303c0.157,0.389,0.532,0.624,0.927,0.624c0.125,0,0.253-0.023,0.376-0.073
	c1.481-0.601,2.881-1.4,4.16-2.377c0.438-0.336,0.522-0.963,0.188-1.402C35.774,38.47,35.148,38.388,34.708,38.72z M8.087,27.998
	c0.551-0.031,0.973-0.504,0.941-1.056C9.01,26.631,9.001,26.316,9.001,26c0-0.553-0.448-1-1-1s-1,0.447-1,1
	c0,0.355,0.01,0.707,0.03,1.058C7.062,27.589,7.503,28,8.029,28C8.048,28,8.068,27.999,8.087,27.998z M9.825,31.084
	c-0.176-0.524-0.741-0.807-1.266-0.631c-0.523,0.176-0.806,0.742-0.63,1.266c0.251,0.748,0.554,1.487,0.902,2.197
	c0.174,0.354,0.529,0.56,0.899,0.56c0.147,0,0.298-0.032,0.439-0.103c0.496-0.243,0.701-0.842,0.458-1.338
	C10.317,32.404,10.048,31.748,9.825,31.084z M12.964,36.542c-0.365-0.415-0.995-0.457-1.411-0.093
	c-0.416,0.364-0.457,0.996-0.093,1.411c0.522,0.596,1.087,1.16,1.679,1.679c0.189,0.166,0.424,0.248,0.658,0.248
	c0.278,0,0.555-0.115,0.753-0.341c0.364-0.416,0.322-1.048-0.094-1.411C13.931,37.574,13.428,37.071,12.964,36.542z M19.915,41.175
	c-0.664-0.222-1.32-0.491-1.951-0.801c-0.496-0.242-1.095-0.039-1.338,0.457c-0.244,0.495-0.039,1.095,0.457,1.338
	c0.711,0.35,1.451,0.653,2.2,0.902c0.105,0.035,0.211,0.052,0.316,0.052c0.419,0,0.809-0.265,0.949-0.684
	C20.722,41.916,20.438,41.35,19.915,41.175z"/>
</svg>
