<?xml version="1.0" encoding="utf-8"?>
<!-- Generator: Adobe Illustrator 17.1.0, SVG Export Plug-In . SVG Version: 6.00 Build 0)  -->
<!DOCTYPE svg PUBLIC "-//W3C//DTD SVG 1.0//EN" "http://www.w3.org/TR/2001/REC-SVG-20010904/DTD/svg10.dtd">
<svg version="1.0" id="Layer_1" xmlns="http://www.w3.org/2000/svg" xmlns:xlink="http://www.w3.org/1999/xlink" x="0px" y="0px"
	 viewBox="0 0 50 50" style="enable-background:new 0 0 50 50;" xml:space="preserve">
<path d="M24.999,9c-8.822,0-16,7.178-16,16c0,0.186-0.065,0.351-0.153,0.5c0.089,0.149,0.153,0.314,0.153,0.5
	c0,0.623,0.037,1.257,0.109,1.883c0.064,0.549-0.329,1.045-0.878,1.108c-0.039,0.005-0.078,0.007-0.117,0.007
	c-0.5,0-0.933-0.375-0.992-0.885C7.041,27.411,6.999,26.7,6.999,26c0-0.186,0.065-0.351,0.153-0.5
	c-0.089-0.149-0.153-0.314-0.153-0.5c0-9.925,8.075-18,18-18c5.088,0,9.961,2.167,13.369,5.946c0.217,0.24,0.428,0.487,0.632,0.74V7
	c0-0.552,0.447-1,1-1s1,0.448,1,1v10l-10-0.001c-0.553,0-1-0.448-1-1s0.448-1,1-1l6.49,0c-0.196-0.244-0.398-0.482-0.606-0.714
	C33.854,10.927,29.521,9,24.999,9z M18.988,40.833c-1.317-0.534-2.562-1.245-3.697-2.113c-0.441-0.335-1.067-0.25-1.402,0.188
	c-0.335,0.439-0.251,1.066,0.187,1.402c1.278,0.976,2.678,1.776,4.161,2.377c0.123,0.05,0.25,0.073,0.375,0.073
	c0.396,0,0.77-0.235,0.927-0.624C19.747,41.623,19.5,41.04,18.988,40.833z M10.166,32.011c-0.208-0.512-0.79-0.759-1.302-0.551
	c-0.512,0.207-0.759,0.791-0.551,1.303c0.602,1.483,1.401,2.883,2.377,4.159c0.197,0.258,0.494,0.393,0.795,0.393
	c0.212,0,0.426-0.067,0.607-0.206c0.438-0.335,0.522-0.963,0.187-1.401C11.411,34.572,10.7,33.329,10.166,32.011z M41.999,25
	c-0.553,0-1,0.447-1,1c0,0.317-0.009,0.632-0.026,0.944c-0.031,0.551,0.391,1.023,0.942,1.054C41.934,27.999,41.953,28,41.972,28
	c0.526,0,0.968-0.412,0.997-0.944c0.02-0.35,0.03-0.701,0.03-1.056C42.999,25.447,42.552,25,41.999,25z M41.44,30.453
	c-0.522-0.174-1.09,0.106-1.266,0.631c-0.223,0.663-0.492,1.32-0.802,1.952c-0.242,0.495-0.037,1.095,0.459,1.338
	c0.142,0.069,0.291,0.102,0.438,0.102c0.37,0,0.726-0.206,0.899-0.561c0.348-0.71,0.651-1.449,0.901-2.196
	C42.247,31.195,41.965,30.629,41.44,30.453z M32.036,40.374c-0.632,0.311-1.288,0.579-1.951,0.801
	c-0.523,0.174-0.807,0.74-0.632,1.265c0.14,0.419,0.529,0.684,0.948,0.684c0.104,0,0.211-0.017,0.316-0.052
	c0.748-0.249,1.487-0.553,2.199-0.902c0.496-0.243,0.7-0.843,0.457-1.338C33.131,40.335,32.532,40.131,32.036,40.374z
	 M37.035,36.542c-0.463,0.528-0.965,1.03-1.493,1.493c-0.415,0.364-0.457,0.996-0.093,1.411c0.197,0.226,0.475,0.341,0.752,0.341
	c0.234,0,0.47-0.082,0.659-0.248c0.594-0.521,1.158-1.085,1.679-1.679c0.364-0.415,0.322-1.047-0.093-1.411
	C38.033,36.087,37.399,36.125,37.035,36.542z M25.938,41.973C25.627,41.992,25.313,42,24.999,42c-0.631,0-1.264-0.037-1.881-0.109
	c-0.543-0.065-1.045,0.327-1.11,0.876c-0.064,0.549,0.328,1.046,0.876,1.11C23.579,43.959,24.29,44,24.999,44
	c0.355,0,0.71-0.01,1.062-0.031c0.552-0.034,0.971-0.509,0.937-1.06S26.484,41.949,25.938,41.973z"/>
</svg>
