<?xml version="1.0" encoding="utf-8"?>
<!-- Generator: Adobe Illustrator 17.0.2, SVG Export Plug-In . SVG Version: 6.00 Build 0)  -->
<!DOCTYPE svg PUBLIC "-//W3C//DTD SVG 1.0//EN" "http://www.w3.org/TR/2001/REC-SVG-20010904/DTD/svg10.dtd">
<svg version="1.0" id="Layer_1" xmlns="http://www.w3.org/2000/svg" xmlns:xlink="http://www.w3.org/1999/xlink" x="0px" y="0px"
	 width="50px" height="50px" viewBox="0 0 50 50" style="enable-background:new 0 0 50 50;" xml:space="preserve">
<g>
	<path d="M47,0H3C1.346,0,0,1.346,0,3v44c0,1.654,1.346,3,3,3h44c1.654,0,3-1.346,3-3V3C50,1.346,48.654,0,47,0z M48,47
		c0,0.552-0.448,1-1,1H3c-0.551,0-1-0.448-1-1V3c0-0.551,0.449-1,1-1h44c0.552,0,1,0.449,1,1V47z"/>
	<path d="M13,32c-2.757,0-5,2.243-5,5s2.243,5,5,5s5-2.243,5-5S15.757,32,13,32z M13,40c-1.654,0-3-1.346-3-3s1.346-3,3-3
		s3,1.346,3,3S14.654,40,13,40z"/>
	<path d="M13,8c-1.364,0-2.757,0.1-4.141,0.297C8.312,8.375,7.932,8.881,8.01,9.428c0.078,0.547,0.587,0.918,1.131,0.849
		C10.432,10.093,11.73,10,13,10c14.888,0,27,12.112,27,27c0,1.271-0.094,2.568-0.279,3.858c-0.078,0.546,0.302,1.053,0.849,1.132
		c0.048,0.007,0.096,0.01,0.143,0.01c0.489,0,0.917-0.359,0.989-0.858C41.899,39.759,42,38.365,42,37C42,21.009,28.99,8,13,8z"/>
	<path d="M13,21c-1.411,0-2.846,0.198-4.266,0.589c-0.532,0.147-0.845,0.697-0.698,1.23c0.146,0.532,0.695,0.846,1.229,0.699
		C10.512,23.174,11.769,23,13,23c7.72,0,14,6.28,14,14c0,1.229-0.175,2.485-0.52,3.733c-0.147,0.533,0.165,1.083,0.697,1.23
		C27.268,41.988,27.356,42,27.445,42c0.438,0,0.841-0.29,0.963-0.733C28.801,39.845,29,38.409,29,37C29,28.178,21.822,21,13,21z"/>
</g>
</svg>
