<?xml version="1.0" encoding="utf-8"?>
<!-- Generator: Adobe Illustrator 17.0.2, SVG Export Plug-In . SVG Version: 6.00 Build 0)  -->
<!DOCTYPE svg PUBLIC "-//W3C//DTD SVG 1.0//EN" "http://www.w3.org/TR/2001/REC-SVG-20010904/DTD/svg10.dtd">
<svg version="1.0" id="Layer_1" xmlns="http://www.w3.org/2000/svg" xmlns:xlink="http://www.w3.org/1999/xlink" x="0px" y="0px"
	 width="50px" height="50px" viewBox="0 0 50 50" style="enable-background:new 0 0 50 50;" xml:space="preserve">
<path d="M35.707,34.293c0.391,0.391,0.391,1.023,0,1.414C35.512,35.902,35.256,36,35,36s-0.512-0.098-0.707-0.293
	C34.257,35.672,30.49,32,25,32c-5.522,0-9.256,3.67-9.293,3.707c-0.391,0.391-1.023,0.391-1.414,0s-0.391-1.023,0-1.414
	C14.468,34.117,18.659,30,25,30C31.341,30,35.532,34.117,35.707,34.293z M49,25c0,13.233-10.767,24-24,24S1,38.233,1,25
	S11.767,1,25,1S49,11.767,49,25z M47,25c0-12.131-9.869-22-22-22S3,12.869,3,25s9.869,22,22,22S47,37.131,47,25z M33,19
	c-1.657,0-3,1.343-3,3s1.343,3,3,3s3-1.343,3-3S34.657,19,33,19z M17,25c1.657,0,3-1.343,3-3s-1.343-3-3-3c-1.657,0-3,1.343-3,3
	S15.343,25,17,25z"/>
</svg>
