<?xml version="1.0" encoding="utf-8"?>
<!-- Generator: Adobe Illustrator 17.1.0, SVG Export Plug-In . SVG Version: 6.00 Build 0)  -->
<!DOCTYPE svg PUBLIC "-//W3C//DTD SVG 1.0//EN" "http://www.w3.org/TR/2001/REC-SVG-20010904/DTD/svg10.dtd">
<svg version="1.0" id="Layer_1" xmlns="http://www.w3.org/2000/svg" xmlns:xlink="http://www.w3.org/1999/xlink" x="0px" y="0px"
	 viewBox="0 0 50 50" style="enable-background:new 0 0 50 50;" xml:space="preserve">
<path d="M48,41h2v9h-9v-2h7V41z M41,0v2h7v7h2V0H41z M48,37h2V27h-2V37z M48,23h2V13h-2V23z M2,41H0v9h9v-2H2V41z M0,9h2V2h7V0H0V9z
	 M2,13H0v10h2V13z M2,27H0v10h2V27z M35,20H11v2h24V20z M27,50h10v-2H27V50z M37,0H27v2h10V0z M23,0H13v2h10V0z M13,50h10v-2H13V50z
	 M11,14h28v-2H11V14z M35,36H11v2h24V36z M11,30h28v-2H11V30z"/>
</svg>
