<?xml version="1.0" encoding="utf-8"?>
<!-- Generator: Adobe Illustrator 17.0.2, SVG Export Plug-In . SVG Version: 6.00 Build 0)  -->
<!DOCTYPE svg PUBLIC "-//W3C//DTD SVG 1.0//EN" "http://www.w3.org/TR/2001/REC-SVG-20010904/DTD/svg10.dtd">
<svg version="1.0" id="Layer_1" xmlns="http://www.w3.org/2000/svg" xmlns:xlink="http://www.w3.org/1999/xlink" x="0px" y="0px"
	 width="50px" height="50px" viewBox="0 0 50 50" style="enable-background:new 0 0 50 50;" xml:space="preserve">
<path d="M45.707,4.293c-0.29-0.29-0.727-0.374-1.103-0.211l-40,17.201c-0.357,0.153-0.593,0.5-0.604,0.89s0.204,0.749,0.552,0.923
	l14.897,7.448l7.46,14.903C27.08,45.787,27.427,46,27.805,46c0.01,0,0.02,0,0.029,0c0.389-0.012,0.735-0.248,0.89-0.605l17.195-40
	C46.08,5.019,45.996,4.582,45.707,4.293z M7.373,22.27L40.608,7.977L20.001,28.584L7.373,22.27z M27.735,42.628L21.414,30
	l20.61-20.611L27.735,42.628z"/>
</svg>
