<?xml version="1.0" encoding="utf-8"?>
<!-- Generator: Adobe Illustrator 17.0.2, SVG Export Plug-In . SVG Version: 6.00 Build 0)  -->
<!DOCTYPE svg PUBLIC "-//W3C//DTD SVG 1.0//EN" "http://www.w3.org/TR/2001/REC-SVG-20010904/DTD/svg10.dtd">
<svg version="1.0" id="Layer_1" xmlns="http://www.w3.org/2000/svg" xmlns:xlink="http://www.w3.org/1999/xlink" x="0px" y="0px"
	 width="50px" height="50px" viewBox="0 0 50 50" style="enable-background:new 0 0 50 50;" xml:space="preserve">
<path d="M49.544,10.016c-0.226-0.227-0.528-0.353-0.853-0.353c-0.518,0-0.935,0.319-1.136,0.499l-6.508,6.547
	c-0.132,0.024-0.441,0.063-1.073,0.063c-2.218,0-5.304-0.432-6.035-0.759c-0.503-1.061-0.922-6.032-0.585-7.011l6.619-6.618
	c0.171-0.192,0.705-0.877,0.376-1.616c-0.127-0.283-0.476-0.758-1.394-0.761l-0.423,0c-4.227,0-10.216,0.37-13.409,3.567
	l-0.669,0.666c-3.922,3.947-4.432,9.836-1.552,14.323L2.372,37.345c-1.994,1.996-3.756,6.563,0,10.322
	c1.73,1.73,3.546,2.196,4.998,2.196c0.372,0,0.72-0.031,1.037-0.078c1.883-0.283,3.448-1.28,4.323-2.159
	c6.265-7.11,16.286-18.321,18.625-20.549C33.233,28.326,35.415,29,37.687,29c3.03,0,5.904-1.207,8.093-3.398l0.658-0.661
	c3.475-3.472,3.502-10.659,3.514-13.724C49.955,10.689,49.822,10.296,49.544,10.016z M11.419,46.396
	c-0.605,0.606-1.828,1.392-3.28,1.61c-1.661,0.246-3.176-0.291-4.495-1.61c-3.172-3.174-1.008-6.77-0.029-7.751l20.381-18.646
	c0.165,0.188,0.325,0.378,0.504,0.558l5.001,5.001c0.152,0.153,0.316,0.289,0.475,0.433C27.961,27.822,23.302,32.908,11.419,46.396z
	 M45.092,23.597l-0.659,0.662c-1.829,1.832-4.225,2.84-6.746,2.84c-2.558,0-4.985-1.024-6.839-2.884l-5.002-5.001
	c-3.812-3.833-3.831-9.822-0.045-13.632l0.667-0.664C29.184,2.2,35.004,1.936,37.759,1.91l-5.824,5.822
	c-1.152,1.156-0.424,8.566,0.65,9.643c1.064,1.059,6.443,1.299,7.39,1.299c1.496,0,1.987-0.191,2.299-0.501l5.766-5.793
	C47.99,15.582,47.662,21.028,45.092,23.597z"/>
</svg>
