<?xml version="1.0" encoding="utf-8"?>
<!-- Generator: Adobe Illustrator 17.0.2, SVG Export Plug-In . SVG Version: 6.00 Build 0)  -->
<!DOCTYPE svg PUBLIC "-//W3C//DTD SVG 1.0//EN" "http://www.w3.org/TR/2001/REC-SVG-20010904/DTD/svg10.dtd">
<svg version="1.0" id="Layer_1" xmlns="http://www.w3.org/2000/svg" xmlns:xlink="http://www.w3.org/1999/xlink" x="0px" y="0px"
	 width="50px" height="50.002px" viewBox="0 0 50 50.002" style="enable-background:new 0 0 50 50.002;" xml:space="preserve">
<path d="M32.161,30.547l-3.982-0.649c-0.225-0.732-0.519-1.44-0.877-2.118l2.325-3.315c0.279-0.397,0.232-0.938-0.111-1.281
	l-2.739-2.739c-0.346-0.347-0.893-0.39-1.291-0.105l-3.262,2.345c-0.682-0.363-1.397-0.661-2.137-0.888l-0.695-3.967
	c-0.083-0.479-0.499-0.828-0.985-0.828h-3.875c-0.49,0-0.908,0.355-0.987,0.839l-0.644,3.942c-0.744,0.226-1.459,0.52-2.138,0.879
	l-3.253-2.324c-0.399-0.285-0.942-0.239-1.289,0.106l-2.74,2.739c-0.343,0.343-0.391,0.883-0.112,1.28l2.291,3.276
	c-0.367,0.689-0.667,1.411-0.897,2.157l-3.927,0.652C0.354,30.628,0,31.045,0,31.534v3.875c0,0.485,0.348,0.9,0.826,0.984
	l3.928,0.696c0.229,0.745,0.529,1.468,0.897,2.157l-2.317,3.24c-0.284,0.398-0.239,0.943,0.106,1.289l2.739,2.742
	c0.343,0.343,0.883,0.392,1.281,0.112l3.282-2.299c0.686,0.363,1.404,0.66,2.146,0.887l0.658,3.947
	c0.08,0.482,0.498,0.836,0.986,0.836h3.875c0.485,0,0.9-0.348,0.985-0.825l0.704-3.972c0.743-0.23,1.458-0.529,2.138-0.894
	l3.305,2.319c0.396,0.28,0.938,0.233,1.281-0.111l2.739-2.742c0.347-0.347,0.391-0.894,0.104-1.291l-2.356-3.272
	c0.358-0.679,0.651-1.388,0.875-2.12l3.991-0.699c0.479-0.084,0.827-0.5,0.827-0.985v-3.875C33,31.044,32.645,30.626,32.161,30.547z
	 M31,34.569l-3.786,0.663c-0.39,0.068-0.703,0.361-0.798,0.745c-0.243,0.981-0.63,1.919-1.151,2.787
	c-0.206,0.343-0.188,0.774,0.046,1.099l2.232,3.102l-1.544,1.546l-3.136-2.201c-0.326-0.229-0.755-0.241-1.095-0.035
	c-0.861,0.524-1.801,0.918-2.793,1.169c-0.381,0.097-0.67,0.408-0.739,0.795l-0.667,3.764h-2.189l-0.623-3.741
	c-0.065-0.395-0.359-0.711-0.747-0.807c-0.99-0.244-1.936-0.635-2.81-1.16c-0.339-0.203-0.765-0.188-1.089,0.038L7,44.511
	l-1.547-1.549l2.196-3.071c0.232-0.325,0.249-0.758,0.042-1.101c-0.532-0.877-0.926-1.825-1.172-2.815
	c-0.095-0.384-0.407-0.676-0.796-0.744L2,34.57v-2.188l3.719-0.618c0.393-0.065,0.709-0.357,0.806-0.744
	c0.248-0.992,0.643-1.941,1.173-2.821c0.204-0.339,0.189-0.766-0.037-1.09l-2.172-3.105l1.548-1.547l3.082,2.202
	c0.325,0.233,0.757,0.25,1.098,0.043c0.863-0.52,1.808-0.908,2.807-1.153c0.389-0.095,0.684-0.415,0.749-0.81l0.61-3.736h2.185
	l0.659,3.761c0.068,0.39,0.359,0.702,0.743,0.798c0.988,0.247,1.931,0.639,2.8,1.166c0.342,0.208,0.776,0.191,1.102-0.043
	l3.092-2.223l1.545,1.544l-2.205,3.143c-0.228,0.323-0.242,0.75-0.039,1.089c0.521,0.869,0.909,1.807,1.153,2.788
	c0.097,0.388,0.415,0.681,0.81,0.745L31,32.384V34.569z M16.5,27.333c-3.4,0-6.167,2.767-6.167,6.167s2.767,6.167,6.167,6.167
	s6.167-2.767,6.167-6.167S19.9,27.333,16.5,27.333z M16.5,37.667c-2.298,0-4.167-1.869-4.167-4.167s1.869-4.167,4.167-4.167
	s4.167,1.869,4.167,4.167S18.798,37.667,16.5,37.667z M38.96,8.244c-0.613-0.25-1.259-0.376-1.916-0.376
	c-2.082,0-3.935,1.246-4.719,3.175c-1.057,2.601,0.199,5.577,2.799,6.634c0.613,0.25,1.258,0.376,1.916,0.376
	c2.083,0,3.936-1.246,4.719-3.175C42.815,12.277,41.56,9.301,38.96,8.244z M39.905,14.125c-0.476,1.171-1.601,1.928-2.865,1.928
	c-0.398,0-0.789-0.077-1.162-0.229c-1.579-0.642-2.341-2.449-1.699-4.028c0.476-1.171,1.601-1.928,2.865-1.928
	c0.398,0,0.789,0.077,1.162,0.229C39.785,10.738,40.548,12.545,39.905,14.125z M49.521,15.286l-2.617-1.598
	c0.039-0.532,0.035-1.066-0.012-1.598l2.59-1.67c0.408-0.263,0.568-0.782,0.379-1.229l-1.193-2.827
	c-0.189-0.451-0.673-0.698-1.156-0.583l-2.968,0.718c-0.351-0.409-0.734-0.789-1.148-1.136l0.647-2.996
	c0.103-0.475-0.151-0.955-0.602-1.138l-2.844-1.155c-0.453-0.185-0.975-0.013-1.229,0.406l-1.581,2.59
	c-0.538-0.043-1.077-0.04-1.611,0.006l-1.626-2.567c-0.261-0.413-0.785-0.575-1.233-0.387l-2.827,1.192
	c-0.447,0.188-0.694,0.671-0.586,1.144l0.676,2.963c-0.414,0.354-0.799,0.742-1.149,1.161l-2.951-0.663
	c-0.481-0.108-0.962,0.146-1.146,0.599l-1.156,2.843c-0.183,0.45-0.017,0.965,0.394,1.224l2.568,1.615
	c-0.041,0.544-0.037,1.091,0.012,1.634l-2.558,1.618c-0.413,0.261-0.577,0.783-0.387,1.233l1.192,2.829
	c0.188,0.447,0.669,0.697,1.145,0.586l2.971-0.679c0.353,0.411,0.739,0.792,1.156,1.139L30,23.525
	c-0.107,0.477,0.146,0.962,0.599,1.146l2.844,1.156c0.123,0.05,0.251,0.074,0.377,0.074c0.335,0,0.658-0.17,0.847-0.468l1.634-2.598
	c0.545,0.04,1.084,0.034,1.62-0.016l1.663,2.58c0.265,0.408,0.783,0.565,1.229,0.38l2.828-1.194
	c0.452-0.191,0.698-0.681,0.583-1.157l-0.723-2.979c0.405-0.349,0.78-0.73,1.122-1.139l3.01,0.648
	c0.482,0.101,0.954-0.152,1.138-0.601l1.156-2.843C50.111,16.062,49.939,15.541,49.521,15.286z M47.233,17.828l-2.802-0.604
	c-0.387-0.084-0.786,0.069-1.02,0.39c-0.458,0.63-1.007,1.188-1.633,1.657c-0.319,0.24-0.466,0.647-0.371,1.036l0.672,2.769
	l-1.271,0.537l-1.549-2.404c-0.216-0.334-0.604-0.51-1.002-0.445c-0.76,0.125-1.555,0.133-2.335,0.024
	c-0.388-0.053-0.775,0.125-0.984,0.458l-1.52,2.415l-1.281-0.521l0.62-2.758c0.088-0.39-0.064-0.794-0.388-1.029
	c-0.64-0.464-1.201-1.018-1.671-1.645c-0.237-0.317-0.64-0.465-1.023-0.375l-2.762,0.631l-0.537-1.275l2.377-1.504
	c0.338-0.214,0.517-0.608,0.453-1.003c-0.124-0.779-0.13-1.571-0.018-2.354c0.056-0.391-0.124-0.778-0.458-0.988l-2.388-1.501
	l0.521-1.281l2.74,0.616c0.387,0.086,0.792-0.064,1.026-0.385c0.469-0.64,1.026-1.204,1.659-1.676
	c0.316-0.237,0.464-0.638,0.376-1.024L32.038,2.83l1.274-0.537l1.51,2.385c0.212,0.336,0.599,0.516,0.999,0.453
	c0.766-0.119,1.562-0.123,2.343-0.009c0.392,0.06,0.789-0.126,0.998-0.468l1.47-2.408l1.277,0.519l-0.602,2.786
	c-0.083,0.386,0.068,0.785,0.388,1.018c0.636,0.465,1.195,1.019,1.663,1.647c0.239,0.322,0.647,0.468,1.037,0.375l2.76-0.667
	l0.536,1.27l-2.409,1.554c-0.332,0.214-0.507,0.604-0.446,0.994c0.12,0.771,0.125,1.555,0.015,2.328
	c-0.057,0.396,0.128,0.787,0.47,0.995l2.433,1.485L47.233,17.828z"/>
</svg>
