<?xml version="1.0" encoding="utf-8"?>
<!-- Generator: Adobe Illustrator 17.0.2, SVG Export Plug-In . SVG Version: 6.00 Build 0)  -->
<!DOCTYPE svg PUBLIC "-//W3C//DTD SVG 1.0//EN" "http://www.w3.org/TR/2001/REC-SVG-20010904/DTD/svg10.dtd">
<svg version="1.0" id="Layer_1" xmlns="http://www.w3.org/2000/svg" xmlns:xlink="http://www.w3.org/1999/xlink" x="0px" y="0px"
	 width="50px" height="50px" viewBox="0 0 50 50" style="enable-background:new 0 0 50 50;" xml:space="preserve">
<path d="M47.393,24.804c-1.428-1.428-3.255-2.311-5.265-2.542c0.01-0.194,0.015-0.381,0.015-0.566c0-7.251-5.898-13.15-13.149-13.15
	c-5.009,0-9.584,2.896-11.78,7.332c-1.135-0.751-2.465-1.155-3.857-1.155c-3.704,0-6.746,2.887-6.993,6.528
	C2.581,22.629,0,26.259,0,30.331C0,35.662,4.338,40,9.67,40h31.428C46.007,40,50,36.007,50,31.099
	C50,28.721,49.074,26.485,47.393,24.804z M41.098,38H9.67C5.441,38,2,34.56,2,30.331c0-3.433,2.313-6.47,5.626-7.385l0.76-0.21
	l-0.04-1.004c0-2.761,2.247-5.008,5.009-5.008c1.338,0,2.597,0.522,3.543,1.47l1.104,1.105l0.542-1.465
	c1.613-4.359,5.812-7.288,10.448-7.288c6.147,0,11.149,5.002,11.149,11.15c0,0.414-0.03,0.853-0.095,1.383l-0.08,1.118h1.13
	c3.806,0,6.902,3.096,6.902,6.902S44.903,38,41.098,38z"/>
</svg>
