<?xml version="1.0" encoding="utf-8"?>
<!-- Generator: Adobe Illustrator 17.0.2, SVG Export Plug-In . SVG Version: 6.00 Build 0)  -->
<!DOCTYPE svg PUBLIC "-//W3C//DTD SVG 1.0//EN" "http://www.w3.org/TR/2001/REC-SVG-20010904/DTD/svg10.dtd">
<svg version="1.0" id="Layer_1" xmlns="http://www.w3.org/2000/svg" xmlns:xlink="http://www.w3.org/1999/xlink" x="0px" y="0px"
	 width="50px" height="50px" viewBox="0 0 50 50" style="enable-background:new 0 0 50 50;" xml:space="preserve">
<path d="M40,30c-2.133,0-4.112,0.671-5.737,1.813L20.636,25l13.626-6.813C35.888,19.329,37.867,20,40,20c5.514,0,10-4.486,10-10
	S45.514,0,40,0c-5.475,0-9.936,4.422-9.999,9.882l-14.1,7.049C14.246,15.717,12.206,15,10,15C4.486,15,0,19.486,0,25
	c0,5.514,4.486,10,10,10c2.205,0,4.246-0.718,5.901-1.931l14.1,7.049C30.064,45.578,34.525,50,40,50c5.514,0,10-4.486,10-10
	S45.514,30,40,30z M40,2c4.411,0,8,3.589,8,8s-3.589,8-8,8c-1.802,0-3.467-0.599-4.806-1.608c-0.1-0.131-0.229-0.233-0.373-0.299
	C33.096,14.624,32,12.438,32,10C32,5.589,35.589,2,40,2z M30.204,12.016c0.371,1.807,1.231,3.437,2.436,4.746l-12.808,6.404
	c-0.338-1.816-1.168-3.461-2.347-4.791L30.204,12.016z M10,33c-4.411,0-8-3.589-8-8s3.589-8,8-8s8,3.589,8,8S14.411,33,10,33z
	 M17.485,31.625c1.178-1.33,2.009-2.976,2.347-4.791l12.808,6.403c-1.204,1.31-2.064,2.94-2.436,4.747L17.485,31.625z M40,48
	c-4.411,0-8-3.589-8-8c0-2.438,1.096-4.624,2.821-6.093c0.144-0.066,0.273-0.168,0.373-0.3C36.533,32.599,38.198,32,40,32
	c4.411,0,8,3.589,8,8S44.411,48,40,48z"/>
</svg>
