<?xml version="1.0" encoding="utf-8"?>
<!-- Generator: Adobe Illustrator 17.0.2, SVG Export Plug-In . SVG Version: 6.00 Build 0)  -->
<!DOCTYPE svg PUBLIC "-//W3C//DTD SVG 1.0//EN" "http://www.w3.org/TR/2001/REC-SVG-20010904/DTD/svg10.dtd">
<svg version="1.0" id="Layer_1" xmlns="http://www.w3.org/2000/svg" xmlns:xlink="http://www.w3.org/1999/xlink" x="0px" y="0px"
	 width="50px" height="50px" viewBox="0 0 50 50" style="enable-background:new 0 0 50 50;" xml:space="preserve">
<path d="M42.893,13H35v-2c0-5.514-4.486-10-10-10c-5.514,0-10,4.486-10,10v2H7.108L2.879,50h44.242L42.893,13z M17,11
	c0-4.411,3.589-8,8-8s8,3.589,8,8v2H17V11z M8.892,15H15v2.277c-0.595,0.346-1,0.984-1,1.723c0,1.105,0.895,2,2,2
	c1.105,0,2-0.895,2-2c0-0.739-0.405-1.377-1-1.723V15h16v2.277c-0.595,0.346-1,0.984-1,1.723c0,1.105,0.895,2,2,2
	c1.105,0,2-0.895,2-2c0-0.739-0.405-1.377-1-1.723V15h6.107l3.771,33H5.121L8.892,15z"/>
</svg>
