<?xml version="1.0" encoding="utf-8"?>
<!-- Generator: Adobe Illustrator 17.1.0, SVG Export Plug-In . SVG Version: 6.00 Build 0)  -->
<!DOCTYPE svg PUBLIC "-//W3C//DTD SVG 1.0//EN" "http://www.w3.org/TR/2001/REC-SVG-20010904/DTD/svg10.dtd">
<svg version="1.0" id="Layer_1" xmlns="http://www.w3.org/2000/svg" xmlns:xlink="http://www.w3.org/1999/xlink" x="0px" y="0px"
	 viewBox="0 0 50 50.002" style="enable-background:new 0 0 50 50.002;" xml:space="preserve">
<path d="M2.1,28.791c0,2.069,1.406,2.818,3.721,3.808C7.686,33.395,9.8,34.298,9.8,36.7c0,1.541-1.354,2.941-2.787,4.424
	C5.601,42.585,4,44.241,4,45.8c0,0.506,0.155,0.89,0.487,1.211c0.915,0.883,2.89,1,3.576,0.99c0.561-0.036,1.015,0.411,1.036,0.962
	c0.021,0.551-0.408,1.015-0.959,1.036c-0.042,0.002-0.125,0.004-0.242,0.004c-0.823,0-3.312-0.124-4.794-1.549
	C2.381,47.761,2,46.843,2,45.8c0-2.368,1.899-4.333,3.575-6.066C6.618,38.655,7.8,37.433,7.8,36.7c0-0.979-0.842-1.441-2.765-2.263
	C2.953,33.548,0.1,32.33,0.1,28.8C-0.003,16.798,24.417,0.834,25.456,0.161c0.464-0.3,1.083-0.168,1.383,0.295
	c0.301,0.463,0.168,1.083-0.295,1.383C26.299,1.998,2.006,17.872,2.1,28.791z M18.994,46.894l-2.888-2.888l26.402-26.501
	l-1.416-1.411l-26.7,26.799c-0.138,0.139-0.232,0.314-0.271,0.507l-1.1,5.4c-0.067,0.328,0.036,0.669,0.273,0.906
	C13.482,49.896,13.737,50,14,50c0.066,0,0.133-0.007,0.2-0.021l5.4-1.1c0.191-0.039,0.368-0.133,0.506-0.271l26.801-26.7
	l-1.412-1.417L18.994,46.894z M48.8,14.2c-1.6-1.6-4.2-1.6-5.8,0l-0.7,0.7l5.8,5.8l0.7-0.7C50.4,18.4,50.4,15.8,48.8,14.2z"/>
</svg>
