<?xml version="1.0" encoding="utf-8"?>
<!-- Generator: Adobe Illustrator 17.0.2, SVG Export Plug-In . SVG Version: 6.00 Build 0)  -->
<!DOCTYPE svg PUBLIC "-//W3C//DTD SVG 1.0//EN" "http://www.w3.org/TR/2001/REC-SVG-20010904/DTD/svg10.dtd">
<svg version="1.0" id="Layer_1" xmlns="http://www.w3.org/2000/svg" xmlns:xlink="http://www.w3.org/1999/xlink" x="0px" y="0px"
	 width="50px" height="50px" viewBox="0 0 50 50" style="enable-background:new 0 0 50 50;" xml:space="preserve">
<g>
	<path d="M49.847,15.368c-0.141-0.225-0.365-0.384-0.624-0.443l-4.796-1.093l0.759-4.463c0.093-0.543-0.271-1.059-0.814-1.153
		L36,6.759V1c0-0.552-0.447-1-1-1H1C0.448,0,0,0.448,0,1v34c0,0.553,0.448,1,1,1h3.139l-0.127,0.852
		c-0.081,0.539,0.284,1.043,0.821,1.134l3.07,0.522l-0.58,2.682c-0.116,0.534,0.22,1.063,0.754,1.186l33.101,7.6
		C41.252,49.992,41.327,50,41.401,50c0.455,0,0.867-0.313,0.974-0.776l7.6-33.1C50.034,15.865,49.988,15.593,49.847,15.368z
		 M36,12.864l2.441,0.372L36,27.448V12.864z M2,34V2h32v32H2z M6.134,36.179L6.161,36H34.93l0.63,0.09
		c0.538,0.079,1.035-0.287,1.126-0.821l3.899-22.699c0.046-0.265-0.018-0.537-0.174-0.754c-0.157-0.218-0.396-0.363-0.661-0.404
		L36,10.841V8.789l7.047,1.226l-5.365,31.532L6.134,36.179z M40.649,47.802L9.486,40.646l0.39-1.803l28.456,4.842
		c0.544,0.097,1.062-0.273,1.153-0.817l0.12-0.706c0.238-0.14,0.408-0.371,0.469-0.641l5.101-22.399
		c0.121-0.531-0.204-1.061-0.732-1.192l-0.685-0.171l0.333-1.953l3.71,0.846L40.649,47.802z"/>
	<path d="M31,4H5C4.448,4,4,4.448,4,5v23c0,0.553,0.448,1,1,1h26c0.553,0,1-0.447,1-1V5C32,4.448,31.553,4,31,4z M16.225,18.354
		c-0.151-0.134-0.559-0.845-0.63-1.554c-0.041-0.405-0.319-0.734-0.689-0.853c-0.035-0.059-0.085-0.17-0.106-0.348
		c0-0.102,0.009-0.171,0.018-0.213c0.308-0.241,0.452-0.646,0.351-1.036c-0.515-2.003-0.453-3.503,0.18-4.34
		C15.833,9.371,16.733,9.03,18,9c0.758,0,1.215,0.212,1.3,0.3c0.162,0.216,0.404,0.357,0.672,0.392
		c0.623,0.081,0.863,0.351,0.99,0.548c0.55,0.855,0.3,2.609-0.118,3.966c-0.128,0.415,0.027,0.857,0.37,1.105
		c-0.004,0.041-0.009,0.09-0.009,0.09c-0.022,0.226-0.061,0.363-0.09,0.44c-0.38,0.113-0.669,0.446-0.71,0.859
		c-0.067,0.673-0.556,1.458-0.66,1.568C19.467,18.454,19.3,18.766,19.3,19.1c0,0.218-0.011,0.415-0.021,0.608
		c-0.023,0.441-0.048,0.898,0.029,1.515c0.011,0.088,0.033,0.173,0.067,0.255c0.524,1.281,1.906,1.821,3.243,2.343
		c2.023,0.79,3.26,1.396,3.386,3.15c0.001,0.01,0.007,0.018,0.008,0.028H10.009c0.155-1.685,1.387-2.29,3.392-3.069
		c1.356-0.527,2.76-1.073,3.239-2.389c0.04-0.109,0.06-0.225,0.06-0.342v-2C16.7,18.821,16.564,18.524,16.225,18.354z M30,27h-2.025
		c0.006-0.058,0.026-0.111,0.022-0.171c-0.224-3.141-2.783-4.141-4.653-4.871c-0.881-0.344-1.79-0.699-2.069-1.142
		c-0.033-0.365-0.017-0.663,0.001-1.002c0.005-0.099,0.01-0.199,0.015-0.301c0.397-0.486,0.792-1.241,0.99-1.996
		c0.401-0.273,0.802-0.808,0.906-1.854c0.101-0.604-0.034-1.089-0.267-1.448c0.374-1.438,0.673-3.583-0.276-5.058
		c-0.462-0.718-1.169-1.193-2.059-1.387C20.003,7.282,19.073,7,17.978,7c0,0-0.001,0-0.001,0c-1.932,0.046-3.353,0.653-4.223,1.804
		c-0.961,1.271-1.177,3.13-0.644,5.534c-0.174,0.306-0.307,0.742-0.305,1.361c0.089,0.886,0.449,1.513,0.896,1.865
		c0.175,0.755,0.541,1.562,1,2.082v1.329c-0.274,0.412-1.163,0.757-2.023,1.092c-1.878,0.73-4.451,1.73-4.674,4.861
		C8.001,26.954,8.012,26.975,8.012,27H6V6h24V27z"/>
</g>
</svg>
