<?xml version="1.0" encoding="utf-8"?>
<!-- Generator: Adobe Illustrator 17.0.2, SVG Export Plug-In . SVG Version: 6.00 Build 0)  -->
<!DOCTYPE svg PUBLIC "-//W3C//DTD SVG 1.0//EN" "http://www.w3.org/TR/2001/REC-SVG-20010904/DTD/svg10.dtd">
<svg version="1.0" id="Layer_1" xmlns="http://www.w3.org/2000/svg" xmlns:xlink="http://www.w3.org/1999/xlink" x="0px" y="0px"
	 width="50px" height="50px" viewBox="0 0 50 50" style="enable-background:new 0 0 50 50;" xml:space="preserve">
<g>
	<path d="M15,25h8v-8h-8V25z M17,19h4v4h-4V19z"/>
	<rect x="26" y="20" width="9" height="2"/>
	<path d="M15,38h8v-8h-8V38z M17,32h4v4h-4V32z"/>
	<rect x="18" y="33" width="2" height="2"/>
	<path d="M44.896,4.999c0.073-0.731-0.183-1.479-0.7-2.051C43.649,2.346,42.886,2,42.1,2H34V1c0-0.552-0.447-1-1-1H17
		c-0.552,0-1,0.448-1,1v1H7.9C6.355,2,5,3.355,5,4.9V47c0,1.626,1.328,3,2.9,3H42c1.6,0,2.9-1.301,2.9-2.9L44.896,4.999z M18,2h14v6
		H18V2z M33,10c0.553,0,1-0.448,1-1V8h5v36H11V8h5v1c0,0.552,0.448,1,1,1H33z M42.9,47.1c0,0.433-0.345,0.9-0.9,0.9H7.9
		C7.475,48,7,47.572,7,47V4.9C7,4.454,7.454,4,7.9,4H16v2H9v40h32V6h-7V4h8.1c0.219,0,0.448,0.108,0.612,0.29
		c0.082,0.091,0.217,0.278,0.188,0.61V47.1z"/>
	<rect x="26" y="33" width="9" height="2"/>
</g>
</svg>
