<?xml version="1.0" encoding="utf-8"?>
<!-- Generator: Adobe Illustrator 17.0.2, SVG Export Plug-In . SVG Version: 6.00 Build 0)  -->
<!DOCTYPE svg PUBLIC "-//W3C//DTD SVG 1.0//EN" "http://www.w3.org/TR/2001/REC-SVG-20010904/DTD/svg10.dtd">
<svg version="1.0" id="Layer_1" xmlns="http://www.w3.org/2000/svg" xmlns:xlink="http://www.w3.org/1999/xlink" x="0px" y="0px"
	 width="50px" height="50px" viewBox="0 0 50 50" style="enable-background:new 0 0 50 50;" xml:space="preserve">
<path d="M24.33,27.653l-8.742-7.771l1.329-1.495l7.153,6.358l8.761-11.151l1.573,1.236L24.33,27.653z M43,35c-1.104,0-2,0.895-2,2
	s0.896,2,2,2s2-0.895,2-2C45,35.895,44.104,35,43,35z M50,4v36c0,1.103-0.897,2-2,2H31v2h4.111C36.704,44,38,45.346,38,47v3H12v-3
	c0-1.654,1.296-3,2.889-3H19v-2H2c-1.103,0-2-0.897-2-2V4c0-1.103,0.897-2,2-2h46C49.103,2,50,2.897,50,4z M35.111,46H14.889
	C14.399,46,14,46.448,14,47v1h22v-1C36,46.448,35.602,46,35.111,46z M29,42h-8v2h8V42z M48.001,40L48.001,40L48,4H2v36H48.001L48,41
	L48.001,40z M46,8v24c0,1.103-0.897,2-2,2H6c-1.103,0-2-0.897-2-2V8c0-1.103,0.897-2,2-2h38C45.103,6,46,6.897,46,8z M6,8V7V8
	C6,8,6,8,6,8z M44,8L6.001,8L6,32h38V8z"/>
</svg>
