<?xml version="1.0" encoding="utf-8"?>
<!-- Generator: Adobe Illustrator 17.0.2, SVG Export Plug-In . SVG Version: 6.00 Build 0)  -->
<!DOCTYPE svg PUBLIC "-//W3C//DTD SVG 1.0//EN" "http://www.w3.org/TR/2001/REC-SVG-20010904/DTD/svg10.dtd">
<svg version="1.0" id="Layer_1" xmlns="http://www.w3.org/2000/svg" xmlns:xlink="http://www.w3.org/1999/xlink" x="0px" y="0px"
	 width="50px" height="50px" viewBox="0 0 50 50" style="enable-background:new 0 0 50 50;" xml:space="preserve">
<path d="M45,37c0,1.105-0.896,2-2,2s-2-0.895-2-2s0.896-2,2-2S45,35.895,45,37z M50,4v36c0,1.103-0.897,2-2,2H31v2h4.111
	C36.704,44,38,45.346,38,47v3H12v-3c0-1.794,1.161-3,2.889-3H19v-2H2c-1.103,0-2-0.897-2-2V4c0-1.103,0.897-2,2-2h46
	C49.103,2,50,2.897,50,4z M35.111,46H14.889C14.646,46,14,46,14,47v1h22v-1C36,46.448,35.602,46,35.111,46z M29,42h-8v2h8V42z
	 M48.001,40L48.001,40L48,4H2v36H48.001L48,41L48.001,40z M46,8v24c0,1.103-0.897,2-2,2H6c-1.103,0-2-0.897-2-2V8
	c0-1.103,0.897-2,2-2h38C45.103,6,46,6.897,46,8z M6,8V7V8C6,8,6,8,6,8z M44,8L6.001,8L6,32h38V8z M24.135,28.181h1.73
	c0.153,0,0.253-0.101,0.253-0.254v-1.856c0-0.152-0.1-0.254-0.253-0.254h-1.73c-0.153,0-0.255,0.102-0.255,0.254v1.856
	C23.88,28.079,23.983,28.181,24.135,28.181z M24.187,23.179h1.627c0.152,0,0.254-0.102,0.254-0.254V12.254
	c0-0.152-0.102-0.254-0.254-0.254h-1.627c-0.153,0-0.255,0.101-0.255,0.254v10.671C23.932,23.077,24.034,23.179,24.187,23.179z"/>
</svg>
