<?xml version="1.0" encoding="utf-8"?>
<!-- Generator: Adobe Illustrator 17.0.2, SVG Export Plug-In . SVG Version: 6.00 Build 0)  -->
<!DOCTYPE svg PUBLIC "-//W3C//DTD SVG 1.0//EN" "http://www.w3.org/TR/2001/REC-SVG-20010904/DTD/svg10.dtd">
<svg version="1.0" id="Layer_1" xmlns="http://www.w3.org/2000/svg" xmlns:xlink="http://www.w3.org/1999/xlink" x="0px" y="0px"
	 width="50px" height="50px" viewBox="0 0 50 50" style="enable-background:new 0 0 50 50;" xml:space="preserve">
<g>
	<path d="M48,0H2C0.897,0,0,0.897,0,2v46c0,1.103,0.897,2,2,2h46c1.103,0,2-0.897,2-2V2C50,0.897,49.103,0,48,0z M48,48H2l0.001-38
		H48V48z M48,8H2.001L2,2c0,0,0,0-0.001,0L2,1v1h46V8z"/>
	<path d="M43,24H28c-1.103,0-2,0.897-2,2v18c0,1.103,0.897,2,2,2h15c1.103,0,2-0.897,2-2V26C45,24.897,44.103,24,43,24z M27.999,26
		L28,25L27.999,26L27.999,26z M43,44H28l0.001-18H43V44z"/>
	<path d="M6,21h38c0.553,0,1-0.448,1-1v-6c0-0.552-0.447-1-1-1H6c-0.552,0-1,0.448-1,1v6C5,20.552,5.448,21,6,21z M7,15h36v4H7V15z"
		/>
	<path d="M7,46h15c1.103,0,2-0.897,2-2V26c0-1.103-0.897-2-2-2H7c-1.103,0-2,0.897-2,2v18C5,45.103,5.897,46,7,46z M7,26h15v18H7V26
		L7,26z"/>
</g>
</svg>
