<?xml version="1.0" encoding="utf-8"?>
<!-- Generator: Adobe Illustrator 17.1.0, SVG Export Plug-In . SVG Version: 6.00 Build 0)  -->
<!DOCTYPE svg PUBLIC "-//W3C//DTD SVG 1.0//EN" "http://www.w3.org/TR/2001/REC-SVG-20010904/DTD/svg10.dtd">
<svg version="1.0" id="Layer_1" xmlns="http://www.w3.org/2000/svg" xmlns:xlink="http://www.w3.org/1999/xlink" x="0px" y="0px"
	 viewBox="0 0 50 50" style="enable-background:new 0 0 50 50;" xml:space="preserve">
<path d="M14,33H6c-1.159,0-2,0.841-2,2v6c0,1.159,0.841,2,2,2h8c1.159,0,2-0.841,2-2v-6C16,33.841,15.159,33,14,33z M14,41H6v-6h8
	l0.05,5.995C14.05,40.995,14.035,41,14,41z M14,20H6c-1.159,0-2,0.841-2,2v6c0,1.159,0.841,2,2,2h8c1.159,0,2-0.841,2-2v-6
	C16,20.841,15.159,20,14,20z M14,28H6v-6h8l0.05,5.995C14.05,27.995,14.035,28,14,28z M14,7H6C4.841,7,4,7.841,4,9v6
	c0,1.159,0.841,2,2,2h8c1.159,0,2-0.841,2-2V9C16,7.841,15.159,7,14,7z M14,15H6V9h8l0.051,5.995C14.051,14.995,14.035,15,14,15z
	 M44,20h-8c-1.159,0-2,0.841-2,2v6c0,1.159,0.841,2,2,2h8c1.159,0,2-0.841,2-2v-6C46,20.841,45.159,20,44,20z M44,28h-8v-6h8
	l0.05,5.995C44.05,27.995,44.035,28,44,28z M44,7h-8c-1.159,0-2,0.841-2,2v6c0,1.159,0.841,2,2,2h8c1.159,0,2-0.841,2-2V9
	C46,7.841,45.159,7,44,7z M44,15h-8V9h8l0.051,5.995C44.051,14.995,44.035,15,44,15z M44,33h-8c-1.159,0-2,0.841-2,2v6
	c0,1.159,0.841,2,2,2h8c1.159,0,2-0.841,2-2v-6C46,33.841,45.159,33,44,33z M44,41h-8v-6h8l0.05,5.995C44.05,40.995,44.035,41,44,41
	z M29,20h-8c-1.159,0-2,0.841-2,2v6c0,1.159,0.841,2,2,2h8c1.159,0,2-0.841,2-2v-6C31,20.841,30.159,20,29,20z M29,28h-8v-6h8
	l0.05,5.995C29.05,27.995,29.035,28,29,28z M29,33h-8c-1.159,0-2,0.841-2,2v6c0,1.159,0.841,2,2,2h8c1.159,0,2-0.841,2-2v-6
	C31,33.841,30.159,33,29,33z M29,41h-8v-6h8l0.05,5.995C29.05,40.995,29.035,41,29,41z M29,7h-8c-1.159,0-2,0.841-2,2v6
	c0,1.159,0.841,2,2,2h8c1.159,0,2-0.841,2-2V9C31,7.841,30.159,7,29,7z M29,15h-8V9h8l0.051,5.995C29.051,14.995,29.035,15,29,15z"
	/>
</svg>
