<?xml version="1.0" encoding="utf-8"?>
<!-- Generator: Adobe Illustrator 17.0.2, SVG Export Plug-In . SVG Version: 6.00 Build 0)  -->
<!DOCTYPE svg PUBLIC "-//W3C//DTD SVG 1.0//EN" "http://www.w3.org/TR/2001/REC-SVG-20010904/DTD/svg10.dtd">
<svg version="1.0" id="Layer_1" xmlns="http://www.w3.org/2000/svg" xmlns:xlink="http://www.w3.org/1999/xlink" x="0px" y="0px"
	 width="50px" height="50px" viewBox="0 0 50 50" style="enable-background:new 0 0 50 50;" xml:space="preserve">
<path d="M14.555,0.168c0.459,0.306,0.583,0.927,0.277,1.387l-8,12c-0.175,0.263-0.464,0.427-0.779,0.444C6.036,14,6.018,14,6,14
	c-0.296,0-0.578-0.131-0.768-0.36l-5-6C-0.122,7.216-0.064,6.585,0.36,6.232C0.784,5.878,1.414,5.936,1.768,6.36l4.143,4.971
	l7.257-10.886C13.474-0.015,14.095-0.139,14.555,0.168z M20,7v2h30V7H20z M13.168,17.445L5.911,28.331L1.768,23.36
	c-0.354-0.424-0.984-0.482-1.408-0.128c-0.424,0.354-0.481,0.984-0.128,1.408l5,6C5.422,30.869,5.704,31,6,31
	c0.018,0,0.036,0,0.053-0.001c0.315-0.018,0.604-0.182,0.779-0.444l8-12c0.306-0.459,0.182-1.081-0.277-1.387
	C14.095,16.861,13.474,16.986,13.168,17.445z M20,26h30v-2H20V26z M13.168,36.445L5.911,47.331l-4.143-4.972
	c-0.354-0.424-0.984-0.481-1.408-0.128c-0.424,0.354-0.481,0.984-0.128,1.409l5,6C5.422,49.869,5.704,50,6,50
	c0.018,0,0.036,0,0.053-0.001c0.315-0.018,0.604-0.182,0.779-0.444l8-12c0.306-0.46,0.182-1.08-0.277-1.387
	S13.474,35.985,13.168,36.445z M20,45h30v-2H20V45z"/>
</svg>
