<?xml version="1.0" encoding="utf-8"?>
<!-- Generator: Adobe Illustrator 17.0.2, SVG Export Plug-In . SVG Version: 6.00 Build 0)  -->
<!DOCTYPE svg PUBLIC "-//W3C//DTD SVG 1.0//EN" "http://www.w3.org/TR/2001/REC-SVG-20010904/DTD/svg10.dtd">
<svg version="1.0" id="Layer_1" xmlns="http://www.w3.org/2000/svg" xmlns:xlink="http://www.w3.org/1999/xlink" x="0px" y="0px"
	 width="50px" height="50px" viewBox="0 0 50 50" style="enable-background:new 0 0 50 50;" xml:space="preserve">
<g>
	<path d="M48,4h-7V2c0-1.103-0.897-2-2-2h-2c-1.103,0-2,0.897-2,2v2H15V2c0-1.103-0.897-2-2-2h-2C9.897,0,9,0.897,9,2v2H2
		C0.897,4,0,4.897,0,6v42c0,1.103,0.897,2,2,2h46c1.103,0,2-0.897,2-2V6C50,4.897,49.103,4,48,4z M37.001,2H39v6h-2L37.001,2z M37,1
		v1h-0.001L37,1z M11.001,2H13v6h-2L11.001,2z M11,1v1c0,0,0,0-0.001,0L11,1z M48,48H2V16h46V48z M48,14H2V6h7v2
		c0,1.103,0.897,2,2,2h2c1.103,0,2-0.897,2-2V6h20v2c0,1.103,0.897,2,2,2h2c1.103,0,2-0.897,2-2V6h7V14z"/>
	<polygon points="34.382,23.701 32.701,22.618 24.014,36.093 17.929,30.588 16.587,32.07 24.419,39.155 	"/>
</g>
</svg>
