<?xml version="1.0" encoding="utf-8"?>
<!-- Generator: Adobe Illustrator 17.0.2, SVG Export Plug-In . SVG Version: 6.00 Build 0)  -->
<!DOCTYPE svg PUBLIC "-//W3C//DTD SVG 1.0//EN" "http://www.w3.org/TR/2001/REC-SVG-20010904/DTD/svg10.dtd">
<svg version="1.0" id="Layer_1" xmlns="http://www.w3.org/2000/svg" xmlns:xlink="http://www.w3.org/1999/xlink" x="0px" y="0px"
	 width="50px" height="50px" viewBox="0 0 50 50" style="enable-background:new 0 0 50 50;" xml:space="preserve">
<path d="M25.2,0C11.525,0,0.4,9.914,0.4,22.1c0,5.857,2.547,11.356,7.184,15.537c-0.301,5.09-4.371,8.075-6.356,9.532
	c-0.369,0.271-0.671,0.494-0.878,0.671c-0.282,0.241-0.407,0.619-0.325,0.98c0.082,0.361,0.357,0.648,0.715,0.745
	c1.061,0.286,2.227,0.431,3.465,0.431c5.716,0,12.405-3.084,16.277-6.229c1.661,0.288,3.247,0.434,4.719,0.434
	c13.675,0,24.8-9.914,24.8-22.1S38.875,0,25.2,0z M25.2,42.2c-1.486,0-3.106-0.162-4.816-0.482
	c-0.296-0.057-0.603,0.025-0.833,0.222c-3.439,2.937-9.987,6.057-15.347,6.057c-0.245,0-0.486-0.006-0.723-0.019
	c2.383-1.86,6.039-5.318,6.119-10.763c0.004-0.295-0.122-0.577-0.345-0.771C4.834,32.613,2.4,27.519,2.4,22.1
	C2.4,11.017,12.628,2,25.2,2S48,11.017,48,22.1C48,33.184,37.772,42.2,25.2,42.2z"/>
</svg>
