<?xml version="1.0" encoding="utf-8"?>
<!-- Generator: Adobe Illustrator 17.1.0, SVG Export Plug-In . SVG Version: 6.00 Build 0)  -->
<!DOCTYPE svg PUBLIC "-//W3C//DTD SVG 1.0//EN" "http://www.w3.org/TR/2001/REC-SVG-20010904/DTD/svg10.dtd">
<svg version="1.0" id="Layer_1" xmlns="http://www.w3.org/2000/svg" xmlns:xlink="http://www.w3.org/1999/xlink" x="0px" y="0px"
	 viewBox="0 0 36 50" style="enable-background:new 0 0 36 50;" xml:space="preserve">
<path d="M35,5H25V3c0-1.654-1.346-3-3-3h-8c-1.654,0-3,1.346-3,3v2H1C0.448,5,0,5.448,0,6s0.448,1,1,1h1.085l3.611,40.515
	C5.821,48.908,7.004,50,8.391,50h19.216c1.387,0,2.57-1.092,2.695-2.485L33.915,7H35c0.553,0,1-0.448,1-1C36,5.448,35.553,5,35,5z
	 M13,44c0,0.553-0.448,1-1,1s-1-0.447-1-1V11c0-0.552,0.448-1,1-1c0.552,0,1,0.448,1,1V44z M19,44c0,0.553-0.448,1-1,1s-1-0.447-1-1
	V11c0-0.552,0.448-1,1-1c0.552,0,1,0.448,1,1V44z M23,5H13V3c0-0.551,0.449-1,1-1h8c0.552,0,1,0.449,1,1V5z M25,44
	c0,0.553-0.447,1-1,1s-1-0.447-1-1V11c0-0.552,0.447-1,1-1c0.553,0,1,0.448,1,1V44z"/>
</svg>
