<?xml version="1.0" encoding="utf-8"?>
<!-- Generator: Adobe Illustrator 17.0.2, SVG Export Plug-In . SVG Version: 6.00 Build 0)  -->
<!DOCTYPE svg PUBLIC "-//W3C//DTD SVG 1.0//EN" "http://www.w3.org/TR/2001/REC-SVG-20010904/DTD/svg10.dtd">
<svg version="1.0" id="Layer_1" xmlns="http://www.w3.org/2000/svg" xmlns:xlink="http://www.w3.org/1999/xlink" x="0px" y="0px"
	 width="50px" height="50px" viewBox="0 0 50 50" style="enable-background:new 0 0 50 50;" xml:space="preserve">
<path d="M40,42c0,0.553-0.447,1-1,1H11c-0.552,0-1-0.447-1-1s0.448-1,1-1h28C39.553,41,40,41.447,40,42z M50,7v32H0V7H50z M48,9H2
	v28h46V9z M20.318,30.516c0.098,0.057,0.208,0.085,0.318,0.085c0.109,0,0.22-0.028,0.318-0.085l11.021-6.363
	c0.197-0.114,0.318-0.324,0.318-0.552c0-0.228-0.119-0.438-0.316-0.552l-11.021-6.363c-0.197-0.113-0.441-0.113-0.637,0
	C20.121,16.799,20,17.009,20,17.236v12.729C20,30.193,20.121,30.403,20.318,30.516z M31.977,23.049L31.977,23.049L31.977,23.049
	L31.977,23.049z"/>
</svg>
