<?xml version="1.0" encoding="utf-8"?>
<!-- Generator: Adobe Illustrator 17.0.2, SVG Export Plug-In . SVG Version: 6.00 Build 0)  -->
<!DOCTYPE svg PUBLIC "-//W3C//DTD SVG 1.0//EN" "http://www.w3.org/TR/2001/REC-SVG-20010904/DTD/svg10.dtd">
<svg version="1.0" id="Layer_1" xmlns="http://www.w3.org/2000/svg" xmlns:xlink="http://www.w3.org/1999/xlink" x="0px" y="0px"
	 width="50px" height="50px" viewBox="0 0 50 50" style="enable-background:new 0 0 50 50;" xml:space="preserve">
<path d="M41,20H14.74c-0.41-1.339-1.284-4.173-1.585-4.997c-0.791-2.546-0.532-5.258,0.729-7.635
	c1.259-2.376,3.359-4.121,5.913-4.913c2.546-0.79,5.258-0.531,7.635,0.729c2.376,1.259,4.121,3.359,4.906,5.891
	c0.201,0.703,1.306,4.317,1.306,4.317l1.912-0.584c0,0-1.095-3.586-1.301-4.305c-0.95-3.062-3.041-5.579-5.887-7.087
	c-2.852-1.511-6.107-1.821-9.165-0.872c-3.062,0.95-5.579,3.041-7.087,5.887c-1.512,2.852-1.821,6.106-0.856,9.21
	c0.255,0.702,0.944,2.919,1.387,4.358H9c-1.7,0-3,1.3-3,3v24c0,1.7,1.3,3,3,3h32c1.7,0,3-1.3,3-3V23C44,21.3,42.7,20,41,20z
	 M27,35.2V38c0,1.1-0.9,2-2,2c-1.1,0-2-0.9-2-2v-2.8c-0.6-0.5-1-1.3-1-2.2c0-1.7,1.3-3,3-3s3,1.3,3,3C28,33.9,27.6,34.7,27,35.2z"/>
</svg>
