<?xml version="1.0" encoding="utf-8"?>
<!-- Generator: Adobe Illustrator 17.0.2, SVG Export Plug-In . SVG Version: 6.00 Build 0)  -->
<!DOCTYPE svg PUBLIC "-//W3C//DTD SVG 1.0//EN" "http://www.w3.org/TR/2001/REC-SVG-20010904/DTD/svg10.dtd">
<svg version="1.0" id="Layer_1" xmlns="http://www.w3.org/2000/svg" xmlns:xlink="http://www.w3.org/1999/xlink" x="0px" y="0px"
	 width="50px" height="50.004px" viewBox="0 0 50 50.004" style="enable-background:new 0 0 50 50.004;" xml:space="preserve">
<path d="M35.111,44.194C29.34,39.732,26.203,32.072,26.01,22h10.399L20,0.344L3.592,22h10.419
	c0.622,27.21,26.643,28.004,29.642,28.004c0.249,0,0.381-0.005,0.381-0.005l0.038-1.996C44.027,47.999,39.571,47.642,35.111,44.194z
	 M16,21v-1H7.616L20,3.656L32.385,20H24v1c0,15.252,6.185,22.511,11.663,25.948C27.431,44.884,16,38.811,16,21z"/>
</svg>
