<?xml version="1.0" encoding="utf-8"?>
<!-- Generator: Adobe Illustrator 17.0.2, SVG Export Plug-In . SVG Version: 6.00 Build 0)  -->
<!DOCTYPE svg PUBLIC "-//W3C//DTD SVG 1.0//EN" "http://www.w3.org/TR/2001/REC-SVG-20010904/DTD/svg10.dtd">
<svg version="1.0" id="Layer_1" xmlns="http://www.w3.org/2000/svg" xmlns:xlink="http://www.w3.org/1999/xlink" x="0px" y="0px"
	 width="50px" height="50px" viewBox="0 0 50 50" style="enable-background:new 0 0 50 50;" xml:space="preserve">
<g>
	<path d="M33,16c-0.553,0-1,0.448-1,1s0.447,1,1,1h8v30H9V18h8c0.552,0,1-0.448,1-1s-0.448-1-1-1H7v34h36V16H33z"/>
	<path d="M17.707,10.707L24,4.414V32c0,0.553,0.448,1,1,1c0.553,0,1-0.447,1-1V4.414l6.293,6.293c0.391,0.391,1.023,0.391,1.414,0
		s0.391-1.023,0-1.414L25,0.586l-8.707,8.707c-0.391,0.391-0.391,1.023,0,1.414S17.316,11.098,17.707,10.707z"/>
</g>
</svg>
