<?xml version="1.0" encoding="utf-8"?>
<!-- Generator: Adobe Illustrator 17.0.2, SVG Export Plug-In . SVG Version: 6.00 Build 0)  -->
<!DOCTYPE svg PUBLIC "-//W3C//DTD SVG 1.0//EN" "http://www.w3.org/TR/2001/REC-SVG-20010904/DTD/svg10.dtd">
<svg version="1.0" id="Layer_1" xmlns="http://www.w3.org/2000/svg" xmlns:xlink="http://www.w3.org/1999/xlink" x="0px" y="0px"
	 width="50px" height="50px" viewBox="0 0 50 50" style="enable-background:new 0 0 50 50;" xml:space="preserve">
<path d="M50,27.099C50,32.007,46.007,36,41.098,36H32c-0.553,0-1-0.447-1-1s0.447-1,1-1h9.098C44.903,34,48,30.904,48,27.099
	s-3.097-6.901-6.902-6.901c-0.286,0-0.588-0.121-0.777-0.336c-0.19-0.214-0.308-0.499-0.272-0.783
	c0.064-0.53,0.095-0.969,0.095-1.383c0-6.148-5.002-11.15-11.149-11.15c-4.637,0-8.835,2.929-10.448,7.288
	c-0.119,0.32-0.392,0.557-0.725,0.63c-0.334,0.074-0.68-0.029-0.921-0.271c-0.947-0.948-2.205-1.47-3.543-1.47
	c-2.762,0-5.009,2.247-5.009,5.008l0.012,0.216c0.016,0.462-0.287,0.875-0.733,0.999C4.313,19.861,2,22.898,2,26.331
	C2,30.56,5.441,34,9.67,34H18c0.552,0,1,0.447,1,1s-0.448,1-1,1H9.67C4.338,36,0,31.662,0,26.331c0-4.072,2.581-7.702,6.363-9.08
	c0.247-3.642,3.289-6.528,6.993-6.528c1.392,0,2.722,0.403,3.857,1.155c2.196-4.436,6.771-7.332,11.78-7.332
	c7.251,0,13.149,5.899,13.149,13.15c0,0.186-0.005,0.374-0.015,0.568C46.577,18.794,50,22.554,50,27.099z M30.707,27.293L25,21.586
	l-5.707,5.707c-0.391,0.391-0.391,1.023,0,1.414s1.023,0.391,1.414,0L24,25.414V43c0,0.553,0.448,1,1,1c0.553,0,1-0.447,1-1V25.414
	l3.293,3.293c0.391,0.391,1.023,0.391,1.414,0S31.098,27.684,30.707,27.293z"/>
</svg>
