<?xml version="1.0" encoding="utf-8"?>
<!-- Generator: Adobe Illustrator 17.1.0, SVG Export Plug-In . SVG Version: 6.00 Build 0)  -->
<!DOCTYPE svg PUBLIC "-//W3C//DTD SVG 1.0//EN" "http://www.w3.org/TR/2001/REC-SVG-20010904/DTD/svg10.dtd">
<svg version="1.0" id="Layer_1" xmlns="http://www.w3.org/2000/svg" xmlns:xlink="http://www.w3.org/1999/xlink" x="0px" y="0px"
	 viewBox="0 0 50 39.454" style="enable-background:new 0 0 50 39.454;" xml:space="preserve">
<path d="M50,22.554c0,4.907-3.993,8.9-8.902,8.9H26V20.868l3.293,3.293c0.195,0.195,0.451,0.293,0.707,0.293
	s0.512-0.098,0.707-0.293c0.391-0.391,0.391-1.023,0-1.414L25,17.04l-5.707,5.707c-0.391,0.391-0.391,1.023,0,1.414
	c0.391,0.391,1.023,0.391,1.414,0L24,20.868v10.586H9.67c-5.332,0-9.67-4.338-9.67-9.669c0-4.072,2.581-7.702,6.364-9.08
	c0.247-3.641,3.289-6.528,6.993-6.528c1.392,0,2.722,0.404,3.857,1.155C19.41,2.896,23.985,0,28.994,0
	c7.251,0,13.149,5.899,13.149,13.15c0,0.184-0.005,0.373-0.015,0.568C46.577,14.248,50,18.009,50,22.554z M24,38.454
	c0,0.553,0.448,1,1,1s1-0.447,1-1v-7h-2V38.454z"/>
</svg>
