<?xml version="1.0" encoding="utf-8"?>
<!-- Generator: Adobe Illustrator 17.1.0, SVG Export Plug-In . SVG Version: 6.00 Build 0)  -->
<!DOCTYPE svg PUBLIC "-//W3C//DTD SVG 1.0//EN" "http://www.w3.org/TR/2001/REC-SVG-20010904/DTD/svg10.dtd">
<svg version="1.0" id="Layer_1" xmlns="http://www.w3.org/2000/svg" xmlns:xlink="http://www.w3.org/1999/xlink" x="0px" y="0px"
	 viewBox="0 0 50 50" style="enable-background:new 0 0 50 50;" xml:space="preserve">
<path d="M33.2,30.7L33.2,30.7c0,1-0.4,6-7.1,6.5V40h-2v-2.8c-2.7-0.3-7-1.2-7.2-7.9H19c-0.2,6.3,5.9,6.3,6.1,6.3
	c5.9,0,6.1-4,6.1-4.9c0-7.1-13.7-2.1-13.7-11.5c0-1.9,1-6.1,6.6-6.4V10h2v2.8c4.8,0.2,6.8,4.3,6.6,7.1h-2.1
	c-0.1-1.7-0.7-5.5-5.5-5.5c-4.7,0-5.6,2.7-5.6,5C19.5,26.3,33.2,21.7,33.2,30.7z M49,25c0,13.233-10.767,24-24,24S1,38.233,1,25
	S11.767,1,25,1S49,11.767,49,25z M47,25c0-12.131-9.869-22-22-22S3,12.869,3,25s9.869,22,22,22S47,37.131,47,25z"/>
</svg>
