<?xml version="1.0" encoding="utf-8"?>
<!-- Generator: Adobe Illustrator 17.1.0, SVG Export Plug-In . SVG Version: 6.00 Build 0)  -->
<!DOCTYPE svg PUBLIC "-//W3C//DTD SVG 1.0//EN" "http://www.w3.org/TR/2001/REC-SVG-20010904/DTD/svg10.dtd">
<svg version="1.0" id="Layer_1" xmlns="http://www.w3.org/2000/svg" xmlns:xlink="http://www.w3.org/1999/xlink" x="0px" y="0px"
	 viewBox="0 0 50 50" style="enable-background:new 0 0 50 50;" xml:space="preserve">
<path d="M14,23c0,6.065,4.935,11,11,11s11-4.935,11-11s-4.935-11-11-11S14,16.935,14,23z M34,23c0,2.665-1.171,5.056-3.018,6.705
	c-1.535-0.857-3.487-1.135-3.927-2.318c-0.061-0.672-0.037-1.14-0.037-1.754c0.304-0.16,0.849-1.177,0.941-2.037
	c0.239-0.02,0.616-0.253,0.727-1.174c0.059-0.495-0.177-0.773-0.321-0.861c0.389-1.17,1.198-4.791-1.495-5.166
	c-0.277-0.487-0.987-0.733-1.909-0.733c-3.689,0.068-4.134,2.786-3.326,5.898c-0.144,0.088-0.38,0.366-0.321,0.861
	c0.111,0.921,0.487,1.155,0.727,1.174c0.092,0.859,0.658,1.877,0.963,2.037c0,0.614,0.023,1.082-0.038,1.754
	c-0.44,1.185-2.405,1.461-3.947,2.321C17.172,28.057,16,25.666,16,23c0-4.962,4.038-9,9-9C29.963,14,34,18.038,34,23z M46.215,7.847
	C38.812,6.221,34.44,3.922,31.248,2.244C28.771,0.941,26.981,0,25,0s-3.771,0.941-6.249,2.244
	c-3.192,1.678-7.563,3.977-14.965,5.603L3,8.019v0.804c0,30.464,21.365,40.68,21.581,40.779l0.44,0.203l0.433-0.221
	c0.222-0.112,5.494-2.84,10.815-9.246C41.165,34.445,47,24.193,47,8.823V8.019L46.215,7.847z M24.979,47.56
	C22.032,45.971,5.338,35.81,5.005,9.622c7.188-1.669,11.499-3.936,14.677-5.607C21.906,2.845,23.512,2,25,2
	c1.487,0,3.094,0.845,5.317,2.014c3.178,1.671,7.489,3.938,14.677,5.607C44.647,34.919,27.907,45.843,24.979,47.56z"/>
</svg>
