<?xml version="1.0" encoding="utf-8"?>
<!-- Generator: Adobe Illustrator 17.1.0, SVG Export Plug-In . SVG Version: 6.00 Build 0)  -->
<!DOCTYPE svg PUBLIC "-//W3C//DTD SVG 1.0//EN" "http://www.w3.org/TR/2001/REC-SVG-20010904/DTD/svg10.dtd">
<svg version="1.0" id="Layer_1" xmlns="http://www.w3.org/2000/svg" xmlns:xlink="http://www.w3.org/1999/xlink" x="0px" y="0px"
	 viewBox="0 0 50 50" style="enable-background:new 0 0 50 50;" xml:space="preserve">
<path d="M25,0C11.215,0,0,11.215,0,25s11.215,25,25,25s25-11.215,25-25S38.785,0,25,0z M10.175,42.565
	c1.38-0.952,3.038-1.637,4.667-2.287c2.731-1.089,5.312-2.118,6.192-4.421c0.024-0.062,0.042-0.127,0.052-0.192
	C21.2,34.983,21.2,34.62,21.2,34.3c0-0.507-0.379-0.934-0.882-0.993c-4.454-0.53-5.838-1.088-6.203-1.47
	c1.015-1.454,1.083-4.085,1.167-7.316C15.464,17.508,15.69,8.779,25.1,8.1c1.509,0,2.564,0.444,3.05,0.859
	c0.19,0.164,0.434,0.249,0.686,0.24c1.607-0.053,2.824,0.354,3.752,1.252c2.565,2.485,2.543,8.409,2.525,13.17
	c-0.013,3.537-0.023,6.431,0.911,7.992c-0.596,0.472-2.517,1.337-6.316,1.689c-0.282,0.026-0.54,0.172-0.709,0.399
	c-0.17,0.228-0.234,0.516-0.179,0.794C28.9,34.899,28.9,35.219,28.9,35.5c0,0.122,0.022,0.243,0.066,0.357
	c0.88,2.303,3.46,3.332,6.191,4.422c1.629,0.649,3.287,1.333,4.667,2.286C35.819,45.952,30.645,48,25,48
	C19.355,48,14.181,45.952,10.175,42.565z M41.342,41.166c-1.655-1.233-3.652-2.031-5.442-2.745c-2.232-0.89-4.346-1.732-5-3.125
	c0-0.036-0.001-0.073-0.002-0.111c2.546-0.325,7.303-1.258,7.303-3.685c0-0.282-0.119-0.552-0.328-0.741
	c-0.783-0.709-0.771-4.12-0.76-7.129c0.021-5.408,0.043-11.536-3.134-14.614c-1.245-1.206-2.874-1.817-4.846-1.821
	c-0.996-0.697-2.439-1.092-4.091-1.092c-0.005,0-0.009,0-0.014,0c-11.29,0.812-11.564,11.376-11.746,18.367
	c-0.072,2.79-0.147,5.674-0.946,6.381C12.123,31.041,12,31.313,12,31.6c0,2.344,3.152,3.064,7.139,3.577
	c-0.002,0.017-0.005,0.034-0.008,0.053c-0.618,1.432-2.762,2.287-5.03,3.191c-1.791,0.714-3.788,1.513-5.442,2.746
	C4.545,37.009,2,31.297,2,25C2,12.318,12.318,2,25,2c12.683,0,23,10.318,23,23C48,31.297,45.455,37.009,41.342,41.166z"/>
</svg>
