<?xml version="1.0" encoding="utf-8"?>
<!-- Generator: Adobe Illustrator 17.1.0, SVG Export Plug-In . SVG Version: 6.00 Build 0)  -->
<!DOCTYPE svg PUBLIC "-//W3C//DTD SVG 1.0//EN" "http://www.w3.org/TR/2001/REC-SVG-20010904/DTD/svg10.dtd">
<svg version="1.0" id="Layer_1" xmlns="http://www.w3.org/2000/svg" xmlns:xlink="http://www.w3.org/1999/xlink" x="0px" y="0px"
	 viewBox="0 0 50 50" style="enable-background:new 0 0 50 50;" xml:space="preserve">
<path d="M45.998,44.94c-0.363-6.065-5.209-7.979-9.103-9.517c-2.337-0.923-4.364-1.723-4.978-3.126
	c-0.003-0.034-0.005-0.07-0.007-0.107c3.551-0.445,7.354-1.428,7.354-3.59v-0.847l-0.44-0.073c-0.704-0.911-0.703-4.185-0.702-7.088
	c0.001-3.467,0.003-7.396-0.913-10.525c-1.136-3.88-3.522-5.848-7.093-5.848c-0.002,0-0.003,0-0.005,0
	c-0.712-0.5-2.018-1.124-4.124-1.124c-0.004,0-0.008,0-0.012,0C14.684,3.949,14.45,14.349,14.294,21.23
	c-0.061,2.684-0.118,5.232-0.759,6.37h-0.504v0.595l-1.414,1.414h1.731c0.96,1.436,3.959,2.172,6.799,2.549
	c-0.003,0.043-0.007,0.088-0.012,0.135c-0.611,1.406-2.649,2.207-4.999,3.131c-3.908,1.537-8.771,3.45-9.136,9.517L5.938,46h40.124
	L45.998,44.94z M8.128,44c0.756-3.968,4.303-5.362,7.742-6.715c2.739-1.077,5.326-2.095,6.187-4.408l0.059-0.258
	c0.057-0.626,0.083-0.999,0.095-1.301l0.038-0.934l-0.93-0.101c-3.752-0.405-5.604-1.167-6.135-1.546
	c0.978-1.579,1.038-4.218,1.111-7.462c0.164-7.251,0.349-15.469,9.758-16.184c1.828,0,2.766,0.627,3.084,0.896l0.296,0.25
	l0.388-0.014c2.821-0.117,4.557,1.284,5.471,4.404c0.835,2.853,0.834,6.63,0.833,9.963c-0.001,3.604-0.002,6.544,0.982,8.104
	c-0.58,0.453-2.491,1.218-6.334,1.61l-0.927,0.095l0.028,0.931c0.016,0.501,0.037,0.983,0.063,1.284l0.059,0.261
	c0.86,2.312,3.438,3.33,6.166,4.407c3.425,1.353,6.957,2.747,7.711,6.716H8.128z"/>
</svg>
