<?xml version="1.0" encoding="utf-8"?>
<!-- Generator: Adobe Illustrator 17.1.0, SVG Export Plug-In . SVG Version: 6.00 Build 0)  -->
<!DOCTYPE svg PUBLIC "-//W3C//DTD SVG 1.0//EN" "http://www.w3.org/TR/2001/REC-SVG-20010904/DTD/svg10.dtd">
<svg version="1.0" id="Layer_1" xmlns="http://www.w3.org/2000/svg" xmlns:xlink="http://www.w3.org/1999/xlink" x="0px" y="0px"
	 viewBox="0 0 50 50" style="enable-background:new 0 0 50 50;" xml:space="preserve">
<path d="M36.884,35.388c-2.322-0.917-4.338-1.714-4.984-3.092c0-0.036-0.001-0.073-0.002-0.111c2.546-0.325,7.303-1.258,7.303-3.685
	c0-0.282-0.119-0.552-0.328-0.741c-0.783-0.709-0.771-4.12-0.76-7.13c0.02-5.356,0.041-11.427-3.053-14.533
	c-1.255-1.259-2.912-1.898-4.928-1.902c-0.994-0.697-2.438-1.091-4.093-1.091c-0.006,0-0.012,0-0.018,0
	C14.74,3.988,14.511,14.516,14.359,21.482c-0.061,2.784-0.124,5.662-0.922,6.369c-0.214,0.19-0.337,0.463-0.337,0.749
	c0,2.346,3.156,3.065,7.147,3.578c-0.006,0.049-0.013,0.101-0.02,0.156c-0.617,1.363-2.742,2.185-4.988,3.053
	c-3.966,1.532-8.901,3.438-9.238,9.559c-0.015,0.274,0.083,0.543,0.272,0.742C6.462,45.887,6.725,46,7,46h38
	c0.274,0,0.537-0.113,0.727-0.312c0.188-0.199,0.287-0.468,0.271-0.742C45.664,38.854,40.795,36.932,36.884,35.388z M8.123,44
	c0.741-4.006,4.344-5.398,7.837-6.748c2.722-1.052,5.294-2.045,6.171-4.288c0.028-0.072,0.048-0.146,0.059-0.224
	C22.3,31.972,22.3,31.614,22.3,31.3c0-0.507-0.379-0.933-0.882-0.993c-4.454-0.53-5.838-1.088-6.203-1.47
	c1.016-1.455,1.073-4.083,1.143-7.311C16.511,14.538,16.7,5.84,26.1,5.1c1.509,0,2.564,0.444,3.05,0.859
	c0.189,0.164,0.434,0.249,0.686,0.24c1.64-0.051,2.871,0.369,3.808,1.308c2.508,2.517,2.486,8.393,2.47,13.114
	c-0.013,3.538-0.023,6.431,0.911,7.993c-0.596,0.472-2.517,1.337-6.316,1.689c-0.282,0.026-0.54,0.172-0.709,0.399
	c-0.17,0.228-0.234,0.516-0.179,0.794C29.9,31.899,29.9,32.219,29.9,32.5c0,0.122,0.022,0.243,0.066,0.357
	c0.879,2.296,3.455,3.313,6.182,4.39c3.443,1.36,6.995,2.763,7.729,6.753H8.123z"/>
</svg>
