<?xml version="1.0" encoding="utf-8"?>
<!-- Generator: Adobe Illustrator 17.0.2, SVG Export Plug-In . SVG Version: 6.00 Build 0)  -->
<!DOCTYPE svg PUBLIC "-//W3C//DTD SVG 1.0//EN" "http://www.w3.org/TR/2001/REC-SVG-20010904/DTD/svg10.dtd">
<svg version="1.0" id="Layer_1" xmlns="http://www.w3.org/2000/svg" xmlns:xlink="http://www.w3.org/1999/xlink" x="0px" y="0px"
	 width="50px" height="50px" viewBox="0 0 50 50" style="enable-background:new 0 0 50 50;" xml:space="preserve">
<path d="M37,19.326V14c0-2.757-2.243-5-5-5H5c-2.757,0-5,2.243-5,5v22c0,2.757,2.243,5,5,5h27c2.757,0,5-2.243,5-5v-5.326l13,7
	V12.326L37,19.326z M35,36c0,1.654-1.346,3-3,3H5c-1.654,0-3-1.346-3-3V14c0-1.654,1.346-3,3-3h27c1.654,0,3,1.346,3,3V36z
	 M48,34.326l-11-5.924v-6.805l11-5.923V34.326z"/>
</svg>
