<?xml version="1.0" encoding="utf-8"?>
<!-- Generator: Adobe Illustrator 17.1.0, SVG Export Plug-In . SVG Version: 6.00 Build 0)  -->
<!DOCTYPE svg PUBLIC "-//W3C//DTD SVG 1.0//EN" "http://www.w3.org/TR/2001/REC-SVG-20010904/DTD/svg10.dtd">
<svg version="1.0" id="Layer_1" xmlns="http://www.w3.org/2000/svg" xmlns:xlink="http://www.w3.org/1999/xlink" x="0px" y="0px"
	 viewBox="0 0 50 50" style="enable-background:new 0 0 50 50;" xml:space="preserve">
<path d="M28,46H6V2h18v14h14v7c0,0.552,0.447,1,1,1s1-0.448,1-1v-8.414L25.414,0H4v48h24c0.553,0,1-0.447,1-1S28.553,46,28,46z
	 M26,3.414L36.586,14H26V3.414z M49.707,48.293l-5.969-5.969C45.15,40.599,46,38.397,46,36c0-5.514-4.486-10-10-10s-10,4.486-10,10
	s4.486,10,10,10c2.397,0,4.599-0.85,6.324-2.262l5.969,5.969L49.707,48.293z M28,36c0-4.411,3.589-8,8-8s8,3.589,8,8s-3.589,8-8,8
	S28,40.411,28,36z"/>
</svg>
