<?xml version="1.0" encoding="utf-8"?>
<!-- Generator: Adobe Illustrator 17.1.0, SVG Export Plug-In . SVG Version: 6.00 Build 0)  -->
<!DOCTYPE svg PUBLIC "-//W3C//DTD SVG 1.0//EN" "http://www.w3.org/TR/2001/REC-SVG-20010904/DTD/svg10.dtd">
<svg version="1.0" id="Layer_1" xmlns="http://www.w3.org/2000/svg" xmlns:xlink="http://www.w3.org/1999/xlink" x="0px" y="0px"
	 viewBox="0 0 50 50" style="enable-background:new 0 0 50 50;" xml:space="preserve">
<path d="M45,7H5c-2.757,0-5,2.243-5,5v26c0,2.757,2.243,5,5,5h40c2.757,0,5-2.243,5-5V12C50,9.243,47.757,7,45,7z M48,38
	c0,1.654-1.346,3-3,3H5c-1.654,0-3-1.346-3-3V12c0-1.654,1.346-3,3-3h40c1.654,0,3,1.346,3,3V38z M18.4,18.7h2l-5,14.3h-2.2l-5-14.3
	h2l4.1,12.4L18.4,18.7z M24.1,18.7H26V33h-1.9V18.7z M37.4,18.7h-6.3V33H33v-5.9h4.4c1.5,0,2.6-0.4,3.3-1.1s1.1-1.8,1.1-3.1
	s-0.4-2.4-1.1-3.1C39.9,19.1,38.8,18.7,37.4,18.7z M39.2,24.9c-0.5,0.5-1.3,0.7-2.4,0.7v-0.1h-3.7v-5.2h3.7c1.1,0,1.8,0.3,2.4,0.7
	c0.6,0.4,0.8,1,0.8,1.9C40,23.8,39.7,24.4,39.2,24.9z"/>
</svg>
