<?xml version="1.0" encoding="utf-8"?>
<!-- Generator: Adobe Illustrator 17.1.0, SVG Export Plug-In . SVG Version: 6.00 Build 0)  -->
<!DOCTYPE svg PUBLIC "-//W3C//DTD SVG 1.0//EN" "http://www.w3.org/TR/2001/REC-SVG-20010904/DTD/svg10.dtd">
<svg version="1.0" id="Layer_1" xmlns="http://www.w3.org/2000/svg" xmlns:xlink="http://www.w3.org/1999/xlink" x="0px" y="0px"
	 viewBox="0 0 50 36" style="enable-background:new 0 0 50 36;" xml:space="preserve">
<path d="M45,0H5C2.243,0,0,2.243,0,5v26c0,2.757,2.243,5,5,5h40c2.757,0,5-2.243,5-5V5C50,2.243,47.757,0,45,0z M15.4,26h-2.2L8,11
	h2l4.3,13.1L19,11h2L15.4,26z M26,26h-2V11h2V26z M40.7,18.9L40.7,18.9C40,19.6,38.9,20,37.4,20H33v6h-2V11h6.301
	c1.399,0,2.5,0.4,3.3,1.1c0.7,0.7,1.306,2.038,1.306,3.338C41.906,16.738,41.4,18.2,40.7,18.9z M40.031,15.531
	C40.031,18.281,36.7,18,36.7,18H33v-5h3.7v0C36.7,13,40.031,12.781,40.031,15.531z"/>
</svg>
