<?xml version="1.0" encoding="utf-8"?>
<!-- Generator: Adobe Illustrator 17.1.0, SVG Export Plug-In . SVG Version: 6.00 Build 0)  -->
<!DOCTYPE svg PUBLIC "-//W3C//DTD SVG 1.0//EN" "http://www.w3.org/TR/2001/REC-SVG-20010904/DTD/svg10.dtd">
<svg version="1.0" id="Layer_1" xmlns="http://www.w3.org/2000/svg" xmlns:xlink="http://www.w3.org/1999/xlink" x="0px" y="0px"
	 viewBox="0 0 48 25.163" style="enable-background:new 0 0 48 25.163;" xml:space="preserve">
<path d="M47.76,12.814C47.327,13.318,37.013,25.163,24,25.163S0.674,13.318,0.242,12.815c-0.322-0.375-0.322-0.928,0-1.303
	C0.604,11.089,7.908,2.705,17.922,0C14.958,1.97,13.002,5.336,13,9.163v0.002v0.001c0.002,6.075,4.925,10.997,11,10.997
	c6.075,0,10.998-4.922,11-10.998V9.164V9.163C35,5.336,33.044,1.97,30.079,0C40.094,2.706,47.398,11.09,47.76,11.512v0
	C48.081,11.887,48.081,12.439,47.76,12.814z M24,14.163c2.761,0,5-2.239,5-5c0-2.761-2.239-5-5-5c-2.761,0-5,2.239-5,5
	C19,11.924,21.24,14.163,24,14.163z"/>
</svg>
