<?xml version="1.0" encoding="utf-8"?>
<!-- Generator: Adobe Illustrator 17.0.2, SVG Export Plug-In . SVG Version: 6.00 Build 0)  -->
<!DOCTYPE svg PUBLIC "-//W3C//DTD SVG 1.0//EN" "http://www.w3.org/TR/2001/REC-SVG-20010904/DTD/svg10.dtd">
<svg version="1.0" id="Layer_1" xmlns="http://www.w3.org/2000/svg" xmlns:xlink="http://www.w3.org/1999/xlink" x="0px" y="0px"
	 width="50px" height="50px" viewBox="0 0 50 50" style="enable-background:new 0 0 50 50;" xml:space="preserve">
<path d="M27.101,42.156l1.101-24.9c0.024-0.552,0.499-0.966,1.043-0.955c0.552,0.024,0.979,0.491,0.955,1.043l-1.101,24.9
	c-0.023,0.537-0.467,0.956-0.998,0.956c-0.016,0-0.03,0-0.045-0.001C27.504,43.175,27.076,42.708,27.101,42.156z M34.168,43.191
	c0.045,0.006,0.089,0.009,0.133,0.009c0.494,0,0.924-0.365,0.99-0.868l3.3-24.901c0.072-0.547-0.312-1.05-0.859-1.123
	c-0.553-0.073-1.051,0.312-1.123,0.86l-3.3,24.9C33.236,42.616,33.621,43.119,34.168,43.191z M47,10.2V11c0,0.552-0.447,1-1,1
	h-1.136l-5.075,34.744C39.369,48.718,37.851,50,36,50H14c-1.927,0-3.521-1.371-3.79-3.259L5.135,12H4c-0.552,0-1-0.448-1-1v-0.8
	c0-2.272,1.77-4.128,3.972-4.198C7.379,4.849,8.464,4,9.7,4H18V3c0-1.654,1.346-3,3-3h8c1.654,0,3,1.346,3,3v1h8.3
	c1.236,0,2.321,0.849,2.729,2.002C45.229,6.072,47,7.928,47,10.2z M20,4h10V3c0-0.551-0.448-1-1-1h-8c-0.551,0-1,0.449-1,1V4z
	 M42.844,12H7.157l5.033,34.455C12.317,47.352,13.079,48,14,48h22c0.897,0,1.612-0.632,1.822-1.609L42.844,12z M44.992,10
	c-0.094-1.137-0.979-2-2.092-2h-0.7c-0.553,0-1-0.448-1-1c0-0.572-0.476-1-0.9-1H9.7C9.275,6,8.8,6.428,8.8,7c0,0.552-0.448,1-1,1
	H7.1c-1.113,0-1.999,0.863-2.092,2h0.977c0.011,0,0.022,0,0.033,0h37.965c0.011,0,0.021,0,0.032,0H44.992z M14.709,42.332
	c0.066,0.503,0.496,0.868,0.99,0.868c0.044,0,0.088-0.003,0.133-0.009c0.547-0.072,0.933-0.575,0.86-1.123l-3.3-24.9
	c-0.072-0.547-0.574-0.928-1.123-0.86c-0.547,0.072-0.933,0.575-0.86,1.123L14.709,42.332z M21.899,43.2c0.015,0,0.03,0,0.045-0.001
	c0.552-0.024,0.979-0.491,0.955-1.043l-1.1-24.9c-0.025-0.552-0.528-0.977-1.043-0.955c-0.552,0.024-0.979,0.491-0.955,1.043
	l1.1,24.9C20.925,42.781,21.367,43.2,21.899,43.2z"/>
</svg>
