<?xml version="1.0" encoding="utf-8"?>
<!-- Generator: Adobe Illustrator 17.0.2, SVG Export Plug-In . SVG Version: 6.00 Build 0)  -->
<!DOCTYPE svg PUBLIC "-//W3C//DTD SVG 1.0//EN" "http://www.w3.org/TR/2001/REC-SVG-20010904/DTD/svg10.dtd">
<svg version="1.0" id="Layer_1" xmlns="http://www.w3.org/2000/svg" xmlns:xlink="http://www.w3.org/1999/xlink" x="0px" y="0px"
	 width="50px" height="50px" viewBox="0 0 50 50" style="enable-background:new 0 0 50 50;" xml:space="preserve">
<path d="M25,0C11.215,0,0,11.215,0,25s11.215,25,25,25s25-11.215,25-25S38.785,0,25,0z M25,48C12.318,48,2,37.683,2,25
	C2,12.318,12.318,2,25,2c12.683,0,23,10.318,23,23C48,37.683,37.683,48,25,48z M38.61,10.337c0.404,0.375,0.428,1.008,0.053,1.413
	L27.648,23.618C27.865,24.033,28,24.499,28,25c0,0.771-0.299,1.468-0.778,1.999l4.141,7.634c0.264,0.485,0.083,1.092-0.402,1.355
	c-0.151,0.082-0.314,0.121-0.476,0.121c-0.355,0-0.699-0.189-0.88-0.523l-4.141-7.633C25.312,27.977,25.159,28,25,28
	c-1.657,0-3-1.343-3-3s1.343-3,3-3c0.423,0,0.825,0.09,1.19,0.248L37.196,10.39C37.572,9.983,38.203,9.961,38.61,10.337z"/>
</svg>
