<?xml version="1.0" encoding="utf-8"?>
<!-- Generator: Adobe Illustrator 17.0.2, SVG Export Plug-In . SVG Version: 6.00 Build 0)  -->
<!DOCTYPE svg PUBLIC "-//W3C//DTD SVG 1.0//EN" "http://www.w3.org/TR/2001/REC-SVG-20010904/DTD/svg10.dtd">
<svg version="1.0" id="Layer_1" xmlns="http://www.w3.org/2000/svg" xmlns:xlink="http://www.w3.org/1999/xlink" x="0px" y="0px"
	 width="50px" height="50px" viewBox="0 0 50 50" style="enable-background:new 0 0 50 50;" xml:space="preserve">
<path d="M25,19.865c-5.641,0-10.88,2.283-14.753,6.43l-0.66,0.706l5.387,5.388l0.706-0.777c2.391-2.635,5.788-4.146,9.32-4.146
	s6.93,1.511,9.32,4.146l0.705,0.777l5.387-5.388l-0.66-0.706C35.877,22.148,30.639,19.865,25,19.865z M35.069,29.517
	C32.36,26.931,28.747,25.466,25,25.466c-3.747,0-7.361,1.465-10.069,4.051l-2.545-2.545c3.412-3.301,7.855-5.106,12.614-5.106
	c4.757,0,9.2,1.806,12.613,5.106L35.069,29.517z M25,30.001c-2.895,0-5.662,1.281-7.592,3.515L16.8,34.219l8.2,8.196l8.199-8.196
	l-0.608-0.704C30.66,31.282,27.894,30.001,25,30.001z M25,39.587l-5.434-5.432c1.489-1.379,3.424-2.154,5.434-2.154
	c2.008,0,3.942,0.775,5.433,2.155L25,39.587z M46.723,19.31C40.984,13.306,33.27,10,25,10c-8.271,0-15.985,3.306-21.723,9.31
	l-0.675,0.707l5.15,5.15l0.707-0.747c4.362-4.607,10.237-7.145,16.543-7.145c6.305,0,12.18,2.537,16.541,7.145l0.707,0.747
	l5.149-5.15L46.723,19.31z M42.273,22.313c-4.66-4.546-10.754-7.038-17.272-7.038c-6.52,0-12.614,2.491-17.274,7.038L5.41,19.997
	C10.688,14.832,17.606,12,25,12c7.393,0,14.312,2.832,19.59,7.997L42.273,22.313z"/>
</svg>
