<?xml version="1.0" encoding="utf-8"?>
<!-- Generator: Adobe Illustrator 17.0.2, SVG Export Plug-In . SVG Version: 6.00 Build 0)  -->
<!DOCTYPE svg PUBLIC "-//W3C//DTD SVG 1.0//EN" "http://www.w3.org/TR/2001/REC-SVG-20010904/DTD/svg10.dtd">
<svg version="1.0" id="Layer_1" xmlns="http://www.w3.org/2000/svg" xmlns:xlink="http://www.w3.org/1999/xlink" x="0px" y="0px"
	 width="50px" height="50px" viewBox="0 0 50 50" style="enable-background:new 0 0 50 50;" xml:space="preserve">
<path d="M39.874,29.485C39.658,29.874,34.479,39,25,39c-5.353,0-8.573-3.158-8.707-3.293c-0.391-0.391-0.391-1.023,0-1.414
	c0.39-0.39,1.021-0.392,1.412-0.002C17.74,34.325,20.511,37,25,37c8.315,0,13.079-8.4,13.126-8.485
	c0.269-0.483,0.877-0.659,1.359-0.389C39.969,28.395,40.143,29.003,39.874,29.485z M49,25c0,13.233-10.767,24-24,24S1,38.233,1,25
	S11.767,1,25,1S49,11.767,49,25z M47,25c0-12.131-9.869-22-22-22S3,12.869,3,25s9.869,22,22,22S47,37.131,47,25z M20,22
	c0-1.657-1.343-3-3-3c-1.657,0-3,1.343-3,3s1.343,3,3,3C18.657,25,20,23.657,20,22z M29.704,23.71
	c0.014-0.012,1.336-1.24,3.855-0.908c2.62,0.347,3.566,1.692,3.597,1.737C37.348,24.837,37.67,25,38,25
	c0.185,0,0.371-0.051,0.538-0.158c0.465-0.297,0.601-0.916,0.304-1.381c-0.057-0.088-1.424-2.166-5.021-2.641
	c-3.525-0.469-5.446,1.391-5.525,1.47c-0.393,0.389-0.395,1.022-0.006,1.415C28.68,24.096,29.313,24.098,29.704,23.71z"/>
</svg>
