<?xml version="1.0" encoding="utf-8"?>
<!-- Generator: Adobe Illustrator 17.0.2, SVG Export Plug-In . SVG Version: 6.00 Build 0)  -->
<!DOCTYPE svg PUBLIC "-//W3C//DTD SVG 1.0//EN" "http://www.w3.org/TR/2001/REC-SVG-20010904/DTD/svg10.dtd">
<svg version="1.0" id="Layer_1" xmlns="http://www.w3.org/2000/svg" xmlns:xlink="http://www.w3.org/1999/xlink" x="0px" y="0px"
	 width="50px" height="50px" viewBox="0 0 50 50" style="enable-background:new 0 0 50 50;" xml:space="preserve">
<path d="M41.326,30.088l3.381-3.381c0.391-0.391,0.391-1.023,0-1.414s-1.023-0.391-1.414,0L41,27.586v-8.172l8.707-8.707
	c0.391-0.391,0.391-1.023,0-1.414l-9-9c-0.391-0.391-1.023-0.391-1.414,0L30.5,9.086l-3.793-3.793c-0.391-0.391-1.023-0.391-1.414,0
	s-0.391,1.023,0,1.414L27.586,9H19.95C19.447,3.954,15.176,0,10,0C4.486,0,0,4.486,0,10c0,5.064,3.784,9.262,8.673,9.913l-3.38,3.38
	c-0.391,0.391-0.391,1.023,0,1.414s1.023,0.391,1.414,0L9,22.414V30H1c-0.552,0-1,0.447-1,1v18c0,0.553,0.448,1,1,1h18
	c0.552,0,1-0.447,1-1V31c0-0.553-0.448-1-1-1h-8v-7.586l2.293,2.293c0.391,0.391,1.023,0.391,1.414,0s0.391-1.023,0-1.414
	l-3.38-3.38c4.563-0.607,8.164-4.305,8.624-8.913h7.636l-2.293,2.293c-0.391,0.391-0.391,1.023,0,1.414s1.023,0.391,1.414,0
	l3.793-3.793l8.5,8.5v8.172l-2.293-2.293c-0.391-0.391-1.023-0.391-1.414,0s-0.391,1.023,0,1.414l3.381,3.381
	C33.784,30.738,30,34.936,30,40c0,5.514,4.486,10,10,10s10-4.486,10-10C50,34.936,46.216,30.738,41.326,30.088z M18,48H2V32h16V48z
	 M10,18c-4.411,0-8-3.589-8-8s3.589-8,8-8s8,3.589,8,8S14.411,18,10,18z M40,2.414L47.586,10L40,17.586L32.414,10L40,2.414z M40,48
	c-4.411,0-8-3.589-8-8s3.589-8,8-8s8,3.589,8,8S44.411,48,40,48z"/>
</svg>
