<?xml version="1.0" encoding="utf-8"?>
<!-- Generator: Adobe Illustrator 17.0.2, SVG Export Plug-In . SVG Version: 6.00 Build 0)  -->
<!DOCTYPE svg PUBLIC "-//W3C//DTD SVG 1.0//EN" "http://www.w3.org/TR/2001/REC-SVG-20010904/DTD/svg10.dtd">
<svg version="1.0" id="Layer_1" xmlns="http://www.w3.org/2000/svg" xmlns:xlink="http://www.w3.org/1999/xlink" x="0px" y="0px"
	 width="50px" height="50px" viewBox="0 0 50 50" style="enable-background:new 0 0 50 50;" xml:space="preserve">
<path d="M44,35H18v-2h26V9H18V7h26c1.103,0,2,0.897,2,2v24C46,34.103,45.103,35,44,35z M50,5v35c0,1.103-0.897,2-2,2H33v2h2.111
	C36.704,44,38,45.346,38,47v3H18v-3c0-1.654,1.296-3,2.889-3H23v-2h-5v-2h30V5H18V3h30C49.103,3,50,3.897,50,5z M35.111,46H20.889
	C20.399,46,20,46.448,20,47v1h16v-1C36,46.448,35.602,46,35.111,46z M31,42h-6v2h6V42z M8,41c-1.104,0-2,0.895-2,2s0.896,2,2,2
	c1.104,0,2-0.895,2-2C10,41.895,9.104,41,8,41z M16,5v43c0,1.103-0.897,2-2,2H2c-1.103,0-2-0.897-2-2V5c0-1.103,0.897-2,2-2h12
	C15.103,3,16,3.897,16,5z M14,5H2v43h11.999L14,5z M14.001,48C14,48,14,48,14.001,48L14,49L14.001,48z"/>
</svg>
