<?xml version="1.0" encoding="utf-8"?>
<!-- Generator: Adobe Illustrator 17.0.2, SVG Export Plug-In . SVG Version: 6.00 Build 0)  -->
<!DOCTYPE svg PUBLIC "-//W3C//DTD SVG 1.0//EN" "http://www.w3.org/TR/2001/REC-SVG-20010904/DTD/svg10.dtd">
<svg version="1.0" id="Layer_1" xmlns="http://www.w3.org/2000/svg" xmlns:xlink="http://www.w3.org/1999/xlink" x="0px" y="0px"
	 width="50px" height="50px" viewBox="0 0 50 50" style="enable-background:new 0 0 50 50;" xml:space="preserve">
<path d="M0,4v42h50V4H0z M48,44H2V6h46V44z M45,30.581c0-0.001,0-0.001,0-0.002V9H5v32h40V30.581z M43,11v18.123l-7.634-3.052
	c-0.264-0.105-0.562-0.093-0.818,0.034l-7.239,3.618l-9.494-13.305c-0.179-0.25-0.462-0.404-0.77-0.418
	c-0.311-0.01-0.604,0.115-0.804,0.348L7,27.13V11H43z M7,39v-8.797l9.929-11.582l9.248,12.96C26.37,31.852,26.677,32,26.992,32
	c0.15,0,0.304-0.034,0.446-0.105l7.603-3.8L43,31.277V39H7z M33,23c2.206,0,4-1.794,4-4s-1.794-4-4-4s-4,1.794-4,4S30.794,23,33,23z
	 M33,17c1.103,0,2,0.897,2,2s-0.897,2-2,2s-2-0.897-2-2S31.897,17,33,17z"/>
</svg>
